<svg width="326" height="35" viewBox="0 0 326 35" fill="none" xmlns="http://www.w3.org/2000/svg">
<path d="M322.903 6.76471V9.11765H325.256V13.8235H322.903V16.1765H320.55V18.5294H318.197V20.8824H320.55V23.2353H322.903V25.5882H325.256V32.6471H322.903V35H318.197V32.6471H315.844V30.2941H313.491V27.9412H311.138V32.6471H308.785V35H299.373V32.6471H297.021V12.5H302.5L299.373 13.8235H301.726V11.4706H304.079V9.11765L302.5 12.5V6.76471H308.785V9.11765H311.138V13.8235H313.491V11.4706H315.844V9.11765H318.197V6.76471H322.903Z" fill="#FF6900"/>
<path d="M291.173 6.76471V9.11765H293.526V11.4706H291.173V13.8235H279.408V16.1765H291.173V18.5294H293.526V20.8824H291.173V23.2353H279.408V25.5882H291.173V27.9412H293.526V32.6471H291.173V35H267.643V32.6471H265.291V12.5H271.274L267.643 13.8235H269.996V11.4706H272.349V9.11765L271.274 12.5V6.76471H291.173Z" fill="#FF6900"/>
<path d="M259.443 6.76471V9.11765H261.796V11.4706H259.443V13.8235H247.679V16.1765H259.443V18.5294H261.796V20.8824H259.443V23.2353H247.679V25.5882H259.443V27.9412H261.796V32.6471H259.443V35H235.914V32.6471H233.561V12H239L235.914 13.8235H238.267V11.4706H240.62V9.11765L239 12V6.76471H259.443Z" fill="#FF6900"/>
<path d="M227.702 2.05884V4.41178H230.055V32.6471H227.702V35H220.643V32.6471H218.29V30.2941H215.937V27.9412H213.584V30.2941H211.231V32.6471H208.878V35H197.114V32.6471H194.761V8H200L197.114 9.11766H199.467V6.76472H201.82V4.41178L200 8V2.05884H208.878V4.41178H211.231V18.5294H213.584V16.1765H215.937V18.5294H218.29V4.41178H220.643V2.05884H227.702Z" fill="#FF6900"/>
<path d="M157.184 9.11765H159.537V32.6471H157.184V35H152.478V32.6471H150.125V23.2353H145.419V32.6471H143.066V35H133.655V32.6471H131.302V12.5H137L133.655 13.8235H136.008V11.4706H138.361V9.11765L137 12.5V6.76471H143.066V9.11765H145.419V16.1765H150.125V9.11765H152.478V6.76471H157.184V9.11765Z" fill="#FF6900"/>
<path d="M125.454 6.76471V9.11765H127.807V11.4706H125.454V13.8235H113.689V25.5882H125.454V27.9412H127.807V32.6471H125.454V35H104.278V32.6471H101.925V30.2941H99.5718V12.5H101.925V13.8235H104.278V11.4706H106.631V9.11765H105.5V6.76471H125.454Z" fill="#FF6900"/>
<path d="M93.7246 6.76471V9.11765H96.0776V32.6471H93.7246V35H89.0188V32.6471H86.6658V23.2353H84.3129V20.8824H81.9599V32.6471H79.607V35H70.1952V32.6471H67.8423V12.5H73.5L70.1952 13.8235H72.5482V11.4706H74.9011V9.11765L73.5 12.5V6.76471H79.607V9.11765H81.9599V13.8235H84.3129V16.1765H86.6658V9.11765H89.0188V6.76471H93.7246Z" fill="#FF6900"/>
<path d="M61.9947 6.76471V9.11765H64.3476V30.2941H61.9947V32.6471H59.6417V35H40.8182V32.6471H38.4652V30.2941H36.1123V13H42L38.4652 13.8235H40.8182V11.4706H43.1711V9.11765L42 13V6.76471H47.877V9.11765H50.23V25.5882H54.9358V9.11765H57.2888V6.76471H61.9947Z" fill="#FF6900"/>
<path d="M30.2353 25.5883V27.9412H32.5882V32.6471H30.2353V35H4.35294V32.6471H2V7.5H7.5L4.35294 9.11766H6.70588V6.76472H9.05882V4.41178L7.5 7.5V2.05884H16.1176V4.41178H18.4706V25.5883H30.2353Z" fill="#FF6900"/>
<path d="M320.903 4.70587V7.05881H323.256V11.7647H320.903V14.1176H318.55V16.4706H316.197V18.8235H318.55V21.1765H320.903V23.5294H323.256V30.5882H320.903V32.9412H316.197V30.5882H313.844V28.2353H311.491V25.8823H309.138V30.5882H306.785V32.9412H297.373V30.5882H295.021V7.05881H297.373V11.7647H299.726V9.41175H302.079V7.05881H297.373V4.70587H306.785V7.05881H309.138V11.7647H311.491V9.41175H313.844V7.05881H316.197V4.70587H320.903Z" fill="white"/>
<path d="M289.173 4.70587V7.05881H291.526V9.41175H289.173V11.7647H277.408V14.1176H289.173V16.4706H291.526V18.8235H289.173V21.1765H277.408V23.5294H289.173V25.8823H291.526V30.5882H289.173V32.9412H265.643V30.5882H263.291V7.05881H265.643V11.7647H267.996V9.41175H270.349V7.05881H265.643V4.70587H289.173Z" fill="white"/>
<path d="M257.443 4.70587V7.05881H259.796V9.41175H257.443V11.7647H245.679V14.1176H257.443V16.4706H259.796V18.8235H257.443V21.1765H245.679V23.5294H257.443V25.8823H259.796V30.5882H257.443V32.9412H233.914V30.5882H231.561V7.05881H233.914V11.7647H236.267V9.41175H238.62V7.05881H233.914V4.70587H257.443Z" fill="white"/>
<path d="M225.702 0V2.35294H228.055V30.5882H225.702V32.9412H218.643V30.5882H216.29V28.2353H213.937V25.8824H211.584V28.2353H209.231V30.5882H206.878V32.9412H195.114V30.5882H192.761V2.35294H195.114V7.05882H197.467V4.70588H199.82V2.35294H195.114V0H206.878V2.35294H209.231V16.4706H211.584V14.1176H213.937V16.4706H216.29V2.35294H218.643V0H225.702Z" fill="white"/>
<path d="M155.184 7.05881H157.537V30.5882H155.184V32.9412H150.478V30.5882H148.125V21.1765H143.419V30.5882H141.066V32.9412H131.655V30.5882H129.302V7.05881H131.655V11.7647H134.008V9.41175H136.361V7.05881H131.655V4.70587H141.066V7.05881H143.419V14.1176H148.125V7.05881H150.478V4.70587H155.184V7.05881Z" fill="white"/>
<path d="M123.454 4.70587V7.05881H125.807V9.41175H123.454V11.7647H111.689V23.5294H123.454V25.8823H125.807V30.5882H123.454V32.9412H102.278V30.5882H99.9247V28.2353H97.5718V9.41175H99.9247V11.7647H102.278V9.41175H104.631V7.05881H102.278V4.70587H123.454Z" fill="white"/>
<path d="M91.7246 4.70587V7.05881H94.0776V30.5882H91.7246V32.9412H87.0188V30.5882H84.6658V21.1765H82.3129V18.8235H79.9599V30.5882H77.607V32.9412H68.1952V30.5882H65.8423V7.05881H68.1952V11.7647H70.5482V9.41175H72.9011V7.05881H68.1952V4.70587H77.607V7.05881H79.9599V11.7647H82.3129V14.1176H84.6658V7.05881H87.0188V4.70587H91.7246Z" fill="white"/>
<path d="M59.9947 4.70587V7.05881H62.3476V28.2353H59.9947V30.5882H57.6417V32.9412H38.8182V30.5882H36.4652V28.2353H34.1123V7.05881H36.4652V11.7647H38.8182V9.41175H41.1711V7.05881H36.4652V4.70587H45.877V7.05881H48.23V23.5294H52.9358V7.05881H55.2888V4.70587H59.9947Z" fill="white"/>
<path d="M28.2353 23.5294V25.8824H30.5882V30.5882H28.2353V32.9412H2.35294V30.5882H0V2.35294H2.35294V7.05882H4.70588V4.70588H7.05882V2.35294H2.35294V0H14.1176V2.35294H16.4706V23.5294H28.2353Z" fill="white"/>
</svg>
