<svg width="1440" height="2102" viewBox="0 0 1440 2102" fill="none" xmlns="http://www.w3.org/2000/svg">
<mask id="mask0_201_2" style="mask-type:alpha" maskUnits="userSpaceOnUse" x="-21" y="0" width="1481" height="2102">
<path fill-rule="evenodd" clip-rule="evenodd" d="M1459.53 49.5552C1459.53 22.1866 1437.34 0 1409.97 0V0C1382.6 0 1360.42 22.1866 1360.42 49.5552V558.055C1360.42 581.22 1341.64 600 1318.47 600V600C1295.3 600 1276.53 581.22 1276.53 558.055V335.165C1276.53 304.698 1251.83 280 1221.36 280V280C1190.89 280 1166.19 304.698 1166.19 335.165V372.497C1166.19 404.255 1140.45 430 1108.69 430V430C1076.93 430 1051.19 455.745 1051.19 487.503V609.795C1051.19 632 1033.19 650 1010.98 650V650C988.78 650 970.779 632 970.779 609.795V481.425C970.779 453.024 947.755 430 919.354 430V430C890.953 430 867.929 453.024 867.929 481.425L867.929 583.364C867.929 607.118 848.672 626.374 824.918 626.374V626.374C801.165 626.374 781.908 607.118 781.908 583.364V486.1C781.908 455.117 756.791 430 725.808 430H716.333C690.583 430 669.708 450.875 669.708 476.625V476.625C669.708 502.375 648.708 523.25 622.958 523.25V523.25C597.207 523.25 576.208 502.375 576.208 476.625V476.625C576.208 450.875 555.333 430 529.583 430H516.487C491.634 430 471.487 450.147 471.487 475V485.405C471.487 504.511 455.998 520 436.892 520V520C417.786 520 402.297 504.511 402.297 485.405V475C402.297 450.147 382.15 430 357.297 430H307.086C273.949 430 247.086 456.863 247.086 490V516.334C247.086 534.927 232.013 550 213.42 550V550C194.826 550 179.753 534.927 179.753 516.334V436.821C179.753 408.754 157 386 128.932 386H85.3779C81.3642 386 78.1104 382.746 78.1104 378.733V378.733C78.1104 374.719 74.8567 371.465 70.843 371.465H28.5552C1.18662 371.465 -21 393.652 -21 421.02V1428.95C-21 1456.32 1.18663 1478.51 28.5552 1478.51V1478.51C55.9238 1478.51 78.1104 1456.32 78.1104 1428.95V1369.56C78.1104 1343.29 99.4016 1322 125.666 1322V1322C151.93 1322 173.221 1343.29 173.221 1369.56V1513.99C173.221 1541.36 195.407 1563.54 222.776 1563.54V1563.54C250.145 1563.54 272.331 1541.36 272.331 1513.99V1341.63C272.331 1314.26 294.518 1292.07 321.886 1292.07V1292.07C349.255 1292.07 371.442 1314.26 371.442 1341.63V1964.11C371.442 1991.74 393.838 2014.14 421.464 2014.14V2014.14C449.091 2014.14 471.487 1991.74 471.487 1964.11V1543.59C471.487 1516.22 493.674 1494.03 521.042 1494.03V1494.03C548.411 1494.03 570.597 1516.22 570.597 1543.59V1906.12C570.597 1933.49 592.784 1955.68 620.153 1955.68V1955.68C647.521 1955.68 669.708 1933.49 669.708 1906.12V1667.01C669.708 1639.64 691.894 1617.45 719.263 1617.45V1617.45C746.632 1617.45 768.818 1639.64 768.818 1667.01V2052.26C768.818 2079.62 791.005 2101.81 818.373 2101.81V2101.81C845.742 2101.81 867.929 2079.62 867.929 2052.26L867.929 1500.58C867.929 1473.21 890.115 1451.02 917.484 1451.02V1451.02C944.852 1451.02 967.039 1473.21 967.039 1500.58V1966.95C967.039 1994.58 989.435 2016.98 1017.06 2016.98V2016.98C1044.69 2016.98 1067.08 1994.58 1067.08 1966.95V1395.86C1067.08 1368.49 1089.27 1346.3 1116.64 1346.3V1346.3C1144.01 1346.3 1166.19 1368.49 1166.19 1395.86V1692.79C1166.19 1723.26 1190.89 1747.96 1221.36 1747.96V1747.96C1251.83 1747.96 1276.53 1723.26 1276.53 1692.79V1475.97C1276.53 1452.8 1295.3 1434.02 1318.47 1434.02V1434.02C1341.64 1434.02 1360.42 1452.8 1360.42 1475.97V1545.56C1360.42 1572.93 1382.6 1595.12 1409.97 1595.12V1595.12C1437.34 1595.12 1459.53 1572.93 1459.53 1545.56V49.5552ZM272.331 1662.08C272.331 1634.72 250.145 1612.53 222.776 1612.53V1612.53C195.407 1612.53 173.221 1634.72 173.221 1662.08V1700.42C173.221 1727.79 195.407 1749.97 222.776 1749.97V1749.97C250.145 1749.97 272.331 1727.79 272.331 1700.42V1662.08Z" fill="#C4C4C4"/>
</mask>
<g mask="url(#mask0_201_2)">
<rect x="-658.247" y="788" width="2654" height="2092" fill="#FCFCFC"/>
</g>
</svg>
