<svg width="100" height="100" viewBox="0 0 100 100" fill="none" xmlns="http://www.w3.org/2000/svg">
<rect x="0.5" y="0.5" width="99" height="99" rx="49.5" fill="#F87216" fill-opacity="0.07"/>
<g clip-path="url(#clip0_190_2354)">
<path d="M50 41C48.343 41 47 39.657 47 38C47 36.343 48.343 35 50 35C51.657 35 53 36.343 53 38C53 39.657 51.657 41 50 41Z" fill="url(#paint0_linear_190_2354)"/>
<path d="M42 54V46C42 44.87 42.391 43.838 43.026 43H40C38.895 43 38 43.895 38 45V51H40V56C40 56.552 40.448 57 41 57H43C43.552 57 44 56.552 44 56V54H42Z" fill="url(#paint1_linear_190_2354)"/>
<path d="M52 59H48C47.448 59 47 58.552 47 58V52H44V46C44 44.343 45.343 43 47 43H53C54.657 43 56 44.343 56 46V52H53V58C53 58.552 52.552 59 52 59Z" fill="url(#paint2_linear_190_2354)"/>
<path d="M42 42C40.895 42 40 41.105 40 40C40 38.895 40.895 38 42 38C43.105 38 44 38.895 44 40C44 41.105 43.105 42 42 42Z" fill="url(#paint3_linear_190_2354)"/>
<path d="M58 54V46C58 44.87 57.609 43.838 56.974 43H60C61.105 43 62 43.895 62 45V51H60V56C60 56.552 59.552 57 59 57H57C56.448 57 56 56.552 56 56V54H58Z" fill="url(#paint4_linear_190_2354)"/>
<path d="M58 42C59.105 42 60 41.105 60 40C60 38.895 59.105 38 58 38C56.895 38 56 38.895 56 40C56 41.105 56.895 42 58 42Z" fill="url(#paint5_linear_190_2354)"/>
</g>
<rect x="0.5" y="0.5" width="99" height="99" rx="49.5" stroke="url(#paint6_linear_190_2354)"/>
<defs>
<linearGradient id="paint0_linear_190_2354" x1="47" y1="38" x2="53" y2="38" gradientUnits="userSpaceOnUse">
<stop stop-color="#FCB60A"/>
<stop offset="0.115" stop-color="#F69319"/>
<stop offset="0.305" stop-color="#EF6D2A"/>
<stop offset="0.727" stop-color="#ED5332"/>
<stop offset="1" stop-color="#ED6A32"/>
</linearGradient>
<linearGradient id="paint1_linear_190_2354" x1="38" y1="50" x2="44" y2="50" gradientUnits="userSpaceOnUse">
<stop stop-color="#FCB60A"/>
<stop offset="0.115" stop-color="#F69319"/>
<stop offset="0.305" stop-color="#EF6D2A"/>
<stop offset="0.727" stop-color="#ED5332"/>
<stop offset="1" stop-color="#ED6A32"/>
</linearGradient>
<linearGradient id="paint2_linear_190_2354" x1="44" y1="51" x2="56" y2="51" gradientUnits="userSpaceOnUse">
<stop stop-color="#FCB60A"/>
<stop offset="0.115" stop-color="#F69319"/>
<stop offset="0.305" stop-color="#EF6D2A"/>
<stop offset="0.727" stop-color="#ED5332"/>
<stop offset="1" stop-color="#ED6A32"/>
</linearGradient>
<linearGradient id="paint3_linear_190_2354" x1="40" y1="40" x2="44" y2="40" gradientUnits="userSpaceOnUse">
<stop stop-color="#FCB60A"/>
<stop offset="0.115" stop-color="#F69319"/>
<stop offset="0.305" stop-color="#EF6D2A"/>
<stop offset="0.727" stop-color="#ED5332"/>
<stop offset="1" stop-color="#ED6A32"/>
</linearGradient>
<linearGradient id="paint4_linear_190_2354" x1="56" y1="50" x2="62" y2="50" gradientUnits="userSpaceOnUse">
<stop stop-color="#FCB60A"/>
<stop offset="0.115" stop-color="#F69319"/>
<stop offset="0.305" stop-color="#EF6D2A"/>
<stop offset="0.727" stop-color="#ED5332"/>
<stop offset="1" stop-color="#ED6A32"/>
</linearGradient>
<linearGradient id="paint5_linear_190_2354" x1="56" y1="40" x2="60" y2="40" gradientUnits="userSpaceOnUse">
<stop stop-color="#FCB60A"/>
<stop offset="0.115" stop-color="#F69319"/>
<stop offset="0.305" stop-color="#EF6D2A"/>
<stop offset="0.727" stop-color="#ED5332"/>
<stop offset="1" stop-color="#ED6A32"/>
</linearGradient>
<linearGradient id="paint6_linear_190_2354" x1="6.66667" y1="-42.1053" x2="132.34" y2="-25.9971" gradientUnits="userSpaceOnUse">
<stop stop-color="#ED5432"/>
<stop offset="0.838459" stop-color="#EDA232"/>
<stop offset="1" stop-color="#ED5432" stop-opacity="0.89"/>
</linearGradient>
<clipPath id="clip0_190_2354">
<rect width="24" height="24" fill="white" transform="translate(38 35)"/>
</clipPath>
</defs>
</svg>
