<svg width="100" height="100" viewBox="0 0 100 100" fill="none" xmlns="http://www.w3.org/2000/svg">
<rect x="0.5" y="0.5" width="99" height="99" rx="49.5" fill="#F87216" fill-opacity="0.07"/>
<path d="M59.543 55.56L55.274 53C53.864 54.241 52.021 55 50 55C47.979 55 46.136 54.241 44.726 53L40.457 55.56C39.558 56.099 39 57.084 39 58.132V62H61V58.132C61 57.084 60.442 56.099 59.543 55.56Z" fill="url(#paint0_linear_190_2368)"/>
<path d="M50 53C46.686 53 44 50.314 44 47V44C44 40.686 46.686 38 50 38C53.314 38 56 40.686 56 44V47C56 50.314 53.314 53 50 53Z" fill="url(#paint1_linear_190_2368)"/>
<rect x="0.5" y="0.5" width="99" height="99" rx="49.5" stroke="url(#paint2_linear_190_2368)"/>
<defs>
<linearGradient id="paint0_linear_190_2368" x1="39" y1="57.5" x2="61" y2="57.5" gradientUnits="userSpaceOnUse">
<stop stop-color="#FCB60A"/>
<stop offset="0.115" stop-color="#F69319"/>
<stop offset="0.305" stop-color="#EF6D2A"/>
<stop offset="0.727" stop-color="#ED5332"/>
<stop offset="1" stop-color="#ED6A32"/>
</linearGradient>
<linearGradient id="paint1_linear_190_2368" x1="44" y1="45.5" x2="56" y2="45.5" gradientUnits="userSpaceOnUse">
<stop stop-color="#FCB60A"/>
<stop offset="0.115" stop-color="#F69319"/>
<stop offset="0.305" stop-color="#EF6D2A"/>
<stop offset="0.727" stop-color="#ED5332"/>
<stop offset="1" stop-color="#ED6A32"/>
</linearGradient>
<linearGradient id="paint2_linear_190_2368" x1="6.66667" y1="-42.1053" x2="132.34" y2="-25.9971" gradientUnits="userSpaceOnUse">
<stop stop-color="#ED5432"/>
<stop offset="0.838459" stop-color="#EDA232"/>
<stop offset="1" stop-color="#ED5432" stop-opacity="0.89"/>
</linearGradient>
</defs>
</svg>
