<svg width="56" height="56" viewBox="0 0 56 56" fill="none" xmlns="http://www.w3.org/2000/svg">
<g clip-path="url(#clip0_4_4506)">
<path d="M35.5 25.264L30.5 20.4785V23.3498C27.344 23.3498 23.5 25.1243 23.5 30.0495C25.059 27.6348 28 27.1782 30.5 27.1782V30.0495L35.5 25.264Z" stroke="#FFF9ED" stroke-linecap="round" stroke-linejoin="round"/>
<path d="M35.5 30.0496V33.3995C35.5 33.7802 35.342 34.1454 35.0607 34.4146C34.7794 34.6839 34.3978 34.8351 34 34.8351H22C21.6022 34.8351 21.2206 34.6839 20.9393 34.4146C20.658 34.1454 20.5 33.7802 20.5 33.3995V23.8285C20.5 23.4477 20.658 23.0826 20.9393 22.8133C21.2206 22.5441 21.6022 22.3928 22 22.3928H23.5" stroke="#FFF9ED" stroke-linecap="round" stroke-linejoin="round"/>
</g>
<g filter="url(#filter0_d_4_4506)">
<circle cx="28" cy="28" r="16" fill="url(#paint0_linear_4_4506)"/>
</g>
<g filter="url(#filter1_d_4_4506)">
<circle cx="28" cy="28" r="16" fill="url(#paint1_linear_4_4506)"/>
</g>
<g clip-path="url(#clip1_4_4506)">
<path d="M35.5 25.264L30.5 20.4785V23.3498C27.344 23.3498 23.5 25.1243 23.5 30.0495C25.059 27.6348 28 27.1782 30.5 27.1782V30.0495L35.5 25.264Z" stroke="#FFF9ED" stroke-linecap="round" stroke-linejoin="round"/>
<path d="M35.5 30.0496V33.3995C35.5 33.7802 35.342 34.1454 35.0607 34.4146C34.7794 34.6839 34.3978 34.8351 34 34.8351H22C21.6022 34.8351 21.2206 34.6839 20.9393 34.4146C20.658 34.1454 20.5 33.7802 20.5 33.3995V23.8285C20.5 23.4477 20.658 23.0826 20.9393 22.8133C21.2206 22.5441 21.6022 22.3928 22 22.3928H23.5" stroke="#FFF9ED" stroke-linecap="round" stroke-linejoin="round"/>
</g>
<defs>
<filter id="filter0_d_4_4506" x="0" y="0" width="56" height="56" filterUnits="userSpaceOnUse" color-interpolation-filters="sRGB">
<feFlood flood-opacity="0" result="BackgroundImageFix"/>
<feColorMatrix in="SourceAlpha" type="matrix" values="0 0 0 0 0 0 0 0 0 0 0 0 0 0 0 0 0 0 127 0" result="hardAlpha"/>
<feOffset/>
<feGaussianBlur stdDeviation="6"/>
<feComposite in2="hardAlpha" operator="out"/>
<feColorMatrix type="matrix" values="0 0 0 0 0.929412 0 0 0 0 0.564706 0 0 0 0 0.2 0 0 0 1 0"/>
<feBlend mode="normal" in2="BackgroundImageFix" result="effect1_dropShadow_4_4506"/>
<feBlend mode="normal" in="SourceGraphic" in2="effect1_dropShadow_4_4506" result="shape"/>
</filter>
<filter id="filter1_d_4_4506" x="0" y="0" width="56" height="56" filterUnits="userSpaceOnUse" color-interpolation-filters="sRGB">
<feFlood flood-opacity="0" result="BackgroundImageFix"/>
<feColorMatrix in="SourceAlpha" type="matrix" values="0 0 0 0 0 0 0 0 0 0 0 0 0 0 0 0 0 0 127 0" result="hardAlpha"/>
<feOffset/>
<feGaussianBlur stdDeviation="6"/>
<feComposite in2="hardAlpha" operator="out"/>
<feColorMatrix type="matrix" values="0 0 0 0 0.929412 0 0 0 0 0.564706 0 0 0 0 0.2 0 0 0 1 0"/>
<feBlend mode="normal" in2="BackgroundImageFix" result="effect1_dropShadow_4_4506"/>
<feBlend mode="normal" in="SourceGraphic" in2="effect1_dropShadow_4_4506" result="shape"/>
</filter>
<linearGradient id="paint0_linear_4_4506" x1="12" y1="28.0001" x2="44" y2="28.0001" gradientUnits="userSpaceOnUse">
<stop stop-color="#FCB60A"/>
<stop offset="0.115" stop-color="#F69319"/>
<stop offset="0.305" stop-color="#EF6D2A"/>
<stop offset="0.727" stop-color="#ED5332"/>
<stop offset="1" stop-color="#ED6A32"/>
</linearGradient>
<linearGradient id="paint1_linear_4_4506" x1="12" y1="28.0001" x2="44" y2="28.0001" gradientUnits="userSpaceOnUse">
<stop stop-color="#FCB60A"/>
<stop offset="0.115" stop-color="#F69319"/>
<stop offset="0.305" stop-color="#EF6D2A"/>
<stop offset="0.727" stop-color="#ED5332"/>
<stop offset="1" stop-color="#ED6A32"/>
</linearGradient>
<clipPath id="clip0_4_4506">
<rect width="16" height="15.3136" fill="white" transform="translate(20 20)"/>
</clipPath>
<clipPath id="clip1_4_4506">
<rect width="16" height="15.3136" fill="white" transform="translate(20 20)"/>
</clipPath>
</defs>
</svg>
