<svg width="634" height="869" viewBox="0 0 634 869" fill="none" xmlns="http://www.w3.org/2000/svg">
<path d="M292.432 48.0441C321.938 79.3295 382.392 150.485 498.44 309.675L599.123 456.238L597.825 456.99C597.826 456.991 597.826 456.992 597.827 456.993C607.567 473.807 616.333 491.164 624.082 508.98C626.014 513.579 627.803 518.191 629.481 522.872C633.331 534.005 632.847 546.16 628.131 556.889L628.125 556.905L628.118 556.92C622.833 569.723 615.553 581.589 606.55 592.082C566.409 637.411 488.969 691.526 416.838 736.841C344.753 782.126 278.16 818.509 259.865 828.372C256.904 829.968 253.959 831.441 250.905 832.846C248.631 833.89 246.052 835.088 243.239 836.394C233.377 840.973 220.642 846.887 208.091 852.243C200.028 855.685 192.064 858.886 185.009 861.349C177.927 863.822 171.861 865.514 167.559 865.991C152.867 867.623 137.751 865.723 125.031 858.496C121.03 856.223 117.243 853.548 113.734 850.5C107.486 844.421 102.331 837.305 98.4957 829.47C90.5175 813.098 84.35 795.914 80.1009 778.23L78.6424 778.581L80.1008 778.23C79.0787 773.977 78.2796 769.674 77.5166 765.326L77.0809 762.844C70.8927 727.6 47.3235 593.368 28.2798 453.63C18.5168 381.992 9.94621 308.928 5.51538 247.023C3.29991 216.069 2.12083 187.924 2.34283 164.152C2.56511 140.355 4.19157 121.034 7.54717 107.681L7.54725 107.681C7.63144 107.346 7.74634 106.856 7.89076 106.24C8.91788 101.858 11.4389 91.1043 15.0358 84.3231C23.5393 68.2937 32.9057 57.979 46.8081 46.183L47.272 45.895L47.3931 45.8199L47.4979 45.7232L49.5262 43.8528C64.9836 31.332 83.3258 22.8812 102.904 19.2643C116.496 16.8407 133.551 13.6412 149.101 10.7239C168.671 7.05242 185.859 3.82797 190.763 3.16L190.776 3.15807C206.508 0.87179 222.595 3.05007 237.215 9.44922L237.219 9.45092C238.79 10.1334 240.358 10.8285 241.918 11.5356L242.533 10.1789L241.919 11.5358C261.018 20.1816 278.015 32.7556 292.432 48.0441Z" stroke="url(#paint0_linear_1_2116)" stroke-width="3"/>
<defs>
<linearGradient id="paint0_linear_1_2116" x1="-38.2736" y1="44.0542" x2="685.79" y2="594.639" gradientUnits="userSpaceOnUse">
<stop stop-color="#F87216"/>
<stop offset="1" stop-color="#F87216" stop-opacity="0.07"/>
</linearGradient>
</defs>
</svg>
