<svg width="785" height="743" viewBox="0 0 785 743" fill="none" xmlns="http://www.w3.org/2000/svg">
<path d="M587.471 739.715C544.877 733.788 453.19 716.142 263.042 664.645L92.7785 613.378L93.32 611.979C93.3191 611.978 93.3184 611.978 93.3176 611.978C75.1958 604.963 57.4944 596.914 40.299 587.872C35.9136 585.495 31.631 583.018 27.3927 580.418C17.4207 574.146 10.1899 564.365 7.15065 553.046L7.14624 553.029L7.14154 553.013C3.24912 539.721 1.49744 525.91 1.94992 512.091C4.87804 451.615 31.3929 360.937 59.2764 280.446C87.1417 200.007 116.299 129.948 124.391 110.804C125.701 107.705 127.076 104.714 128.578 101.707C129.697 99.4683 130.959 96.9197 132.335 94.1401C137.159 84.3958 143.389 71.8121 149.823 59.7783C153.956 52.0475 158.163 44.565 162.123 38.2283C166.098 31.8669 169.769 26.7499 172.825 23.6844C183.261 13.2151 196.239 5.23429 210.682 2.90781C215.225 2.17578 219.853 1.89096 224.496 2.07143C233.174 2.90133 241.649 5.22342 249.545 8.93207C266.015 16.7055 281.582 26.2452 295.965 37.3755L296.883 36.1892L295.965 37.3756C299.424 40.0523 302.741 42.9077 306.059 45.8214L307.952 47.4842C334.84 71.0943 437.248 161.019 539.573 258.07C592.031 307.824 644.452 359.436 686.659 404.938C707.764 427.69 726.302 448.9 741.01 467.577C755.733 486.274 766.56 502.36 772.301 514.873L772.301 514.873C772.446 515.187 772.663 515.641 772.936 516.212C774.878 520.272 779.643 530.236 781.083 537.776C784.486 555.6 783.639 569.507 780.182 587.408L780 587.923L779.953 588.058L779.932 588.199L779.521 590.927C775.304 610.367 766.291 628.439 753.287 643.516C744.204 653.914 732.908 667.085 722.608 679.094C709.644 694.209 698.26 707.482 694.853 711.073L694.844 711.083C684.007 722.714 670.099 731.085 654.692 735.247L654.687 735.248C653.035 735.7 651.377 736.139 649.718 736.564L650.088 738.007L649.717 736.564C629.411 741.778 608.285 742.612 587.471 739.715Z" stroke="url(#paint0_linear_1_2118)" stroke-width="3"/>
<defs>
<linearGradient id="paint0_linear_1_2118" x1="847.864" y1="535.808" x2="-61.4436" y2="559.701" gradientUnits="userSpaceOnUse">
<stop stop-color="#F87216"/>
<stop offset="1" stop-color="#F87216" stop-opacity="0.07"/>
</linearGradient>
</defs>
</svg>
