<svg width="2626" height="912" viewBox="0 0 2626 912" fill="none" xmlns="http://www.w3.org/2000/svg">
<g clip-path="url(#clip0_6_1407)">
<rect width="2626" height="928" transform="translate(0 -4)" fill="white"/>
<mask id="mask0_6_1407" style="mask-type:alpha" maskUnits="userSpaceOnUse" x="1280" y="-117" width="1346" height="1016">
<path fill-rule="evenodd" clip-rule="evenodd" d="M1729.65 -102C1729.65 -110.284 1722.94 -117 1714.65 -117H1683.69C1678.17 -117 1673.69 -112.523 1673.69 -107V-107C1673.69 -101.477 1669.22 -97 1663.69 -97H1645.85C1630.47 -97 1618 -84.5323 1618 -69.1527V-57C1618 -40.9837 1605.02 -28 1589 -28H1571.5C1565.15 -28 1560 -22.8513 1560 -16.5V-16.5C1560 -10.1487 1554.85 -5 1548.5 -5H1533C1518.09 -5 1506 -17.0883 1506 -32V-58C1506 -74.0163 1493.02 -87 1477 -87H1473C1459.19 -87 1448 -75.8071 1448 -62V-62C1448 -48.1929 1436.81 -37 1423 -37H1419C1405.19 -37 1394 -48.1929 1394 -62V-62C1394 -75.8071 1382.81 -87 1369 -87H1336V-87C1305.07 -87 1280 -61.9279 1280 -31V9C1280 24.464 1292.54 37 1308 37V37C1323.46 37 1336 49.536 1336 65V462C1336 478.016 1348.98 491 1365 491V491C1381.02 491 1394 478.016 1394 462V342C1394 327.088 1406.09 315 1421 315V315C1435.91 315 1448 327.088 1448 342V603C1448 619.016 1460.98 632 1477 632V632C1493.02 632 1506 619.016 1506 603V313C1506 298.088 1518.09 286 1533 286V286C1547.91 286 1560 298.088 1560 313V808C1560 824.016 1572.98 837 1589 837V837C1605.02 837 1618 824.016 1618 808V416.847C1618 401.468 1630.47 389 1645.85 389V389C1661.23 389 1673.69 401.468 1673.69 416.847V738.824C1673.69 754.276 1686.22 766.802 1701.67 766.802V766.802C1717.12 766.802 1729.65 754.276 1729.65 738.824V528.226C1729.65 512.774 1742.18 500.248 1757.63 500.248V500.248C1773.08 500.248 1785.61 512.774 1785.61 528.226V769.422C1785.61 784.874 1798.13 797.4 1813.59 797.4V797.4C1829.04 797.4 1841.56 784.874 1841.56 769.422L1841.56 382.88C1841.56 367.428 1854.09 354.901 1869.54 354.901V354.901C1884.99 354.901 1897.52 367.427 1897.52 382.879L1897.52 871.022C1897.52 886.474 1910.05 899 1925.5 899V899C1940.95 899 1953.48 886.474 1953.48 871.022L1953.48 433.282C1953.48 417.83 1966 405.304 1981.46 405.304V405.304C1996.91 405.304 2009.43 417.83 2009.43 433.282L2009.43 729.118C2009.43 744.57 2021.96 757.096 2037.41 757.096V757.096C2052.86 757.096 2065.39 744.57 2065.39 729.118L2065.39 318.558C2065.39 303.106 2077.92 290.58 2093.37 290.58V290.58C2108.82 290.58 2121.35 303.106 2121.35 318.558L2121.35 632.855C2121.35 648.307 2133.87 660.833 2149.33 660.833V660.833C2164.78 660.833 2177.3 648.307 2177.3 632.855L2177.3 285.738C2177.3 270.286 2189.83 257.759 2205.28 257.759V257.759C2220.73 257.759 2233.26 270.286 2233.26 285.738V346.923C2233.26 362.375 2245.79 374.901 2261.24 374.901V374.901C2276.69 374.901 2289.22 362.375 2289.22 346.923V132.039C2289.22 116.587 2301.74 104.061 2317.2 104.061V104.061C2332.65 104.061 2345.17 116.587 2345.17 132.039L2345.17 168.682C2345.17 184.134 2357.7 196.661 2373.15 196.661V196.661C2388.6 196.661 2401.13 184.134 2401.13 168.682L2401.13 92.1859C2401.13 76.7339 2413.66 64.2076 2429.11 64.2076V64.2076C2444.56 64.2076 2457.09 76.7339 2457.09 92.1859V114.764C2457.09 130.216 2469.61 142.742 2485.07 142.742V142.742C2500.52 142.742 2513.04 130.215 2513.04 114.764V57.4783C2513.04 26.2862 2538.33 1 2569.52 1H2583.5C2606.97 1 2626 -18.0279 2626 -41.5V-41.5C2626 -64.9721 2606.97 -84 2583.5 -84H2533.94C2521.82 -84 2512 -74.1758 2512 -62.057V-62.057C2512 -49.9381 2502.18 -40.1139 2490.06 -40.1139H2462.95C2459.71 -40.1139 2457.09 -42.7379 2457.09 -45.9747V-45.9747C2457.09 -49.2115 2454.46 -51.8355 2451.23 -51.8355H2406.99C2403.75 -51.8355 2401.13 -54.4594 2401.13 -57.6962V-57.6962C2401.13 -60.933 2398.51 -63.557 2395.27 -63.557H2345.17H2290.94C2289.99 -63.557 2289.22 -64.3277 2289.22 -65.2785V-65.2785C2289.22 -66.2293 2288.45 -67 2287.5 -67H2243.26C2237.74 -67 2233.26 -62.5228 2233.26 -57V-57C2233.26 -51.4772 2228.78 -47 2223.26 -47H2197.3C2186.26 -47 2177.3 -55.9543 2177.3 -67V-67C2177.3 -78.0457 2168.35 -87 2157.3 -87H2141.35C2130.3 -87 2121.35 -78.0457 2121.35 -67V-67C2121.35 -55.9543 2112.39 -47 2101.35 -47H2065.39H2029.43C2018.39 -47 2009.43 -55.9543 2009.43 -67V-67C2009.43 -78.0457 2000.48 -87 1989.43 -87H1981.46C1966 -87 1953.48 -74.4737 1953.48 -59.0217L1953.48 -54.9783C1953.48 -39.5263 1940.95 -27 1925.5 -27V-27C1910.05 -27 1897.52 -39.5263 1897.52 -54.9783L1897.52 -59.0217C1897.52 -74.4737 1884.99 -87 1869.54 -87H1867.06C1852.98 -87 1841.56 -75.5833 1841.56 -61.5V-61.5C1841.56 -47.4167 1830.15 -36 1816.06 -36H1811.11C1797.02 -36 1785.61 -47.4167 1785.61 -61.5V-61.5C1785.61 -75.5833 1774.19 -87 1760.11 -87H1744.65C1736.37 -87 1729.65 -93.7157 1729.65 -102V-102ZM2233.26 414.601C2233.26 399.149 2245.79 386.623 2261.24 386.623V386.623C2276.69 386.623 2289.22 399.149 2289.22 414.601V467.655C2289.22 483.107 2276.69 495.633 2261.24 495.633V495.633C2245.79 495.633 2233.26 483.107 2233.26 467.655V414.601ZM2065.39 797.968C2065.39 782.516 2052.86 769.99 2037.41 769.99V769.99C2021.96 769.99 2009.43 782.516 2009.43 797.968V808.824C2009.43 824.276 2021.96 836.803 2037.41 836.803V836.803C2052.86 836.803 2065.39 824.276 2065.39 808.824V797.968ZM1449.87 678.153C1449.87 662.701 1462.39 650.175 1477.85 650.175V650.175C1493.3 650.175 1505.82 662.701 1505.82 678.153V706.591C1505.82 722.043 1493.3 734.57 1477.85 734.57V734.57C1462.39 734.57 1449.87 722.043 1449.87 706.591V678.153Z" fill="#C4C4C4"/>
</mask>
<g mask="url(#mask0_6_1407)">
<rect width="1493.84" height="1487.46" transform="matrix(-1 0 0 1 2757.85 -4.94922)" fill="url(#paint0_linear_6_1407)"/>
</g>
<mask id="mask1_6_1407" style="mask-type:alpha" maskUnits="userSpaceOnUse" x="0" y="-117" width="1346" height="1016">
<path fill-rule="evenodd" clip-rule="evenodd" d="M896.349 -102C896.349 -110.284 903.065 -117 911.349 -117H942.305C947.828 -117 952.305 -112.523 952.305 -107V-107C952.305 -101.477 956.783 -97 962.305 -97H980.153C995.532 -97 1008 -84.5323 1008 -69.1527V-57C1008 -40.9837 1020.98 -28 1037 -28H1054.5C1060.85 -28 1066 -22.8513 1066 -16.5V-16.5C1066 -10.1487 1071.15 -5 1077.5 -5H1093C1107.91 -5 1120 -17.0883 1120 -32V-58C1120 -74.0163 1132.98 -87 1149 -87H1153C1166.81 -87 1178 -75.8071 1178 -62V-62C1178 -48.1929 1189.19 -37 1203 -37H1207C1220.81 -37 1232 -48.1929 1232 -62V-62C1232 -75.8071 1243.19 -87 1257 -87H1290V-87C1320.93 -87 1346 -61.9279 1346 -31V9C1346 24.464 1333.46 37 1318 37V37C1302.54 37 1290 49.536 1290 65V462C1290 478.016 1277.02 491 1261 491V491C1244.98 491 1232 478.016 1232 462V342C1232 327.088 1219.91 315 1205 315V315C1190.09 315 1178 327.088 1178 342V603C1178 619.016 1165.02 632 1149 632V632C1132.98 632 1120 619.016 1120 603V313C1120 298.088 1107.91 286 1093 286V286C1078.09 286 1066 298.088 1066 313V808C1066 824.016 1053.02 837 1037 837V837C1020.98 837 1008 824.016 1008 808V416.847C1008 401.468 995.532 389 980.153 389V389C964.773 389 952.305 401.468 952.305 416.847V738.824C952.305 754.276 939.779 766.802 924.327 766.802V766.802C908.875 766.802 896.349 754.276 896.349 738.824V528.226C896.349 512.774 883.823 500.248 868.371 500.248V500.248C852.919 500.248 840.392 512.774 840.392 528.226V769.422C840.392 784.874 827.866 797.4 812.414 797.4V797.4C796.962 797.4 784.436 784.874 784.436 769.422L784.436 382.88C784.436 367.428 771.909 354.901 756.457 354.901V354.901C741.005 354.901 728.479 367.427 728.479 382.879L728.479 871.022C728.479 886.474 715.953 899 700.501 899V899C685.049 899 672.522 886.474 672.522 871.022L672.523 433.282C672.523 417.83 659.996 405.304 644.544 405.304V405.304C629.092 405.304 616.566 417.83 616.566 433.282L616.566 729.118C616.566 744.57 604.04 757.096 588.588 757.096V757.096C573.136 757.096 560.609 744.57 560.609 729.118L560.609 318.558C560.609 303.106 548.083 290.58 532.631 290.58V290.58C517.179 290.58 504.653 303.106 504.653 318.558L504.653 632.855C504.653 648.307 492.126 660.833 476.674 660.833V660.833C461.222 660.833 448.696 648.307 448.696 632.855L448.696 285.738C448.696 270.286 436.17 257.759 420.718 257.759V257.759C405.266 257.759 392.74 270.286 392.74 285.738V346.923C392.74 362.375 380.213 374.901 364.761 374.901V374.901C349.309 374.901 336.783 362.375 336.783 346.923V132.039C336.783 116.587 324.257 104.061 308.805 104.061V104.061C293.353 104.061 280.826 116.587 280.826 132.039L280.826 168.682C280.826 184.134 268.3 196.661 252.848 196.661V196.661C237.396 196.661 224.87 184.134 224.87 168.682L224.87 92.1859C224.87 76.7339 212.343 64.2076 196.891 64.2076V64.2076C181.439 64.2076 168.913 76.7339 168.913 92.1859V114.764C168.913 130.216 156.387 142.742 140.935 142.742V142.742C125.483 142.742 112.957 130.215 112.957 114.764V57.4783C112.957 26.2862 87.6704 1 56.4783 1H42.5C19.0279 1 0 -18.0279 0 -41.5V-41.5C0 -64.9721 19.0279 -84 42.5 -84H92.0569C104.176 -84 114 -74.1758 114 -62.057V-62.057C114 -49.9381 123.824 -40.1139 135.943 -40.1139H163.052C166.289 -40.1139 168.913 -42.7379 168.913 -45.9747V-45.9747C168.913 -49.2115 171.537 -51.8355 174.774 -51.8355H219.009C222.246 -51.8355 224.87 -54.4594 224.87 -57.6962V-57.6962C224.87 -60.933 227.494 -63.557 230.731 -63.557H280.826H335.061C336.012 -63.557 336.783 -64.3277 336.783 -65.2785V-65.2785C336.783 -66.2293 337.554 -67 338.504 -67H382.74C388.262 -67 392.74 -62.5228 392.74 -57V-57C392.74 -51.4772 397.217 -47 402.74 -47H428.696C439.742 -47 448.696 -55.9543 448.696 -67V-67C448.696 -78.0457 457.65 -87 468.696 -87H484.653C495.698 -87 504.653 -78.0457 504.653 -67V-67C504.653 -55.9543 513.607 -47 524.653 -47H560.609H596.566C607.612 -47 616.566 -55.9543 616.566 -67V-67C616.566 -78.0457 625.52 -87 636.566 -87H644.544C659.996 -87 672.523 -74.4737 672.522 -59.0217L672.522 -54.9783C672.522 -39.5263 685.049 -27 700.501 -27V-27C715.953 -27 728.479 -39.5263 728.479 -54.9783L728.479 -59.0217C728.479 -74.4737 741.005 -87 756.457 -87H758.936C773.019 -87 784.436 -75.5833 784.436 -61.5V-61.5C784.436 -47.4167 795.852 -36 809.936 -36H814.892C828.976 -36 840.392 -47.4167 840.392 -61.5V-61.5C840.392 -75.5833 851.809 -87 865.892 -87H881.349C889.633 -87 896.349 -93.7157 896.349 -102V-102ZM392.74 414.601C392.74 399.149 380.213 386.623 364.761 386.623V386.623C349.309 386.623 336.783 399.149 336.783 414.601V467.655C336.783 483.107 349.309 495.633 364.761 495.633V495.633C380.213 495.633 392.74 483.107 392.74 467.655V414.601ZM560.609 797.968C560.609 782.516 573.136 769.99 588.588 769.99V769.99C604.04 769.99 616.566 782.516 616.566 797.968V808.824C616.566 824.276 604.04 836.803 588.588 836.803V836.803C573.136 836.803 560.609 824.276 560.609 808.824V797.968ZM1176.13 678.153C1176.13 662.701 1163.61 650.175 1148.15 650.175V650.175C1132.7 650.175 1120.18 662.701 1120.18 678.153V706.591C1120.18 722.043 1132.7 734.57 1148.15 734.57V734.57C1163.61 734.57 1176.13 722.043 1176.13 706.591V678.153Z" fill="#C4C4C4"/>
</mask>
<g mask="url(#mask1_6_1407)">
<rect x="-131.854" y="-4.94922" width="1493.84" height="1487.46" fill="url(#paint1_linear_6_1407)"/>
</g>
</g>
<defs>
<linearGradient id="paint0_linear_6_1407" x1="441.657" y1="413.77" x2="1434.54" y2="290.408" gradientUnits="userSpaceOnUse">
<stop stop-color="#FFC328"/>
<stop offset="0.0625" stop-color="#F6D009"/>
<stop offset="0.151042" stop-color="#F3AD16"/>
<stop offset="0.234375" stop-color="#F1951E"/>
<stop offset="0.40625" stop-color="#FF5F00"/>
<stop offset="0.609375" stop-color="#F08523"/>
<stop offset="0.84375" stop-color="#FFBF30"/>
<stop offset="0.921875" stop-color="#F29D1B"/>
<stop offset="0.989583" stop-color="#ED5F32"/>
</linearGradient>
<linearGradient id="paint1_linear_6_1407" x1="309.804" y1="408.82" x2="1302.68" y2="285.459" gradientUnits="userSpaceOnUse">
<stop stop-color="#FFC328"/>
<stop offset="0.0625" stop-color="#F6D009"/>
<stop offset="0.151042" stop-color="#F3AD16"/>
<stop offset="0.234375" stop-color="#F1951E"/>
<stop offset="0.40625" stop-color="#FF5F00"/>
<stop offset="0.609375" stop-color="#F08523"/>
<stop offset="0.84375" stop-color="#FFBF30"/>
<stop offset="0.921875" stop-color="#F29D1B"/>
<stop offset="0.989583" stop-color="#ED5F32"/>
</linearGradient>
<clipPath id="clip0_6_1407">
<rect width="2626" height="928" fill="white" transform="translate(0 -4)"/>
</clipPath>
</defs>
</svg>
