<svg width="1346" height="1016" viewBox="0 0 1346 1016" fill="none" xmlns="http://www.w3.org/2000/svg">
<mask id="mask0_6_1243" style="mask-type:alpha" maskUnits="userSpaceOnUse" x="0" y="0" width="1346" height="1016">
<path fill-rule="evenodd" clip-rule="evenodd" d="M896.349 15C896.349 6.71573 903.065 0 911.349 0H942.305C947.828 0 952.305 4.47715 952.305 10V10C952.305 15.5228 956.783 20 962.305 20H980.153C995.532 20 1008 32.4677 1008 47.8473V60C1008 76.0163 1020.98 89 1037 89H1054.5C1060.85 89 1066 94.1487 1066 100.5V100.5C1066 106.851 1071.15 112 1077.5 112H1093C1107.91 112 1120 99.9117 1120 85V59C1120 42.9837 1132.98 30 1149 30H1153C1166.81 30 1178 41.1929 1178 55V55C1178 68.8071 1189.19 80 1203 80H1207C1220.81 80 1232 68.8071 1232 55V55C1232 41.1929 1243.19 30 1257 30H1290V30C1320.93 30 1346 55.0721 1346 86V126C1346 141.464 1333.46 154 1318 154V154C1302.54 154 1290 166.536 1290 182V579C1290 595.016 1277.02 608 1261 608V608C1244.98 608 1232 595.016 1232 579V459C1232 444.088 1219.91 432 1205 432V432C1190.09 432 1178 444.088 1178 459V720C1178 736.016 1165.02 749 1149 749V749C1132.98 749 1120 736.016 1120 720V430C1120 415.088 1107.91 403 1093 403V403C1078.09 403 1066 415.088 1066 430V925C1066 941.016 1053.02 954 1037 954V954C1020.98 954 1008 941.016 1008 925V533.847C1008 518.468 995.532 506 980.153 506V506C964.773 506 952.305 518.468 952.305 533.847V855.824C952.305 871.276 939.779 883.802 924.327 883.802V883.802C908.875 883.802 896.349 871.276 896.349 855.824V645.226C896.349 629.774 883.823 617.248 868.371 617.248V617.248C852.919 617.248 840.392 629.774 840.392 645.226V886.422C840.392 901.874 827.866 914.4 812.414 914.4V914.4C796.962 914.4 784.436 901.874 784.436 886.422L784.436 499.88C784.436 484.428 771.909 471.901 756.457 471.901V471.901C741.005 471.901 728.479 484.427 728.479 499.879L728.479 988.022C728.479 1003.47 715.953 1016 700.501 1016V1016C685.049 1016 672.522 1003.47 672.522 988.022L672.523 550.282C672.523 534.83 659.996 522.304 644.544 522.304V522.304C629.092 522.304 616.566 534.83 616.566 550.282L616.566 846.118C616.566 861.57 604.04 874.096 588.588 874.096V874.096C573.136 874.096 560.609 861.57 560.609 846.118L560.609 435.558C560.609 420.106 548.083 407.58 532.631 407.58V407.58C517.179 407.58 504.653 420.106 504.653 435.558L504.653 749.855C504.653 765.307 492.126 777.833 476.674 777.833V777.833C461.222 777.833 448.696 765.307 448.696 749.855L448.696 402.738C448.696 387.286 436.17 374.759 420.718 374.759V374.759C405.266 374.759 392.74 387.286 392.74 402.738V463.923C392.74 479.375 380.213 491.901 364.761 491.901V491.901C349.309 491.901 336.783 479.375 336.783 463.923V249.039C336.783 233.587 324.257 221.061 308.805 221.061V221.061C293.353 221.061 280.826 233.587 280.826 249.039L280.826 285.682C280.826 301.134 268.3 313.661 252.848 313.661V313.661C237.396 313.661 224.87 301.134 224.87 285.682L224.87 209.186C224.87 193.734 212.343 181.208 196.891 181.208V181.208C181.439 181.208 168.913 193.734 168.913 209.186V231.764C168.913 247.216 156.387 259.742 140.935 259.742V259.742C125.483 259.742 112.957 247.215 112.957 231.764V174.478C112.957 143.286 87.6704 118 56.4783 118H42.5C19.0279 118 0 98.9721 0 75.5V75.5C0 52.0279 19.0279 33 42.5 33H92.0569C104.176 33 114 42.8242 114 54.943V54.943C114 67.0619 123.824 76.8861 135.943 76.8861H163.052C166.289 76.8861 168.913 74.2621 168.913 71.0253V71.0253C168.913 67.7885 171.537 65.1645 174.774 65.1645H219.009C222.246 65.1645 224.87 62.5406 224.87 59.3038V59.3038C224.87 56.067 227.494 53.443 230.731 53.443H280.826H335.061C336.012 53.443 336.783 52.6723 336.783 51.7215V51.7215C336.783 50.7707 337.554 50 338.504 50H382.74C388.262 50 392.74 54.4772 392.74 60V60C392.74 65.5228 397.217 70 402.74 70H428.696C439.742 70 448.696 61.0457 448.696 50V50C448.696 38.9543 457.65 30 468.696 30H484.653C495.698 30 504.653 38.9543 504.653 50V50C504.653 61.0457 513.607 70 524.653 70H560.609H596.566C607.612 70 616.566 61.0457 616.566 50V50C616.566 38.9543 625.52 30 636.566 30H644.544C659.996 30 672.523 42.5263 672.522 57.9783L672.522 62.0217C672.522 77.4737 685.049 90 700.501 90V90C715.953 90 728.479 77.4737 728.479 62.0217L728.479 57.9783C728.479 42.5263 741.005 30 756.457 30H758.936C773.019 30 784.436 41.4167 784.436 55.5V55.5C784.436 69.5833 795.852 81 809.936 81H814.892C828.976 81 840.392 69.5833 840.392 55.5V55.5C840.392 41.4167 851.809 30 865.892 30H881.349C889.633 30 896.349 23.2843 896.349 15V15ZM392.74 531.601C392.74 516.149 380.213 503.623 364.761 503.623V503.623C349.309 503.623 336.783 516.149 336.783 531.601V584.655C336.783 600.107 349.309 612.633 364.761 612.633V612.633C380.213 612.633 392.74 600.107 392.74 584.655V531.601ZM560.609 914.968C560.609 899.516 573.136 886.99 588.588 886.99V886.99C604.04 886.99 616.566 899.516 616.566 914.968V925.824C616.566 941.276 604.04 953.803 588.588 953.803V953.803C573.136 953.803 560.609 941.276 560.609 925.824V914.968ZM1176.13 795.153C1176.13 779.701 1163.61 767.175 1148.15 767.175V767.175C1132.7 767.175 1120.18 779.701 1120.18 795.153V823.591C1120.18 839.043 1132.7 851.57 1148.15 851.57V851.57C1163.61 851.57 1176.13 839.043 1176.13 823.591V795.153Z" fill="#C4C4C4"/>
</mask>
<g mask="url(#mask0_6_1243)">
<rect x="-131.854" y="112.051" width="1493.84" height="1487.46" fill="url(#paint0_linear_6_1243)"/>
</g>
<defs>
<linearGradient id="paint0_linear_6_1243" x1="309.804" y1="525.82" x2="1302.68" y2="402.458" gradientUnits="userSpaceOnUse">
<stop stop-color="#FFC328"/>
<stop offset="0.0625" stop-color="#F6D009"/>
<stop offset="0.151042" stop-color="#F3AD16"/>
<stop offset="0.234375" stop-color="#F1951E"/>
<stop offset="0.40625" stop-color="#FF5F00"/>
<stop offset="0.609375" stop-color="#F08523"/>
<stop offset="0.84375" stop-color="#FFBF30"/>
<stop offset="0.921875" stop-color="#F29D1B"/>
<stop offset="0.989583" stop-color="#ED5F32"/>
</linearGradient>
</defs>
</svg>
