<svg width="140" height="24" viewBox="0 0 140 24" fill="none" xmlns="http://www.w3.org/2000/svg">
<path d="M19.0863 14.1876C19.1086 14.6599 19.3137 17.7439 19.3076 18.2243C19.3015 18.7046 19.3076 19.1487 19.2954 19.6109C19.2771 20.2055 19.2242 20.7985 19.137 21.387C19.1126 21.5384 19.0842 21.6877 19.0518 21.8371C18.9689 22.199 18.7512 22.5163 18.4426 22.7252C18.091 22.9749 17.7017 23.1677 17.2893 23.2964C13.6878 24.3595 5.59635 23.9235 4.31254 23.8461C4.20777 23.8398 4.10543 23.8305 4.0013 23.8176C3.31089 23.7322 1.76028 23.5685 1.25708 23.3317C0.83828 23.1347 0.463493 22.8363 0.241291 22.4336C0.17157 22.3072 0.114357 22.1737 0.0709193 22.0349C0.00436438 21.7712 -0.0155335 21.498 0.0120174 21.2275C0.0697053 20.6713 0.188565 20.1232 0.366326 19.5932C0.409288 19.465 0.458901 19.3395 0.509833 19.2143C1.23354 17.435 6.9257 3.38953 9.40502 1.02088C9.46429 0.964225 9.7513 0.667236 9.9915 0.52908C10.4837 0.246032 10.9046 0.127978 11.468 0.0452204H11.4883L11.5735 0.0290866C12.1919 -0.0480845 12.82 0.0288777 13.4009 0.253133C14.2944 0.604319 15.7218 1.13919 15.9736 1.2502C16.4321 1.44751 16.826 1.76841 17.1107 2.17661C17.1409 2.21979 17.1709 2.26324 17.2005 2.30689C17.565 2.84379 17.8087 3.449 17.9392 4.08271C18.2049 5.37154 18.6331 8.19168 19.0863 14.1877V14.1876Z" fill="#F87216"/>
<path d="M38.5255 12.1545C38.5255 13.6839 38.2336 14.9851 37.6498 16.0579C37.066 17.1308 36.2723 17.9492 35.2685 18.513C34.2648 19.0769 33.1376 19.3587 31.887 19.3587C30.6272 19.3587 29.4964 19.0757 28.495 18.5095C27.4936 17.9435 26.7021 17.1239 26.1207 16.051C25.5392 14.9782 25.2485 13.6793 25.2485 12.1545C25.2485 10.6296 25.5392 9.32398 26.1207 8.25105C26.7022 7.17828 27.4936 6.35989 28.495 5.79598C29.4964 5.23219 30.6271 4.95029 31.887 4.95029C33.1376 4.95029 34.2648 5.23219 35.2685 5.79598C36.2724 6.35989 37.066 7.17828 37.6498 8.25105C38.2336 9.32398 38.5255 10.6251 38.5255 12.1545V12.1545ZM35.4866 12.1545C35.4866 11.1639 35.3378 10.3283 35.0401 9.64806C34.7424 8.96788 34.3237 8.45202 33.7837 8.10036C33.2438 7.74891 32.6115 7.57306 31.887 7.57306C31.1625 7.57306 30.5302 7.74886 29.9902 8.10036C29.4503 8.45196 29.0315 8.96783 28.7338 9.64806C28.4361 10.3283 28.2873 11.1639 28.2873 12.1545C28.2873 13.145 28.4361 13.9807 28.7338 14.6609C29.0315 15.3412 29.4502 15.857 29.9902 16.2085C30.5301 16.5601 31.1624 16.7359 31.887 16.7359C32.6116 16.7359 33.2438 16.5602 33.7837 16.2085C34.3236 15.8571 34.7424 15.3412 35.0401 14.6609C35.3378 13.9807 35.4866 13.1452 35.4866 12.1545Z" fill="#11181C"/>
<path d="M39.6325 23.1113V8.64812H42.5399V10.4149H42.6714C42.8005 10.1319 42.9887 9.84313 43.2356 9.54865C43.4824 9.25416 43.8055 9.00766 44.2047 8.80905C44.6038 8.61043 45.1011 8.51117 45.6965 8.51117C46.4718 8.51117 47.187 8.71094 47.8424 9.11037C48.4977 9.5099 49.0215 10.1102 49.4137 10.9114C49.806 11.7127 50.0021 12.7159 50.0021 13.9212C50.0021 15.0946 49.8118 16.0841 49.4311 16.8898C49.0503 17.6956 48.5334 18.3051 47.8805 18.7183C47.2274 19.1315 46.4971 19.338 45.6895 19.338C45.1172 19.338 44.6315 19.2444 44.2323 19.0572C43.8332 18.8701 43.5066 18.6338 43.2528 18.3484C42.9989 18.0632 42.8052 17.7744 42.6713 17.4822H42.5813V23.1113H39.6324L39.6325 23.1113ZM42.5191 13.9075C42.5191 14.533 42.6067 15.0785 42.7822 15.5442C42.9575 16.0099 43.2114 16.3718 43.5436 16.6296C43.8759 16.8876 44.2796 17.0165 44.755 17.0165C45.2349 17.0165 45.6411 16.8853 45.9734 16.6227C46.3056 16.3603 46.5583 15.9951 46.7313 15.5271C46.9044 15.0591 46.991 14.5193 46.991 13.9075C46.991 13.3003 46.9055 12.7662 46.7348 12.305C46.564 11.844 46.3125 11.4833 45.9802 11.223C45.648 10.9628 45.2396 10.8327 44.755 10.8327C44.2749 10.8327 43.87 10.9582 43.5401 11.2093C43.2101 11.4605 42.9574 11.8165 42.7821 12.2776C42.6067 12.7388 42.5191 13.282 42.5191 13.9075H42.5191Z" fill="#11181C"/>
<path d="M56.3583 19.3722C55.2646 19.3722 54.3242 19.152 53.5375 18.7114C52.7506 18.2709 52.1449 17.6454 51.7203 16.835C51.2957 16.0246 51.0835 15.0648 51.0835 13.9554C51.0835 12.8734 51.2957 11.9239 51.7203 11.1066C52.1449 10.2894 52.7437 9.6525 53.5167 9.19595C54.2896 8.7395 55.1976 8.51117 56.2406 8.51117C56.942 8.51117 57.5962 8.62191 58.2031 8.84325C58.8099 9.06473 59.3407 9.39691 59.7953 9.83968C60.2497 10.2825 60.6039 10.8384 60.8578 11.5072C61.1116 12.1761 61.2386 12.9579 61.2386 13.8527V14.6539H52.2603V12.846H58.4627C58.4627 12.4261 58.3704 12.054 58.1859 11.7298C58.0012 11.4057 57.7463 11.1511 57.4209 10.9662C57.0956 10.7813 56.7183 10.6889 56.2892 10.6889C55.8415 10.6889 55.4457 10.7905 55.102 10.9936C54.7581 11.1969 54.4894 11.4685 54.2955 11.8085C54.1017 12.1487 54.0024 12.5265 53.9979 12.9419V14.6608C53.9979 15.1812 54.0958 15.631 54.292 16.0099C54.4882 16.3888 54.7662 16.681 55.1262 16.8864C55.4861 17.0919 55.913 17.1945 56.4069 17.1945C56.7345 17.1945 57.0344 17.149 57.3068 17.0576C57.579 16.9663 57.8121 16.8294 58.0059 16.6467C58.1998 16.4642 58.3474 16.2404 58.449 15.9756L61.1764 16.1536C61.0379 16.8019 60.7553 17.3669 60.3284 17.8485C59.9015 18.3303 59.3524 18.7045 58.6809 18.9716C58.0094 19.2387 57.2352 19.3722 56.3585 19.3722H56.3583Z" fill="#11181C"/>
<path d="M65.3594 13.0857V19.1668H62.4105V8.64812H65.221V10.5039H65.3456C65.5809 9.89221 65.9755 9.4072 66.5293 9.04876C67.0831 8.69042 67.7546 8.51117 68.5437 8.51117C69.282 8.51117 69.9258 8.67105 70.4751 8.99054C71.0242 9.31014 71.4511 9.76554 71.7557 10.3567C72.0603 10.948 72.2126 11.6522 72.2126 12.4693V19.1668H69.2637V12.9898C69.2682 12.3461 69.1021 11.8427 68.7653 11.4798C68.4283 11.1168 67.9646 10.9353 67.3739 10.9353C66.977 10.9353 66.6273 11.0199 66.3252 11.1888C66.0229 11.3577 65.7875 11.6031 65.6191 11.9249C65.4506 12.2468 65.3641 12.6337 65.3595 13.0857L65.3594 13.0857Z" fill="#11181C"/>
<path d="M81.4647 9.17543C81.4093 8.62312 81.1716 8.19393 80.7516 7.88801C80.3317 7.58225 79.7618 7.42922 79.0418 7.42922C78.5526 7.42922 78.1395 7.49662 77.8027 7.63123C77.4657 7.76594 77.2085 7.95203 77.0308 8.18928C76.8531 8.42675 76.7643 8.69606 76.7643 8.99739C76.755 9.24853 76.8093 9.46767 76.927 9.65485C77.0447 9.84209 77.2073 10.003 77.415 10.1376C77.6227 10.2723 77.8625 10.3888 78.1349 10.4868C78.4072 10.5851 78.6979 10.6683 79.0072 10.7368L80.2809 11.0381C80.8993 11.1751 81.4669 11.3577 81.9838 11.586C82.5006 11.8143 82.9483 12.0951 83.3267 12.4283C83.7051 12.7616 83.9993 13.1542 84.2093 13.6062C84.4193 14.0581 84.5266 14.5764 84.5312 15.1607C84.5266 16.019 84.3062 16.7621 83.8702 17.3897C83.434 18.0175 82.8064 18.5037 81.9873 18.8484C81.1681 19.1931 80.1816 19.3654 79.028 19.3654C77.8834 19.3654 76.8878 19.1919 76.041 18.8449C75.1941 18.498 74.5342 17.9832 74.0612 17.3007C73.5881 16.6183 73.3401 15.7725 73.317 14.7634H76.2175C76.2497 15.2337 76.3871 15.6253 76.6294 15.9379C76.8717 16.2506 77.197 16.4857 77.6054 16.6433C78.0138 16.8008 78.4764 16.8795 78.9933 16.8795C79.5009 16.8795 79.9428 16.8065 80.319 16.6603C80.6951 16.5143 80.987 16.3111 81.1947 16.0509C81.4024 15.7907 81.5061 15.4917 81.5061 15.1538C81.5061 14.8388 81.4127 14.574 81.2258 14.3594C81.0389 14.1449 80.7665 13.9622 80.4089 13.8115C80.0513 13.6609 79.6139 13.5239 79.0971 13.4007L77.5534 13.0172C76.3581 12.7295 75.4144 12.2799 74.7222 11.6681C74.0299 11.0564 73.6861 10.2323 73.6907 9.1959C73.6861 8.34671 73.9157 7.60491 74.3795 6.97026C74.8433 6.33577 75.4812 5.84032 76.2936 5.48422C77.1057 5.12818 78.0287 4.95013 79.0625 4.95013C80.1147 4.95013 81.0342 5.12818 81.8211 5.48422C82.6078 5.84032 83.2205 6.33577 83.6589 6.97026C84.0973 7.60491 84.3235 8.33987 84.3374 9.17533H81.4646L81.4647 9.17543Z" fill="#11181C"/>
<path d="M89.0862 19.3654C88.4078 19.3654 87.8032 19.2478 87.2726 19.0127C86.7418 18.7777 86.323 18.4284 86.0162 17.965C85.7092 17.5017 85.5558 16.923 85.5558 16.229C85.5558 15.6447 85.6642 15.1539 85.8812 14.7567C86.098 14.3595 86.3934 14.0399 86.7672 13.7979C87.141 13.556 87.5667 13.3734 88.0444 13.2501C88.522 13.1269 89.0239 13.0402 89.55 12.9899C90.1683 12.926 90.6667 12.8656 91.0452 12.8084C91.4235 12.7514 91.6981 12.6658 91.8689 12.5516C92.0396 12.4375 92.1251 12.2686 92.1251 12.0449V12.0038C92.1251 11.5701 91.9877 11.2346 91.7132 10.9971C91.4386 10.7598 91.0497 10.641 90.5468 10.641C90.016 10.641 89.5937 10.7564 89.28 10.9869C88.9661 11.2174 88.7584 11.5062 88.6569 11.8531L85.9295 11.634C86.068 10.9949 86.3402 10.4414 86.7464 9.97336C87.1524 9.50543 87.6775 9.14474 88.3212 8.89135C88.965 8.63791 89.7114 8.51129 90.5606 8.51129C91.1512 8.51129 91.7177 8.5798 92.26 8.71675C92.8022 8.85371 93.2845 9.06595 93.7068 9.35359C94.1291 9.64124 94.4624 10.0099 94.707 10.4596C94.9516 10.9093 95.074 11.4469 95.074 12.0723V19.167H92.2773V17.7083H92.1943C92.0235 18.037 91.7951 18.3257 91.509 18.5745C91.2228 18.8235 90.879 19.0174 90.4776 19.1566C90.0761 19.2958 89.6122 19.3655 89.0862 19.3655L89.0862 19.3654ZM89.9308 17.352C90.3645 17.352 90.7476 17.2664 91.0798 17.0952C91.4121 16.924 91.6728 16.6924 91.862 16.4002C92.0512 16.108 92.1459 15.777 92.1459 15.4072V14.2909C92.0535 14.3503 91.9278 14.4039 91.7686 14.4518C91.6094 14.4998 91.4305 14.5433 91.2322 14.582C91.0337 14.6208 90.8352 14.6551 90.6369 14.6847C90.4384 14.7144 90.2584 14.7406 90.0969 14.7635C89.7508 14.8138 89.4485 14.8936 89.1901 15.0032C88.9316 15.1128 88.7308 15.2599 88.5879 15.4449C88.4447 15.6298 88.3733 15.8592 88.3733 16.1331C88.3733 16.5303 88.5197 16.8328 88.8129 17.0405C89.1058 17.2483 89.4785 17.3521 89.9308 17.3521L89.9308 17.352Z" fill="#11181C"/>
<path d="M103.189 14.6882V8.64813H106.138V19.1668H103.307V17.2562H103.196C102.956 17.8725 102.558 18.3679 102.002 18.7422C101.446 19.1166 100.769 19.3037 99.9706 19.3037C99.2598 19.3037 98.6346 19.144 98.0946 18.8244C97.5547 18.5048 97.1335 18.0505 96.8313 17.4616C96.5289 16.8726 96.3754 16.1673 96.3709 15.3455V8.64813H99.3198V14.8251C99.3244 15.4461 99.4929 15.9368 99.8252 16.2974C100.157 16.6581 100.603 16.8384 101.161 16.8384C101.516 16.8384 101.849 16.7574 102.158 16.5953C102.467 16.4333 102.718 16.1925 102.909 15.8729C103.1 15.5533 103.194 15.1584 103.189 14.6882H103.189Z" fill="#11181C"/>
<path d="M112.473 19.3722C111.384 19.3722 110.449 19.1428 109.666 18.684C108.884 18.2252 108.284 17.5872 107.867 16.7699C107.449 15.9528 107.24 15.0123 107.24 13.9485C107.24 12.8711 107.451 11.9249 107.873 11.11C108.296 10.2951 108.897 9.65824 109.677 9.19939C110.457 8.74059 111.384 8.51117 112.46 8.51117C113.387 8.51117 114.199 8.67783 114.896 9.01106C115.593 9.34439 116.145 9.81227 116.551 10.4149C116.957 11.0176 117.181 11.7253 117.222 12.5378H114.439C114.361 12.0128 114.154 11.5893 113.82 11.2675C113.485 10.9457 113.048 10.7847 112.508 10.7847C112.051 10.7847 111.653 10.9069 111.314 11.1511C110.975 11.3954 110.711 11.7504 110.521 12.216C110.332 12.6817 110.238 13.2456 110.238 13.9075C110.238 14.5787 110.331 15.1493 110.518 15.6195C110.705 16.0898 110.969 16.4481 111.31 16.6947C111.652 16.9412 112.051 17.0645 112.508 17.0645C112.845 17.0645 113.148 16.996 113.418 16.859C113.688 16.7221 113.912 16.5224 114.09 16.2598C114.267 15.9973 114.384 15.6811 114.439 15.3114H117.222C117.176 16.1149 116.956 16.8214 116.561 17.4308C116.167 18.0403 115.623 18.5163 114.931 18.8587C114.239 19.2011 113.419 19.3723 112.473 19.3723V19.3722Z" fill="#11181C"/>
<path d="M123.477 19.3722C122.383 19.3722 121.443 19.152 120.656 18.7114C119.869 18.2709 119.264 17.6454 118.839 16.835C118.415 16.0246 118.202 15.0648 118.202 13.9554C118.202 12.8734 118.415 11.9239 118.839 11.1066C119.264 10.2894 119.862 9.6525 120.635 9.19595C121.408 8.7395 122.316 8.51117 123.359 8.51117C124.061 8.51117 124.715 8.62191 125.322 8.84325C125.929 9.06473 126.459 9.39691 126.914 9.83968C127.369 10.2825 127.723 10.8384 127.977 11.5072C128.23 12.1761 128.357 12.9579 128.357 13.8527V14.6539H119.379V12.846H125.582C125.582 12.4261 125.489 12.054 125.305 11.7298C125.12 11.4057 124.865 11.1511 124.54 10.9662C124.214 10.7813 123.837 10.6889 123.408 10.6889C122.96 10.6889 122.565 10.7905 122.221 10.9936C121.877 11.1969 121.608 11.4685 121.414 11.8085C121.221 12.1487 121.121 12.5265 121.117 12.9419V14.6608C121.117 15.1812 121.215 15.631 121.411 16.0099C121.607 16.3888 121.885 16.681 122.245 16.8864C122.605 17.0919 123.032 17.1945 123.526 17.1945C123.853 17.1945 124.153 17.149 124.426 17.0576C124.698 16.9663 124.931 16.8294 125.125 16.6467C125.319 16.4642 125.466 16.2404 125.568 15.9756L128.295 16.1536C128.157 16.8019 127.874 17.3669 127.447 17.8485C127.02 18.3303 126.471 18.7045 125.8 18.9716C125.128 19.2387 124.354 19.3722 123.477 19.3722H123.477Z" fill="#11181C"/>
<path d="M133.81 19.338C133.002 19.338 132.272 19.1315 131.619 18.7183C130.966 18.3052 130.449 17.6956 130.068 16.8898C129.688 16.0841 129.497 15.0945 129.497 13.9212C129.497 12.7159 129.693 11.7127 130.086 10.9114C130.478 10.1102 131.001 9.5099 131.654 9.11037C132.307 8.71099 133.023 8.51117 133.803 8.51117C134.398 8.51117 134.896 8.61043 135.295 8.80905C135.694 9.00767 136.017 9.25416 136.264 9.54865C136.511 9.84313 136.699 10.1319 136.828 10.4149H136.918V5.14191H139.86V19.1668H136.953V17.4821H136.828C136.69 17.7744 136.495 18.0632 136.243 18.3484C135.991 18.6338 135.666 18.8701 135.267 19.0572C134.868 19.2443 134.382 19.3379 133.81 19.3379V19.338ZM134.744 17.0165C135.22 17.0165 135.622 16.8876 135.952 16.6296C136.282 16.3718 136.536 16.0099 136.714 15.5442C136.891 15.0785 136.98 14.533 136.98 13.9075C136.98 13.2819 136.893 12.7388 136.717 12.2776C136.542 11.8165 136.288 11.4605 135.956 11.2093C135.624 10.9582 135.22 10.8327 134.745 10.8327C134.26 10.8327 133.852 10.9628 133.519 11.223C133.187 11.4832 132.935 11.844 132.765 12.305C132.594 12.7662 132.509 13.3003 132.509 13.9075C132.509 14.5193 132.595 15.0591 132.768 15.5271C132.941 15.9951 133.193 16.3603 133.523 16.6227C133.853 16.8853 134.26 17.0165 134.744 17.0165Z" fill="#11181C"/>
</svg>
