<svg width="479" height="67" viewBox="0 0 479 67" fill="none" xmlns="http://www.w3.org/2000/svg">
<path d="M53.4951 39.6071C53.5577 40.9257 54.1326 49.5351 54.1154 50.8761C54.0984 52.2171 54.1154 53.4567 54.0812 54.7471C54.0299 56.407 53.8817 58.0625 53.6373 59.7053C53.5689 60.1279 53.4894 60.5449 53.3984 60.9618C53.166 61.9721 52.5559 62.8579 51.6911 63.4411C50.7054 64.1384 49.6145 64.6765 48.4585 65.0357C38.3642 68.0036 15.6855 66.7863 12.0872 66.5703C11.7936 66.5526 11.5067 66.5267 11.2148 66.4908C9.27977 66.2524 4.93373 65.7954 3.52336 65.1344C2.34953 64.5843 1.29908 63.7514 0.676292 62.6271C0.480876 62.2744 0.320519 61.9017 0.198773 61.5141C0.0122325 60.778 -0.0435372 60.0154 0.0336824 59.2602C0.19537 57.7074 0.528509 56.1773 1.02674 54.6976C1.14715 54.3399 1.28621 53.9894 1.42896 53.6399C3.45738 48.6728 19.4114 9.46243 26.3604 2.84995C26.5265 2.69179 27.331 1.8627 28.0042 1.47701C29.3837 0.68684 30.5636 0.357273 32.1424 0.12624H32.1994L32.4383 0.0812C34.1716 -0.134236 35.9318 0.080617 37.5602 0.706664C40.0644 1.68706 44.065 3.18024 44.7708 3.49013C46.056 4.04096 47.16 4.93682 47.9578 6.07638C48.0427 6.19693 48.1267 6.3182 48.2097 6.44006C49.2312 7.93893 49.9142 9.62845 50.2801 11.3976C51.0247 14.9955 52.2248 22.8684 53.4951 39.6073V39.6071Z" fill="url(#paint0_linear_1_108)"/>
<path d="M107.979 33.9312C107.979 38.201 107.161 41.8334 105.525 44.8284C103.889 47.8235 101.664 50.1081 98.8508 51.6821C96.0374 53.2563 92.8781 54.043 89.373 54.043C85.8419 54.043 82.6727 53.253 79.866 51.6725C77.059 50.0923 74.8408 47.8044 73.2112 44.8091C71.5813 41.8143 70.7665 38.1882 70.7665 33.9312C70.7665 29.6742 71.5814 26.0295 73.2112 23.0342C74.8409 20.0394 77.0591 17.7547 79.866 16.1805C82.6727 14.6065 85.8418 13.8196 89.373 13.8196C92.8781 13.8196 96.0376 14.6065 98.8508 16.1805C101.664 17.7547 103.889 20.0394 105.525 23.0342C107.161 26.0295 107.979 29.6618 107.979 33.9312V33.9312ZM99.462 33.9312C99.462 31.1658 99.0448 28.8333 98.2105 26.9342C97.3762 25.0354 96.2025 23.5952 94.689 22.6135C93.1759 21.6324 91.4035 21.1415 89.3729 21.1415C87.3422 21.1415 85.57 21.6323 84.0567 22.6135C82.5434 23.5951 81.3695 25.0352 80.5351 26.9342C79.7007 28.8333 79.2837 31.1658 79.2837 33.9312C79.2837 36.6966 79.7007 39.0295 80.5351 40.9284C81.3695 42.8275 82.5432 44.2676 84.0567 45.2489C85.5699 46.2304 87.3419 46.7211 89.3729 46.7211C91.4038 46.7211 93.1757 46.2306 94.689 45.2489C96.2024 44.2678 97.3762 42.8276 98.2105 40.9284C99.0448 39.0295 99.462 36.697 99.462 33.9312Z" fill="#11181C"/>
<path d="M111.082 64.519V24.1427H119.231V29.075H119.6C119.961 28.285 120.489 27.4788 121.181 26.6567C121.873 25.8346 122.778 25.1464 123.897 24.5919C125.016 24.0375 126.41 23.7604 128.078 23.7604C130.251 23.7604 132.256 24.3181 134.093 25.4331C135.929 26.5485 137.398 28.2243 138.497 30.461C139.596 32.6979 140.146 35.4986 140.146 38.8633C140.146 42.139 139.613 44.9015 138.545 47.1508C137.478 49.4003 136.03 51.1018 134.199 52.2552C132.369 53.4088 130.322 53.9852 128.059 53.9852C126.455 53.9852 125.093 53.7239 123.975 53.2015C122.856 52.6791 121.94 52.0195 121.229 51.2228C120.518 50.4265 119.974 49.6203 119.599 48.8044H119.347V64.5192H111.082L111.082 64.519ZM119.173 38.825C119.173 40.5712 119.418 42.0941 119.91 43.3942C120.401 44.6942 121.113 45.7045 122.044 46.4243C122.976 47.1445 124.107 47.5044 125.439 47.5044C126.785 47.5044 127.923 47.1382 128.854 46.4052C129.786 45.6725 130.494 44.653 130.979 43.3464C131.464 42.0401 131.706 40.5332 131.706 38.825C131.706 37.1301 131.467 35.6391 130.988 34.3516C130.51 33.0645 129.805 32.0576 128.874 31.331C127.942 30.6046 126.798 30.2412 125.439 30.2412C124.094 30.2412 122.959 30.5918 122.034 31.2928C121.109 31.9939 120.401 32.9878 119.91 34.275C119.418 35.5624 119.173 37.0791 119.173 38.825H119.173Z" fill="#11181C"/>
<path d="M157.961 54.0809C154.896 54.0809 152.26 53.466 150.055 52.2361C147.849 51.0062 146.152 49.2602 144.962 46.9977C143.772 44.7355 143.177 42.056 143.177 38.9588C143.177 35.9382 143.772 33.2875 144.962 31.0059C146.152 28.7247 147.83 26.9466 149.997 25.672C152.163 24.3978 154.708 23.7604 157.631 23.7604C159.597 23.7604 161.431 24.0695 163.132 24.6874C164.832 25.3057 166.32 26.2331 167.594 27.4691C168.868 28.7053 169.861 30.2573 170.572 32.1243C171.284 33.9915 171.64 36.1742 171.64 38.6721V40.9088H146.475V35.8618H163.859C163.859 34.6894 163.601 33.6507 163.083 32.7457C162.566 31.8408 161.851 31.1302 160.939 30.6141C160.028 30.098 158.97 29.8398 157.767 29.8398C156.513 29.8398 155.403 30.1236 154.44 30.6906C153.476 31.2579 152.723 32.0163 152.18 32.9655C151.636 33.9152 151.358 34.9699 151.345 36.1294V40.9281C151.345 42.381 151.62 43.6365 152.17 44.6942C152.72 45.7522 153.499 46.5677 154.508 47.1413C155.517 47.7149 156.713 48.0014 158.097 48.0014C159.015 48.0014 159.856 47.8742 160.62 47.6191C161.383 47.3643 162.036 46.982 162.579 46.4721C163.122 45.9625 163.536 45.3379 163.821 44.5985L171.465 45.0955C171.077 46.9054 170.285 48.4826 169.089 49.8271C167.892 51.172 166.353 52.2169 164.471 52.9624C162.589 53.708 160.419 54.0809 157.962 54.0809H157.961Z" fill="#11181C"/>
<path d="M183.19 36.531V53.5074H174.924V24.1427H182.802V29.3235H183.151C183.81 27.6158 184.916 26.2618 186.469 25.2611C188.021 24.2608 189.903 23.7604 192.114 23.7604C194.184 23.7604 195.988 24.2067 197.528 25.0986C199.067 25.9908 200.263 27.2622 201.117 28.9126C201.971 30.5632 202.398 32.5291 202.398 34.8103V53.5073H194.132V36.2632C194.145 34.4661 193.679 33.061 192.735 32.0478C191.791 31.0345 190.491 30.5278 188.836 30.5278C187.723 30.5278 186.743 30.7638 185.896 31.2353C185.049 31.7069 184.389 32.392 183.917 33.2904C183.445 34.189 183.203 35.2691 183.19 36.5309L183.19 36.531Z" fill="#11181C"/>
<path d="M228.329 25.6147C228.174 24.0728 227.508 22.8747 226.331 22.0207C225.154 21.1671 223.556 20.7399 221.539 20.7399C220.167 20.7399 219.01 20.928 218.066 21.3038C217.121 21.6799 216.4 22.1994 215.902 22.8617C215.404 23.5246 215.155 24.2765 215.155 25.1177C215.129 25.8188 215.281 26.4305 215.611 26.9531C215.941 27.4758 216.397 27.925 216.979 28.3008C217.561 28.6769 218.233 29.0019 218.997 29.2757C219.76 29.55 220.575 29.7823 221.442 29.9736L225.012 30.8148C226.745 31.1971 228.336 31.707 229.784 32.3441C231.233 32.9815 232.488 33.7654 233.548 34.6957C234.609 35.6261 235.433 36.7221 236.022 37.9839C236.611 39.2456 236.911 40.6923 236.924 42.3235C236.911 44.7197 236.294 46.794 235.072 48.5463C233.849 50.2987 232.09 51.6561 229.794 52.6184C227.498 53.5806 224.733 54.0617 221.5 54.0617C218.292 54.0617 215.501 53.5772 213.128 52.6086C210.754 51.6402 208.905 50.2031 207.579 48.2977C206.253 46.3926 205.558 44.0314 205.493 41.2146H213.623C213.713 42.5275 214.098 43.6205 214.777 44.4932C215.456 45.3663 216.368 46.0227 217.513 46.4624C218.657 46.9022 219.954 47.1219 221.403 47.1219C222.825 47.1219 224.064 46.9182 225.118 46.5101C226.172 46.1024 226.991 45.5353 227.573 44.8086C228.155 44.0823 228.446 43.2477 228.446 42.3043C228.446 41.4249 228.184 40.6858 227.66 40.0865C227.136 39.4877 226.373 38.9779 225.37 38.5572C224.368 38.1365 223.142 37.7542 221.694 37.4102L217.367 36.3396C214.017 35.5366 211.372 34.2814 209.431 32.5734C207.491 30.8656 206.527 28.5652 206.54 25.6719C206.527 23.3012 207.171 21.2303 208.471 19.4586C209.771 17.6873 211.559 16.3042 213.836 15.3101C216.112 14.3161 218.699 13.8191 221.597 13.8191C224.546 13.8191 227.123 14.3161 229.328 15.3101C231.533 16.3042 233.251 17.6873 234.48 19.4586C235.708 21.2303 236.342 23.2821 236.381 25.6144H228.329L228.329 25.6147Z" fill="#11181C"/>
<path d="M249.691 54.0617C247.79 54.0617 246.095 53.7333 244.608 53.0771C243.12 52.4209 241.946 51.4459 241.086 50.1521C240.226 48.8588 239.796 47.2433 239.796 45.3058C239.796 43.6746 240.1 42.3044 240.708 41.1956C241.316 40.0868 242.144 39.1947 243.191 38.5191C244.239 37.8438 245.432 37.334 246.771 36.9898C248.11 36.6458 249.516 36.4037 250.991 36.2635C252.724 36.0851 254.121 35.9163 255.182 35.7567C256.242 35.5975 257.012 35.3586 257.491 35.0398C257.969 34.7213 258.208 34.2498 258.208 33.6252V33.5105C258.208 32.2998 257.823 31.3631 257.054 30.7002C256.284 30.0377 255.194 29.7061 253.785 29.7061C252.297 29.7061 251.114 30.0281 250.234 30.6716C249.354 31.3153 248.772 32.1215 248.488 33.09L240.843 32.4782C241.232 30.6941 241.995 29.1487 243.133 27.8422C244.271 26.5359 245.743 25.529 247.547 24.8216C249.351 24.1141 251.443 23.7606 253.823 23.7606C255.479 23.7606 257.067 23.9519 258.587 24.3342C260.106 24.7165 261.458 25.309 262.642 26.112C263.825 26.9151 264.76 27.9443 265.445 29.1996C266.131 30.455 266.474 31.9558 266.474 33.7019V53.5077H258.635V49.4355H258.402C257.924 50.3533 257.284 51.1593 256.482 51.8539C255.679 52.5489 254.716 53.0902 253.591 53.4788C252.465 53.8674 251.165 54.062 249.691 54.062L249.691 54.0617ZM252.058 48.441C253.274 48.441 254.348 48.202 255.279 47.7241C256.21 47.2462 256.941 46.5994 257.471 45.7838C258.001 44.9682 258.267 44.044 258.267 43.0117V39.8954C258.008 40.0613 257.655 40.2109 257.209 40.3447C256.763 40.4786 256.262 40.5999 255.706 40.7079C255.149 40.8164 254.593 40.912 254.037 40.9948C253.481 41.0777 252.976 41.1509 252.524 41.2146C251.554 41.3551 250.706 41.5778 249.982 41.8838C249.258 42.1897 248.695 42.6006 248.294 43.1169C247.893 43.633 247.693 44.2735 247.693 45.0382C247.693 46.147 248.103 46.9914 248.925 47.5712C249.746 48.1514 250.79 48.4411 252.058 48.4411L252.058 48.441Z" fill="#11181C"/>
<path d="M289.22 41.0044V24.1427H297.485V53.5073H289.55V48.1734H289.239C288.566 49.894 287.451 51.277 285.892 52.322C284.333 53.3672 282.435 53.8896 280.198 53.8896C278.206 53.8896 276.453 53.4436 274.94 52.5514C273.427 51.6593 272.246 50.391 271.399 48.7469C270.552 47.1028 270.121 45.1337 270.109 42.8396V24.1427H278.374V41.3868C278.387 43.1203 278.859 44.4903 279.79 45.4969C280.721 46.5039 281.97 47.0072 283.535 47.0072C284.531 47.0072 285.462 46.7811 286.329 46.3287C287.195 45.8762 287.897 45.204 288.434 44.3118C288.97 43.4197 289.232 42.3172 289.219 41.0044H289.22Z" fill="#11181C"/>
<path d="M315.241 54.0809C312.188 54.0809 309.566 53.4404 307.373 52.1594C305.181 50.8786 303.499 49.0977 302.329 46.8161C301.158 44.5349 300.573 41.9095 300.573 38.9397C300.573 35.9319 301.165 33.2904 302.348 31.0155C303.532 28.7406 305.216 26.9626 307.402 25.6817C309.588 24.4009 312.188 23.7604 315.202 23.7604C317.802 23.7604 320.078 24.2256 322.032 25.1559C323.984 26.0864 325.53 27.3926 326.669 29.075C327.807 30.7574 328.434 32.733 328.551 35.0014H320.751C320.531 33.5359 319.952 32.3536 319.015 31.4551C318.077 30.5567 316.851 30.1074 315.338 30.1074C314.057 30.1074 312.942 30.4485 311.991 31.1302C311.04 31.8123 310.3 32.8031 309.77 34.103C309.239 35.4031 308.974 36.9773 308.974 38.8251C308.974 40.6988 309.236 42.2919 309.76 43.6045C310.284 44.9174 311.024 45.9178 311.981 46.6061C312.938 47.2943 314.057 47.6383 315.338 47.6383C316.282 47.6383 317.132 47.4471 317.889 47.0648C318.646 46.6824 319.273 46.125 319.771 45.392C320.269 44.6593 320.596 43.7765 320.751 42.7442H328.551C328.421 44.9875 327.804 46.9597 326.698 48.6612C325.592 50.3626 324.069 51.6912 322.129 52.6472C320.188 53.6031 317.892 54.081 315.241 54.081V54.0809Z" fill="#11181C"/>
<path d="M346.082 54.0809C343.016 54.0809 340.381 53.466 338.176 52.2361C335.97 51.0062 334.273 49.2602 333.083 46.9977C331.893 44.7355 331.298 42.056 331.298 38.9588C331.298 35.9382 331.893 33.2875 333.083 31.0059C334.273 28.7247 335.951 26.9466 338.117 25.672C340.284 24.3978 342.829 23.7604 345.752 23.7604C347.718 23.7604 349.552 24.0695 351.253 24.6874C352.953 25.3057 354.441 26.2331 355.715 27.4691C356.989 28.7053 357.982 30.2573 358.693 32.1243C359.405 33.9915 359.761 36.1742 359.761 38.6721V40.9088H334.596V35.8618H351.98C351.98 34.6894 351.722 33.6507 351.204 32.7457C350.687 31.8408 349.972 31.1302 349.06 30.6141C348.149 30.098 347.091 29.8398 345.888 29.8398C344.634 29.8398 343.524 30.1236 342.561 30.6906C341.597 31.2579 340.844 32.0163 340.301 32.9655C339.757 33.9152 339.479 34.9699 339.466 36.1294V40.9281C339.466 42.381 339.741 43.6365 340.291 44.6942C340.84 45.7522 341.62 46.5677 342.629 47.1413C343.638 47.7149 344.834 48.0014 346.218 48.0014C347.136 48.0014 347.977 47.8742 348.74 47.6191C349.503 47.3643 350.157 46.982 350.7 46.4721C351.243 45.9625 351.657 45.3379 351.942 44.5985L359.586 45.0955C359.198 46.9054 358.406 48.4826 357.21 49.8271C356.013 51.172 354.474 52.2169 352.592 52.9624C350.71 53.708 348.54 54.0809 346.082 54.0809H346.082Z" fill="#11181C"/>
<path d="M375.043 53.9852C372.779 53.9852 370.732 53.4087 368.902 52.2552C367.072 51.1019 365.623 49.4003 364.556 47.1507C363.489 44.9014 362.956 42.1389 362.956 38.8633C362.956 35.4986 363.505 32.6979 364.604 30.461C365.704 28.2243 367.169 26.5485 368.999 25.4331C370.829 24.3182 372.837 23.7604 375.023 23.7604C376.692 23.7604 378.086 24.0374 379.205 24.5919C380.323 25.1464 381.229 25.8345 381.921 26.6566C382.613 27.4787 383.14 28.2849 383.502 29.075H383.754V14.3545H392V53.5073H383.851V48.8043H383.502C383.114 49.6201 382.568 50.4263 381.863 51.2226C381.157 52.0193 380.245 52.6789 379.127 53.2013C378.008 53.7237 376.646 53.9851 375.043 53.9851V53.9852ZM377.662 47.5044C378.994 47.5044 380.123 47.1445 381.048 46.4243C381.972 45.7045 382.684 44.6942 383.182 43.3942C383.68 42.0941 383.929 40.5714 383.929 38.825C383.929 37.0786 383.683 35.5624 383.192 34.275C382.7 32.9878 381.989 31.9939 381.058 31.2927C380.126 30.5918 378.994 30.2412 377.662 30.2412C376.304 30.2412 375.159 30.6045 374.228 31.3309C373.297 32.0574 372.592 33.0645 372.113 34.3516C371.635 35.6391 371.395 37.1301 371.395 38.825C371.395 40.5332 371.638 42.04 372.123 43.3464C372.608 44.653 373.313 45.6724 374.238 46.4052C375.162 47.1382 376.304 47.5044 377.662 47.5044Z" fill="#11181C"/>
<path opacity="0.7" d="M409.861 53V44.2727H413.202C413.832 44.2727 414.357 44.3722 414.774 44.571C415.195 44.767 415.509 45.0355 415.716 45.3764C415.926 45.7173 416.031 46.1037 416.031 46.5355C416.031 46.8906 415.963 47.1946 415.827 47.4474C415.69 47.6974 415.507 47.9006 415.277 48.0568C415.047 48.2131 414.79 48.3253 414.506 48.3935V48.4787C414.815 48.4957 415.112 48.5909 415.396 48.7642C415.683 48.9347 415.918 49.1761 416.099 49.4886C416.281 49.8011 416.372 50.179 416.372 50.6222C416.372 51.0739 416.263 51.4801 416.044 51.8409C415.825 52.1989 415.496 52.4815 415.055 52.6889C414.615 52.8963 414.061 53 413.393 53H409.861ZM411.442 51.679H413.142C413.716 51.679 414.129 51.5696 414.382 51.3509C414.638 51.1293 414.766 50.8452 414.766 50.4986C414.766 50.2401 414.702 50.0071 414.574 49.7997C414.446 49.5895 414.264 49.4247 414.028 49.3054C413.793 49.1832 413.511 49.1222 413.185 49.1222H411.442V51.679ZM411.442 47.9844H413.006C413.278 47.9844 413.524 47.9347 413.743 47.8352C413.962 47.733 414.134 47.5895 414.259 47.4048C414.386 47.2173 414.45 46.9957 414.45 46.7401C414.45 46.402 414.331 46.1236 414.092 45.9048C413.857 45.6861 413.506 45.5767 413.04 45.5767H411.442V47.9844ZM418.348 53V44.2727H421.62C422.291 44.2727 422.853 44.3892 423.308 44.6222C423.765 44.8551 424.11 45.1818 424.343 45.6023C424.579 46.0199 424.697 46.5071 424.697 47.0639C424.697 47.6236 424.578 48.1094 424.339 48.5213C424.103 48.9304 423.755 49.2472 423.295 49.4716C422.835 49.6932 422.269 49.804 421.599 49.804H419.268V48.4915H421.386C421.778 48.4915 422.099 48.4375 422.349 48.3295C422.599 48.2187 422.784 48.0582 422.903 47.848C423.025 47.6349 423.086 47.3736 423.086 47.0639C423.086 46.7543 423.025 46.4901 422.903 46.2713C422.781 46.0497 422.595 45.8821 422.345 45.7685C422.095 45.652 421.772 45.5938 421.377 45.5938H419.928V53H418.348ZM422.856 49.0455L425.017 53H423.252L421.13 49.0455H422.856ZM427.873 53H426.185L429.258 44.2727H431.21L434.286 53H432.599L430.268 46.0625H430.2L427.873 53ZM427.928 49.5781H432.531V50.848H427.928V49.5781ZM443.208 44.2727V53H441.801L437.689 47.0554H437.617V53H436.036V44.2727H437.451L441.559 50.2216H441.635V44.2727H443.208ZM448.488 53H445.53V44.2727H448.547C449.414 44.2727 450.158 44.4474 450.78 44.7969C451.405 45.1435 451.885 45.642 452.221 46.2926C452.556 46.9432 452.724 47.7216 452.724 48.6278C452.724 49.5369 452.554 50.3182 452.216 50.9716C451.881 51.625 451.397 52.1264 450.763 52.4759C450.133 52.8253 449.374 53 448.488 53ZM447.111 51.6321H448.411C449.019 51.6321 449.526 51.5213 449.932 51.2997C450.339 51.0753 450.644 50.7415 450.849 50.2983C451.053 49.8523 451.155 49.2955 451.155 48.6278C451.155 47.9602 451.053 47.4062 450.849 46.9659C450.644 46.5227 450.341 46.1918 449.941 45.973C449.543 45.7514 449.049 45.6406 448.458 45.6406H447.111V51.6321ZM458.402 53V44.2727H459.983V48.2827H460.09L463.495 44.2727H465.425L462.05 48.1889L465.455 53H463.554L460.95 49.2585L459.983 50.4006V53H458.402ZM468.704 44.2727V53H467.123V44.2727H468.704ZM470.633 45.598V44.2727H477.596V45.598H474.898V53H473.33V45.598H470.633Z" fill="#11181C"/>
<defs>
<linearGradient id="paint0_linear_1_108" x1="-4.57138e-05" y1="33.5001" x2="54.1158" y2="33.5001" gradientUnits="userSpaceOnUse">
<stop stop-color="#FCB60A"/>
<stop offset="0.115" stop-color="#F69319"/>
<stop offset="0.305" stop-color="#EF6D2A"/>
<stop offset="0.727" stop-color="#ED5332"/>
<stop offset="1" stop-color="#ED6A32"/>
</linearGradient>
</defs>
</svg>
