<svg width="1483" height="1444" viewBox="0 0 1483 1444" fill="none" xmlns="http://www.w3.org/2000/svg">
<mask id="mask0_25_22" style="mask-type:alpha" maskUnits="userSpaceOnUse" x="0" y="-794" width="1483" height="2102">
<path fill-rule="evenodd" clip-rule="evenodd" d="M1482.53 -744.445C1482.53 -771.813 1460.34 -794 1432.97 -794V-794C1405.6 -794 1383.42 -771.813 1383.42 -744.445V-235.945C1383.42 -212.78 1364.64 -194 1341.47 -194V-194C1318.3 -194 1299.53 -212.78 1299.53 -235.945V-458.835C1299.53 -489.302 1274.83 -514 1244.36 -514V-514C1213.89 -514 1189.19 -489.302 1189.19 -458.835V-421.503C1189.19 -389.745 1163.45 -364 1131.69 -364V-364C1099.93 -364 1074.19 -338.255 1074.19 -306.497V-184.205C1074.19 -162 1056.19 -144 1033.98 -144V-144C1011.78 -144 993.779 -162 993.779 -184.205V-312.575C993.779 -340.976 970.755 -364 942.354 -364V-364C913.953 -364 890.929 -340.976 890.929 -312.575L890.929 -210.636C890.929 -186.882 871.672 -167.626 847.918 -167.626V-167.626C824.165 -167.626 804.908 -186.882 804.908 -210.636V-307.9C804.908 -338.883 779.791 -364 748.808 -364H739.333C713.583 -364 692.708 -343.125 692.708 -317.375V-317.375C692.708 -291.625 671.708 -270.75 645.958 -270.75V-270.75C620.207 -270.75 599.208 -291.625 599.208 -317.375V-317.375C599.208 -343.125 578.333 -364 552.583 -364H539.487C514.634 -364 494.487 -343.853 494.487 -319V-308.595C494.487 -289.489 478.998 -274 459.892 -274V-274C440.786 -274 425.297 -289.489 425.297 -308.595V-319C425.297 -343.853 405.15 -364 380.297 -364H330.086C296.949 -364 270.086 -337.137 270.086 -304V-277.666C270.086 -259.073 255.013 -244 236.42 -244V-244C217.826 -244 202.753 -259.073 202.753 -277.666V-356.179C202.753 -384.799 179.552 -408 150.932 -408H106.378C102.364 -408 99.1104 -411.254 99.1104 -415.267V-415.267C99.1104 -419.281 95.8567 -422.535 91.843 -422.535H49.5552C22.1866 -422.535 0 -400.348 0 -372.98V634.955C0 662.323 22.1866 684.51 49.5552 684.51V684.51C76.9238 684.51 99.1104 662.323 99.1104 634.955V576.555C99.1104 549.739 120.849 528 147.666 528V528C174.482 528 196.221 549.739 196.221 576.555V719.989C196.221 747.358 218.407 769.544 245.776 769.544V769.544C273.145 769.544 295.331 747.358 295.331 719.989V547.629C295.331 520.26 317.518 498.074 344.886 498.074V498.074C372.255 498.074 394.442 520.26 394.442 547.629V1170.11C394.442 1197.74 416.838 1220.14 444.464 1220.14V1220.14C472.091 1220.14 494.487 1197.74 494.487 1170.11V749.59C494.487 722.221 516.674 700.034 544.042 700.034V700.034C571.411 700.034 593.597 722.221 593.597 749.59V1112.12C593.597 1139.49 615.784 1161.68 643.153 1161.68V1161.68C670.521 1161.68 692.708 1139.49 692.708 1112.12V873.01C692.708 845.642 714.894 823.455 742.263 823.455V823.455C769.632 823.455 791.818 845.642 791.818 873.01V1258.26C791.818 1285.62 814.005 1307.81 841.373 1307.81V1307.81C868.742 1307.81 890.929 1285.62 890.929 1258.26L890.929 706.579C890.929 679.211 913.115 657.024 940.484 657.024V657.024C967.852 657.024 990.039 679.211 990.039 706.58V1172.95C990.039 1200.58 1012.43 1222.98 1040.06 1222.98V1222.98C1067.69 1222.98 1090.08 1200.58 1090.08 1172.95V601.859C1090.08 574.49 1112.27 552.304 1139.64 552.304V552.304C1167.01 552.304 1189.19 574.49 1189.19 601.859V898.791C1189.19 929.258 1213.89 953.956 1244.36 953.956V953.956C1274.83 953.956 1299.53 929.258 1299.53 898.791V681.969C1299.53 658.803 1318.3 640.023 1341.47 640.023V640.023C1364.64 640.023 1383.42 658.803 1383.42 681.969V751.562C1383.42 778.93 1405.6 801.117 1432.97 801.117V801.117C1460.34 801.117 1482.53 778.93 1482.53 751.562V-744.445ZM295.331 868.084C295.331 840.716 273.145 818.529 245.776 818.529V818.529C218.407 818.529 196.221 840.716 196.221 868.084V906.42C196.221 933.788 218.407 955.975 245.776 955.975V955.975C273.145 955.975 295.331 933.788 295.331 906.42V868.084Z" fill="#C4C4C4"/>
</mask>
<g mask="url(#mask0_25_22)">
<rect x="-635.247" y="-6" width="2654" height="2092" fill="white"/>
</g>
</svg>
