<svg width="1481" height="2102" viewBox="0 0 1481 2102" fill="none" xmlns="http://www.w3.org/2000/svg">
<mask id="mask0_4_102" style="mask-type:alpha" maskUnits="userSpaceOnUse" x="0" y="0" width="1481" height="2102">
<path fill-rule="evenodd" clip-rule="evenodd" d="M1480.53 49.5552C1480.53 22.1866 1458.34 0 1430.97 0V0C1403.6 0 1381.42 22.1866 1381.42 49.5552V558.055C1381.42 581.22 1362.64 600 1339.47 600V600C1316.3 600 1297.53 581.22 1297.53 558.055V335.165C1297.53 304.698 1272.83 280 1242.36 280V280C1211.89 280 1187.19 304.698 1187.19 335.165V372.497C1187.19 404.255 1161.45 430 1129.69 430V430C1097.93 430 1072.19 455.745 1072.19 487.503V609.795C1072.19 632 1054.19 650 1031.98 650V650C1009.78 650 991.779 632 991.779 609.795V481.425C991.779 453.024 968.755 430 940.354 430V430C911.953 430 888.929 453.024 888.929 481.425L888.929 583.364C888.929 607.118 869.672 626.374 845.918 626.374V626.374C822.165 626.374 802.908 607.118 802.908 583.364V486.1C802.908 455.117 777.791 430 746.808 430H737.333C711.583 430 690.708 450.875 690.708 476.625V476.625C690.708 502.375 669.708 523.25 643.958 523.25V523.25C618.207 523.25 597.208 502.375 597.208 476.625V476.625C597.208 450.875 576.333 430 550.583 430H537.487C512.634 430 492.487 450.147 492.487 475V485.405C492.487 504.511 476.998 520 457.892 520V520C438.786 520 423.297 504.511 423.297 485.405V475C423.297 450.147 403.15 430 378.297 430H328.086C294.949 430 268.086 456.863 268.086 490V516.334C268.086 534.927 253.013 550 234.42 550V550C215.826 550 200.753 534.927 200.753 516.334V436.821C200.753 408.754 178 386 149.932 386H106.378C102.364 386 99.1104 382.746 99.1104 378.733V378.733C99.1104 374.719 95.8567 371.465 91.843 371.465H49.5552C22.1866 371.465 0 393.652 0 421.02V1428.95C0 1456.32 22.1866 1478.51 49.5552 1478.51V1478.51C76.9238 1478.51 99.1104 1456.32 99.1104 1428.95V1369.56C99.1104 1343.29 120.402 1322 146.666 1322V1322C172.93 1322 194.221 1343.29 194.221 1369.56V1513.99C194.221 1541.36 216.407 1563.54 243.776 1563.54V1563.54C271.145 1563.54 293.331 1541.36 293.331 1513.99V1341.63C293.331 1314.26 315.518 1292.07 342.886 1292.07V1292.07C370.255 1292.07 392.442 1314.26 392.442 1341.63V1964.11C392.442 1991.74 414.838 2014.14 442.464 2014.14V2014.14C470.091 2014.14 492.487 1991.74 492.487 1964.11V1543.59C492.487 1516.22 514.674 1494.03 542.042 1494.03V1494.03C569.411 1494.03 591.597 1516.22 591.597 1543.59V1906.12C591.597 1933.49 613.784 1955.68 641.153 1955.68V1955.68C668.521 1955.68 690.708 1933.49 690.708 1906.12V1667.01C690.708 1639.64 712.894 1617.45 740.263 1617.45V1617.45C767.632 1617.45 789.818 1639.64 789.818 1667.01V2052.26C789.818 2079.62 812.005 2101.81 839.373 2101.81V2101.81C866.742 2101.81 888.929 2079.62 888.929 2052.26L888.929 1500.58C888.929 1473.21 911.115 1451.02 938.484 1451.02V1451.02C965.852 1451.02 988.039 1473.21 988.039 1500.58V1966.95C988.039 1994.58 1010.43 2016.98 1038.06 2016.98V2016.98C1065.69 2016.98 1088.08 1994.58 1088.08 1966.95V1395.86C1088.08 1368.49 1110.27 1346.3 1137.64 1346.3V1346.3C1165.01 1346.3 1187.19 1368.49 1187.19 1395.86V1692.79C1187.19 1723.26 1211.89 1747.96 1242.36 1747.96V1747.96C1272.83 1747.96 1297.53 1723.26 1297.53 1692.79V1475.97C1297.53 1452.8 1316.3 1434.02 1339.47 1434.02V1434.02C1362.64 1434.02 1381.42 1452.8 1381.42 1475.97V1545.56C1381.42 1572.93 1403.6 1595.12 1430.97 1595.12V1595.12C1458.34 1595.12 1480.53 1572.93 1480.53 1545.56V49.5552ZM293.331 1662.08C293.331 1634.72 271.145 1612.53 243.776 1612.53V1612.53C216.407 1612.53 194.221 1634.72 194.221 1662.08V1700.42C194.221 1727.79 216.407 1749.97 243.776 1749.97V1749.97C271.145 1749.97 293.331 1727.79 293.331 1700.42V1662.08Z" fill="#C4C4C4"/>
</mask>
<g mask="url(#mask0_4_102)">
<rect y="-16" width="1481" height="2130" fill="white"/>
</g>
</svg>
