<svg width="1208" height="233" viewBox="0 0 1208 233" fill="none" xmlns="http://www.w3.org/2000/svg">
<g filter="url(#filter0_ii_1_486)">
<rect y="0.511841" width="1208" height="231.598" rx="26" fill="#262E33"/>
</g>
<g filter="url(#filter1_ii_1_486)">
<rect x="21.8594" y="20.9208" width="1164.28" height="190.78" rx="16" fill="#192025"/>
</g>
<rect x="52.0293" y="55.011" width="12.9876" height="12.9876" rx="4" fill="#2E3438"/>
<rect x="70.213" y="55.011" width="12.9876" height="12.9876" rx="4" fill="#71B35F"/>
<rect x="88.3936" y="55.011" width="12.9876" height="12.9876" rx="4" fill="#57894B"/>
<rect x="106.576" y="55.011" width="12.9876" height="12.9876" rx="4" fill="#2E3438"/>
<rect x="124.76" y="55.011" width="12.9876" height="12.9876" rx="4" fill="#2E3438"/>
<rect x="142.942" y="55.011" width="12.9876" height="12.9876" rx="4" fill="#71B35F"/>
<rect x="161.126" y="55.011" width="12.9876" height="12.9876" rx="4" fill="#57894B"/>
<rect x="179.308" y="55.011" width="12.9876" height="12.9876" rx="4" fill="#71B35F"/>
<rect x="197.488" y="55.011" width="12.9876" height="12.9876" rx="4" fill="#2E3438"/>
<rect x="215.672" y="55.011" width="12.9876" height="12.9876" rx="4" fill="#2E3438"/>
<rect x="233.857" y="55.011" width="12.9876" height="12.9876" rx="4" fill="#71B35F"/>
<rect x="252.036" y="55.011" width="12.9876" height="12.9876" rx="4" fill="#71B35F"/>
<rect x="270.221" y="55.011" width="12.9876" height="12.9876" rx="4" fill="#71B35F"/>
<rect x="288.404" y="55.011" width="12.9876" height="12.9876" rx="4" fill="#57894B"/>
<rect x="306.586" y="55.011" width="12.9876" height="12.9876" rx="4" fill="#2E3438"/>
<rect x="324.767" y="55.011" width="12.9876" height="12.9876" rx="4" fill="#57894B"/>
<rect x="342.951" y="55.011" width="12.9876" height="12.9876" rx="4" fill="#57894B"/>
<rect x="361.133" y="55.011" width="12.9876" height="12.9876" rx="4" fill="#71B35F"/>
<rect x="379.316" y="55.011" width="12.9876" height="12.9876" rx="4" fill="#71B35F"/>
<rect x="397.499" y="55.011" width="12.9876" height="12.9876" rx="4" fill="#2E3438"/>
<rect x="415.681" y="55.011" width="12.9876" height="12.9876" rx="4" fill="#57894B"/>
<rect x="433.865" y="55.011" width="12.9876" height="12.9876" rx="4" fill="#2E3438"/>
<rect x="452.049" y="55.011" width="12.9876" height="12.9876" rx="4" fill="#2E3438"/>
<rect x="470.227" y="55.011" width="12.9876" height="12.9876" rx="4" fill="#71B35F"/>
<rect x="488.411" y="55.011" width="12.9876" height="12.9876" rx="4" fill="#2E3438"/>
<rect x="506.595" y="55.011" width="12.9876" height="12.9876" rx="4" fill="#2E3438"/>
<rect x="524.775" y="55.011" width="12.9876" height="12.9876" rx="4" fill="#2E3438"/>
<rect x="542.959" y="55.011" width="12.9876" height="12.9876" rx="4" fill="#2E3438"/>
<rect x="561.143" y="55.011" width="12.9876" height="12.9876" rx="4" fill="#57894B"/>
<rect x="579.324" y="55.011" width="12.9876" height="12.9876" rx="4" fill="#71B35F"/>
<rect x="597.506" y="55.011" width="12.9876" height="12.9876" rx="4" fill="#2E3438"/>
<rect x="615.69" y="55.011" width="12.9876" height="12.9876" rx="4" fill="#2E3438"/>
<rect x="633.871" y="55.011" width="12.9876" height="12.9876" rx="4" fill="#2E3438"/>
<rect x="652.056" y="55.011" width="12.9876" height="12.9876" rx="4" fill="#71B35F"/>
<rect x="670.236" y="55.011" width="12.9876" height="12.9876" rx="4" fill="#57894B"/>
<rect x="688.418" y="55.011" width="12.9876" height="12.9876" rx="4" fill="#2E3438"/>
<rect x="706.602" y="55.011" width="12.9876" height="12.9876" rx="4" fill="#2E3438"/>
<rect x="724.783" y="55.011" width="12.9876" height="12.9876" rx="4" fill="#71B35F"/>
<rect x="742.967" y="55.011" width="12.9876" height="12.9876" rx="4" fill="#2E3438"/>
<rect x="761.15" y="55.011" width="12.9876" height="12.9876" rx="4" fill="#2E3438"/>
<rect x="779.334" y="55.011" width="12.9876" height="12.9876" rx="4" fill="#71B35F"/>
<rect x="797.513" y="55.011" width="12.9876" height="12.9876" rx="4" fill="#2E3438"/>
<rect x="815.696" y="55.011" width="12.9876" height="12.9876" rx="4" fill="#2E3438"/>
<rect x="833.881" y="55.011" width="12.9876" height="12.9876" rx="4" fill="#71B35F"/>
<rect x="852.062" y="55.011" width="12.9876" height="12.9876" rx="4" fill="#57894B"/>
<rect x="870.245" y="55.011" width="12.9876" height="12.9876" rx="4" fill="#2E3438"/>
<rect x="888.429" y="55.011" width="12.9876" height="12.9876" rx="4" fill="#2E3438"/>
<rect x="906.609" y="55.011" width="12.9876" height="12.9876" rx="4" fill="#71B35F"/>
<rect x="924.793" y="55.011" width="12.9876" height="12.9876" rx="4" fill="#57894B"/>
<rect x="942.974" y="55.011" width="12.9876" height="12.9876" rx="4" fill="#71B35F"/>
<rect x="961.157" y="55.011" width="12.9876" height="12.9876" rx="4" fill="#2E3438"/>
<rect x="979.341" y="55.011" width="12.9876" height="12.9876" rx="4" fill="#2E3438"/>
<rect x="997.525" y="55.011" width="12.9876" height="12.9876" rx="4" fill="#71B35F"/>
<rect x="1015.7" y="55.011" width="12.9876" height="12.9876" rx="4" fill="#71B35F"/>
<rect x="1033.89" y="55.011" width="12.9876" height="12.9876" rx="4" fill="#57894B"/>
<rect x="1052.07" y="55.011" width="12.9876" height="12.9876" rx="4" fill="#57894B"/>
<rect x="1070.25" y="55.011" width="12.9876" height="12.9876" rx="4" fill="#2E3438"/>
<rect x="1088.44" y="55.0111" width="12.9876" height="12.9876" rx="4" fill="#2E3438"/>
<rect x="1106.62" y="55.0111" width="12.9876" height="12.9876" rx="4" fill="#71B35F"/>
<rect x="1124.8" y="55.0111" width="12.9876" height="12.9876" rx="4" fill="#57894B"/>
<rect x="1142.98" y="55.0111" width="12.9876" height="12.9876" rx="4" fill="#2E3438"/>
<rect x="52.0293" y="73.1936" width="12.9876" height="12.9876" rx="4" fill="#71B35F"/>
<rect x="70.213" y="73.1936" width="12.9876" height="12.9876" rx="4" fill="#2E3438"/>
<rect x="88.3936" y="73.1936" width="12.9876" height="12.9876" rx="4" fill="#2E3438"/>
<rect x="106.576" y="73.1936" width="12.9876" height="12.9876" rx="4" fill="#71B35F"/>
<rect x="124.76" y="73.1936" width="12.9876" height="12.9876" rx="4" fill="#2E3438"/>
<rect x="142.942" y="73.1936" width="12.9876" height="12.9876" rx="4" fill="#71B35F"/>
<rect x="161.126" y="73.1936" width="12.9876" height="12.9876" rx="4" fill="#2E3438"/>
<rect x="179.308" y="73.1936" width="12.9876" height="12.9876" rx="4" fill="#2E3438"/>
<rect x="197.488" y="73.1936" width="12.9876" height="12.9876" rx="4" fill="#71B35F"/>
<rect x="215.672" y="73.1936" width="12.9876" height="12.9876" rx="4" fill="#2E3438"/>
<rect x="233.857" y="73.1936" width="12.9876" height="12.9876" rx="4" fill="#57894B"/>
<rect x="252.036" y="73.1936" width="12.9876" height="12.9876" rx="4" fill="#2E3438"/>
<rect x="270.221" y="73.1936" width="12.9876" height="12.9876" rx="4" fill="#2E3438"/>
<rect x="288.404" y="73.1936" width="12.9876" height="12.9876" rx="4" fill="#2E3438"/>
<rect x="306.586" y="73.1936" width="12.9876" height="12.9876" rx="4" fill="#2E3438"/>
<rect x="324.767" y="73.1936" width="12.9876" height="12.9876" rx="4" fill="#71B35F"/>
<rect x="342.951" y="73.1936" width="12.9876" height="12.9876" rx="4" fill="#2E3438"/>
<rect x="361.133" y="73.1936" width="12.9876" height="12.9876" rx="4" fill="#2E3438"/>
<rect x="379.316" y="73.1936" width="12.9876" height="12.9876" rx="4" fill="#2E3438"/>
<rect x="397.499" y="73.1936" width="12.9876" height="12.9876" rx="4" fill="#2E3438"/>
<rect x="415.681" y="73.1936" width="12.9876" height="12.9876" rx="4" fill="#71B35F"/>
<rect x="433.865" y="73.1936" width="12.9876" height="12.9876" rx="4" fill="#71B35F"/>
<rect x="452.049" y="73.1936" width="12.9876" height="12.9876" rx="4" fill="#2E3438"/>
<rect x="470.227" y="73.1936" width="12.9876" height="12.9876" rx="4" fill="#57894B"/>
<rect x="488.411" y="73.1936" width="12.9876" height="12.9876" rx="4" fill="#2E3438"/>
<rect x="506.595" y="73.1936" width="12.9876" height="12.9876" rx="4" fill="#2E3438"/>
<rect x="524.775" y="73.1936" width="12.9876" height="12.9876" rx="4" fill="#2E3438"/>
<rect x="542.959" y="73.1936" width="12.9876" height="12.9876" rx="4" fill="#71B35F"/>
<rect x="561.143" y="73.1936" width="12.9876" height="12.9876" rx="4" fill="#2E3438"/>
<rect x="579.324" y="73.1936" width="12.9876" height="12.9876" rx="4" fill="#2E3438"/>
<rect x="597.506" y="73.1936" width="12.9876" height="12.9876" rx="4" fill="#71B35F"/>
<rect x="615.69" y="73.1936" width="12.9876" height="12.9876" rx="4" fill="#2E3438"/>
<rect x="633.871" y="73.1936" width="12.9876" height="12.9876" rx="4" fill="#71B35F"/>
<rect x="652.056" y="73.1936" width="12.9876" height="12.9876" rx="4" fill="#2E3438"/>
<rect x="670.236" y="73.1936" width="12.9876" height="12.9876" rx="4" fill="#2E3438"/>
<rect x="688.418" y="73.1936" width="12.9876" height="12.9876" rx="4" fill="#57894B"/>
<rect x="706.602" y="73.1936" width="12.9876" height="12.9876" rx="4" fill="#2E3438"/>
<rect x="724.783" y="73.1936" width="12.9876" height="12.9876" rx="4" fill="#71B35F"/>
<rect x="742.967" y="73.1936" width="12.9876" height="12.9876" rx="4" fill="#2E3438"/>
<rect x="761.15" y="73.1936" width="12.9876" height="12.9876" rx="4" fill="#2E3438"/>
<rect x="779.334" y="73.1936" width="12.9876" height="12.9876" rx="4" fill="#71B35F"/>
<rect x="797.513" y="73.1936" width="12.9876" height="12.9876" rx="4" fill="#2E3438"/>
<rect x="815.696" y="73.1936" width="12.9876" height="12.9876" rx="4" fill="#71B35F"/>
<rect x="833.881" y="73.1936" width="12.9876" height="12.9876" rx="4" fill="#2E3438"/>
<rect x="852.062" y="73.1936" width="12.9876" height="12.9876" rx="4" fill="#2E3438"/>
<rect x="870.245" y="73.1936" width="12.9876" height="12.9876" rx="4" fill="#71B35F"/>
<rect x="888.429" y="73.1936" width="12.9876" height="12.9876" rx="4" fill="#2E3438"/>
<rect x="906.609" y="73.1936" width="12.9876" height="12.9876" rx="4" fill="#71B35F"/>
<rect x="924.793" y="73.1936" width="12.9876" height="12.9876" rx="4" fill="#2E3438"/>
<rect x="942.974" y="73.1936" width="12.9876" height="12.9876" rx="4" fill="#2E3438"/>
<rect x="961.157" y="73.1936" width="12.9876" height="12.9876" rx="4" fill="#71B35F"/>
<rect x="979.341" y="73.1936" width="12.9876" height="12.9876" rx="4" fill="#2E3438"/>
<rect x="997.525" y="73.1936" width="12.9876" height="12.9876" rx="4" fill="#71B35F"/>
<rect x="1015.7" y="73.1936" width="12.9876" height="12.9876" rx="4" fill="#2E3438"/>
<rect x="1033.89" y="73.1936" width="12.9876" height="12.9876" rx="4" fill="#2E3438"/>
<rect x="1052.07" y="73.1936" width="12.9876" height="12.9876" rx="4" fill="#2E3438"/>
<rect x="1070.25" y="73.1936" width="12.9876" height="12.9876" rx="4" fill="#2E3438"/>
<rect x="1088.44" y="73.1936" width="12.9876" height="12.9876" rx="4" fill="#57894B"/>
<rect x="1106.62" y="73.1936" width="12.9876" height="12.9876" rx="4" fill="#2E3438"/>
<rect x="1124.8" y="73.1936" width="12.9876" height="12.9876" rx="4" fill="#2E3438"/>
<rect x="1142.98" y="73.1936" width="12.9876" height="12.9876" rx="4" fill="#71B35F"/>
<rect x="52.0293" y="91.3762" width="12.9876" height="12.9876" rx="4" fill="#71B35F"/>
<rect x="70.213" y="91.3762" width="12.9876" height="12.9876" rx="4" fill="#2E3438"/>
<rect x="88.3936" y="91.3762" width="12.9876" height="12.9876" rx="4" fill="#2E3438"/>
<rect x="106.576" y="91.3762" width="12.9876" height="12.9876" rx="4" fill="#2E3438"/>
<rect x="124.76" y="91.3762" width="12.9876" height="12.9876" rx="4" fill="#2E3438"/>
<rect x="142.942" y="91.3762" width="12.9876" height="12.9876" rx="4" fill="#57894B"/>
<rect x="161.126" y="91.3762" width="12.9876" height="12.9876" rx="4" fill="#2E3438"/>
<rect x="179.308" y="91.3762" width="12.9876" height="12.9876" rx="4" fill="#2E3438"/>
<rect x="197.488" y="91.3762" width="12.9876" height="12.9876" rx="4" fill="#71B35F"/>
<rect x="215.672" y="91.3762" width="12.9876" height="12.9876" rx="4" fill="#2E3438"/>
<rect x="233.857" y="91.3762" width="12.9876" height="12.9876" rx="4" fill="#57894B"/>
<rect x="252.036" y="91.3762" width="12.9876" height="12.9876" rx="4" fill="#2E3438"/>
<rect x="270.221" y="91.3762" width="12.9876" height="12.9876" rx="4" fill="#2E3438"/>
<rect x="288.404" y="91.3762" width="12.9876" height="12.9876" rx="4" fill="#2E3438"/>
<rect x="306.586" y="91.3762" width="12.9876" height="12.9876" rx="4" fill="#2E3438"/>
<rect x="324.767" y="91.3762" width="12.9876" height="12.9876" rx="4" fill="#71B35F"/>
<rect x="342.951" y="91.3762" width="12.9876" height="12.9876" rx="4" fill="#2E3438"/>
<rect x="361.133" y="91.3762" width="12.9876" height="12.9876" rx="4" fill="#2E3438"/>
<rect x="379.316" y="91.3762" width="12.9876" height="12.9876" rx="4" fill="#2E3438"/>
<rect x="397.499" y="91.3762" width="12.9876" height="12.9876" rx="4" fill="#2E3438"/>
<rect x="415.681" y="91.3762" width="12.9876" height="12.9876" rx="4" fill="#71B35F"/>
<rect x="433.865" y="91.3762" width="12.9876" height="12.9876" rx="4" fill="#57894B"/>
<rect x="452.049" y="91.3762" width="12.9876" height="12.9876" rx="4" fill="#2E3438"/>
<rect x="470.227" y="91.3762" width="12.9876" height="12.9876" rx="4" fill="#71B35F"/>
<rect x="488.411" y="91.3762" width="12.9876" height="12.9876" rx="4" fill="#2E3438"/>
<rect x="506.595" y="91.3762" width="12.9876" height="12.9876" rx="4" fill="#2E3438"/>
<rect x="524.775" y="91.3762" width="12.9876" height="12.9876" rx="4" fill="#2E3438"/>
<rect x="542.959" y="91.3762" width="12.9876" height="12.9876" rx="4" fill="#57894B"/>
<rect x="561.143" y="91.3762" width="12.9876" height="12.9876" rx="4" fill="#2E3438"/>
<rect x="579.324" y="91.3762" width="12.9876" height="12.9876" rx="4" fill="#2E3438"/>
<rect x="597.506" y="91.3762" width="12.9876" height="12.9876" rx="4" fill="#2E3438"/>
<rect x="615.69" y="91.3762" width="12.9876" height="12.9876" rx="4" fill="#2E3438"/>
<rect x="633.871" y="91.3762" width="12.9876" height="12.9876" rx="4" fill="#57894B"/>
<rect x="652.056" y="91.3762" width="12.9876" height="12.9876" rx="4" fill="#2E3438"/>
<rect x="670.236" y="91.3762" width="12.9876" height="12.9876" rx="4" fill="#2E3438"/>
<rect x="688.418" y="91.3762" width="12.9876" height="12.9876" rx="4" fill="#71B35F"/>
<rect x="706.602" y="91.3762" width="12.9876" height="12.9876" rx="4" fill="#2E3438"/>
<rect x="724.783" y="91.3762" width="12.9876" height="12.9876" rx="4" fill="#71B35F"/>
<rect x="742.967" y="91.3762" width="12.9876" height="12.9876" rx="4" fill="#2E3438"/>
<rect x="761.15" y="91.3762" width="12.9876" height="12.9876" rx="4" fill="#2E3438"/>
<rect x="779.334" y="91.3762" width="12.9876" height="12.9876" rx="4" fill="#57894B"/>
<rect x="797.513" y="91.3762" width="12.9876" height="12.9876" rx="4" fill="#2E3438"/>
<rect x="815.696" y="91.3762" width="12.9876" height="12.9876" rx="4" fill="#71B35F"/>
<rect x="833.881" y="91.3762" width="12.9876" height="12.9876" rx="4" fill="#2E3438"/>
<rect x="852.062" y="91.3762" width="12.9876" height="12.9876" rx="4" fill="#2E3438"/>
<rect x="870.245" y="91.3762" width="12.9876" height="12.9876" rx="4" fill="#71B35F"/>
<rect x="888.429" y="91.3762" width="12.9876" height="12.9876" rx="4" fill="#2E3438"/>
<rect x="906.609" y="91.3762" width="12.9876" height="12.9876" rx="4" fill="#57894B"/>
<rect x="924.793" y="91.3762" width="12.9876" height="12.9876" rx="4" fill="#2E3438"/>
<rect x="942.974" y="91.3762" width="12.9876" height="12.9876" rx="4" fill="#2E3438"/>
<rect x="961.157" y="91.3762" width="12.9876" height="12.9876" rx="4" fill="#71B35F"/>
<rect x="979.341" y="91.3762" width="12.9876" height="12.9876" rx="4" fill="#2E3438"/>
<rect x="997.525" y="91.3762" width="12.9876" height="12.9876" rx="4" fill="#71B35F"/>
<rect x="1015.7" y="91.3762" width="12.9876" height="12.9876" rx="4" fill="#2E3438"/>
<rect x="1033.89" y="91.3762" width="12.9876" height="12.9876" rx="4" fill="#2E3438"/>
<rect x="1052.07" y="91.3762" width="12.9876" height="12.9876" rx="4" fill="#2E3438"/>
<rect x="1070.25" y="91.3762" width="12.9876" height="12.9876" rx="4" fill="#2E3438"/>
<rect x="1088.44" y="91.3763" width="12.9876" height="12.9876" rx="4" fill="#57894B"/>
<rect x="1106.62" y="91.3763" width="12.9876" height="12.9876" rx="4" fill="#2E3438"/>
<rect x="1124.8" y="91.3763" width="12.9876" height="12.9876" rx="4" fill="#2E3438"/>
<rect x="1142.98" y="91.3763" width="12.9876" height="12.9876" rx="4" fill="#2E3438"/>
<rect x="52.0293" y="109.559" width="12.9876" height="12.9876" rx="4" fill="#57894B"/>
<rect x="70.213" y="109.559" width="12.9876" height="12.9876" rx="4" fill="#2E3438"/>
<rect x="88.3936" y="109.559" width="12.9876" height="12.9876" rx="4" fill="#71B35F"/>
<rect x="106.576" y="109.559" width="12.9876" height="12.9876" rx="4" fill="#71B35F"/>
<rect x="124.76" y="109.559" width="12.9876" height="12.9876" rx="4" fill="#2E3438"/>
<rect x="142.942" y="109.559" width="12.9876" height="12.9876" rx="4" fill="#71B35F"/>
<rect x="161.126" y="109.559" width="12.9876" height="12.9876" rx="4" fill="#71B35F"/>
<rect x="179.308" y="109.559" width="12.9876" height="12.9876" rx="4" fill="#71B35F"/>
<rect x="197.488" y="109.559" width="12.9876" height="12.9876" rx="4" fill="#2E3438"/>
<rect x="215.672" y="109.559" width="12.9876" height="12.9876" rx="4" fill="#2E3438"/>
<rect x="233.857" y="109.559" width="12.9876" height="12.9876" rx="4" fill="#71B35F"/>
<rect x="252.036" y="109.559" width="12.9876" height="12.9876" rx="4" fill="#57894B"/>
<rect x="270.221" y="109.559" width="12.9876" height="12.9876" rx="4" fill="#57894B"/>
<rect x="288.404" y="109.559" width="12.9876" height="12.9876" rx="4" fill="#2E3438"/>
<rect x="306.586" y="109.559" width="12.9876" height="12.9876" rx="4" fill="#2E3438"/>
<rect x="324.767" y="109.559" width="12.9876" height="12.9876" rx="4" fill="#57894B"/>
<rect x="342.951" y="109.559" width="12.9876" height="12.9876" rx="4" fill="#57894B"/>
<rect x="361.133" y="109.559" width="12.9876" height="12.9876" rx="4" fill="#71B35F"/>
<rect x="379.316" y="109.559" width="12.9876" height="12.9876" rx="4" fill="#2E3438"/>
<rect x="397.499" y="109.559" width="12.9876" height="12.9876" rx="4" fill="#2E3438"/>
<rect x="415.681" y="109.559" width="12.9876" height="12.9876" rx="4" fill="#57894B"/>
<rect x="433.865" y="109.559" width="12.9876" height="12.9876" rx="4" fill="#71B35F"/>
<rect x="452.049" y="109.559" width="12.9876" height="12.9876" rx="4" fill="#57894B"/>
<rect x="470.227" y="109.559" width="12.9876" height="12.9876" rx="4" fill="#71B35F"/>
<rect x="488.411" y="109.559" width="12.9876" height="12.9876" rx="4" fill="#2E3438"/>
<rect x="506.595" y="109.559" width="12.9876" height="12.9876" rx="4" fill="#2E3438"/>
<rect x="524.775" y="109.559" width="12.9876" height="12.9876" rx="4" fill="#2E3438"/>
<rect x="542.959" y="109.559" width="12.9876" height="12.9876" rx="4" fill="#2E3438"/>
<rect x="561.143" y="109.559" width="12.9876" height="12.9876" rx="4" fill="#71B35F"/>
<rect x="579.324" y="109.559" width="12.9876" height="12.9876" rx="4" fill="#71B35F"/>
<rect x="597.506" y="109.559" width="12.9876" height="12.9876" rx="4" fill="#2E3438"/>
<rect x="615.69" y="109.559" width="12.9876" height="12.9876" rx="4" fill="#2E3438"/>
<rect x="633.871" y="109.559" width="12.9876" height="12.9876" rx="4" fill="#57894B"/>
<rect x="652.056" y="109.559" width="12.9876" height="12.9876" rx="4" fill="#2E3438"/>
<rect x="670.236" y="109.559" width="12.9876" height="12.9876" rx="4" fill="#2E3438"/>
<rect x="688.418" y="109.559" width="12.9876" height="12.9876" rx="4" fill="#71B35F"/>
<rect x="706.602" y="109.559" width="12.9876" height="12.9876" rx="4" fill="#2E3438"/>
<rect x="724.783" y="109.559" width="12.9876" height="12.9876" rx="4" fill="#71B35F"/>
<rect x="742.967" y="109.559" width="12.9876" height="12.9876" rx="4" fill="#2E3438"/>
<rect x="761.15" y="109.559" width="12.9876" height="12.9876" rx="4" fill="#2E3438"/>
<rect x="779.334" y="109.559" width="12.9876" height="12.9876" rx="4" fill="#71B35F"/>
<rect x="797.513" y="109.559" width="12.9876" height="12.9876" rx="4" fill="#2E3438"/>
<rect x="815.696" y="109.559" width="12.9876" height="12.9876" rx="4" fill="#57894B"/>
<rect x="833.881" y="109.559" width="12.9876" height="12.9876" rx="4" fill="#57894B"/>
<rect x="852.062" y="109.559" width="12.9876" height="12.9876" rx="4" fill="#71B35F"/>
<rect x="870.245" y="109.559" width="12.9876" height="12.9876" rx="4" fill="#71B35F"/>
<rect x="888.429" y="109.559" width="12.9876" height="12.9876" rx="4" fill="#2E3438"/>
<rect x="906.609" y="109.559" width="12.9876" height="12.9876" rx="4" fill="#71B35F"/>
<rect x="924.793" y="109.559" width="12.9876" height="12.9876" rx="4" fill="#71B35F"/>
<rect x="942.974" y="109.559" width="12.9876" height="12.9876" rx="4" fill="#71B35F"/>
<rect x="961.157" y="109.559" width="12.9876" height="12.9876" rx="4" fill="#2E3438"/>
<rect x="979.341" y="109.559" width="12.9876" height="12.9876" rx="4" fill="#2E3438"/>
<rect x="997.525" y="109.559" width="12.9876" height="12.9876" rx="4" fill="#71B35F"/>
<rect x="1015.7" y="109.559" width="12.9876" height="12.9876" rx="4" fill="#57894B"/>
<rect x="1033.89" y="109.559" width="12.9876" height="12.9876" rx="4" fill="#71B35F"/>
<rect x="1052.07" y="109.559" width="12.9876" height="12.9876" rx="4" fill="#2E3438"/>
<rect x="1070.25" y="109.559" width="12.9876" height="12.9876" rx="4" fill="#2E3438"/>
<rect x="1088.44" y="109.559" width="12.9876" height="12.9876" rx="4" fill="#2E3438"/>
<rect x="1106.62" y="109.559" width="12.9876" height="12.9876" rx="4" fill="#71B35F"/>
<rect x="1124.8" y="109.559" width="12.9876" height="12.9876" rx="4" fill="#71B35F"/>
<rect x="1142.98" y="109.559" width="12.9876" height="12.9876" rx="4" fill="#2E3438"/>
<rect x="52.0293" y="127.741" width="12.9876" height="12.9876" rx="4" fill="#71B35F"/>
<rect x="70.213" y="127.741" width="12.9876" height="12.9876" rx="4" fill="#2E3438"/>
<rect x="88.3936" y="127.741" width="12.9876" height="12.9876" rx="4" fill="#2E3438"/>
<rect x="106.576" y="127.741" width="12.9876" height="12.9876" rx="4" fill="#71B35F"/>
<rect x="124.76" y="127.741" width="12.9876" height="12.9876" rx="4" fill="#2E3438"/>
<rect x="142.942" y="127.741" width="12.9876" height="12.9876" rx="4" fill="#57894B"/>
<rect x="161.126" y="127.741" width="12.9876" height="12.9876" rx="4" fill="#2E3438"/>
<rect x="179.308" y="127.741" width="12.9876" height="12.9876" rx="4" fill="#2E3438"/>
<rect x="197.488" y="127.741" width="12.9876" height="12.9876" rx="4" fill="#71B35F"/>
<rect x="215.672" y="127.741" width="12.9876" height="12.9876" rx="4" fill="#2E3438"/>
<rect x="233.857" y="127.741" width="12.9876" height="12.9876" rx="4" fill="#57894B"/>
<rect x="252.036" y="127.741" width="12.9876" height="12.9876" rx="4" fill="#2E3438"/>
<rect x="270.221" y="127.741" width="12.9876" height="12.9876" rx="4" fill="#2E3438"/>
<rect x="288.404" y="127.741" width="12.9876" height="12.9876" rx="4" fill="#2E3438"/>
<rect x="306.586" y="127.741" width="12.9876" height="12.9876" rx="4" fill="#2E3438"/>
<rect x="324.767" y="127.741" width="12.9876" height="12.9876" rx="4" fill="#71B35F"/>
<rect x="342.951" y="127.741" width="12.9876" height="12.9876" rx="4" fill="#2E3438"/>
<rect x="361.133" y="127.741" width="12.9876" height="12.9876" rx="4" fill="#2E3438"/>
<rect x="379.316" y="127.741" width="12.9876" height="12.9876" rx="4" fill="#2E3438"/>
<rect x="397.499" y="127.741" width="12.9876" height="12.9876" rx="4" fill="#2E3438"/>
<rect x="415.681" y="127.741" width="12.9876" height="12.9876" rx="4" fill="#71B35F"/>
<rect x="433.865" y="127.741" width="12.9876" height="12.9876" rx="4" fill="#2E3438"/>
<rect x="452.049" y="127.741" width="12.9876" height="12.9876" rx="4" fill="#57894B"/>
<rect x="470.227" y="127.741" width="12.9876" height="12.9876" rx="4" fill="#71B35F"/>
<rect x="488.411" y="127.741" width="12.9876" height="12.9876" rx="4" fill="#2E3438"/>
<rect x="506.595" y="127.741" width="12.9876" height="12.9876" rx="4" fill="#2E3438"/>
<rect x="524.775" y="127.741" width="12.9876" height="12.9876" rx="4" fill="#2E3438"/>
<rect x="542.959" y="127.741" width="12.9876" height="12.9876" rx="4" fill="#2E3438"/>
<rect x="561.143" y="127.741" width="12.9876" height="12.9876" rx="4" fill="#2E3438"/>
<rect x="579.324" y="127.741" width="12.9876" height="12.9876" rx="4" fill="#2E3438"/>
<rect x="597.506" y="127.741" width="12.9876" height="12.9876" rx="4" fill="#57894B"/>
<rect x="615.69" y="127.741" width="12.9876" height="12.9876" rx="4" fill="#2E3438"/>
<rect x="633.871" y="127.741" width="12.9876" height="12.9876" rx="4" fill="#57894B"/>
<rect x="652.056" y="127.741" width="12.9876" height="12.9876" rx="4" fill="#2E3438"/>
<rect x="670.236" y="127.741" width="12.9876" height="12.9876" rx="4" fill="#2E3438"/>
<rect x="688.418" y="127.741" width="12.9876" height="12.9876" rx="4" fill="#57894B"/>
<rect x="706.602" y="127.741" width="12.9876" height="12.9876" rx="4" fill="#2E3438"/>
<rect x="724.783" y="127.741" width="12.9876" height="12.9876" rx="4" fill="#71B35F"/>
<rect x="742.967" y="127.741" width="12.9876" height="12.9876" rx="4" fill="#2E3438"/>
<rect x="761.15" y="127.741" width="12.9876" height="12.9876" rx="4" fill="#2E3438"/>
<rect x="779.334" y="127.741" width="12.9876" height="12.9876" rx="4" fill="#71B35F"/>
<rect x="797.513" y="127.741" width="12.9876" height="12.9876" rx="4" fill="#2E3438"/>
<rect x="815.696" y="127.741" width="12.9876" height="12.9876" rx="4" fill="#57894B"/>
<rect x="833.881" y="127.741" width="12.9876" height="12.9876" rx="4" fill="#2E3438"/>
<rect x="852.062" y="127.741" width="12.9876" height="12.9876" rx="4" fill="#2E3438"/>
<rect x="870.245" y="127.741" width="12.9876" height="12.9876" rx="4" fill="#71B35F"/>
<rect x="888.429" y="127.741" width="12.9876" height="12.9876" rx="4" fill="#2E3438"/>
<rect x="906.609" y="127.741" width="12.9876" height="12.9876" rx="4" fill="#71B35F"/>
<rect x="924.793" y="127.741" width="12.9876" height="12.9876" rx="4" fill="#2E3438"/>
<rect x="942.974" y="127.741" width="12.9876" height="12.9876" rx="4" fill="#2E3438"/>
<rect x="961.157" y="127.741" width="12.9876" height="12.9876" rx="4" fill="#57894B"/>
<rect x="979.341" y="127.741" width="12.9876" height="12.9876" rx="4" fill="#2E3438"/>
<rect x="997.525" y="127.741" width="12.9876" height="12.9876" rx="4" fill="#57894B"/>
<rect x="1015.7" y="127.741" width="12.9876" height="12.9876" rx="4" fill="#2E3438"/>
<rect x="1033.89" y="127.741" width="12.9876" height="12.9876" rx="4" fill="#2E3438"/>
<rect x="1052.07" y="127.741" width="12.9876" height="12.9876" rx="4" fill="#2E3438"/>
<rect x="1070.25" y="127.741" width="12.9876" height="12.9876" rx="4" fill="#2E3438"/>
<rect x="1088.44" y="127.741" width="12.9876" height="12.9876" rx="4" fill="#2E3438"/>
<rect x="1106.62" y="127.741" width="12.9876" height="12.9876" rx="4" fill="#2E3438"/>
<rect x="1124.8" y="127.741" width="12.9876" height="12.9876" rx="4" fill="#2E3438"/>
<rect x="1142.98" y="127.741" width="12.9876" height="12.9876" rx="4" fill="#71B35F"/>
<rect x="52.0293" y="145.924" width="12.9876" height="12.9876" rx="4" fill="#71B35F"/>
<rect x="70.213" y="145.924" width="12.9876" height="12.9876" rx="4" fill="#2E3438"/>
<rect x="88.3936" y="145.924" width="12.9876" height="12.9876" rx="4" fill="#2E3438"/>
<rect x="106.576" y="145.924" width="12.9876" height="12.9876" rx="4" fill="#57894B"/>
<rect x="124.76" y="145.924" width="12.9876" height="12.9876" rx="4" fill="#2E3438"/>
<rect x="142.942" y="145.924" width="12.9876" height="12.9876" rx="4" fill="#57894B"/>
<rect x="161.126" y="145.924" width="12.9876" height="12.9876" rx="4" fill="#2E3438"/>
<rect x="179.308" y="145.924" width="12.9876" height="12.9876" rx="4" fill="#2E3438"/>
<rect x="197.488" y="145.924" width="12.9876" height="12.9876" rx="4" fill="#71B35F"/>
<rect x="215.672" y="145.924" width="12.9876" height="12.9876" rx="4" fill="#2E3438"/>
<rect x="233.857" y="145.924" width="12.9876" height="12.9876" rx="4" fill="#71B35F"/>
<rect x="252.036" y="145.924" width="12.9876" height="12.9876" rx="4" fill="#2E3438"/>
<rect x="270.221" y="145.924" width="12.9876" height="12.9876" rx="4" fill="#2E3438"/>
<rect x="288.404" y="145.924" width="12.9876" height="12.9876" rx="4" fill="#2E3438"/>
<rect x="306.586" y="145.924" width="12.9876" height="12.9876" rx="4" fill="#2E3438"/>
<rect x="324.767" y="145.924" width="12.9876" height="12.9876" rx="4" fill="#71B35F"/>
<rect x="342.951" y="145.924" width="12.9876" height="12.9876" rx="4" fill="#2E3438"/>
<rect x="361.133" y="145.924" width="12.9876" height="12.9876" rx="4" fill="#2E3438"/>
<rect x="379.316" y="145.924" width="12.9876" height="12.9876" rx="4" fill="#2E3438"/>
<rect x="397.499" y="145.924" width="12.9876" height="12.9876" rx="4" fill="#2E3438"/>
<rect x="415.681" y="145.924" width="12.9876" height="12.9876" rx="4" fill="#57894B"/>
<rect x="433.865" y="145.924" width="12.9876" height="12.9876" rx="4" fill="#2E3438"/>
<rect x="452.049" y="145.924" width="12.9876" height="12.9876" rx="4" fill="#71B35F"/>
<rect x="470.227" y="145.924" width="12.9876" height="12.9876" rx="4" fill="#71B35F"/>
<rect x="488.411" y="145.924" width="12.9876" height="12.9876" rx="4" fill="#2E3438"/>
<rect x="506.595" y="145.924" width="12.9876" height="12.9876" rx="4" fill="#2E3438"/>
<rect x="524.775" y="145.924" width="12.9876" height="12.9876" rx="4" fill="#2E3438"/>
<rect x="542.959" y="145.924" width="12.9876" height="12.9876" rx="4" fill="#71B35F"/>
<rect x="561.143" y="145.924" width="12.9876" height="12.9876" rx="4" fill="#2E3438"/>
<rect x="579.324" y="145.924" width="12.9876" height="12.9876" rx="4" fill="#2E3438"/>
<rect x="597.506" y="145.924" width="12.9876" height="12.9876" rx="4" fill="#57894B"/>
<rect x="615.69" y="145.924" width="12.9876" height="12.9876" rx="4" fill="#2E3438"/>
<rect x="633.871" y="145.924" width="12.9876" height="12.9876" rx="4" fill="#2E3438"/>
<rect x="652.056" y="145.924" width="12.9876" height="12.9876" rx="4" fill="#71B35F"/>
<rect x="670.236" y="145.924" width="12.9876" height="12.9876" rx="4" fill="#71B35F"/>
<rect x="688.418" y="145.924" width="12.9876" height="12.9876" rx="4" fill="#2E3438"/>
<rect x="706.602" y="145.924" width="12.9876" height="12.9876" rx="4" fill="#2E3438"/>
<rect x="724.783" y="145.924" width="12.9876" height="12.9876" rx="4" fill="#57894B"/>
<rect x="742.967" y="145.924" width="12.9876" height="12.9876" rx="4" fill="#2E3438"/>
<rect x="761.15" y="145.924" width="12.9876" height="12.9876" rx="4" fill="#2E3438"/>
<rect x="779.334" y="145.924" width="12.9876" height="12.9876" rx="4" fill="#57894B"/>
<rect x="797.513" y="145.924" width="12.9876" height="12.9876" rx="4" fill="#2E3438"/>
<rect x="815.696" y="145.924" width="12.9876" height="12.9876" rx="4" fill="#71B35F"/>
<rect x="833.881" y="145.924" width="12.9876" height="12.9876" rx="4" fill="#2E3438"/>
<rect x="852.062" y="145.924" width="12.9876" height="12.9876" rx="4" fill="#2E3438"/>
<rect x="870.245" y="145.924" width="12.9876" height="12.9876" rx="4" fill="#71B35F"/>
<rect x="888.429" y="145.924" width="12.9876" height="12.9876" rx="4" fill="#2E3438"/>
<rect x="906.609" y="145.924" width="12.9876" height="12.9876" rx="4" fill="#57894B"/>
<rect x="924.793" y="145.924" width="12.9876" height="12.9876" rx="4" fill="#2E3438"/>
<rect x="942.974" y="145.924" width="12.9876" height="12.9876" rx="4" fill="#2E3438"/>
<rect x="961.157" y="145.924" width="12.9876" height="12.9876" rx="4" fill="#71B35F"/>
<rect x="979.341" y="145.924" width="12.9876" height="12.9876" rx="4" fill="#2E3438"/>
<rect x="997.525" y="145.924" width="12.9876" height="12.9876" rx="4" fill="#57894B"/>
<rect x="1015.7" y="145.924" width="12.9876" height="12.9876" rx="4" fill="#2E3438"/>
<rect x="1033.89" y="145.924" width="12.9876" height="12.9876" rx="4" fill="#2E3438"/>
<rect x="1052.07" y="145.924" width="12.9876" height="12.9876" rx="4" fill="#2E3438"/>
<rect x="1070.25" y="145.924" width="12.9876" height="12.9876" rx="4" fill="#2E3438"/>
<rect x="1088.44" y="145.924" width="12.9876" height="12.9876" rx="4" fill="#71B35F"/>
<rect x="1106.62" y="145.924" width="12.9876" height="12.9876" rx="4" fill="#2E3438"/>
<rect x="1124.8" y="145.924" width="12.9876" height="12.9876" rx="4" fill="#2E3438"/>
<rect x="1142.98" y="145.924" width="12.9876" height="12.9876" rx="4" fill="#57894B"/>
<rect x="52.0293" y="164.107" width="12.9876" height="12.9876" rx="4" fill="#2E3438"/>
<rect x="70.213" y="164.107" width="12.9876" height="12.9876" rx="4" fill="#57894B"/>
<rect x="88.3936" y="164.107" width="12.9876" height="12.9876" rx="4" fill="#71B35F"/>
<rect x="106.576" y="164.107" width="12.9876" height="12.9876" rx="4" fill="#2E3438"/>
<rect x="124.76" y="164.107" width="12.9876" height="12.9876" rx="4" fill="#2E3438"/>
<rect x="142.942" y="164.107" width="12.9876" height="12.9876" rx="4" fill="#71B35F"/>
<rect x="161.126" y="164.107" width="12.9876" height="12.9876" rx="4" fill="#2E3438"/>
<rect x="179.308" y="164.107" width="12.9876" height="12.9876" rx="4" fill="#2E3438"/>
<rect x="197.488" y="164.107" width="12.9876" height="12.9876" rx="4" fill="#57894B"/>
<rect x="215.672" y="164.107" width="12.9876" height="12.9876" rx="4" fill="#2E3438"/>
<rect x="233.857" y="164.107" width="12.9876" height="12.9876" rx="4" fill="#71B35F"/>
<rect x="252.036" y="164.107" width="12.9876" height="12.9876" rx="4" fill="#71B35F"/>
<rect x="270.221" y="164.107" width="12.9876" height="12.9876" rx="4" fill="#71B35F"/>
<rect x="288.404" y="164.107" width="12.9876" height="12.9876" rx="4" fill="#57894B"/>
<rect x="306.586" y="164.107" width="12.9876" height="12.9876" rx="4" fill="#2E3438"/>
<rect x="324.767" y="164.107" width="12.9876" height="12.9876" rx="4" fill="#71B35F"/>
<rect x="342.951" y="164.107" width="12.9876" height="12.9876" rx="4" fill="#57894B"/>
<rect x="361.133" y="164.107" width="12.9876" height="12.9876" rx="4" fill="#57894B"/>
<rect x="379.316" y="164.107" width="12.9876" height="12.9876" rx="4" fill="#71B35F"/>
<rect x="397.499" y="164.107" width="12.9876" height="12.9876" rx="4" fill="#2E3438"/>
<rect x="415.681" y="164.107" width="12.9876" height="12.9876" rx="4" fill="#71B35F"/>
<rect x="433.865" y="164.107" width="12.9876" height="12.9876" rx="4" fill="#2E3438"/>
<rect x="452.049" y="164.107" width="12.9876" height="12.9876" rx="4" fill="#2E3438"/>
<rect x="470.227" y="164.107" width="12.9876" height="12.9876" rx="4" fill="#57894B"/>
<rect x="488.411" y="164.107" width="12.9876" height="12.9876" rx="4" fill="#2E3438"/>
<rect x="506.595" y="164.107" width="12.9876" height="12.9876" rx="4" fill="#2E3438"/>
<rect x="524.775" y="164.107" width="12.9876" height="12.9876" rx="4" fill="#2E3438"/>
<rect x="542.959" y="164.107" width="12.9876" height="12.9876" rx="4" fill="#2E3438"/>
<rect x="561.143" y="164.107" width="12.9876" height="12.9876" rx="4" fill="#71B35F"/>
<rect x="579.324" y="164.107" width="12.9876" height="12.9876" rx="4" fill="#71B35F"/>
<rect x="597.506" y="164.107" width="12.9876" height="12.9876" rx="4" fill="#2E3438"/>
<rect x="615.69" y="164.107" width="12.9876" height="12.9876" rx="4" fill="#2E3438"/>
<rect x="633.871" y="164.107" width="12.9876" height="12.9876" rx="4" fill="#2E3438"/>
<rect x="652.056" y="164.107" width="12.9876" height="12.9876" rx="4" fill="#2E3438"/>
<rect x="670.236" y="164.107" width="12.9876" height="12.9876" rx="4" fill="#57894B"/>
<rect x="688.418" y="164.107" width="12.9876" height="12.9876" rx="4" fill="#71B35F"/>
<rect x="706.602" y="164.107" width="12.9876" height="12.9876" rx="4" fill="#2E3438"/>
<rect x="724.783" y="164.107" width="12.9876" height="12.9876" rx="4" fill="#2E3438"/>
<rect x="742.967" y="164.107" width="12.9876" height="12.9876" rx="4" fill="#71B35F"/>
<rect x="761.15" y="164.107" width="12.9876" height="12.9876" rx="4" fill="#71B35F"/>
<rect x="779.334" y="164.107" width="12.9876" height="12.9876" rx="4" fill="#2E3438"/>
<rect x="797.513" y="164.107" width="12.9876" height="12.9876" rx="4" fill="#2E3438"/>
<rect x="815.696" y="164.107" width="12.9876" height="12.9876" rx="4" fill="#71B35F"/>
<rect x="833.881" y="164.107" width="12.9876" height="12.9876" rx="4" fill="#2E3438"/>
<rect x="852.062" y="164.107" width="12.9876" height="12.9876" rx="4" fill="#2E3438"/>
<rect x="870.245" y="164.107" width="12.9876" height="12.9876" rx="4" fill="#57894B"/>
<rect x="888.429" y="164.107" width="12.9876" height="12.9876" rx="4" fill="#2E3438"/>
<rect x="906.609" y="164.107" width="12.9876" height="12.9876" rx="4" fill="#57894B"/>
<rect x="924.793" y="164.107" width="12.9876" height="12.9876" rx="4" fill="#2E3438"/>
<rect x="942.974" y="164.107" width="12.9876" height="12.9876" rx="4" fill="#2E3438"/>
<rect x="961.157" y="164.107" width="12.9876" height="12.9876" rx="4" fill="#71B35F"/>
<rect x="979.341" y="164.107" width="12.9876" height="12.9876" rx="4" fill="#2E3438"/>
<rect x="997.525" y="164.107" width="12.9876" height="12.9876" rx="4" fill="#71B35F"/>
<rect x="1015.7" y="164.107" width="12.9876" height="12.9876" rx="4" fill="#71B35F"/>
<rect x="1033.89" y="164.107" width="12.9876" height="12.9876" rx="4" fill="#71B35F"/>
<rect x="1052.07" y="164.107" width="12.9876" height="12.9876" rx="4" fill="#57894B"/>
<rect x="1070.25" y="164.107" width="12.9876" height="12.9876" rx="4" fill="#2E3438"/>
<rect x="1088.44" y="164.107" width="12.9876" height="12.9876" rx="4" fill="#2E3438"/>
<rect x="1106.62" y="164.107" width="12.9876" height="12.9876" rx="4" fill="#57894B"/>
<rect x="1124.8" y="164.107" width="12.9876" height="12.9876" rx="4" fill="#71B35F"/>
<rect x="1142.98" y="164.107" width="12.9876" height="12.9876" rx="4" fill="#2E3438"/>
<defs>
<filter id="filter0_ii_1_486" x="-6" y="-5.48816" width="1220" height="243.598" filterUnits="userSpaceOnUse" color-interpolation-filters="sRGB">
<feFlood flood-opacity="0" result="BackgroundImageFix"/>
<feBlend mode="normal" in="SourceGraphic" in2="BackgroundImageFix" result="shape"/>
<feColorMatrix in="SourceAlpha" type="matrix" values="0 0 0 0 0 0 0 0 0 0 0 0 0 0 0 0 0 0 127 0" result="hardAlpha"/>
<feOffset dx="6" dy="6"/>
<feGaussianBlur stdDeviation="8"/>
<feComposite in2="hardAlpha" operator="arithmetic" k2="-1" k3="1"/>
<feColorMatrix type="matrix" values="0 0 0 0 1 0 0 0 0 1 0 0 0 0 1 0 0 0 0.1 0"/>
<feBlend mode="normal" in2="shape" result="effect1_innerShadow_1_486"/>
<feColorMatrix in="SourceAlpha" type="matrix" values="0 0 0 0 0 0 0 0 0 0 0 0 0 0 0 0 0 0 127 0" result="hardAlpha"/>
<feOffset dx="-6" dy="-6"/>
<feGaussianBlur stdDeviation="8"/>
<feComposite in2="hardAlpha" operator="arithmetic" k2="-1" k3="1"/>
<feColorMatrix type="matrix" values="0 0 0 0 0 0 0 0 0 0 0 0 0 0 0 0 0 0 0.3 0"/>
<feBlend mode="normal" in2="effect1_innerShadow_1_486" result="effect2_innerShadow_1_486"/>
</filter>
<filter id="filter1_ii_1_486" x="15.8594" y="14.9208" width="1176.28" height="202.78" filterUnits="userSpaceOnUse" color-interpolation-filters="sRGB">
<feFlood flood-opacity="0" result="BackgroundImageFix"/>
<feBlend mode="normal" in="SourceGraphic" in2="BackgroundImageFix" result="shape"/>
<feColorMatrix in="SourceAlpha" type="matrix" values="0 0 0 0 0 0 0 0 0 0 0 0 0 0 0 0 0 0 127 0" result="hardAlpha"/>
<feOffset dx="-6" dy="-6"/>
<feGaussianBlur stdDeviation="3"/>
<feComposite in2="hardAlpha" operator="arithmetic" k2="-1" k3="1"/>
<feColorMatrix type="matrix" values="0 0 0 0 0.219687 0 0 0 0 0.241611 0 0 0 0 0.255313 0 0 0 0.2 0"/>
<feBlend mode="normal" in2="shape" result="effect1_innerShadow_1_486"/>
<feColorMatrix in="SourceAlpha" type="matrix" values="0 0 0 0 0 0 0 0 0 0 0 0 0 0 0 0 0 0 127 0" result="hardAlpha"/>
<feOffset dx="6" dy="6"/>
<feGaussianBlur stdDeviation="8"/>
<feComposite in2="hardAlpha" operator="arithmetic" k2="-1" k3="1"/>
<feColorMatrix type="matrix" values="0 0 0 0 0 0 0 0 0 0 0 0 0 0 0 0 0 0 0.2 0"/>
<feBlend mode="normal" in2="effect1_innerShadow_1_486" result="effect2_innerShadow_1_486"/>
</filter>
</defs>
</svg>
