<svg width="316" height="157" viewBox="0 0 316 157" fill="none" xmlns="http://www.w3.org/2000/svg">
<g filter="url(#filter0_ii_1_3766)">
<rect y="0.993164" width="316" height="155.013" rx="26" fill="#262E33"/>
</g>
<g filter="url(#filter1_ii_1_3766)">
<rect x="5.6748" y="6.9668" width="304.65" height="143.066" rx="16" fill="#192025"/>
</g>
<rect x="58.4099" y="16.2256" width="6.07967" height="6.07967" rx="3.03983" fill="#2F3239"/>
<rect x="66.7002" y="16.2256" width="6.07967" height="6.07967" rx="3.03983" fill="#71B35F"/>
<rect x="75.2671" y="16.2256" width="6.07967" height="6.07967" rx="3.03983" fill="#57894B"/>
<rect x="83.5576" y="16.2256" width="6.07967" height="6.07967" rx="3.03983" fill="#2F3239"/>
<rect x="92.1245" y="16.2256" width="6.07967" height="6.07967" rx="3.03983" fill="#2F3239"/>
<rect x="100.415" y="16.2256" width="6.07967" height="6.07967" rx="3.03983" fill="#71B35F"/>
<rect x="108.982" y="16.2256" width="6.07967" height="6.07967" rx="3.03983" fill="#57894B"/>
<rect x="117.272" y="16.2256" width="6.07967" height="6.07967" rx="3.03983" fill="#71B35F"/>
<rect x="125.839" y="16.2256" width="6.07967" height="6.07967" rx="3.03983" fill="#2F3239"/>
<rect x="134.406" y="16.2256" width="5.80332" height="6.07967" rx="2.90166" fill="#2F3239"/>
<rect x="142.696" y="16.2256" width="6.07967" height="6.07967" rx="3.03983" fill="#71B35F"/>
<rect x="151.263" y="16.2256" width="5.80332" height="6.07967" rx="2.90166" fill="#71B35F"/>
<rect x="159.554" y="16.2256" width="6.07967" height="6.07967" rx="3.03983" fill="#71B35F"/>
<rect x="168.12" y="16.2256" width="5.80332" height="6.07967" rx="2.90166" fill="#57894B"/>
<rect x="176.411" y="16.2256" width="6.07967" height="6.07967" rx="3.03983" fill="#2F3239"/>
<rect x="184.978" y="16.2256" width="6.07967" height="6.07967" rx="3.03983" fill="#57894B"/>
<rect x="193.268" y="16.2256" width="6.07967" height="6.07967" rx="3.03983" fill="#57894B"/>
<rect x="201.835" y="16.2256" width="6.07967" height="6.07967" rx="3.03983" fill="#71B35F"/>
<rect x="210.125" y="16.2256" width="6.07967" height="6.07967" rx="3.03983" fill="#71B35F"/>
<rect x="218.692" y="16.2256" width="6.07967" height="6.07967" rx="3.03983" fill="#2F3239"/>
<rect x="226.982" y="16.2256" width="6.07967" height="6.07967" rx="3.03983" fill="#57894B"/>
<rect x="235.549" y="16.2256" width="6.07967" height="6.07967" rx="3.03983" fill="#2F3239"/>
<rect x="243.84" y="16.2256" width="6.07967" height="6.07967" rx="3.03983" fill="#2F3239"/>
<rect x="252.406" y="16.2256" width="6.07967" height="6.07967" rx="3.03983" fill="#71B35F"/>
<rect x="260.973" y="16.2256" width="5.80332" height="6.07967" rx="2.90166" fill="#2F3239"/>
<rect x="269.264" y="16.2256" width="6.07967" height="6.07967" rx="3.03983" fill="#2F3239"/>
<rect x="277.831" y="16.2256" width="5.80332" height="6.07967" rx="2.90166" fill="#2F3239"/>
<rect x="286.121" y="16.2256" width="6.07967" height="6.07967" rx="3.03983" fill="#2F3239"/>
<rect x="294.688" y="16.2256" width="6.07967" height="6.07967" rx="3.03983" fill="#2F3239"/>
<rect x="16.1287" y="83.3784" width="6.07967" height="6.07967" rx="3.03983" fill="#2F3239"/>
<rect x="16.1287" y="75.0879" width="6.07967" height="6.07967" rx="3.03983" fill="#2F3239"/>
<rect x="16.1287" y="67.0737" width="6.07967" height="6.07967" rx="3.03983" fill="#2F3239"/>
<rect x="16.1287" y="58.5068" width="6.07967" height="6.07967" rx="3.03983" fill="#2F3239"/>
<rect x="16.1287" y="49.6641" width="6.07967" height="6.07967" rx="3.03983" fill="#2F3239"/>
<rect x="16.1287" y="41.6499" width="6.07967" height="6.07967" rx="3.03983" fill="#2F3239"/>
<rect x="16.1287" y="33.083" width="6.07967" height="6.07967" rx="3.03983" fill="#2F3239"/>
<rect x="16.1287" y="24.7925" width="6.07967" height="6.07967" rx="3.03983" fill="#2F3239"/>
<rect x="16.1287" y="16.2256" width="6.07967" height="6.07967" rx="3.03983" fill="#2F3239"/>
<rect x="24.6953" y="75.0879" width="5.80332" height="6.07967" rx="2.90166" fill="#2F3239"/>
<rect x="24.6953" y="83.3784" width="5.80332" height="6.07967" rx="2.90166" fill="#57894B"/>
<rect x="32.9858" y="75.0879" width="6.07967" height="6.07967" rx="3.03983" fill="#2F3239"/>
<rect x="24.6953" y="67.0737" width="5.80332" height="6.07967" rx="2.90166" fill="#2F3239"/>
<rect x="24.6953" y="58.5068" width="5.80332" height="6.07967" rx="2.90166" fill="#2F3239"/>
<rect x="24.6953" y="49.6641" width="5.80332" height="6.07967" rx="2.90166" fill="#2F3239"/>
<rect x="24.6953" y="41.6499" width="5.80332" height="6.07967" rx="2.90166" fill="#2F3239"/>
<rect x="24.6953" y="33.083" width="5.80332" height="6.07967" rx="2.90166" fill="#2F3239"/>
<rect x="24.6953" y="24.7925" width="5.80332" height="6.07967" rx="2.90166" fill="#2F3239"/>
<rect x="24.6953" y="16.2256" width="5.80332" height="6.07967" rx="2.90166" fill="#2F3239"/>
<rect x="41.5525" y="75.0879" width="5.80332" height="6.07967" rx="2.90166" fill="#2F3239"/>
<rect x="32.9858" y="83.3784" width="6.07967" height="6.07967" rx="3.03983" fill="#71B35F"/>
<rect x="49.843" y="75.0879" width="6.07967" height="6.07967" rx="3.03983" fill="#2F3239"/>
<rect x="32.9858" y="67.0737" width="6.07967" height="6.07967" rx="3.03983" fill="#2F3239"/>
<rect x="32.9858" y="58.5068" width="6.07967" height="6.07967" rx="3.03983" fill="#2F3239"/>
<rect x="32.9858" y="49.6641" width="6.07967" height="6.07967" rx="3.03983" fill="#2F3239"/>
<rect x="32.9858" y="41.6499" width="6.07967" height="6.07967" rx="3.03983" fill="#2F3239"/>
<rect x="32.9858" y="33.083" width="6.07967" height="6.07967" rx="3.03983" fill="#2F3239"/>
<rect x="32.9858" y="24.7925" width="6.07967" height="6.07967" rx="3.03983" fill="#2F3239"/>
<rect x="32.9858" y="16.2256" width="6.07967" height="6.07967" rx="3.03983" fill="#2F3239"/>
<rect x="41.5525" y="83.3784" width="5.80332" height="6.07967" rx="2.90166" fill="#2F3239"/>
<rect x="41.5525" y="67.0737" width="5.80332" height="6.07967" rx="2.90166" fill="#2F3239"/>
<rect x="41.5525" y="58.5068" width="5.80332" height="6.07967" rx="2.90166" fill="#2F3239"/>
<rect x="41.5525" y="49.6641" width="5.80332" height="6.07967" rx="2.90166" fill="#2F3239"/>
<rect x="41.5525" y="41.6499" width="5.80332" height="6.07967" rx="2.90166" fill="#2F3239"/>
<rect x="41.5525" y="33.083" width="5.80332" height="6.07967" rx="2.90166" fill="#2F3239"/>
<rect x="41.5525" y="24.7925" width="5.80332" height="6.07967" rx="2.90166" fill="#2F3239"/>
<rect x="41.5525" y="16.2256" width="5.80332" height="6.07967" rx="2.90166" fill="#2F3239"/>
<rect x="49.843" y="83.3784" width="6.07967" height="6.07967" rx="3.03983" fill="#2F3239"/>
<rect x="49.843" y="67.0737" width="6.07967" height="6.07967" rx="3.03983" fill="#2F3239"/>
<rect x="49.843" y="58.5068" width="6.07967" height="6.07967" rx="3.03983" fill="#2F3239"/>
<rect x="49.843" y="49.6641" width="6.07967" height="6.07967" rx="3.03983" fill="#2F3239"/>
<rect x="49.843" y="41.6499" width="6.07967" height="6.07967" rx="3.03983" fill="#2F3239"/>
<rect x="49.843" y="33.083" width="6.07967" height="6.07967" rx="3.03983" fill="#2F3239"/>
<rect x="49.843" y="24.7925" width="6.07967" height="6.07967" rx="3.03983" fill="#2F3239"/>
<rect x="49.843" y="16.2256" width="6.07967" height="6.07967" rx="3.03983" fill="#2F3239"/>
<rect x="58.4099" y="83.3784" width="5.80332" height="6.07967" rx="2.90166" fill="#2F3239"/>
<rect x="58.4099" y="75.0879" width="5.80332" height="6.07967" rx="2.90166" fill="#2F3239"/>
<rect x="66.7002" y="83.3784" width="6.07967" height="6.07967" rx="3.03983" fill="#71B35F"/>
<rect x="66.7002" y="75.0879" width="6.07967" height="6.07967" rx="3.03983" fill="#2F3239"/>
<rect x="75.2671" y="83.3784" width="6.07967" height="6.07967" rx="3.03983" fill="#57894B"/>
<rect x="75.2671" y="75.0879" width="6.07967" height="6.07967" rx="3.03983" fill="#2F3239"/>
<rect x="83.5576" y="83.3784" width="6.07967" height="6.07967" rx="3.03983" fill="#2F3239"/>
<rect x="83.5576" y="75.0879" width="6.07967" height="6.07967" rx="3.03983" fill="#2F3239"/>
<rect x="92.1245" y="83.3784" width="6.07967" height="6.07967" rx="3.03983" fill="#2F3239"/>
<rect x="92.1245" y="75.0879" width="6.07967" height="6.07967" rx="3.03983" fill="#2F3239"/>
<rect x="100.415" y="83.3784" width="6.07967" height="6.07967" rx="3.03983" fill="#71B35F"/>
<rect x="100.415" y="75.0879" width="6.07967" height="6.07967" rx="3.03983" fill="#2F3239"/>
<rect x="108.982" y="83.3784" width="6.07967" height="6.07967" rx="3.03983" fill="#2F3239"/>
<rect x="108.982" y="75.0879" width="6.07967" height="6.07967" rx="3.03983" fill="#2F3239"/>
<rect x="117.272" y="83.3784" width="6.07967" height="6.07967" rx="3.03983" fill="#2F3239"/>
<rect x="117.272" y="75.0879" width="6.07967" height="6.07967" rx="3.03983" fill="#2F3239"/>
<rect x="125.839" y="83.3784" width="6.07967" height="6.07967" rx="3.03983" fill="#71B35F"/>
<rect x="125.839" y="75.0879" width="6.07967" height="6.07967" rx="3.03983" fill="#2F3239"/>
<rect x="134.129" y="83.3784" width="6.07967" height="6.07967" rx="3.03983" fill="#2F3239"/>
<rect x="134.129" y="75.0879" width="6.07967" height="6.07967" rx="3.03983" fill="#2F3239"/>
<rect x="142.696" y="83.3784" width="6.07967" height="6.07967" rx="3.03983" fill="#2F3239"/>
<rect x="142.696" y="75.0879" width="6.07967" height="6.07967" rx="3.03983" fill="#2F3239"/>
<rect x="151.263" y="83.3784" width="5.80332" height="6.07967" rx="2.90166" fill="#71B35F"/>
<rect x="151.263" y="75.0879" width="5.80332" height="6.07967" rx="2.90166" fill="#2F3239"/>
<rect x="159.554" y="83.3784" width="6.07967" height="6.07967" rx="3.03983" fill="#57894B"/>
<rect x="159.554" y="75.0879" width="6.07967" height="6.07967" rx="3.03983" fill="#2F3239"/>
<rect x="168.12" y="83.3784" width="5.80332" height="6.07967" rx="2.90166" fill="#2F3239"/>
<rect x="168.12" y="75.0879" width="5.80332" height="6.07967" rx="2.90166" fill="#2F3239"/>
<rect x="176.411" y="83.3784" width="6.07967" height="6.07967" rx="3.03983" fill="#2F3239"/>
<rect x="176.411" y="75.0879" width="6.07967" height="6.07967" rx="3.03983" fill="#2F3239"/>
<rect x="184.978" y="83.3784" width="5.80332" height="6.07967" rx="2.90166" fill="#71B35F"/>
<rect x="184.978" y="75.0879" width="5.80332" height="6.07967" rx="2.90166" fill="#2F3239"/>
<rect x="193.268" y="83.3784" width="6.07967" height="6.07967" rx="3.03983" fill="#57894B"/>
<rect x="193.268" y="75.0879" width="6.07967" height="6.07967" rx="3.03983" fill="#2F3239"/>
<rect x="201.835" y="83.3784" width="6.07967" height="6.07967" rx="3.03983" fill="#71B35F"/>
<rect x="201.835" y="75.0879" width="6.07967" height="6.07967" rx="3.03983" fill="#2F3239"/>
<rect x="210.125" y="83.3784" width="6.07967" height="6.07967" rx="3.03983" fill="#2F3239"/>
<rect x="210.125" y="75.0879" width="6.07967" height="6.07967" rx="3.03983" fill="#2F3239"/>
<rect x="218.692" y="83.3784" width="6.07967" height="6.07967" rx="3.03983" fill="#2F3239"/>
<rect x="218.692" y="75.0879" width="6.07967" height="6.07967" rx="3.03983" fill="#2F3239"/>
<rect x="226.982" y="83.3784" width="6.07967" height="6.07967" rx="3.03983" fill="#71B35F"/>
<rect x="226.982" y="75.0879" width="6.07967" height="6.07967" rx="3.03983" fill="#2F3239"/>
<rect x="235.549" y="83.3784" width="6.07967" height="6.07967" rx="3.03983" fill="#71B35F"/>
<rect x="235.549" y="75.0879" width="6.07967" height="6.07967" rx="3.03983" fill="#2F3239"/>
<rect x="243.84" y="83.3784" width="6.07967" height="6.07967" rx="3.03983" fill="#57894B"/>
<rect x="243.84" y="75.0879" width="6.07967" height="6.07967" rx="3.03983" fill="#2F3239"/>
<rect x="252.406" y="83.3784" width="6.07967" height="6.07967" rx="3.03983" fill="#57894B"/>
<rect x="252.406" y="75.0879" width="6.07967" height="6.07967" rx="3.03983" fill="#2F3239"/>
<rect x="260.697" y="83.3784" width="6.07967" height="6.07967" rx="3.03983" fill="#2F3239"/>
<rect x="260.697" y="75.0879" width="6.07967" height="6.07967" rx="3.03983" fill="#2F3239"/>
<rect x="269.264" y="83.3784" width="6.07967" height="6.07967" rx="3.03983" fill="#2F3239"/>
<rect x="269.264" y="75.0879" width="6.07967" height="6.07967" rx="3.03983" fill="#2F3239"/>
<rect x="277.554" y="83.3784" width="6.07967" height="6.07967" rx="3.03983" fill="#71B35F"/>
<rect x="277.554" y="75.0879" width="6.07967" height="6.07967" rx="3.03983" fill="#2F3239"/>
<rect x="286.121" y="83.3784" width="6.07967" height="6.07967" rx="3.03983" fill="#57894B"/>
<rect x="286.121" y="75.0879" width="6.07967" height="6.07967" rx="3.03983" fill="#2F3239"/>
<rect x="294.688" y="83.3784" width="5.80332" height="6.07967" rx="2.90166" fill="#2F3239"/>
<rect x="294.688" y="75.0879" width="5.80332" height="6.07967" rx="2.90166" fill="#2F3239"/>
<rect x="58.4099" y="24.7925" width="6.07967" height="5.80332" rx="2.90166" fill="#71B35F"/>
<rect x="66.7002" y="24.7925" width="6.07967" height="5.80332" rx="2.90166" fill="#2F3239"/>
<rect x="75.2671" y="24.7925" width="6.07967" height="5.80332" rx="2.90166" fill="#2F3239"/>
<rect x="83.5576" y="24.7925" width="6.07967" height="5.80332" rx="2.90166" fill="#71B35F"/>
<rect x="92.1245" y="24.7925" width="6.07967" height="5.80332" rx="2.90166" fill="#2F3239"/>
<rect x="100.415" y="24.7925" width="6.07967" height="5.80332" rx="2.90166" fill="#71B35F"/>
<rect x="108.982" y="24.7925" width="6.07967" height="5.80332" rx="2.90166" fill="#2F3239"/>
<rect x="117.272" y="24.7925" width="6.07967" height="5.80332" rx="2.90166" fill="#2F3239"/>
<rect x="125.839" y="24.7925" width="6.07967" height="5.80332" rx="2.90166" fill="#71B35F"/>
<rect x="134.406" y="24.7925" width="5.80332" height="5.80332" rx="2.90166" fill="#2F3239"/>
<rect x="142.696" y="24.7925" width="6.07967" height="5.80332" rx="2.90166" fill="#57894B"/>
<rect x="151.263" y="24.7925" width="5.80332" height="5.80332" rx="2.90166" fill="#2F3239"/>
<rect x="159.554" y="24.7925" width="6.07967" height="5.80332" rx="2.90166" fill="#2F3239"/>
<rect x="168.12" y="24.7925" width="5.80332" height="5.80332" rx="2.90166" fill="#2F3239"/>
<rect x="176.411" y="24.7925" width="6.07967" height="5.80332" rx="2.90166" fill="#2F3239"/>
<rect x="184.978" y="24.7925" width="6.07967" height="5.80332" rx="2.90166" fill="#71B35F"/>
<rect x="193.268" y="24.7925" width="6.07967" height="5.80332" rx="2.90166" fill="#2F3239"/>
<rect x="201.835" y="24.7925" width="6.07967" height="5.80332" rx="2.90166" fill="#2F3239"/>
<rect x="210.125" y="24.7925" width="6.07967" height="5.80332" rx="2.90166" fill="#2F3239"/>
<rect x="218.692" y="24.7925" width="6.07967" height="5.80332" rx="2.90166" fill="#2F3239"/>
<rect x="226.982" y="24.7925" width="6.07967" height="5.80332" rx="2.90166" fill="#71B35F"/>
<rect x="235.549" y="24.7925" width="6.07967" height="5.80332" rx="2.90166" fill="#71B35F"/>
<rect x="243.84" y="24.7925" width="6.07967" height="5.80332" rx="2.90166" fill="#2F3239"/>
<rect x="252.406" y="24.7925" width="6.07967" height="5.80332" rx="2.90166" fill="#57894B"/>
<rect x="260.973" y="24.7925" width="5.80332" height="5.80332" rx="2.90166" fill="#2F3239"/>
<rect x="269.264" y="24.7925" width="6.07967" height="5.80332" rx="2.90166" fill="#2F3239"/>
<rect x="277.831" y="24.7925" width="5.80332" height="5.80332" rx="2.90166" fill="#2F3239"/>
<rect x="286.121" y="24.7925" width="6.07967" height="5.80332" rx="2.90166" fill="#2F3239"/>
<rect x="294.688" y="24.7925" width="6.07967" height="5.80332" rx="2.90166" fill="#2F3239"/>
<rect x="16.1287" y="91.9453" width="6.07967" height="5.80332" rx="2.90166" fill="#71B35F"/>
<rect x="24.6953" y="91.9453" width="5.80332" height="5.80332" rx="2.90166" fill="#2F3239"/>
<rect x="32.9858" y="91.9453" width="6.07967" height="5.80332" rx="2.90166" fill="#2F3239"/>
<rect x="41.5525" y="91.9453" width="5.80332" height="5.80332" rx="2.90166" fill="#71B35F"/>
<rect x="49.843" y="91.9453" width="6.07967" height="5.80332" rx="2.90166" fill="#2F3239"/>
<rect x="58.4099" y="91.9453" width="5.80332" height="5.80332" rx="2.90166" fill="#71B35F"/>
<rect x="66.7002" y="91.9453" width="6.07967" height="5.80332" rx="2.90166" fill="#2F3239"/>
<rect x="75.2671" y="91.9453" width="6.07967" height="5.80332" rx="2.90166" fill="#2F3239"/>
<rect x="83.5576" y="91.9453" width="6.07967" height="5.80332" rx="2.90166" fill="#57894B"/>
<rect x="92.1245" y="91.9453" width="6.07967" height="5.80332" rx="2.90166" fill="#2F3239"/>
<rect x="100.415" y="91.9453" width="6.07967" height="5.80332" rx="2.90166" fill="#71B35F"/>
<rect x="108.982" y="91.9453" width="6.07967" height="5.80332" rx="2.90166" fill="#2F3239"/>
<rect x="117.272" y="91.9453" width="6.07967" height="5.80332" rx="2.90166" fill="#2F3239"/>
<rect x="125.839" y="91.9453" width="6.07967" height="5.80332" rx="2.90166" fill="#71B35F"/>
<rect x="134.129" y="91.9453" width="6.07967" height="5.80332" rx="2.90166" fill="#2F3239"/>
<rect x="142.696" y="91.9453" width="6.07967" height="5.80332" rx="2.90166" fill="#71B35F"/>
<rect x="151.263" y="91.9453" width="5.80332" height="5.80332" rx="2.90166" fill="#2F3239"/>
<rect x="159.554" y="91.9453" width="6.07967" height="5.80332" rx="2.90166" fill="#2F3239"/>
<rect x="168.12" y="91.9453" width="5.80332" height="5.80332" rx="2.90166" fill="#71B35F"/>
<rect x="176.411" y="91.9453" width="6.07967" height="5.80332" rx="2.90166" fill="#2F3239"/>
<rect x="184.978" y="91.9453" width="5.80332" height="5.80332" rx="2.90166" fill="#71B35F"/>
<rect x="193.268" y="91.9453" width="6.07967" height="5.80332" rx="2.90166" fill="#2F3239"/>
<rect x="201.835" y="91.9453" width="6.07967" height="5.80332" rx="2.90166" fill="#2F3239"/>
<rect x="210.125" y="91.9453" width="6.07967" height="5.80332" rx="2.90166" fill="#71B35F"/>
<rect x="218.692" y="91.9453" width="6.07967" height="5.80332" rx="2.90166" fill="#2F3239"/>
<rect x="226.982" y="91.9453" width="6.07967" height="5.80332" rx="2.90166" fill="#71B35F"/>
<rect x="235.549" y="91.9453" width="6.07967" height="5.80332" rx="2.90166" fill="#2F3239"/>
<rect x="243.84" y="91.9453" width="6.07967" height="5.80332" rx="2.90166" fill="#2F3239"/>
<rect x="252.406" y="91.9453" width="6.07967" height="5.80332" rx="2.90166" fill="#2F3239"/>
<rect x="260.697" y="91.9453" width="6.07967" height="5.80332" rx="2.90166" fill="#2F3239"/>
<rect x="269.264" y="91.9453" width="6.07967" height="5.80332" rx="2.90166" fill="#57894B"/>
<rect x="277.554" y="91.9453" width="6.07967" height="5.80332" rx="2.90166" fill="#2F3239"/>
<rect x="286.121" y="91.9453" width="6.07967" height="5.80332" rx="2.90166" fill="#2F3239"/>
<rect x="294.688" y="91.9453" width="5.80332" height="5.80332" rx="2.90166" fill="#71B35F"/>
<rect x="58.4099" y="33.083" width="6.07967" height="6.07967" rx="3.03983" fill="#71B35F"/>
<rect x="66.7002" y="33.083" width="6.07967" height="6.07967" rx="3.03983" fill="#2F3239"/>
<rect x="75.2671" y="33.083" width="6.07967" height="6.07967" rx="3.03983" fill="#2F3239"/>
<rect x="83.5576" y="33.083" width="6.07967" height="6.07967" rx="3.03983" fill="#2F3239"/>
<rect x="92.1245" y="33.083" width="6.07967" height="6.07967" rx="3.03983" fill="#2F3239"/>
<rect x="100.415" y="33.083" width="6.07967" height="6.07967" rx="3.03983" fill="#57894B"/>
<rect x="108.982" y="33.083" width="6.07967" height="6.07967" rx="3.03983" fill="#2F3239"/>
<rect x="117.272" y="33.083" width="6.07967" height="6.07967" rx="3.03983" fill="#2F3239"/>
<rect x="125.839" y="33.083" width="6.07967" height="6.07967" rx="3.03983" fill="#71B35F"/>
<rect x="134.406" y="33.083" width="5.80332" height="6.07967" rx="2.90166" fill="#2F3239"/>
<rect x="142.696" y="33.083" width="6.07967" height="6.07967" rx="3.03983" fill="#57894B"/>
<rect x="151.263" y="33.083" width="5.80332" height="6.07967" rx="2.90166" fill="#2F3239"/>
<rect x="159.554" y="33.083" width="6.07967" height="6.07967" rx="3.03983" fill="#2F3239"/>
<rect x="168.12" y="33.083" width="5.80332" height="6.07967" rx="2.90166" fill="#2F3239"/>
<rect x="176.411" y="33.083" width="6.07967" height="6.07967" rx="3.03983" fill="#2F3239"/>
<rect x="184.978" y="33.083" width="6.07967" height="6.07967" rx="3.03983" fill="#71B35F"/>
<rect x="193.268" y="33.083" width="6.07967" height="6.07967" rx="3.03983" fill="#2F3239"/>
<rect x="201.835" y="33.083" width="6.07967" height="6.07967" rx="3.03983" fill="#2F3239"/>
<rect x="210.125" y="33.083" width="6.07967" height="6.07967" rx="3.03983" fill="#2F3239"/>
<rect x="218.692" y="33.083" width="6.07967" height="6.07967" rx="3.03983" fill="#2F3239"/>
<rect x="226.982" y="33.083" width="6.07967" height="6.07967" rx="3.03983" fill="#71B35F"/>
<rect x="235.549" y="33.083" width="6.07967" height="6.07967" rx="3.03983" fill="#57894B"/>
<rect x="243.84" y="33.083" width="6.07967" height="6.07967" rx="3.03983" fill="#2F3239"/>
<rect x="252.406" y="33.083" width="6.07967" height="6.07967" rx="3.03983" fill="#71B35F"/>
<rect x="260.973" y="33.083" width="5.80332" height="6.07967" rx="2.90166" fill="#2F3239"/>
<rect x="269.264" y="33.083" width="6.07967" height="6.07967" rx="3.03983" fill="#2F3239"/>
<rect x="277.831" y="33.083" width="5.80332" height="6.07967" rx="2.90166" fill="#2F3239"/>
<rect x="286.121" y="33.083" width="6.07967" height="6.07967" rx="3.03983" fill="#2F3239"/>
<rect x="294.688" y="33.083" width="6.07967" height="6.07967" rx="3.03983" fill="#2F3239"/>
<rect x="16.1287" y="100.236" width="6.07967" height="6.07967" rx="3.03983" fill="#57894B"/>
<rect x="24.6953" y="100.236" width="5.80332" height="6.07967" rx="2.90166" fill="#2F3239"/>
<rect x="32.9858" y="100.236" width="6.07967" height="6.07967" rx="3.03983" fill="#2F3239"/>
<rect x="41.5525" y="100.236" width="5.80332" height="6.07967" rx="2.90166" fill="#2F3239"/>
<rect x="49.843" y="100.236" width="6.07967" height="6.07967" rx="3.03983" fill="#2F3239"/>
<rect x="58.4099" y="100.236" width="5.80332" height="6.07967" rx="2.90166" fill="#57894B"/>
<rect x="66.7002" y="100.236" width="6.07967" height="6.07967" rx="3.03983" fill="#2F3239"/>
<rect x="75.2671" y="100.236" width="6.07967" height="6.07967" rx="3.03983" fill="#2F3239"/>
<rect x="83.5576" y="100.236" width="6.07967" height="6.07967" rx="3.03983" fill="#71B35F"/>
<rect x="92.1245" y="100.236" width="6.07967" height="6.07967" rx="3.03983" fill="#2F3239"/>
<rect x="100.415" y="100.236" width="6.07967" height="6.07967" rx="3.03983" fill="#71B35F"/>
<rect x="108.982" y="100.236" width="6.07967" height="6.07967" rx="3.03983" fill="#2F3239"/>
<rect x="117.272" y="100.236" width="6.07967" height="6.07967" rx="3.03983" fill="#2F3239"/>
<rect x="125.839" y="100.236" width="6.07967" height="6.07967" rx="3.03983" fill="#57894B"/>
<rect x="134.129" y="100.236" width="6.07967" height="6.07967" rx="3.03983" fill="#2F3239"/>
<rect x="142.696" y="100.236" width="6.07967" height="6.07967" rx="3.03983" fill="#71B35F"/>
<rect x="151.263" y="100.236" width="5.80332" height="6.07967" rx="2.90166" fill="#2F3239"/>
<rect x="159.554" y="100.236" width="6.07967" height="6.07967" rx="3.03983" fill="#2F3239"/>
<rect x="168.12" y="100.236" width="5.80332" height="6.07967" rx="2.90166" fill="#71B35F"/>
<rect x="176.411" y="100.236" width="6.07967" height="6.07967" rx="3.03983" fill="#2F3239"/>
<rect x="184.978" y="100.236" width="5.80332" height="6.07967" rx="2.90166" fill="#57894B"/>
<rect x="193.268" y="100.236" width="6.07967" height="6.07967" rx="3.03983" fill="#2F3239"/>
<rect x="201.835" y="100.236" width="6.07967" height="6.07967" rx="3.03983" fill="#2F3239"/>
<rect x="210.125" y="100.236" width="6.07967" height="6.07967" rx="3.03983" fill="#71B35F"/>
<rect x="218.692" y="100.236" width="6.07967" height="6.07967" rx="3.03983" fill="#2F3239"/>
<rect x="226.982" y="100.236" width="6.07967" height="6.07967" rx="3.03983" fill="#71B35F"/>
<rect x="235.549" y="100.236" width="6.07967" height="6.07967" rx="3.03983" fill="#2F3239"/>
<rect x="243.84" y="100.236" width="6.07967" height="6.07967" rx="3.03983" fill="#2F3239"/>
<rect x="252.406" y="100.236" width="6.07967" height="6.07967" rx="3.03983" fill="#2F3239"/>
<rect x="260.697" y="100.236" width="6.07967" height="6.07967" rx="3.03983" fill="#2F3239"/>
<rect x="269.264" y="100.236" width="6.07967" height="6.07967" rx="3.03983" fill="#57894B"/>
<rect x="277.554" y="100.236" width="6.07967" height="6.07967" rx="3.03983" fill="#2F3239"/>
<rect x="286.121" y="100.236" width="6.07967" height="6.07967" rx="3.03983" fill="#2F3239"/>
<rect x="294.688" y="100.236" width="5.80332" height="6.07967" rx="2.90166" fill="#2F3239"/>
<rect x="58.4099" y="41.6499" width="6.07967" height="5.80332" rx="2.90166" fill="#57894B"/>
<rect x="66.7002" y="41.6499" width="6.07967" height="5.80332" rx="2.90166" fill="#2F3239"/>
<rect x="75.2671" y="41.6499" width="6.07967" height="5.80332" rx="2.90166" fill="#71B35F"/>
<rect x="83.5576" y="41.6499" width="6.07967" height="5.80332" rx="2.90166" fill="#71B35F"/>
<rect x="92.1245" y="41.6499" width="6.07967" height="5.80332" rx="2.90166" fill="#2F3239"/>
<rect x="100.415" y="41.6499" width="6.07967" height="5.80332" rx="2.90166" fill="#71B35F"/>
<rect x="108.982" y="41.6499" width="6.07967" height="5.80332" rx="2.90166" fill="#71B35F"/>
<rect x="117.272" y="41.6499" width="6.07967" height="5.80332" rx="2.90166" fill="#71B35F"/>
<rect x="125.839" y="41.6499" width="6.07967" height="5.80332" rx="2.90166" fill="#2F3239"/>
<rect x="134.406" y="41.6499" width="5.80332" height="5.80332" rx="2.90166" fill="#2F3239"/>
<rect x="142.696" y="41.6499" width="6.07967" height="5.80332" rx="2.90166" fill="#71B35F"/>
<rect x="151.263" y="41.6499" width="5.80332" height="5.80332" rx="2.90166" fill="#57894B"/>
<rect x="159.554" y="41.6499" width="6.07967" height="5.80332" rx="2.90166" fill="#57894B"/>
<rect x="168.12" y="41.6499" width="5.80332" height="5.80332" rx="2.90166" fill="#2F3239"/>
<rect x="176.411" y="41.6499" width="6.07967" height="5.80332" rx="2.90166" fill="#2F3239"/>
<rect x="184.978" y="41.6499" width="6.07967" height="5.80332" rx="2.90166" fill="#57894B"/>
<rect x="193.268" y="41.6499" width="6.07967" height="5.80332" rx="2.90166" fill="#57894B"/>
<rect x="201.835" y="41.6499" width="6.07967" height="5.80332" rx="2.90166" fill="#71B35F"/>
<rect x="210.125" y="41.6499" width="6.07967" height="5.80332" rx="2.90166" fill="#2F3239"/>
<rect x="218.692" y="41.6499" width="6.07967" height="5.80332" rx="2.90166" fill="#2F3239"/>
<rect x="226.982" y="41.6499" width="6.07967" height="5.80332" rx="2.90166" fill="#57894B"/>
<rect x="235.549" y="41.6499" width="6.07967" height="5.80332" rx="2.90166" fill="#71B35F"/>
<rect x="243.84" y="41.6499" width="6.07967" height="5.80332" rx="2.90166" fill="#57894B"/>
<rect x="252.406" y="41.6499" width="6.07967" height="5.80332" rx="2.90166" fill="#71B35F"/>
<rect x="260.973" y="41.6499" width="5.80332" height="5.80332" rx="2.90166" fill="#2F3239"/>
<rect x="269.264" y="41.6499" width="6.07967" height="5.80332" rx="2.90166" fill="#2F3239"/>
<rect x="277.831" y="41.6499" width="5.80332" height="5.80332" rx="2.90166" fill="#2F3239"/>
<rect x="286.121" y="41.6499" width="6.07967" height="5.80332" rx="2.90166" fill="#2F3239"/>
<rect x="294.688" y="41.6499" width="6.07967" height="5.80332" rx="2.90166" fill="#2F3239"/>
<rect x="16.1287" y="108.802" width="6.07967" height="5.80332" rx="2.90166" fill="#2F3239"/>
<rect x="24.6953" y="108.802" width="5.80332" height="5.80332" rx="2.90166" fill="#71B35F"/>
<rect x="32.9858" y="108.802" width="6.07967" height="5.80332" rx="2.90166" fill="#71B35F"/>
<rect x="41.5525" y="108.802" width="5.80332" height="5.80332" rx="2.90166" fill="#2F3239"/>
<rect x="49.843" y="108.802" width="6.07967" height="5.80332" rx="2.90166" fill="#2F3239"/>
<rect x="58.4099" y="108.802" width="5.80332" height="5.80332" rx="2.90166" fill="#57894B"/>
<rect x="66.7002" y="108.802" width="6.07967" height="5.80332" rx="2.90166" fill="#2F3239"/>
<rect x="75.2671" y="108.802" width="6.07967" height="5.80332" rx="2.90166" fill="#2F3239"/>
<rect x="83.5576" y="108.802" width="6.07967" height="5.80332" rx="2.90166" fill="#71B35F"/>
<rect x="92.1245" y="108.802" width="6.07967" height="5.80332" rx="2.90166" fill="#2F3239"/>
<rect x="100.415" y="108.802" width="6.07967" height="5.80332" rx="2.90166" fill="#71B35F"/>
<rect x="108.982" y="108.802" width="6.07967" height="5.80332" rx="2.90166" fill="#2F3239"/>
<rect x="117.272" y="108.802" width="6.07967" height="5.80332" rx="2.90166" fill="#2F3239"/>
<rect x="125.839" y="108.802" width="6.07967" height="5.80332" rx="2.90166" fill="#71B35F"/>
<rect x="134.129" y="108.802" width="6.07967" height="5.80332" rx="2.90166" fill="#2F3239"/>
<rect x="142.696" y="108.802" width="6.07967" height="5.80332" rx="2.90166" fill="#57894B"/>
<rect x="151.263" y="108.802" width="5.80332" height="5.80332" rx="2.90166" fill="#57894B"/>
<rect x="159.554" y="108.802" width="6.07967" height="5.80332" rx="2.90166" fill="#71B35F"/>
<rect x="168.12" y="108.802" width="5.80332" height="5.80332" rx="2.90166" fill="#71B35F"/>
<rect x="176.411" y="108.802" width="6.07967" height="5.80332" rx="2.90166" fill="#2F3239"/>
<rect x="184.978" y="108.802" width="5.80332" height="5.80332" rx="2.90166" fill="#71B35F"/>
<rect x="193.268" y="108.802" width="6.07967" height="5.80332" rx="2.90166" fill="#71B35F"/>
<rect x="201.835" y="108.802" width="6.07967" height="5.80332" rx="2.90166" fill="#71B35F"/>
<rect x="210.125" y="108.802" width="6.07967" height="5.80332" rx="2.90166" fill="#2F3239"/>
<rect x="218.692" y="108.802" width="6.07967" height="5.80332" rx="2.90166" fill="#2F3239"/>
<rect x="226.982" y="108.802" width="6.07967" height="5.80332" rx="2.90166" fill="#71B35F"/>
<rect x="235.549" y="108.802" width="6.07967" height="5.80332" rx="2.90166" fill="#57894B"/>
<rect x="243.84" y="108.802" width="6.07967" height="5.80332" rx="2.90166" fill="#71B35F"/>
<rect x="252.406" y="108.802" width="6.07967" height="5.80332" rx="2.90166" fill="#2F3239"/>
<rect x="260.697" y="108.802" width="6.07967" height="5.80332" rx="2.90166" fill="#2F3239"/>
<rect x="269.264" y="108.802" width="6.07967" height="5.80332" rx="2.90166" fill="#2F3239"/>
<rect x="277.554" y="108.802" width="6.07967" height="5.80332" rx="2.90166" fill="#71B35F"/>
<rect x="286.121" y="108.802" width="6.07967" height="5.80332" rx="2.90166" fill="#71B35F"/>
<rect x="294.688" y="108.802" width="5.80332" height="5.80332" rx="2.90166" fill="#2F3239"/>
<rect x="58.4099" y="49.9399" width="6.07967" height="6.07967" rx="3.03983" fill="#71B35F"/>
<rect x="66.7002" y="49.9399" width="6.07967" height="6.07967" rx="3.03983" fill="#2F3239"/>
<rect x="75.2671" y="49.9399" width="6.07967" height="6.07967" rx="3.03983" fill="#2F3239"/>
<rect x="83.5576" y="49.9399" width="6.07967" height="6.07967" rx="3.03983" fill="#71B35F"/>
<rect x="92.1245" y="49.9399" width="6.07967" height="6.07967" rx="3.03983" fill="#2F3239"/>
<rect x="100.415" y="49.9399" width="6.07967" height="6.07967" rx="3.03983" fill="#57894B"/>
<rect x="108.982" y="49.9399" width="6.07967" height="6.07967" rx="3.03983" fill="#2F3239"/>
<rect x="117.272" y="49.9399" width="6.07967" height="6.07967" rx="3.03983" fill="#2F3239"/>
<rect x="125.839" y="49.9399" width="6.07967" height="6.07967" rx="3.03983" fill="#71B35F"/>
<rect x="134.406" y="49.9399" width="5.80332" height="6.07967" rx="2.90166" fill="#2F3239"/>
<rect x="142.696" y="49.9399" width="6.07967" height="6.07967" rx="3.03983" fill="#57894B"/>
<rect x="151.263" y="49.9399" width="5.80332" height="6.07967" rx="2.90166" fill="#2F3239"/>
<rect x="159.554" y="49.9404" width="6.07967" height="6.07967" rx="3.03983" fill="#2F3239"/>
<rect x="168.12" y="49.9399" width="5.80332" height="6.07967" rx="2.90166" fill="#2F3239"/>
<rect x="176.411" y="49.9399" width="6.07967" height="6.07967" rx="3.03983" fill="#2F3239"/>
<rect x="184.978" y="49.9399" width="6.07967" height="6.07967" rx="3.03983" fill="#71B35F"/>
<rect x="193.268" y="49.9399" width="6.07967" height="6.07967" rx="3.03983" fill="#2F3239"/>
<rect x="201.835" y="49.9399" width="6.07967" height="6.07967" rx="3.03983" fill="#2F3239"/>
<rect x="210.125" y="49.9399" width="6.07967" height="6.07967" rx="3.03983" fill="#2F3239"/>
<rect x="218.692" y="49.9399" width="6.07967" height="6.07967" rx="3.03983" fill="#2F3239"/>
<rect x="226.982" y="49.9399" width="6.07967" height="6.07967" rx="3.03983" fill="#71B35F"/>
<rect x="235.549" y="49.9399" width="6.07967" height="6.07967" rx="3.03983" fill="#2F3239"/>
<rect x="243.84" y="49.9399" width="6.07967" height="6.07967" rx="3.03983" fill="#57894B"/>
<rect x="252.406" y="49.9404" width="6.07967" height="6.07967" rx="3.03983" fill="#71B35F"/>
<rect x="260.973" y="49.9399" width="5.80332" height="6.07967" rx="2.90166" fill="#2F3239"/>
<rect x="269.264" y="49.9399" width="6.07967" height="6.07967" rx="3.03983" fill="#2F3239"/>
<rect x="277.831" y="49.9399" width="5.80332" height="6.07967" rx="2.90166" fill="#2F3239"/>
<rect x="286.121" y="49.9399" width="6.07967" height="6.07967" rx="3.03983" fill="#2F3239"/>
<rect x="294.688" y="49.9399" width="6.07967" height="6.07967" rx="3.03983" fill="#2F3239"/>
<rect x="16.1287" y="117.093" width="6.07967" height="6.07967" rx="3.03983" fill="#2F3239"/>
<rect x="24.6953" y="117.093" width="5.80332" height="6.07967" rx="2.90166" fill="#2F3239"/>
<rect x="32.9858" y="117.093" width="6.07967" height="6.07967" rx="3.03983" fill="#2F3239"/>
<rect x="41.5525" y="117.093" width="5.80332" height="6.07967" rx="2.90166" fill="#57894B"/>
<rect x="49.843" y="117.093" width="6.07967" height="6.07967" rx="3.03983" fill="#2F3239"/>
<rect x="58.4099" y="117.093" width="5.80332" height="6.07967" rx="2.90166" fill="#57894B"/>
<rect x="66.7002" y="117.093" width="6.07967" height="6.07967" rx="3.03983" fill="#2F3239"/>
<rect x="75.2671" y="117.093" width="6.07967" height="6.07967" rx="3.03983" fill="#2F3239"/>
<rect x="83.5576" y="117.093" width="6.07967" height="6.07967" rx="3.03983" fill="#57894B"/>
<rect x="92.1245" y="117.093" width="6.07967" height="6.07967" rx="3.03983" fill="#2F3239"/>
<rect x="100.415" y="117.093" width="6.07967" height="6.07967" rx="3.03983" fill="#71B35F"/>
<rect x="108.982" y="117.093" width="6.07967" height="6.07967" rx="3.03983" fill="#2F3239"/>
<rect x="117.272" y="117.093" width="6.07967" height="6.07967" rx="3.03983" fill="#2F3239"/>
<rect x="125.839" y="117.093" width="6.07967" height="6.07967" rx="3.03983" fill="#71B35F"/>
<rect x="134.129" y="117.093" width="6.07967" height="6.07967" rx="3.03983" fill="#2F3239"/>
<rect x="142.696" y="117.093" width="6.07967" height="6.07967" rx="3.03983" fill="#57894B"/>
<rect x="151.263" y="117.093" width="5.80332" height="6.07967" rx="2.90166" fill="#2F3239"/>
<rect x="159.554" y="117.093" width="6.07967" height="6.07967" rx="3.03983" fill="#2F3239"/>
<rect x="168.12" y="117.093" width="5.80332" height="6.07967" rx="2.90166" fill="#71B35F"/>
<rect x="176.411" y="117.093" width="6.07967" height="6.07967" rx="3.03983" fill="#2F3239"/>
<rect x="184.978" y="117.093" width="5.80332" height="6.07967" rx="2.90166" fill="#71B35F"/>
<rect x="193.268" y="117.093" width="6.07967" height="6.07967" rx="3.03983" fill="#2F3239"/>
<rect x="201.835" y="117.093" width="6.07967" height="6.07967" rx="3.03983" fill="#2F3239"/>
<rect x="210.125" y="117.093" width="6.07967" height="6.07967" rx="3.03983" fill="#57894B"/>
<rect x="218.692" y="117.093" width="6.07967" height="6.07967" rx="3.03983" fill="#2F3239"/>
<rect x="226.982" y="117.093" width="6.07967" height="6.07967" rx="3.03983" fill="#57894B"/>
<rect x="235.549" y="117.093" width="6.07967" height="6.07967" rx="3.03983" fill="#2F3239"/>
<rect x="243.84" y="117.093" width="6.07967" height="6.07967" rx="3.03983" fill="#2F3239"/>
<rect x="252.406" y="117.093" width="6.07967" height="6.07967" rx="3.03983" fill="#2F3239"/>
<rect x="260.697" y="117.093" width="6.07967" height="6.07967" rx="3.03983" fill="#2F3239"/>
<rect x="269.264" y="117.093" width="6.07967" height="6.07967" rx="3.03983" fill="#2F3239"/>
<rect x="277.554" y="117.093" width="6.07967" height="6.07967" rx="3.03983" fill="#2F3239"/>
<rect x="286.121" y="117.093" width="6.07967" height="6.07967" rx="3.03983" fill="#2F3239"/>
<rect x="294.688" y="117.093" width="5.80332" height="6.07967" rx="2.90166" fill="#71B35F"/>
<rect x="58.4099" y="58.5068" width="6.07967" height="5.80332" rx="2.90166" fill="#71B35F"/>
<rect x="66.7002" y="58.5068" width="6.07967" height="5.80332" rx="2.90166" fill="#2F3239"/>
<rect x="75.2671" y="58.5068" width="6.07967" height="5.80332" rx="2.90166" fill="#2F3239"/>
<rect x="83.5576" y="58.5068" width="6.07967" height="5.80332" rx="2.90166" fill="#57894B"/>
<rect x="92.1245" y="58.5068" width="6.07967" height="5.80332" rx="2.90166" fill="#2F3239"/>
<rect x="100.415" y="58.5068" width="6.07967" height="5.80332" rx="2.90166" fill="#57894B"/>
<rect x="108.982" y="58.5068" width="6.07967" height="5.80332" rx="2.90166" fill="#2F3239"/>
<rect x="117.272" y="58.5068" width="6.07967" height="5.80332" rx="2.90166" fill="#2F3239"/>
<rect x="125.839" y="58.5068" width="6.07967" height="5.80332" rx="2.90166" fill="#71B35F"/>
<rect x="134.406" y="58.5068" width="5.80332" height="5.80332" rx="2.90166" fill="#2F3239"/>
<rect x="142.696" y="58.5068" width="6.07967" height="5.80332" rx="2.90166" fill="#71B35F"/>
<rect x="151.263" y="58.5068" width="5.80332" height="5.80332" rx="2.90166" fill="#2F3239"/>
<rect x="159.554" y="58.5068" width="6.07967" height="5.80332" rx="2.90166" fill="#2F3239"/>
<rect x="168.12" y="58.5068" width="5.80332" height="5.80332" rx="2.90166" fill="#2F3239"/>
<rect x="176.411" y="58.5068" width="6.07967" height="5.80332" rx="2.90166" fill="#2F3239"/>
<rect x="184.978" y="58.5068" width="6.07967" height="5.80332" rx="2.90166" fill="#71B35F"/>
<rect x="193.268" y="58.5068" width="6.07967" height="5.80332" rx="2.90166" fill="#2F3239"/>
<rect x="201.835" y="58.5068" width="6.07967" height="5.80332" rx="2.90166" fill="#2F3239"/>
<rect x="210.125" y="58.5068" width="6.07967" height="5.80332" rx="2.90166" fill="#2F3239"/>
<rect x="218.692" y="58.5068" width="6.07967" height="5.80332" rx="2.90166" fill="#2F3239"/>
<rect x="226.982" y="58.5068" width="6.07967" height="5.80332" rx="2.90166" fill="#57894B"/>
<rect x="235.549" y="58.5068" width="6.07967" height="5.80332" rx="2.90166" fill="#2F3239"/>
<rect x="243.84" y="58.5068" width="6.07967" height="5.80332" rx="2.90166" fill="#71B35F"/>
<rect x="252.406" y="58.5068" width="6.07967" height="5.80332" rx="2.90166" fill="#71B35F"/>
<rect x="260.973" y="58.5068" width="5.80332" height="5.80332" rx="2.90166" fill="#2F3239"/>
<rect x="269.264" y="58.5068" width="6.07967" height="5.80332" rx="2.90166" fill="#2F3239"/>
<rect x="277.831" y="58.5068" width="5.80332" height="5.80332" rx="2.90166" fill="#2F3239"/>
<rect x="286.121" y="58.5068" width="6.07967" height="5.80332" rx="2.90166" fill="#2F3239"/>
<rect x="294.688" y="58.5068" width="6.07967" height="5.80332" rx="2.90166" fill="#2F3239"/>
<rect x="16.1287" y="125.66" width="6.07967" height="5.80332" rx="2.90166" fill="#71B35F"/>
<rect x="24.6953" y="125.66" width="5.80332" height="5.80332" rx="2.90166" fill="#2F3239"/>
<rect x="32.9858" y="125.66" width="6.07967" height="5.80332" rx="2.90166" fill="#2F3239"/>
<rect x="41.5525" y="125.66" width="5.80332" height="5.80332" rx="2.90166" fill="#57894B"/>
<rect x="49.843" y="125.66" width="6.07967" height="5.80332" rx="2.90166" fill="#2F3239"/>
<rect x="58.4099" y="125.66" width="5.80332" height="5.80332" rx="2.90166" fill="#2F3239"/>
<rect x="66.7002" y="125.66" width="6.07967" height="5.80332" rx="2.90166" fill="#71B35F"/>
<rect x="75.2671" y="125.66" width="6.07967" height="5.80332" rx="2.90166" fill="#71B35F"/>
<rect x="83.5576" y="125.66" width="6.07967" height="5.80332" rx="2.90166" fill="#2F3239"/>
<rect x="92.1245" y="125.66" width="6.07967" height="5.80332" rx="2.90166" fill="#2F3239"/>
<rect x="100.415" y="125.66" width="6.07967" height="5.80332" rx="2.90166" fill="#57894B"/>
<rect x="108.982" y="125.66" width="6.07967" height="5.80332" rx="2.90166" fill="#2F3239"/>
<rect x="117.272" y="125.66" width="6.07967" height="5.80332" rx="2.90166" fill="#2F3239"/>
<rect x="125.839" y="125.66" width="6.07967" height="5.80332" rx="2.90166" fill="#57894B"/>
<rect x="134.129" y="125.66" width="6.07967" height="5.80332" rx="2.90166" fill="#2F3239"/>
<rect x="142.696" y="125.66" width="6.07967" height="5.80332" rx="2.90166" fill="#71B35F"/>
<rect x="151.263" y="125.66" width="5.80332" height="5.80332" rx="2.90166" fill="#2F3239"/>
<rect x="159.554" y="125.66" width="6.07967" height="5.80332" rx="2.90166" fill="#2F3239"/>
<rect x="168.12" y="125.66" width="5.80332" height="5.80332" rx="2.90166" fill="#71B35F"/>
<rect x="176.411" y="125.66" width="6.07967" height="5.80332" rx="2.90166" fill="#2F3239"/>
<rect x="184.978" y="125.66" width="5.80332" height="5.80332" rx="2.90166" fill="#57894B"/>
<rect x="193.268" y="125.66" width="6.07967" height="5.80332" rx="2.90166" fill="#2F3239"/>
<rect x="201.835" y="125.66" width="6.07967" height="5.80332" rx="2.90166" fill="#2F3239"/>
<rect x="210.125" y="125.66" width="6.07967" height="5.80332" rx="2.90166" fill="#71B35F"/>
<rect x="218.692" y="125.66" width="6.07967" height="5.80332" rx="2.90166" fill="#2F3239"/>
<rect x="226.982" y="125.66" width="6.07967" height="5.80332" rx="2.90166" fill="#57894B"/>
<rect x="235.549" y="125.66" width="6.07967" height="5.80332" rx="2.90166" fill="#2F3239"/>
<rect x="243.84" y="125.66" width="6.07967" height="5.80332" rx="2.90166" fill="#2F3239"/>
<rect x="252.406" y="125.66" width="6.07967" height="5.80332" rx="2.90166" fill="#2F3239"/>
<rect x="260.697" y="125.66" width="6.07967" height="5.80332" rx="2.90166" fill="#2F3239"/>
<rect x="269.264" y="125.66" width="6.07967" height="5.80332" rx="2.90166" fill="#71B35F"/>
<rect x="277.554" y="125.66" width="6.07967" height="5.80332" rx="2.90166" fill="#2F3239"/>
<rect x="286.121" y="125.66" width="6.07967" height="5.80332" rx="2.90166" fill="#2F3239"/>
<rect x="294.688" y="125.66" width="5.80332" height="5.80332" rx="2.90166" fill="#57894B"/>
<rect x="58.4099" y="66.7974" width="6.07967" height="6.07967" rx="3.03983" fill="#2F3239"/>
<rect x="66.7002" y="66.7974" width="6.07967" height="6.07967" rx="3.03983" fill="#57894B"/>
<rect x="75.2671" y="66.7974" width="6.07967" height="6.07967" rx="3.03983" fill="#71B35F"/>
<rect x="83.5576" y="66.7974" width="6.07967" height="6.07967" rx="3.03983" fill="#2F3239"/>
<rect x="92.1245" y="66.7974" width="6.07967" height="6.07967" rx="3.03983" fill="#2F3239"/>
<rect x="100.415" y="66.7974" width="6.07967" height="6.07967" rx="3.03983" fill="#71B35F"/>
<rect x="108.982" y="66.7974" width="6.07967" height="6.07967" rx="3.03983" fill="#2F3239"/>
<rect x="117.272" y="66.7974" width="6.07967" height="6.07967" rx="3.03983" fill="#2F3239"/>
<rect x="125.839" y="66.7974" width="6.07967" height="6.07967" rx="3.03983" fill="#57894B"/>
<rect x="134.406" y="66.7974" width="5.80332" height="6.07967" rx="2.90166" fill="#2F3239"/>
<rect x="142.696" y="66.7974" width="6.07967" height="6.07967" rx="3.03983" fill="#71B35F"/>
<rect x="151.263" y="66.7974" width="5.80332" height="6.07967" rx="2.90166" fill="#71B35F"/>
<rect x="159.554" y="66.7974" width="6.07967" height="6.07967" rx="3.03983" fill="#71B35F"/>
<rect x="168.12" y="66.7974" width="5.80332" height="6.07967" rx="2.90166" fill="#57894B"/>
<rect x="176.411" y="66.7974" width="6.07967" height="6.07967" rx="3.03983" fill="#2F3239"/>
<rect x="184.978" y="66.7974" width="6.07967" height="6.07967" rx="3.03983" fill="#71B35F"/>
<rect x="193.268" y="66.7974" width="6.07967" height="6.07967" rx="3.03983" fill="#57894B"/>
<rect x="201.835" y="66.7974" width="6.07967" height="6.07967" rx="3.03983" fill="#57894B"/>
<rect x="210.125" y="66.7974" width="6.07967" height="6.07967" rx="3.03983" fill="#71B35F"/>
<rect x="218.692" y="66.7974" width="6.07967" height="6.07967" rx="3.03983" fill="#2F3239"/>
<rect x="226.982" y="66.7974" width="6.07967" height="6.07967" rx="3.03983" fill="#71B35F"/>
<rect x="235.549" y="66.7974" width="6.07967" height="6.07967" rx="3.03983" fill="#2F3239"/>
<rect x="243.84" y="66.7974" width="6.07967" height="6.07967" rx="3.03983" fill="#2F3239"/>
<rect x="252.406" y="66.7974" width="6.07967" height="6.07967" rx="3.03983" fill="#57894B"/>
<rect x="260.973" y="66.7974" width="5.80332" height="6.07967" rx="2.90166" fill="#2F3239"/>
<rect x="269.264" y="66.7974" width="6.07967" height="6.07967" rx="3.03983" fill="#2F3239"/>
<rect x="277.831" y="66.7974" width="5.80332" height="6.07967" rx="2.90166" fill="#2F3239"/>
<rect x="286.121" y="66.7974" width="6.07967" height="6.07967" rx="3.03983" fill="#2F3239"/>
<rect x="294.688" y="66.7974" width="6.07967" height="6.07967" rx="3.03983" fill="#2F3239"/>
<rect x="16.1287" y="133.95" width="6.07967" height="6.07967" rx="3.03983" fill="#2F3239"/>
<rect x="24.6953" y="133.95" width="5.80332" height="6.07967" rx="2.90166" fill="#71B35F"/>
<rect x="32.9858" y="133.95" width="6.07967" height="6.07967" rx="3.03983" fill="#71B35F"/>
<rect x="41.5525" y="133.95" width="5.80332" height="6.07967" rx="2.90166" fill="#2F3239"/>
<rect x="49.843" y="133.95" width="6.07967" height="6.07967" rx="3.03983" fill="#2F3239"/>
<rect x="58.4099" y="133.95" width="5.80332" height="6.07967" rx="2.90166" fill="#2F3239"/>
<rect x="66.7002" y="133.95" width="6.07967" height="6.07967" rx="3.03983" fill="#2F3239"/>
<rect x="75.2671" y="133.95" width="6.07967" height="6.07967" rx="3.03983" fill="#57894B"/>
<rect x="83.5576" y="133.95" width="6.07967" height="6.07967" rx="3.03983" fill="#71B35F"/>
<rect x="92.1245" y="133.95" width="6.07967" height="6.07967" rx="3.03983" fill="#2F3239"/>
<rect x="100.415" y="133.95" width="6.07967" height="6.07967" rx="3.03983" fill="#2F3239"/>
<rect x="108.982" y="133.95" width="6.07967" height="6.07967" rx="3.03983" fill="#71B35F"/>
<rect x="117.272" y="133.95" width="6.07967" height="6.07967" rx="3.03983" fill="#71B35F"/>
<rect x="125.839" y="133.95" width="6.07967" height="6.07967" rx="3.03983" fill="#2F3239"/>
<rect x="134.129" y="133.95" width="6.07967" height="6.07967" rx="3.03983" fill="#2F3239"/>
<rect x="142.696" y="133.95" width="6.07967" height="6.07967" rx="3.03983" fill="#71B35F"/>
<rect x="151.263" y="133.95" width="5.80332" height="6.07967" rx="2.90166" fill="#2F3239"/>
<rect x="159.554" y="133.95" width="6.07967" height="6.07967" rx="3.03983" fill="#2F3239"/>
<rect x="168.12" y="133.95" width="5.80332" height="6.07967" rx="2.90166" fill="#57894B"/>
<rect x="176.411" y="133.95" width="6.07967" height="6.07967" rx="3.03983" fill="#2F3239"/>
<rect x="184.978" y="133.95" width="5.80332" height="6.07967" rx="2.90166" fill="#57894B"/>
<rect x="193.268" y="133.95" width="6.07967" height="6.07967" rx="3.03983" fill="#2F3239"/>
<rect x="201.835" y="133.95" width="6.07967" height="6.07967" rx="3.03983" fill="#2F3239"/>
<rect x="210.125" y="133.95" width="6.07967" height="6.07967" rx="3.03983" fill="#71B35F"/>
<rect x="218.692" y="133.95" width="6.07967" height="6.07967" rx="3.03983" fill="#2F3239"/>
<rect x="226.982" y="133.95" width="6.07967" height="6.07967" rx="3.03983" fill="#71B35F"/>
<rect x="235.549" y="133.95" width="6.07967" height="6.07967" rx="3.03983" fill="#71B35F"/>
<rect x="243.84" y="133.95" width="6.07967" height="6.07967" rx="3.03983" fill="#71B35F"/>
<rect x="252.406" y="133.95" width="6.07967" height="6.07967" rx="3.03983" fill="#57894B"/>
<rect x="260.697" y="133.95" width="6.07967" height="6.07967" rx="3.03983" fill="#2F3239"/>
<rect x="269.264" y="133.95" width="6.07967" height="6.07967" rx="3.03983" fill="#2F3239"/>
<rect x="277.554" y="133.95" width="6.07967" height="6.07967" rx="3.03983" fill="#57894B"/>
<rect x="286.121" y="133.95" width="6.07967" height="6.07967" rx="3.03983" fill="#71B35F"/>
<rect x="294.688" y="133.95" width="5.80332" height="6.07967" rx="2.90166" fill="#2F3239"/>
<defs>
<filter id="filter0_ii_1_3766" x="-6" y="-5.00684" width="328" height="167.013" filterUnits="userSpaceOnUse" color-interpolation-filters="sRGB">
<feFlood flood-opacity="0" result="BackgroundImageFix"/>
<feBlend mode="normal" in="SourceGraphic" in2="BackgroundImageFix" result="shape"/>
<feColorMatrix in="SourceAlpha" type="matrix" values="0 0 0 0 0 0 0 0 0 0 0 0 0 0 0 0 0 0 127 0" result="hardAlpha"/>
<feOffset dx="6" dy="6"/>
<feGaussianBlur stdDeviation="8"/>
<feComposite in2="hardAlpha" operator="arithmetic" k2="-1" k3="1"/>
<feColorMatrix type="matrix" values="0 0 0 0 1 0 0 0 0 1 0 0 0 0 1 0 0 0 0.1 0"/>
<feBlend mode="normal" in2="shape" result="effect1_innerShadow_1_3766"/>
<feColorMatrix in="SourceAlpha" type="matrix" values="0 0 0 0 0 0 0 0 0 0 0 0 0 0 0 0 0 0 127 0" result="hardAlpha"/>
<feOffset dx="-6" dy="-6"/>
<feGaussianBlur stdDeviation="8"/>
<feComposite in2="hardAlpha" operator="arithmetic" k2="-1" k3="1"/>
<feColorMatrix type="matrix" values="0 0 0 0 0 0 0 0 0 0 0 0 0 0 0 0 0 0 0.3 0"/>
<feBlend mode="normal" in2="effect1_innerShadow_1_3766" result="effect2_innerShadow_1_3766"/>
</filter>
<filter id="filter1_ii_1_3766" x="-0.325195" y="0.966797" width="316.65" height="155.066" filterUnits="userSpaceOnUse" color-interpolation-filters="sRGB">
<feFlood flood-opacity="0" result="BackgroundImageFix"/>
<feBlend mode="normal" in="SourceGraphic" in2="BackgroundImageFix" result="shape"/>
<feColorMatrix in="SourceAlpha" type="matrix" values="0 0 0 0 0 0 0 0 0 0 0 0 0 0 0 0 0 0 127 0" result="hardAlpha"/>
<feOffset dx="-6" dy="-6"/>
<feGaussianBlur stdDeviation="3"/>
<feComposite in2="hardAlpha" operator="arithmetic" k2="-1" k3="1"/>
<feColorMatrix type="matrix" values="0 0 0 0 0.219687 0 0 0 0 0.241611 0 0 0 0 0.255313 0 0 0 0.2 0"/>
<feBlend mode="normal" in2="shape" result="effect1_innerShadow_1_3766"/>
<feColorMatrix in="SourceAlpha" type="matrix" values="0 0 0 0 0 0 0 0 0 0 0 0 0 0 0 0 0 0 127 0" result="hardAlpha"/>
<feOffset dx="6" dy="6"/>
<feGaussianBlur stdDeviation="8"/>
<feComposite in2="hardAlpha" operator="arithmetic" k2="-1" k3="1"/>
<feColorMatrix type="matrix" values="0 0 0 0 0 0 0 0 0 0 0 0 0 0 0 0 0 0 0.2 0"/>
<feBlend mode="normal" in2="effect1_innerShadow_1_3766" result="effect2_innerShadow_1_3766"/>
</filter>
</defs>
</svg>
