<svg width="59" height="1083" viewBox="0 0 59 1083" fill="none" xmlns="http://www.w3.org/2000/svg">
<g filter="url(#filter0_d_9_5466)">
<line x1="30" y1="28" x2="30" y2="1079" stroke="#F87216"/>
</g>
<g filter="url(#filter1_d_9_5466)">
<ellipse cx="29.5" cy="28" rx="17.5" ry="16" fill="url(#paint0_linear_9_5466)"/>
</g>
<g clip-path="url(#clip0_9_5466)">
<path d="M37.7031 24.264L32.2344 19.4785V22.3498C28.7825 22.3498 24.5781 24.1243 24.5781 29.0495C26.2833 26.6348 29.5 26.1782 32.2344 26.1782V29.0495L37.7031 24.264Z" stroke="#FFF9ED" stroke-linecap="round" stroke-linejoin="round"/>
<path d="M37.7031 29.0495V32.3994C37.7031 32.7801 37.5303 33.1453 37.2226 33.4145C36.9149 33.6837 36.4976 33.835 36.0625 33.835H22.9375C22.5024 33.835 22.0851 33.6837 21.7774 33.4145C21.4697 33.1453 21.2969 32.7801 21.2969 32.3994V22.8284C21.2969 22.4476 21.4697 22.0824 21.7774 21.8132C22.0851 21.544 22.5024 21.3927 22.9375 21.3927H24.5781" stroke="#FFF9ED" stroke-linecap="round" stroke-linejoin="round"/>
</g>
<defs>
<filter id="filter0_d_9_5466" x="25.5" y="24" width="9" height="1059" filterUnits="userSpaceOnUse" color-interpolation-filters="sRGB">
<feFlood flood-opacity="0" result="BackgroundImageFix"/>
<feColorMatrix in="SourceAlpha" type="matrix" values="0 0 0 0 0 0 0 0 0 0 0 0 0 0 0 0 0 0 127 0" result="hardAlpha"/>
<feOffset/>
<feGaussianBlur stdDeviation="2"/>
<feComposite in2="hardAlpha" operator="out"/>
<feColorMatrix type="matrix" values="0 0 0 0 0.929412 0 0 0 0 0.329412 0 0 0 0 0.196078 0 0 0 1 0"/>
<feBlend mode="normal" in2="BackgroundImageFix" result="effect1_dropShadow_9_5466"/>
<feBlend mode="normal" in="SourceGraphic" in2="effect1_dropShadow_9_5466" result="shape"/>
</filter>
<filter id="filter1_d_9_5466" x="0" y="0" width="59" height="56" filterUnits="userSpaceOnUse" color-interpolation-filters="sRGB">
<feFlood flood-opacity="0" result="BackgroundImageFix"/>
<feColorMatrix in="SourceAlpha" type="matrix" values="0 0 0 0 0 0 0 0 0 0 0 0 0 0 0 0 0 0 127 0" result="hardAlpha"/>
<feOffset/>
<feGaussianBlur stdDeviation="6"/>
<feComposite in2="hardAlpha" operator="out"/>
<feColorMatrix type="matrix" values="0 0 0 0 0.929412 0 0 0 0 0.564706 0 0 0 0 0.2 0 0 0 1 0"/>
<feBlend mode="normal" in2="BackgroundImageFix" result="effect1_dropShadow_9_5466"/>
<feBlend mode="normal" in="SourceGraphic" in2="effect1_dropShadow_9_5466" result="shape"/>
</filter>
<linearGradient id="paint0_linear_9_5466" x1="12" y1="28.0001" x2="47" y2="28.0001" gradientUnits="userSpaceOnUse">
<stop stop-color="#FCB60A"/>
<stop offset="0.115" stop-color="#F69319"/>
<stop offset="0.305" stop-color="#EF6D2A"/>
<stop offset="0.727" stop-color="#ED5332"/>
<stop offset="1" stop-color="#ED6A32"/>
</linearGradient>
<clipPath id="clip0_9_5466">
<rect width="17.5" height="15.3136" fill="white" transform="translate(20.75 19)"/>
</clipPath>
</defs>
</svg>
