<svg width="660" height="3670" viewBox="0 0 660 3670" fill="none" xmlns="http://www.w3.org/2000/svg">
<g filter="url(#filter0_d_7_14654)">
<line x1="28.5" y1="17" x2="28.5002" y2="3480" stroke="#F87216"/>
</g>
<g filter="url(#filter1_d_7_14654)">
<line x1="28" y1="3479.5" x2="633" y2="3479.5" stroke="#F87216"/>
</g>
<g filter="url(#filter2_d_7_14654)">
<line x1="632.5" y1="3480" x2="632.5" y2="3666" stroke="#F87216"/>
<line x1="632.5" y1="3480" x2="632.5" y2="3666" stroke="url(#paint0_linear_7_14654)" stroke-opacity="0.2"/>
</g>
<g filter="url(#filter3_d_7_14654)">
<circle cx="28" cy="772" r="16" fill="url(#paint1_linear_7_14654)"/>
</g>
<g clip-path="url(#clip0_7_14654)">
<path d="M29.624 775.624L33.5 779.5L35.5 777.5L31.624 773.624" stroke="#FFF9ED" stroke-linecap="round" stroke-linejoin="round"/>
<path d="M26.5 776.5C29.8137 776.5 32.5 773.814 32.5 770.5C32.5 767.186 29.8137 764.5 26.5 764.5C23.1863 764.5 20.5 767.186 20.5 770.5C20.5 773.814 23.1863 776.5 26.5 776.5Z" stroke="#FFF9ED" stroke-linecap="round" stroke-linejoin="round"/>
</g>
<g filter="url(#filter4_d_7_14654)">
<circle cx="28" cy="1813" r="16" fill="url(#paint2_linear_7_14654)"/>
</g>
<g clip-path="url(#clip1_7_14654)">
<path d="M35.5 1809.26L30.5 1804.48V1807.35C27.344 1807.35 23.5 1809.12 23.5 1814.05C25.059 1811.63 28 1811.18 30.5 1811.18V1814.05L35.5 1809.26Z" stroke="#FFF9ED" stroke-linecap="round" stroke-linejoin="round"/>
<path d="M35.5 1814.05V1817.4C35.5 1817.78 35.342 1818.15 35.0607 1818.41C34.7794 1818.68 34.3978 1818.84 34 1818.84H22C21.6022 1818.84 21.2206 1818.68 20.9393 1818.41C20.658 1818.15 20.5 1817.78 20.5 1817.4V1807.83C20.5 1807.45 20.658 1807.08 20.9393 1806.81C21.2206 1806.54 21.6022 1806.39 22 1806.39H23.5" stroke="#FFF9ED" stroke-linecap="round" stroke-linejoin="round"/>
</g>
<g filter="url(#filter5_d_7_14654)">
<circle cx="28" cy="2742" r="16" fill="url(#paint3_linear_7_14654)"/>
</g>
<g clip-path="url(#clip2_7_14654)">
<path d="M28 2737.35C28.8284 2737.35 29.5 2736.71 29.5 2735.91C29.5 2735.12 28.8284 2734.48 28 2734.48C27.1716 2734.48 26.5 2735.12 26.5 2735.91C26.5 2736.71 27.1716 2737.35 28 2737.35Z" stroke="#FFF9ED" stroke-linecap="round" stroke-linejoin="round"/>
<path d="M22.1543 2747.04C22.9827 2747.04 23.6543 2746.4 23.6543 2745.6C23.6543 2744.81 22.9827 2744.17 22.1543 2744.17C21.3259 2744.17 20.6543 2744.81 20.6543 2745.6C20.6543 2746.4 21.3259 2747.04 22.1543 2747.04Z" stroke="#FFF9ED" stroke-linecap="round" stroke-linejoin="round"/>
<path d="M33.8467 2747.04C34.6751 2747.04 35.3467 2746.4 35.3467 2745.6C35.3467 2744.81 34.6751 2744.17 33.8467 2744.17C33.0183 2744.17 32.3467 2744.81 32.3467 2745.6C32.3467 2746.4 33.0183 2747.04 33.8467 2747.04Z" stroke="#FFF9ED" stroke-linecap="round" stroke-linejoin="round"/>
<path d="M24.625 2736.79C23.2988 2737.52 22.2722 2738.66 21.7141 2740.03C21.156 2741.39 21.0995 2742.9 21.554 2744.3" stroke="#FFF9ED" stroke-linecap="round" stroke-linejoin="round"/>
<path d="M32.9549 2746.75C31.92 2747.83 30.531 2748.54 29.0174 2748.76C27.5039 2748.99 25.9565 2748.71 24.6309 2747.97" stroke="#FFF9ED" stroke-linecap="round" stroke-linejoin="round"/>
<path d="M34.7504 2742.37C34.75 2740.91 34.2283 2739.49 33.2711 2738.34C32.3138 2737.2 30.978 2736.4 29.4834 2736.08" stroke="#FFF9ED" stroke-linecap="round" stroke-linejoin="round"/>
</g>
<g filter="url(#filter6_d_7_14654)">
<circle cx="632" cy="3480" r="16" fill="url(#paint4_linear_7_14654)"/>
</g>
<g clip-path="url(#clip3_7_14654)">
<path d="M631 3477.26C631 3476.6 630.795 3475.95 630.41 3475.4C630.026 3474.85 629.479 3474.42 628.839 3474.17C628.2 3473.92 627.496 3473.85 626.817 3473.98C626.138 3474.11 625.515 3474.43 625.025 3474.9C624.536 3475.36 624.202 3475.96 624.067 3476.61C623.932 3477.26 624.002 3477.93 624.266 3478.55C624.531 3479.16 624.98 3479.68 625.556 3480.05C626.131 3480.42 626.808 3480.61 627.5 3480.61C627.853 3480.61 628.204 3480.55 628.539 3480.45C628.108 3481.7 627.384 3482.83 626.422 3483.77C626.328 3483.86 626.253 3483.97 626.202 3484.09C626.152 3484.2 626.126 3484.33 626.126 3484.45C626.126 3484.58 626.153 3484.71 626.205 3484.82C626.256 3484.94 626.331 3485.05 626.426 3485.14C626.521 3485.22 626.633 3485.29 626.756 3485.34C626.879 3485.39 627.011 3485.41 627.143 3485.41C627.276 3485.41 627.406 3485.38 627.528 3485.33C627.649 3485.28 627.759 3485.2 627.85 3485.11C629.874 3483.15 631.006 3480.5 631 3477.74C630.994 3477.69 630.982 3477.64 630.966 3477.58C630.983 3477.48 630.994 3477.37 631 3477.26Z" fill="#FFF9ED"/>
<path d="M640 3477.26C640.014 3476.54 639.787 3475.83 639.353 3475.24C638.918 3474.65 638.298 3474.2 637.582 3473.97C636.866 3473.74 636.091 3473.73 635.369 3473.94C634.647 3474.16 634.016 3474.59 633.566 3475.17C633.116 3475.75 632.871 3476.45 632.866 3477.18C632.861 3477.9 633.097 3478.61 633.539 3479.2C633.981 3479.78 634.607 3480.22 635.326 3480.45C636.045 3480.67 636.82 3480.67 637.539 3480.45C637.108 3481.7 636.384 3482.83 635.422 3483.77C635.327 3483.86 635.253 3483.97 635.202 3484.09C635.151 3484.2 635.125 3484.33 635.126 3484.45C635.126 3484.58 635.153 3484.71 635.204 3484.82C635.256 3484.94 635.331 3485.05 635.426 3485.14C635.52 3485.22 635.632 3485.29 635.755 3485.34C635.878 3485.39 636.01 3485.41 636.143 3485.41C636.275 3485.41 636.406 3485.38 636.527 3485.33C636.649 3485.28 636.758 3485.2 636.85 3485.11C638.873 3483.15 640.005 3480.5 640 3477.74C639.993 3477.69 639.982 3477.63 639.966 3477.58C639.983 3477.48 639.994 3477.37 640 3477.26Z" fill="#FFF9ED"/>
</g>
<g filter="url(#filter7_d_7_14654)">
<circle cx="28" cy="20" r="8" fill="url(#paint5_linear_7_14654)"/>
</g>
<defs>
<filter id="filter0_d_7_14654" x="24" y="13" width="9" height="3471" filterUnits="userSpaceOnUse" color-interpolation-filters="sRGB">
<feFlood flood-opacity="0" result="BackgroundImageFix"/>
<feColorMatrix in="SourceAlpha" type="matrix" values="0 0 0 0 0 0 0 0 0 0 0 0 0 0 0 0 0 0 127 0" result="hardAlpha"/>
<feOffset/>
<feGaussianBlur stdDeviation="2"/>
<feComposite in2="hardAlpha" operator="out"/>
<feColorMatrix type="matrix" values="0 0 0 0 0.929412 0 0 0 0 0.329412 0 0 0 0 0.196078 0 0 0 1 0"/>
<feBlend mode="normal" in2="BackgroundImageFix" result="effect1_dropShadow_7_14654"/>
<feBlend mode="normal" in="SourceGraphic" in2="effect1_dropShadow_7_14654" result="shape"/>
</filter>
<filter id="filter1_d_7_14654" x="24" y="3475" width="613" height="9" filterUnits="userSpaceOnUse" color-interpolation-filters="sRGB">
<feFlood flood-opacity="0" result="BackgroundImageFix"/>
<feColorMatrix in="SourceAlpha" type="matrix" values="0 0 0 0 0 0 0 0 0 0 0 0 0 0 0 0 0 0 127 0" result="hardAlpha"/>
<feOffset/>
<feGaussianBlur stdDeviation="2"/>
<feComposite in2="hardAlpha" operator="out"/>
<feColorMatrix type="matrix" values="0 0 0 0 0.929412 0 0 0 0 0.329412 0 0 0 0 0.196078 0 0 0 1 0"/>
<feBlend mode="normal" in2="BackgroundImageFix" result="effect1_dropShadow_7_14654"/>
<feBlend mode="normal" in="SourceGraphic" in2="effect1_dropShadow_7_14654" result="shape"/>
</filter>
<filter id="filter2_d_7_14654" x="628" y="3476" width="9" height="194" filterUnits="userSpaceOnUse" color-interpolation-filters="sRGB">
<feFlood flood-opacity="0" result="BackgroundImageFix"/>
<feColorMatrix in="SourceAlpha" type="matrix" values="0 0 0 0 0 0 0 0 0 0 0 0 0 0 0 0 0 0 127 0" result="hardAlpha"/>
<feOffset/>
<feGaussianBlur stdDeviation="2"/>
<feComposite in2="hardAlpha" operator="out"/>
<feColorMatrix type="matrix" values="0 0 0 0 0.929412 0 0 0 0 0.329412 0 0 0 0 0.196078 0 0 0 1 0"/>
<feBlend mode="normal" in2="BackgroundImageFix" result="effect1_dropShadow_7_14654"/>
<feBlend mode="normal" in="SourceGraphic" in2="effect1_dropShadow_7_14654" result="shape"/>
</filter>
<filter id="filter3_d_7_14654" x="0" y="744" width="56" height="56" filterUnits="userSpaceOnUse" color-interpolation-filters="sRGB">
<feFlood flood-opacity="0" result="BackgroundImageFix"/>
<feColorMatrix in="SourceAlpha" type="matrix" values="0 0 0 0 0 0 0 0 0 0 0 0 0 0 0 0 0 0 127 0" result="hardAlpha"/>
<feOffset/>
<feGaussianBlur stdDeviation="6"/>
<feComposite in2="hardAlpha" operator="out"/>
<feColorMatrix type="matrix" values="0 0 0 0 0.929412 0 0 0 0 0.564706 0 0 0 0 0.2 0 0 0 1 0"/>
<feBlend mode="normal" in2="BackgroundImageFix" result="effect1_dropShadow_7_14654"/>
<feBlend mode="normal" in="SourceGraphic" in2="effect1_dropShadow_7_14654" result="shape"/>
</filter>
<filter id="filter4_d_7_14654" x="0" y="1785" width="56" height="56" filterUnits="userSpaceOnUse" color-interpolation-filters="sRGB">
<feFlood flood-opacity="0" result="BackgroundImageFix"/>
<feColorMatrix in="SourceAlpha" type="matrix" values="0 0 0 0 0 0 0 0 0 0 0 0 0 0 0 0 0 0 127 0" result="hardAlpha"/>
<feOffset/>
<feGaussianBlur stdDeviation="6"/>
<feComposite in2="hardAlpha" operator="out"/>
<feColorMatrix type="matrix" values="0 0 0 0 0.929412 0 0 0 0 0.564706 0 0 0 0 0.2 0 0 0 1 0"/>
<feBlend mode="normal" in2="BackgroundImageFix" result="effect1_dropShadow_7_14654"/>
<feBlend mode="normal" in="SourceGraphic" in2="effect1_dropShadow_7_14654" result="shape"/>
</filter>
<filter id="filter5_d_7_14654" x="0" y="2714" width="56" height="56" filterUnits="userSpaceOnUse" color-interpolation-filters="sRGB">
<feFlood flood-opacity="0" result="BackgroundImageFix"/>
<feColorMatrix in="SourceAlpha" type="matrix" values="0 0 0 0 0 0 0 0 0 0 0 0 0 0 0 0 0 0 127 0" result="hardAlpha"/>
<feOffset/>
<feGaussianBlur stdDeviation="6"/>
<feComposite in2="hardAlpha" operator="out"/>
<feColorMatrix type="matrix" values="0 0 0 0 0.929412 0 0 0 0 0.564706 0 0 0 0 0.2 0 0 0 1 0"/>
<feBlend mode="normal" in2="BackgroundImageFix" result="effect1_dropShadow_7_14654"/>
<feBlend mode="normal" in="SourceGraphic" in2="effect1_dropShadow_7_14654" result="shape"/>
</filter>
<filter id="filter6_d_7_14654" x="604" y="3452" width="56" height="56" filterUnits="userSpaceOnUse" color-interpolation-filters="sRGB">
<feFlood flood-opacity="0" result="BackgroundImageFix"/>
<feColorMatrix in="SourceAlpha" type="matrix" values="0 0 0 0 0 0 0 0 0 0 0 0 0 0 0 0 0 0 127 0" result="hardAlpha"/>
<feOffset/>
<feGaussianBlur stdDeviation="6"/>
<feComposite in2="hardAlpha" operator="out"/>
<feColorMatrix type="matrix" values="0 0 0 0 0.929412 0 0 0 0 0.564706 0 0 0 0 0.2 0 0 0 1 0"/>
<feBlend mode="normal" in2="BackgroundImageFix" result="effect1_dropShadow_7_14654"/>
<feBlend mode="normal" in="SourceGraphic" in2="effect1_dropShadow_7_14654" result="shape"/>
</filter>
<filter id="filter7_d_7_14654" x="8" y="0" width="40" height="40" filterUnits="userSpaceOnUse" color-interpolation-filters="sRGB">
<feFlood flood-opacity="0" result="BackgroundImageFix"/>
<feColorMatrix in="SourceAlpha" type="matrix" values="0 0 0 0 0 0 0 0 0 0 0 0 0 0 0 0 0 0 127 0" result="hardAlpha"/>
<feOffset/>
<feGaussianBlur stdDeviation="6"/>
<feComposite in2="hardAlpha" operator="out"/>
<feColorMatrix type="matrix" values="0 0 0 0 0.929412 0 0 0 0 0.564706 0 0 0 0 0.2 0 0 0 1 0"/>
<feBlend mode="normal" in2="BackgroundImageFix" result="effect1_dropShadow_7_14654"/>
<feBlend mode="normal" in="SourceGraphic" in2="effect1_dropShadow_7_14654" result="shape"/>
</filter>
<linearGradient id="paint0_linear_7_14654" x1="631" y1="3507.5" x2="631" y2="3666" gradientUnits="userSpaceOnUse">
<stop stop-opacity="0"/>
<stop offset="0.440063"/>
</linearGradient>
<linearGradient id="paint1_linear_7_14654" x1="12" y1="772" x2="44" y2="772" gradientUnits="userSpaceOnUse">
<stop stop-color="#FCB60A"/>
<stop offset="0.115" stop-color="#F69319"/>
<stop offset="0.305" stop-color="#EF6D2A"/>
<stop offset="0.727" stop-color="#ED5332"/>
<stop offset="1" stop-color="#ED6A32"/>
</linearGradient>
<linearGradient id="paint2_linear_7_14654" x1="12" y1="1813" x2="44" y2="1813" gradientUnits="userSpaceOnUse">
<stop stop-color="#FCB60A"/>
<stop offset="0.115" stop-color="#F69319"/>
<stop offset="0.305" stop-color="#EF6D2A"/>
<stop offset="0.727" stop-color="#ED5332"/>
<stop offset="1" stop-color="#ED6A32"/>
</linearGradient>
<linearGradient id="paint3_linear_7_14654" x1="12" y1="2742" x2="44" y2="2742" gradientUnits="userSpaceOnUse">
<stop stop-color="#FCB60A"/>
<stop offset="0.115" stop-color="#F69319"/>
<stop offset="0.305" stop-color="#EF6D2A"/>
<stop offset="0.727" stop-color="#ED5332"/>
<stop offset="1" stop-color="#ED6A32"/>
</linearGradient>
<linearGradient id="paint4_linear_7_14654" x1="616" y1="3480" x2="648" y2="3480" gradientUnits="userSpaceOnUse">
<stop stop-color="#FCB60A"/>
<stop offset="0.115" stop-color="#F69319"/>
<stop offset="0.305" stop-color="#EF6D2A"/>
<stop offset="0.727" stop-color="#ED5332"/>
<stop offset="1" stop-color="#ED6A32"/>
</linearGradient>
<linearGradient id="paint5_linear_7_14654" x1="20" y1="20" x2="36" y2="20" gradientUnits="userSpaceOnUse">
<stop stop-color="#FCB60A"/>
<stop offset="0.115" stop-color="#F69319"/>
<stop offset="0.305" stop-color="#EF6D2A"/>
<stop offset="0.727" stop-color="#ED5332"/>
<stop offset="1" stop-color="#ED6A32"/>
</linearGradient>
<clipPath id="clip0_7_14654">
<rect width="16" height="16" fill="white" transform="translate(20 764)"/>
</clipPath>
<clipPath id="clip1_7_14654">
<rect width="16" height="15.3136" fill="white" transform="translate(20 1804)"/>
</clipPath>
<clipPath id="clip2_7_14654">
<rect width="16" height="15.3136" fill="white" transform="translate(20 2734)"/>
</clipPath>
<clipPath id="clip3_7_14654">
<rect width="16" height="15.3136" fill="white" transform="translate(624 3472)"/>
</clipPath>
</defs>
</svg>
