<svg width="610" height="845" viewBox="0 0 610 845" fill="none" xmlns="http://www.w3.org/2000/svg">
<path d="M287.56 48.3198C315.637 79.4722 373.008 150.181 482.64 307.95L576.29 453.774C585.415 470.381 593.578 487.497 600.74 505.036C602.522 509.562 604.164 514.098 605.696 518.697C609.201 529.629 608.462 541.459 603.631 551.807L603.624 551.823L603.617 551.838C598.183 564.2 590.826 575.606 581.819 585.635C541.686 628.94 464.992 679.99 393.665 722.581C322.385 765.143 256.655 799.145 238.6 808.358C235.678 809.849 232.776 811.219 229.768 812.521C227.528 813.49 224.987 814.6 222.216 815.812C212.499 820.059 199.952 825.543 187.597 830.489C179.66 833.666 171.825 836.611 164.894 838.857C157.935 841.111 151.986 842.626 147.786 842.996L147.896 844.251L147.786 842.996C133.431 844.262 118.743 842.077 106.509 834.755C102.661 832.452 99.0296 829.762 95.6783 826.715C89.7246 820.653 84.8585 813.606 81.2936 805.888C73.8767 789.751 68.2432 772.862 64.4908 755.529C63.5883 751.361 62.9043 747.149 62.2564 742.892L61.8863 740.462C56.6304 705.963 36.6126 574.569 21.1285 437.906C13.1905 367.844 6.4464 296.419 3.49236 235.965C2.01531 205.738 1.48677 178.271 2.22775 155.1C2.9695 131.904 4.98154 113.105 8.54662 100.165L8.54671 100.165C8.63637 99.8388 8.75938 99.3629 8.91395 98.7647C10.0126 94.5139 12.7063 84.0913 16.36 77.5641C25.0012 62.1292 34.3569 52.2827 48.1682 41.0912L48.6245 40.8221L48.7472 40.7497L48.8542 40.6555L50.8722 38.8773C66.2137 27.0153 84.2769 19.1834 103.438 16.0898C116.746 14.0264 133.446 11.2829 148.673 8.78159C167.833 5.63393 184.66 2.86971 189.455 2.32673L189.469 2.32511C204.851 0.443977 220.48 2.92161 234.587 9.48042L234.591 9.48223C236.108 10.1823 237.621 10.8944 239.127 11.6182L239.749 10.3238L239.127 11.6184C257.553 20.4671 273.844 33.0987 287.56 48.3198Z" stroke="url(#paint0_linear_1_982)" stroke-width="3"/>
<defs>
<linearGradient id="paint0_linear_1_982" x1="-34.7602" y1="37.1077" x2="659.048" y2="589.901" gradientUnits="userSpaceOnUse">
<stop stop-color="#F87216"/>
<stop offset="1" stop-color="#F87216" stop-opacity="0.07"/>
</linearGradient>
</defs>
</svg>
