<svg width="518" height="90" xmlns="http://www.w3.org/2000/svg" data-name="Layer 2">

 <g>
  <title>Layer 1</title>
  <path id="svg_1" fill="#333" d="m63.63824,36.12q0,16.22 -7.95,24.65t-23.29,8.44q-15.12,0 -23.18,-8.48t-8.07,-24.73q0,-16.05 8,-24.5t23.31,-8.46q15.35,0 23.25,8.39t7.93,24.69zm-44.21,0q0,18.63 13,18.63q6.58,0 9.77,-4.53t3.19,-14.1q0,-9.63 -3.23,-14.22t-9.65,-4.59q-13.08,0 -13.08,18.81z" class="cls-1"/>
  <path id="svg_2" fill="#333" d="m98.80824,69.21a15.54,15.54 0 0 1 -12.7,-5.76l-0.8,0a63.64,63.64 0 0 1 0.8,6.5l0,20l-17.19,0l0,-71.41l14,0l2.41,6.33l0.8,0a15.71,15.71 0 0 1 26.19,-0.36q4.69,6.85 4.69,18.81t-4.9,19a15.46,15.46 0 0 1 -13.3,6.89zm-5.8,-38.06q-3.78,0 -5.3,2.7c-1,1.8 -1.56,4.48 -1.64,8l0,1.37q0,6.41 1.71,9.27a5.84,5.84 0 0 0 5.4,2.85a5,5 0 0 0 4.83,-2.81q1.5,-2.84 1.5,-9.38t-1.5,-9.21a5.18,5.18 0 0 0 -5,-2.79z" class="cls-1"/>
  <path id="svg_3" fill="#333" d="m145.43824,69.21q-12.44,0 -19.32,-6.62t-6.87,-18.83q0,-12.62 6.37,-19.36t18.19,-6.74q11.25,0 17.38,5.87t6.13,16.89l0,7.65l-30.72,0a8.55,8.55 0 0 0 3.06,6.55a12,12 0 0 0 7.84,2.38a37.93,37.93 0 0 0 8.33,-0.86a41.08,41.08 0 0 0 8.24,-2.92l0,12.35a30.38,30.38 0 0 1 -8.35,2.86a58.47,58.47 0 0 1 -10.28,0.78zm-1,-39.86a7.16,7.16 0 0 0 -5.08,1.91q-2,1.9 -2.39,6l14.76,0a8.61,8.61 0 0 0 -2,-5.76a6.78,6.78 0 0 0 -5.3,-2.15l0.01,0z" class="cls-1"/>
  <path id="svg_4" fill="#333" d="m203.00824,68.33l0,-27.16q0,-5 -1.42,-7.49a4.89,4.89 0 0 0 -4.6,-2.53a6.65,6.65 0 0 0 -6.28,3.47q-1.94,3.48 -1.93,11.91l0,21.8l-17.15,0l0,-49.79l13,0l2.15,6.15l1,0a13.67,13.67 0 0 1 6.09,-5.27a21.36,21.36 0 0 1 8.94,-1.76q8.26,0 12.85,4.79t4.6,13.49l0,32.39l-17.25,0z" class="cls-1"/>
  <path id="svg_5" fill="#333" d="m269.63824,48.82a19,19 0 0 1 -3,10.61a19.91,19.91 0 0 1 -8.75,7.21a32.49,32.49 0 0 1 -13.4,2.57a54.29,54.29 0 0 1 -10.77,-0.9a39.61,39.61 0 0 1 -9.05,-3.15l0,-15.46a52,52 0 0 0 10.33,4a38.52,38.52 0 0 0 9.84,1.43q3.87,0 5.67,-1.34a4.11,4.11 0 0 0 1.8,-3.45a3.82,3.82 0 0 0 -0.72,-2.31a8.63,8.63 0 0 0 -2.33,-2q-1.61,-1 -8.55,-4.13a41.27,41.27 0 0 1 -9.43,-5.53a17.16,17.16 0 0 1 -4.66,-6.16a20.4,20.4 0 0 1 -1.54,-8.21q0,-8.88 6.46,-13.85t17.75,-5a50,50 0 0 1 20.35,4.61l-5.32,13.4q-9,-4.12 -15.56,-4.13a8.13,8.13 0 0 0 -4.92,1.19a3.59,3.59 0 0 0 -1.53,2.94a4.27,4.27 0 0 0 1.95,3.39q2,1.48 10.61,5.45q8.31,3.73 11.54,8a17.42,17.42 0 0 1 3.23,10.82z" class="cls-1"/>
  <path id="svg_6" fill="#333" d="m305.63824,68.33l-3.3,-6.59l-0.33,0a19.57,19.57 0 0 1 -7.08,5.88a23.25,23.25 0 0 1 -9.31,1.59q-7,0 -11.08,-4.22t-4,-11.87q0,-8 5.54,-11.84t16,-4.37l8.3,-0.27l0,-0.7q0,-6.15 -6.06,-6.15q-5.46,0 -13.85,3.69l-5,-11.34q8.7,-4.48 22,-4.48q9.58,0 14.83,4.75t5.25,13.27l0,32.65l-11.91,0zm-12.75,-11.25a7.75,7.75 0 0 0 5.34,-2a6.56,6.56 0 0 0 2.22,-5.08l0,-3.91l-4,0.18q-8.48,0.3 -8.48,6.24c0.04,3.04 1.67,4.57 4.92,4.57z" class="cls-1"/>
  <path id="svg_7" fill="#333" d="m359.29824,68.33l-2.16,-6.2l-1,0a13.87,13.87 0 0 1 -6,5.25a20.87,20.87 0 0 1 -9,1.83c-5.47,0 -9.74,-1.59 -12.78,-4.77s-4.57,-7.67 -4.57,-13.47l0,-32.43l17.18,0l0,27.2q0,4.88 1.38,7.38a4.81,4.81 0 0 0 4.55,2.51a6.62,6.62 0 0 0 6.33,-3.5q1.89,-3.5 1.89,-11.8l0,-21.79l17.18,0l0,49.79l-13,0z" class="cls-1"/>
  <path id="svg_8" fill="#333" d="m401.48824,69.21q-12.21,0 -18.52,-6.59t-6.31,-19q0,-12.39 6.82,-19.2t19.38,-6.81a36.3,36.3 0 0 1 16.3,3.78l-5,12.7a57.38,57.38 0 0 0 -5.81,-2.09a18.61,18.61 0 0 0 -5.49,-0.81a7.42,7.42 0 0 0 -6.46,3.25q-2.29,3.25 -2.29,9.19q0,12 8.83,12a26.74,26.74 0 0 0 14.51,-4.39l0,13.66a28.27,28.27 0 0 1 -15.96,4.31z" class="cls-1"/>
  <path id="svg_9" fill="#333" d="m446.00824,69.21q-12.43,0 -19.31,-6.62t-6.88,-18.83q0,-12.62 6.37,-19.36t18.19,-6.74q11.25,0 17.38,5.87t6.14,16.89l0,7.65l-30.76,0a8.51,8.51 0 0 0 3.05,6.55a12,12 0 0 0 7.82,2.38a37.9,37.9 0 0 0 8.32,-0.86a40.86,40.86 0 0 0 8.24,-2.92l0,12.35a30.27,30.27 0 0 1 -8.35,2.86a58.47,58.47 0 0 1 -10.21,0.78zm-1,-39.86a7.19,7.19 0 0 0 -5.08,1.91q-2,1.9 -2.39,6l14.76,0a8.56,8.56 0 0 0 -2,-5.76a6.75,6.75 0 0 0 -5.29,-2.15z" class="cls-1"/>
  <path id="svg_10" fill="#333" d="m487.63824,69.21a14.85,14.85 0 0 1 -9.3,-3a19.2,19.2 0 0 1 -6.15,-8.92a39.6,39.6 0 0 1 -2.18,-13.79q0,-12.14 4.88,-19a15.56,15.56 0 0 1 13.41,-6.85a15.37,15.37 0 0 1 7.31,1.67a16.16,16.16 0 0 1 5.74,5.68l0.35,0a82,82 0 0 1 -0.84,-11.69l0,-13.31l17.32,0l0,68.38l-13,0l-3.66,-6.38l-0.66,0q-4.44,7.21 -13.22,7.21zm7,-13.58q4.13,0 5.82,-2.6c1.13,-1.72 1.74,-4.39 1.82,-8l0,-1.36q0,-6.58 -1.89,-9.38a6.65,6.65 0 0 0 -5.93,-2.79a5.81,5.81 0 0 0 -5.25,3.19c-1.25,2.12 -1.87,5.15 -1.87,9.07s0.63,6.81 1.89,8.84a6,6 0 0 0 5.44,3.03l-0.03,0z" class="cls-1"/>
 </g>
</svg>