<svg width="386" height="66" viewBox="0 0 386 66" fill="none" xmlns="http://www.w3.org/2000/svg">
<path d="M52.6763 39.016C52.7379 40.3149 53.304 48.7958 53.2871 50.1168C53.2703 51.4378 53.2871 52.6588 53.2534 53.93C53.2029 55.5652 53.0569 57.1959 52.8163 58.8142C52.749 59.2305 52.6706 59.6413 52.5811 60.0519C52.3522 61.0471 51.7515 61.9197 50.8999 62.4942C49.9293 63.1811 48.8551 63.7112 47.7168 64.065C37.777 66.9886 15.4454 65.7895 11.9022 65.5767C11.613 65.5593 11.3306 65.5338 11.0432 65.4985C9.13773 65.2635 4.85821 64.8134 3.46943 64.1622C2.31357 63.6203 1.27919 62.7999 0.66594 61.6924C0.473516 61.3449 0.315613 60.9778 0.19573 60.596C0.0120453 59.8709 -0.0428708 59.1196 0.0331669 58.3757C0.19238 56.8461 0.52042 55.3389 1.01102 53.8812C1.1296 53.5288 1.26652 53.1836 1.40709 52.8393C3.40446 47.9463 19.1143 9.3212 25.9569 2.80741C26.1205 2.65162 26.9126 1.8349 27.5756 1.45497C28.9339 0.676589 30.0957 0.35194 31.6504 0.124356H31.7065L31.9418 0.0799881C33.6485 -0.132232 35.3818 0.0794137 36.9853 0.696117C39.4511 1.66188 43.3905 3.13278 44.0855 3.43804C45.3511 3.98065 46.4382 4.86313 47.2237 5.98569C47.3074 6.10444 47.3901 6.2239 47.4718 6.34394C48.4776 7.82043 49.1502 9.48474 49.5106 11.2274C50.2437 14.7717 51.4255 22.5271 52.6763 39.0161V39.016Z" fill="url(#paint0_linear_1_222)"/>
<path d="M106.327 33.4247C106.327 37.6308 105.521 41.209 103.91 44.1592C102.299 47.1097 100.108 49.3602 97.3378 50.9107C94.5675 52.4614 91.4565 53.2363 88.0051 53.2363C84.528 53.2363 81.4073 52.4581 78.6436 50.9012C75.8796 49.3446 73.6953 47.0908 72.0906 44.1403C70.4857 41.1902 69.6833 37.6182 69.6833 33.4247C69.6833 29.2313 70.4858 25.6409 72.0906 22.6904C73.6954 19.7403 75.8797 17.4897 78.6436 15.9389C81.4073 14.3885 84.5279 13.6133 88.0051 13.6133C91.4565 13.6133 94.5676 14.3885 97.3378 15.9389C100.108 17.4897 102.299 19.7403 103.91 22.6904C105.521 25.6409 106.327 29.2191 106.327 33.4247ZM97.9397 33.4247C97.9397 30.7006 97.5289 28.403 96.7073 26.5322C95.8858 24.6617 94.7301 23.243 93.2397 22.276C91.7497 21.3095 90.0045 20.8259 88.0049 20.8259C86.0054 20.8259 84.2603 21.3094 82.7701 22.276C81.28 23.2429 80.1241 24.6615 79.3024 26.5322C78.4809 28.403 78.0702 30.7006 78.0702 33.4247C78.0702 36.1489 78.4809 38.447 79.3024 40.3174C80.1241 42.1882 81.2798 43.6069 82.7701 44.5735C84.2602 45.5404 86.0051 46.0237 88.0049 46.0237C90.0048 46.0237 91.7496 45.5405 93.2397 44.5735C94.7299 43.607 95.8858 42.1884 96.7073 40.3174C97.5289 38.447 97.9397 36.1493 97.9397 33.4247Z" fill="white"/>
<path d="M109.382 63.556V23.7823H117.406V28.641H117.769C118.125 27.8628 118.645 27.0686 119.326 26.2588C120.007 25.4489 120.899 24.7711 122.001 24.2249C123.102 23.6787 124.475 23.4057 126.118 23.4057C128.258 23.4057 130.232 23.9551 132.04 25.0535C133.849 26.1522 135.295 27.803 136.377 30.0064C137.46 32.2098 138.001 34.9687 138.001 38.2832C138.001 41.5101 137.476 44.2313 136.425 46.447C135.374 48.663 133.947 50.339 132.145 51.4752C130.343 52.6116 128.327 53.1795 126.099 53.1795C124.519 53.1795 123.178 52.922 122.077 52.4074C120.975 51.8928 120.074 51.2431 119.374 50.4582C118.673 49.6738 118.138 48.8796 117.769 48.076H117.52V63.5561H109.382L109.382 63.556ZM117.349 38.2455C117.349 39.9656 117.59 41.4658 118.075 42.7465C118.558 44.0271 119.259 45.0223 120.176 45.7313C121.093 46.4408 122.207 46.7953 123.52 46.7953C124.844 46.7953 125.965 46.4346 126.882 45.7125C127.799 44.9907 128.496 43.9865 128.974 42.6994C129.452 41.4126 129.691 39.9282 129.691 38.2455C129.691 36.5759 129.455 35.1071 128.983 33.8388C128.512 32.571 127.818 31.5791 126.901 30.8633C125.984 30.1478 124.857 29.7898 123.519 29.7898C122.195 29.7898 121.077 30.1352 120.166 30.8257C119.256 31.5163 118.558 32.4954 118.075 33.7634C117.59 35.0316 117.349 36.5256 117.349 38.2455H117.349Z" fill="white"/>
<path d="M155.543 53.2736C152.525 53.2736 149.93 52.668 147.758 51.4564C145.586 50.2448 143.915 48.525 142.743 46.2962C141.571 44.0678 140.985 41.4282 140.985 38.3773C140.985 35.4018 141.571 32.7906 142.743 30.5431C143.915 28.296 145.567 26.5444 147.701 25.2888C149.834 24.0336 152.34 23.4057 155.219 23.4057C157.154 23.4057 158.96 23.7102 160.635 24.3189C162.31 24.928 163.774 25.8415 165.029 27.0591C166.283 28.2769 167.261 29.8056 167.962 31.6448C168.662 33.4842 169.013 35.6342 169.013 38.0949V40.2982H144.233V35.3265H161.351C161.351 34.1717 161.097 33.1485 160.587 32.2569C160.078 31.3655 159.374 30.6656 158.476 30.1571C157.578 29.6487 156.537 29.3944 155.353 29.3944C154.117 29.3944 153.025 29.674 152.076 30.2325C151.127 30.7913 150.385 31.5384 149.85 32.4735C149.316 33.4089 149.041 34.4479 149.029 35.5901V40.3171C149.029 41.7484 149.299 42.9851 149.841 44.0271C150.382 45.0693 151.149 45.8726 152.143 46.4376C153.136 47.0027 154.314 47.285 155.678 47.285C156.582 47.285 157.409 47.1596 158.161 46.9083C158.912 46.6573 159.556 46.2807 160.091 45.7784C160.626 45.2765 161.033 44.6612 161.314 43.9328L168.841 44.4224C168.459 46.2053 167.679 47.7589 166.501 49.0834C165.322 50.4082 163.807 51.4375 161.954 52.1719C160.1 52.9064 157.964 53.2736 155.544 53.2736H155.543Z" fill="white"/>
<path d="M180.386 35.9857V52.7088H172.247V23.7823H180.004V28.8858H180.347C180.997 27.2036 182.086 25.8698 183.614 24.8841C185.143 23.8986 186.996 23.4057 189.174 23.4057C191.212 23.4057 192.988 23.8454 194.504 24.724C196.02 25.6029 197.198 26.8552 198.039 28.481C198.879 30.107 199.3 32.0436 199.3 34.2907V52.7086H191.161V35.722C191.173 33.9517 190.715 32.5675 189.785 31.5694C188.856 30.5712 187.576 30.0721 185.945 30.0721C184.85 30.0721 183.885 30.3046 183.051 30.7691C182.217 31.2336 181.567 31.9084 181.102 32.7935C180.637 33.6787 180.398 34.7427 180.386 35.9856L180.386 35.9857Z" fill="white"/>
<path d="M224.835 25.2324C224.682 23.7136 224.026 22.5333 222.867 21.692C221.708 20.8512 220.135 20.4303 218.148 20.4303C216.798 20.4303 215.658 20.6157 214.728 20.9859C213.798 21.3563 213.088 21.8681 212.598 22.5205C212.107 23.1735 211.862 23.9142 211.862 24.7428C211.836 25.4334 211.986 26.0361 212.311 26.5508C212.636 27.0657 213.085 27.5083 213.658 27.8784C214.231 28.2489 214.893 28.5691 215.645 28.8387C216.396 29.109 217.199 29.3378 218.052 29.5262L221.568 30.3549C223.274 30.7315 224.841 31.2338 226.267 31.8614C227.694 32.4893 228.929 33.2615 229.974 34.1778C231.018 35.0944 231.83 36.174 232.41 37.417C232.989 38.6599 233.285 40.085 233.298 41.6919C233.285 44.0523 232.677 46.0956 231.474 47.8217C230.27 49.548 228.538 50.8851 226.277 51.8331C224.016 52.7809 221.294 53.2549 218.11 53.2549C214.951 53.2549 212.203 52.7776 209.866 51.8234C207.528 50.8695 205.707 49.4538 204.402 47.5769C203.096 45.7002 202.412 43.3743 202.348 40.5995H210.353C210.442 41.8927 210.821 42.9695 211.49 43.8291C212.158 44.6892 213.056 45.3358 214.183 45.769C215.311 46.2022 216.587 46.4186 218.014 46.4186C219.415 46.4186 220.634 46.218 221.673 45.8159C222.711 45.4143 223.516 44.8556 224.089 44.1399C224.663 43.4244 224.949 42.6022 224.949 41.6729C224.949 40.8067 224.691 40.0785 224.175 39.4882C223.659 38.8984 222.908 38.3961 221.921 37.9817C220.934 37.5673 219.727 37.1907 218.3 36.8519L214.04 35.7972C210.741 35.0062 208.137 33.7698 206.226 32.0872C204.315 30.405 203.366 28.1389 203.379 25.2887C203.366 22.9534 204 20.9135 205.28 19.1682C206.56 17.4233 208.321 16.0609 210.563 15.0816C212.804 14.1025 215.352 13.6129 218.205 13.6129C221.109 13.6129 223.646 14.1025 225.818 15.0816C227.99 16.0609 229.681 17.4233 230.891 19.1682C232.101 20.9135 232.725 22.9346 232.763 25.2321H224.834L224.835 25.2324Z" fill="white"/>
<path d="M245.869 53.2549C243.997 53.2549 242.328 52.9314 240.864 52.2849C239.399 51.6385 238.243 50.6781 237.396 49.4036C236.549 48.1295 236.126 46.5382 236.126 44.6296C236.126 43.0228 236.425 41.673 237.024 40.5808C237.622 39.4885 238.437 38.6098 239.469 37.9443C240.501 37.279 241.676 36.7768 242.994 36.4377C244.312 36.0989 245.697 35.8604 247.149 35.7223C248.856 35.5465 250.231 35.3802 251.276 35.223C252.32 35.0662 253.078 34.8309 253.549 34.5169C254.02 34.2031 254.256 33.7386 254.256 33.1233V33.0103C254.256 31.8177 253.877 30.895 253.119 30.242C252.362 29.5894 251.288 29.2627 249.9 29.2627C248.435 29.2627 247.27 29.5799 246.404 30.2139C245.538 30.8479 244.965 31.6421 244.685 32.5961L237.157 31.9935C237.539 30.236 238.291 28.7137 239.412 27.4267C240.532 26.1399 241.981 25.148 243.758 24.4512C245.535 23.7542 247.595 23.406 249.938 23.406C251.569 23.406 253.132 23.5944 254.629 23.971C256.125 24.3476 257.456 24.9313 258.622 25.7223C259.787 26.5134 260.707 27.5272 261.382 28.7638C262.057 30.0005 262.395 31.4789 262.395 33.1989V52.7091H254.677V48.6977H254.447C253.976 49.6017 253.346 50.3958 252.556 51.08C251.766 51.7646 250.817 52.2979 249.709 52.6807C248.601 53.0635 247.321 53.2551 245.869 53.2551L245.869 53.2549ZM248.2 47.718C249.397 47.718 250.455 47.4825 251.371 47.0119C252.289 46.541 253.008 45.904 253.53 45.1005C254.052 44.2971 254.314 43.3866 254.314 42.3697V39.3C254.059 39.4634 253.712 39.6107 253.272 39.7425C252.833 39.8745 252.339 39.994 251.792 40.1003C251.244 40.2072 250.696 40.3014 250.149 40.3829C249.601 40.4646 249.104 40.5367 248.659 40.5995C247.703 40.7379 246.869 40.9573 246.156 41.2587C245.443 41.56 244.888 41.9648 244.494 42.4734C244.099 42.9818 243.902 43.6128 243.902 44.366C243.902 45.4583 244.306 46.2901 245.115 46.8612C245.923 47.4327 246.952 47.7182 248.2 47.7182L248.2 47.718Z" fill="white"/>
<path d="M284.793 40.3924V23.7823H292.932V52.7087H285.118V47.4544H284.812C284.15 49.1493 283.051 50.5116 281.516 51.541C279.981 52.5707 278.112 53.0853 275.909 53.0853C273.948 53.0853 272.222 52.6459 270.732 51.767C269.242 50.8883 268.079 49.6389 267.245 48.0193C266.41 46.3998 265.987 44.4601 265.974 42.2002V23.7823H274.113V40.769C274.126 42.4767 274.591 43.8263 275.508 44.8179C276.425 45.8098 277.654 46.3056 279.195 46.3056C280.176 46.3056 281.092 46.0829 281.946 45.6372C282.799 45.1915 283.49 44.5293 284.019 43.6504C284.547 42.7716 284.805 41.6855 284.793 40.3924H284.793Z" fill="white"/>
<path d="M310.416 53.2736C307.41 53.2736 304.827 52.6427 302.669 51.3809C300.51 50.1192 298.854 48.3649 297.701 46.1173C296.548 43.8702 295.972 41.2839 295.972 38.3585C295.972 35.3956 296.555 32.7935 297.72 30.5526C298.886 28.3116 300.545 26.5601 302.697 25.2983C304.849 24.0366 307.41 23.4057 310.378 23.4057C312.938 23.4057 315.179 23.864 317.102 24.7804C319.025 25.6971 320.548 26.9837 321.669 28.641C322.789 30.2983 323.407 32.2444 323.522 34.4789H315.842C315.625 33.0353 315.055 31.8707 314.132 30.9856C313.208 30.1006 312.002 29.658 310.511 29.658C309.25 29.658 308.152 29.994 307.216 30.6656C306.28 31.3374 305.55 32.3135 305.028 33.594C304.506 34.8747 304.245 36.4254 304.245 38.2456C304.245 40.0913 304.503 41.6607 305.019 42.9537C305.534 44.247 306.263 45.2324 307.206 45.9104C308.149 46.5884 309.25 46.9273 310.511 46.9273C311.441 46.9273 312.278 46.7389 313.024 46.3623C313.769 45.9856 314.386 45.4366 314.877 44.7145C315.367 43.9927 315.689 43.1231 315.842 42.1062H323.522C323.394 44.316 322.786 46.2587 321.697 47.9348C320.609 49.6109 319.109 50.9197 317.198 51.8613C315.288 52.803 313.027 53.2738 310.416 53.2738V53.2736Z" fill="white"/>
<path d="M340.785 53.2736C337.766 53.2736 335.171 52.668 333 51.4564C330.828 50.2448 329.156 48.525 327.985 46.2962C326.813 44.0678 326.227 41.4282 326.227 38.3773C326.227 35.4018 326.813 32.7906 327.985 30.5431C329.156 28.296 330.809 26.5444 332.942 25.2888C335.076 24.0336 337.582 23.4057 340.46 23.4057C342.396 23.4057 344.201 23.7102 345.876 24.3189C347.551 24.928 349.016 25.8415 350.271 27.0591C351.525 28.2769 352.503 29.8056 353.203 31.6448C353.904 33.4842 354.254 35.6342 354.254 38.0949V40.2982H329.475V35.3265H346.593C346.593 34.1717 346.338 33.1485 345.829 32.2569C345.319 31.3655 344.616 30.6656 343.718 30.1571C342.82 29.6487 341.779 29.3944 340.594 29.3944C339.359 29.3944 338.266 29.674 337.318 30.2325C336.369 30.7913 335.627 31.5384 335.092 32.4735C334.557 33.4089 334.283 34.4479 334.27 35.5901V40.3171C334.27 41.7484 334.541 42.9851 335.082 44.0271C335.624 45.0693 336.391 45.8726 337.384 46.4376C338.378 47.0027 339.556 47.285 340.919 47.285C341.823 47.285 342.651 47.1596 343.403 46.9083C344.154 46.6573 344.797 46.2807 345.332 45.7784C345.867 45.2765 346.275 44.6612 346.555 43.9328L354.082 44.4224C353.7 46.2053 352.92 47.7589 351.742 49.0834C350.564 50.4082 349.048 51.4375 347.195 52.1719C345.342 52.9064 343.205 53.2736 340.785 53.2736H340.785Z" fill="white"/>
<path d="M369.302 53.1795C367.073 53.1795 365.058 52.6116 363.256 51.4753C361.453 50.3392 360.027 48.663 358.976 46.447C357.925 44.2312 357.4 41.5099 357.4 38.2833C357.4 34.9687 357.941 32.2099 359.024 30.0064C360.106 27.8031 361.549 26.1523 363.351 25.0535C365.153 23.9552 367.131 23.4057 369.283 23.4057C370.926 23.4057 372.299 23.6787 373.4 24.2249C374.502 24.7711 375.394 25.449 376.075 26.2588C376.756 27.0686 377.276 27.8628 377.632 28.641H377.88V14.1403H386V52.7087H377.976V48.0759H377.632C377.25 48.8795 376.712 49.6737 376.018 50.4581C375.323 51.2429 374.425 51.8927 373.324 52.4073C372.222 52.9219 370.881 53.1793 369.302 53.1793V53.1795ZM371.882 46.7954C373.193 46.7954 374.305 46.4408 375.215 45.7314C376.126 45.0224 376.827 44.0272 377.317 42.7465C377.807 41.4659 378.053 39.9658 378.053 38.2455C378.053 36.5252 377.811 35.0316 377.327 33.7635C376.843 32.4955 376.142 31.5163 375.225 30.8257C374.308 30.1352 373.193 29.7899 371.882 29.7899C370.544 29.7899 369.417 30.1477 368.5 30.8633C367.583 31.5789 366.889 32.571 366.418 33.8389C365.946 35.1071 365.711 36.5759 365.711 38.2455C365.711 39.9282 365.95 41.4126 366.427 42.6994C366.905 43.9865 367.599 44.9908 368.51 45.7126C369.42 46.4347 370.544 46.7954 371.882 46.7954Z" fill="white"/>
<defs>
<linearGradient id="paint0_linear_1_222" x1="-4.50141e-05" y1="33.0001" x2="53.2875" y2="33.0001" gradientUnits="userSpaceOnUse">
<stop stop-color="#FCB60A"/>
<stop offset="0.115" stop-color="#F69319"/>
<stop offset="0.305" stop-color="#EF6D2A"/>
<stop offset="0.727" stop-color="#ED5332"/>
<stop offset="1" stop-color="#ED6A32"/>
</linearGradient>
</defs>
</svg>
