<svg width="140" height="24" viewBox="0 0 140 24" fill="none" xmlns="http://www.w3.org/2000/svg">
<path d="M19.0866 14.1876C19.1089 14.6599 19.314 17.7439 19.3079 18.2243C19.3018 18.7046 19.3079 19.1487 19.2957 19.6109C19.2774 20.2055 19.2245 20.7985 19.1373 21.387C19.1129 21.5384 19.0845 21.6877 19.0521 21.8371C18.9691 22.199 18.7515 22.5163 18.4429 22.7252C18.0912 22.9749 17.702 23.1677 17.2896 23.2964C13.688 24.3595 5.59643 23.9235 4.3126 23.8461C4.20783 23.8398 4.10549 23.8305 4.00136 23.8176C3.31094 23.7322 1.76031 23.5685 1.2571 23.3317C0.838292 23.1347 0.4635 22.8363 0.241295 22.4336C0.171572 22.3072 0.114358 22.1737 0.0709203 22.0349C0.00436445 21.7712 -0.0155337 21.498 0.0120176 21.2275C0.0697064 20.6713 0.188567 20.1232 0.366331 19.5932C0.409294 19.465 0.458908 19.3395 0.509841 19.2143C1.23356 17.435 6.9258 3.38953 9.40516 1.02088C9.46443 0.964225 9.75145 0.667236 9.99165 0.52908C10.4838 0.246032 10.9048 0.127978 11.4681 0.0452204H11.4884L11.5737 0.0290866C12.1921 -0.0480845 12.8201 0.0288777 13.4011 0.253133C14.2946 0.604319 15.722 1.13919 15.9738 1.2502C16.4324 1.44751 16.8263 1.76841 17.1109 2.17661C17.1412 2.21979 17.1712 2.26324 17.2008 2.30689C17.5652 2.84379 17.8089 3.449 17.9395 4.08271C18.2051 5.37154 18.6334 8.19168 19.0866 14.1877V14.1876Z" fill="url(#paint0_linear_21_365)"/>
<path d="M38.526 12.1546C38.526 13.6841 38.2341 14.9852 37.6503 16.0581C37.0665 17.1309 36.2728 17.9493 35.269 18.5131C34.2652 19.077 33.138 19.3588 31.8874 19.3588C30.6276 19.3588 29.4968 19.0758 28.4954 18.5097C27.4939 17.9436 26.7025 17.1241 26.121 16.0512C25.5395 14.9784 25.2488 13.6795 25.2488 12.1546C25.2488 10.6297 25.5395 9.32413 26.121 8.2512C26.7025 7.17843 27.4939 6.36004 28.4954 5.79614C29.4968 5.23234 30.6275 4.95044 31.8874 4.95044C33.138 4.95044 34.2653 5.23234 35.269 5.79614C36.2728 6.36004 37.0665 7.17843 37.6503 8.2512C38.2341 9.32413 38.526 10.6253 38.526 12.1546V12.1546ZM35.4871 12.1546C35.4871 11.164 35.3382 10.3285 35.0406 9.64822C34.7429 8.96803 34.3241 8.45217 33.7841 8.10051C33.2442 7.74907 32.6119 7.57321 31.8874 7.57321C31.1629 7.57321 30.5305 7.74901 29.9906 8.10051C29.4507 8.45212 29.0319 8.96798 28.7341 9.64822C28.4364 10.3285 28.2877 11.164 28.2877 12.1546C28.2877 13.1452 28.4364 13.9809 28.7341 14.661C29.0319 15.3413 29.4506 15.8572 29.9906 16.2087C30.5305 16.5603 31.1628 16.736 31.8874 16.736C32.612 16.736 33.2442 16.5604 33.7841 16.2087C34.3241 15.8572 34.7429 15.3414 35.0406 14.661C35.3382 13.9809 35.4871 13.1453 35.4871 12.1546Z" fill="white"/>
<path d="M39.6329 23.1113V8.64819H42.5404V10.415H42.6719C42.801 10.132 42.9892 9.84319 43.2361 9.54871C43.4829 9.25422 43.806 9.00773 44.2052 8.80911C44.6043 8.61049 45.1016 8.51123 45.697 8.51123C46.4723 8.51123 47.1876 8.711 47.8429 9.11043C48.4982 9.50996 49.022 10.1103 49.4143 10.9115C49.8065 11.7127 50.0027 12.716 50.0027 13.9212C50.0027 15.0946 49.8123 16.0842 49.4316 16.8899C49.0509 17.6957 48.5339 18.3052 47.881 18.7183C47.2279 19.1315 46.4976 19.338 45.69 19.338C45.1177 19.338 44.6319 19.2444 44.2328 19.0573C43.8336 18.8702 43.5071 18.6339 43.2533 18.3485C42.9994 18.0633 42.8056 17.7745 42.6718 17.4822H42.5818V23.1114H39.6328L39.6329 23.1113ZM42.5196 13.9075C42.5196 14.533 42.6072 15.0786 42.7826 15.5442C42.9579 16.0099 43.2118 16.3718 43.5441 16.6296C43.8764 16.8876 44.2801 17.0165 44.7555 17.0165C45.2354 17.0165 45.6416 16.8854 45.9739 16.6228C46.3061 16.3603 46.5588 15.9952 46.7319 15.5271C46.9049 15.0592 46.9915 14.5194 46.9915 13.9075C46.9915 13.3004 46.906 12.7663 46.7353 12.3051C46.5645 11.8441 46.313 11.4834 45.9807 11.2231C45.6485 10.9629 45.2401 10.8327 44.7555 10.8327C44.2754 10.8327 43.8704 10.9583 43.5406 11.2094C43.2106 11.4605 42.9579 11.8166 42.7826 12.2777C42.6071 12.7388 42.5195 13.2821 42.5195 13.9075H42.5196Z" fill="white"/>
<path d="M56.3591 19.3723C55.2654 19.3723 54.325 19.1521 53.5382 18.7115C52.7513 18.2709 52.1456 17.6455 51.7211 16.8351C51.2964 16.0247 51.0842 15.0649 51.0842 13.9554C51.0842 12.8734 51.2965 11.9239 51.7211 11.1066C52.1456 10.2895 52.7444 9.65256 53.5175 9.19601C54.2904 8.73956 55.1984 8.51123 56.2414 8.51123C56.9428 8.51123 57.597 8.62197 58.204 8.84331C58.8107 9.06479 59.3415 9.39697 59.7961 9.83974C60.2506 10.2826 60.6048 10.8385 60.8587 11.5073C61.1125 12.1761 61.2395 12.958 61.2395 13.8527V14.654H52.2611V12.8461H58.4636C58.4636 12.4261 58.3712 12.0541 58.1867 11.7299C58.0021 11.4057 57.7472 11.1512 57.4218 10.9663C57.0964 10.7814 56.7192 10.6889 56.29 10.6889C55.8423 10.6889 55.4466 10.7906 55.1028 10.9937C54.7589 11.1969 54.4902 11.4686 54.2963 11.8086C54.1025 12.1488 54.0032 12.5266 53.9986 12.9419V14.6608C53.9986 15.1813 54.0966 15.631 54.2928 16.0099C54.489 16.3889 54.767 16.681 55.127 16.8865C55.4869 17.0919 55.9138 17.1946 56.4077 17.1946C56.7353 17.1946 57.0353 17.149 57.3076 17.0576C57.5798 16.9664 57.813 16.8294 58.0068 16.6468C58.2006 16.4642 58.3483 16.2405 58.4499 15.9756L61.1773 16.1537C61.0388 16.802 60.7562 17.3669 60.3293 17.8486C59.9024 18.3303 59.3533 18.7046 58.6818 18.9717C58.0103 19.2387 57.236 19.3723 56.3593 19.3723H56.3591Z" fill="white"/>
<path d="M65.3603 13.0858V19.1669H62.4114V8.64819H65.2219V10.504H65.3465C65.5818 9.89227 65.9764 9.40726 66.5302 9.04882C67.084 8.69048 67.7555 8.51123 68.5446 8.51123C69.283 8.51123 69.9268 8.67111 70.476 8.9906C71.0252 9.3102 71.4521 9.7656 71.7567 10.3568C72.0613 10.9481 72.2136 11.6523 72.2136 12.4694V19.1668H69.2646V12.9899C69.2692 12.3461 69.103 11.8428 68.7662 11.4799C68.4293 11.1169 67.9655 10.9354 67.3748 10.9354C66.9779 10.9354 66.6283 11.0199 66.3261 11.1888C66.0238 11.3577 65.7884 11.6031 65.62 11.925C65.4515 12.2469 65.365 12.6338 65.3604 13.0857L65.3603 13.0858Z" fill="white"/>
<path d="M81.4659 9.17549C81.4105 8.62318 81.1728 8.19399 80.7528 7.88807C80.3329 7.58231 79.763 7.42928 79.043 7.42928C78.5538 7.42928 78.1407 7.49668 77.8039 7.63129C77.4669 7.766 77.2096 7.95209 77.032 8.18934C76.8543 8.42681 76.7655 8.69613 76.7655 8.99745C76.7562 9.24859 76.8105 9.46773 76.9281 9.65492C77.0458 9.84215 77.2085 10.0031 77.4162 10.1377C77.6239 10.2724 77.8637 10.3888 78.1361 10.4869C78.4083 10.5851 78.6991 10.6684 79.0084 10.7369L80.2821 11.0382C80.9005 11.1752 81.4681 11.3578 81.985 11.586C82.5018 11.8143 82.9495 12.0951 83.3279 12.4284C83.7063 12.7617 84.0005 13.1542 84.2106 13.6063C84.4205 14.0582 84.5278 14.5764 84.5325 15.1607C84.5278 16.0191 84.3075 16.7621 83.8714 17.3898C83.4353 18.0175 82.8077 18.5037 81.9885 18.8485C81.1693 19.1931 80.1828 19.3655 79.0292 19.3655C77.8846 19.3655 76.889 19.1919 76.0421 18.845C75.1952 18.4981 74.5353 17.9833 74.0623 17.3007C73.5892 16.6183 73.3412 15.7725 73.3181 14.7635H76.2186C76.2509 15.2338 76.3882 15.6253 76.6305 15.9379C76.8728 16.2507 77.1982 16.4858 77.6066 16.6433C78.015 16.8009 78.4776 16.8795 78.9945 16.8795C79.5021 16.8795 79.944 16.8066 80.3202 16.6604C80.6963 16.5144 80.9882 16.3112 81.1959 16.0509C81.4036 15.7907 81.5073 15.4918 81.5073 15.1538C81.5073 14.8388 81.4139 14.5741 81.227 14.3594C81.0401 14.1449 80.7677 13.9623 80.4101 13.8116C80.0525 13.6609 79.6151 13.524 79.0983 13.4007L77.5546 13.0172C76.3593 12.7296 75.4156 12.28 74.7233 11.6682C74.031 11.0564 73.6872 10.2324 73.6918 9.19596C73.6872 8.34677 73.9168 7.60497 74.3806 6.97032C74.8444 6.33583 75.4824 5.84038 76.2947 5.48428C77.1069 5.12824 78.0299 4.9502 79.0637 4.9502C80.1159 4.9502 81.0354 5.12824 81.8223 5.48428C82.6091 5.84038 83.2217 6.33583 83.6602 6.97032C84.0986 7.60497 84.3247 8.33993 84.3386 9.17539H81.4658L81.4659 9.17549Z" fill="white"/>
<path d="M89.0876 19.3654C88.4092 19.3654 87.8045 19.2477 87.2739 19.0127C86.7432 18.7776 86.3243 18.4283 86.0175 17.9649C85.7105 17.5016 85.5571 16.9229 85.5571 16.2289C85.5571 15.6446 85.6655 15.1538 85.8825 14.7566C86.0993 14.3594 86.3947 14.0399 86.7685 13.7979C87.1423 13.556 87.568 13.3733 88.0457 13.25C88.5234 13.1268 89.0253 13.0401 89.5513 12.9899C90.1697 12.926 90.6681 12.8655 91.0466 12.8083C91.4249 12.7513 91.6995 12.6657 91.8703 12.5515C92.041 12.4375 92.1265 12.2685 92.1265 12.0448V12.0037C92.1265 11.57 91.9891 11.2345 91.7146 10.997C91.44 10.7597 91.0511 10.641 90.5481 10.641C90.0173 10.641 89.5951 10.7563 89.2813 10.9868C88.9674 11.2174 88.7597 11.5062 88.6583 11.8531L85.9308 11.6339C86.0693 10.9949 86.3415 10.4413 86.7477 9.9733C87.1537 9.50537 87.6788 9.14468 88.3225 8.89129C88.9663 8.63785 89.7128 8.51123 90.562 8.51123C91.1526 8.51123 91.7191 8.57973 92.2614 8.71669C92.8036 8.85365 93.2859 9.06589 93.7082 9.35353C94.1305 9.64118 94.4638 10.0099 94.7085 10.4595C94.9531 10.9092 95.0754 11.4468 95.0754 12.0723V19.1669H92.2787V17.7082H92.1957C92.0249 18.037 91.7965 18.3257 91.5104 18.5745C91.2241 18.8234 90.8804 19.0174 90.4789 19.1566C90.0774 19.2958 89.6136 19.3655 89.0875 19.3655L89.0876 19.3654ZM89.9321 17.352C90.3659 17.352 90.749 17.2663 91.0812 17.0952C91.4135 16.924 91.6741 16.6923 91.8634 16.4001C92.0526 16.108 92.1473 15.7769 92.1473 15.4071V14.2909C92.0549 14.3503 91.9292 14.4039 91.77 14.4518C91.6108 14.4998 91.4319 14.5432 91.2335 14.5819C91.035 14.6207 90.8366 14.655 90.6382 14.6847C90.4397 14.7144 90.2597 14.7406 90.0983 14.7634C89.7522 14.8137 89.4498 14.8935 89.1914 15.0031C88.9329 15.1127 88.7322 15.2599 88.5892 15.4448C88.446 15.6297 88.3746 15.8591 88.3746 16.133C88.3746 16.5302 88.5211 16.8327 88.8142 17.0404C89.1072 17.2482 89.4798 17.352 89.9322 17.352L89.9321 17.352Z" fill="white"/>
<path d="M103.191 14.6882V8.64819H106.14V19.1669H103.309V17.2562H103.198C102.958 17.8725 102.56 18.3679 102.004 18.7423C101.448 19.1167 100.77 19.3038 99.972 19.3038C99.2613 19.3038 98.636 19.144 98.0961 18.8244C97.5561 18.5049 97.1349 18.0506 96.8327 17.4616C96.5303 16.8727 96.3769 16.1674 96.3723 15.3456V8.64819H99.3213V14.8252C99.3258 15.4461 99.4943 15.9369 99.8266 16.2975C100.159 16.6582 100.604 16.8385 101.163 16.8385C101.518 16.8385 101.85 16.7575 102.159 16.5954C102.469 16.4333 102.719 16.1925 102.911 15.8729C103.102 15.5534 103.195 15.1584 103.191 14.6882H103.191Z" fill="white"/>
<path d="M112.475 19.3723C111.386 19.3723 110.45 19.1429 109.668 18.684C108.886 18.2252 108.286 17.5873 107.868 16.77C107.45 15.9529 107.242 15.0124 107.242 13.9486C107.242 12.8712 107.453 11.925 107.875 11.1101C108.297 10.2952 108.898 9.6583 109.678 9.19945C110.458 8.74066 111.386 8.51123 112.461 8.51123C113.389 8.51123 114.201 8.6779 114.898 9.01112C115.595 9.34445 116.146 9.81233 116.552 10.415C116.958 11.0176 117.182 11.7253 117.224 12.5379H114.441C114.363 12.0129 114.156 11.5894 113.822 11.2676C113.487 10.9457 113.05 10.7848 112.51 10.7848C112.053 10.7848 111.655 10.907 111.316 11.1512C110.976 11.3955 110.712 11.7504 110.523 12.2161C110.334 12.6818 110.239 13.2457 110.239 13.9076C110.239 14.5787 110.333 15.1494 110.52 15.6196C110.706 16.0899 110.971 16.4482 111.312 16.6948C111.654 16.9413 112.053 17.0645 112.51 17.0645C112.847 17.0645 113.15 16.996 113.42 16.8591C113.69 16.7221 113.914 16.5225 114.091 16.2599C114.269 15.9974 114.386 15.6812 114.441 15.3114H117.224C117.178 16.115 116.957 16.8214 116.563 17.4309C116.168 18.0404 115.625 18.5163 114.933 18.8587C114.24 19.2011 113.421 19.3724 112.475 19.3724V19.3723Z" fill="white"/>
<path d="M123.479 19.3723C122.385 19.3723 121.445 19.1521 120.658 18.7115C119.871 18.2709 119.265 17.6455 118.841 16.8351C118.416 16.0247 118.204 15.0649 118.204 13.9554C118.204 12.8734 118.416 11.9239 118.841 11.1066C119.265 10.2895 119.864 9.65256 120.637 9.19601C121.41 8.73956 122.318 8.51123 123.361 8.51123C124.063 8.51123 124.717 8.62197 125.324 8.84331C125.931 9.06479 126.461 9.39697 126.916 9.83974C127.37 10.2826 127.725 10.8385 127.979 11.5073C128.232 12.1761 128.359 12.958 128.359 13.8527V14.654H119.381V12.8461H125.583C125.583 12.4261 125.491 12.0541 125.307 11.7299C125.122 11.4057 124.867 11.1512 124.542 10.9663C124.216 10.7814 123.839 10.6889 123.41 10.6889C122.962 10.6889 122.566 10.7906 122.223 10.9937C121.879 11.1969 121.61 11.4686 121.416 11.8086C121.222 12.1488 121.123 12.5266 121.119 12.9419V14.6608C121.119 15.1813 121.216 15.631 121.413 16.0099C121.609 16.3889 121.887 16.681 122.247 16.8865C122.607 17.0919 123.034 17.1946 123.528 17.1946C123.855 17.1946 124.155 17.149 124.427 17.0576C124.7 16.9664 124.933 16.8294 125.127 16.6468C125.32 16.4642 125.468 16.2405 125.57 15.9756L128.297 16.1537C128.159 16.802 127.876 17.3669 127.449 17.8486C127.022 18.3303 126.473 18.7046 125.802 18.9717C125.13 19.2387 124.356 19.3723 123.479 19.3723H123.479Z" fill="white"/>
<path d="M133.812 19.3382C133.004 19.3382 132.274 19.1317 131.621 18.7185C130.968 18.3053 130.451 17.6958 130.07 16.89C129.69 16.0842 129.499 15.0947 129.499 13.9214C129.499 12.7161 129.695 11.7129 130.088 10.9116C130.48 10.1104 131.003 9.51009 131.656 9.11055C132.309 8.71117 133.025 8.51135 133.805 8.51135C134.4 8.51135 134.898 8.61061 135.297 8.80923C135.696 9.00785 136.019 9.25435 136.266 9.54883C136.513 9.84331 136.701 10.1321 136.83 10.4151H136.92V5.14209H139.862V19.167H136.955V17.4823H136.83C136.692 17.7745 136.497 18.0633 136.245 18.3486C135.994 18.634 135.668 18.8702 135.269 19.0574C134.87 19.2445 134.384 19.3381 133.812 19.3381V19.3382ZM134.746 17.0167C135.222 17.0167 135.624 16.8878 135.954 16.6298C136.284 16.3719 136.538 16.0101 136.716 15.5444C136.894 15.0787 136.982 14.5332 136.982 13.9076C136.982 13.2821 136.895 12.739 136.719 12.2778C136.544 11.8167 136.29 11.4607 135.958 11.2095C135.626 10.9584 135.222 10.8329 134.747 10.8329C134.262 10.8329 133.854 10.963 133.521 11.2232C133.189 11.4834 132.937 11.8442 132.767 12.3052C132.596 12.7664 132.511 13.3005 132.511 13.9076C132.511 14.5195 132.597 15.0593 132.77 15.5272C132.943 15.9953 133.195 16.3605 133.525 16.6229C133.855 16.8855 134.262 17.0167 134.746 17.0167Z" fill="white"/>
<defs>
<linearGradient id="paint0_linear_21_365" x1="-1.63103e-05" y1="12.0001" x2="19.308" y2="12.0001" gradientUnits="userSpaceOnUse">
<stop stop-color="#FCB60A"/>
<stop offset="0.115" stop-color="#F69319"/>
<stop offset="0.305" stop-color="#EF6D2A"/>
<stop offset="0.727" stop-color="#ED5332"/>
<stop offset="1" stop-color="#ED6A32"/>
</linearGradient>
</defs>
</svg>
