<svg width="587" height="710" viewBox="0 0 587 710" fill="none" xmlns="http://www.w3.org/2000/svg">
<mask id="path-1-inside-1_1_983" fill="white">
<path d="M151.833 515.904C142.379 507.293 79.5292 452.186 70.4582 442.884C61.3863 433.583 52.7803 425.206 44.1704 416.136C33.1448 404.419 22.8026 392.08 13.1939 379.18C10.7594 375.825 8.43861 372.432 6.19547 368.964C0.83969 360.478 -1.12006 350.301 0.708628 340.482C2.56936 329.068 6.22978 318.034 11.5537 307.789C59.2006 219.48 220.264 75.0941 245.976 52.3422C248.074 50.4856 250.184 48.7317 252.395 47.0118C267.06 35.6141 299.457 9.47698 313.484 4.50751C325.157 0.371094 337.937 -0.997312 349.832 2.51034C353.565 3.6108 357.198 5.08416 360.673 6.91938C366.972 10.7057 372.572 15.5545 377.225 21.2479C386.773 32.9741 395.012 45.6991 401.793 59.1914C403.433 62.4527 404.897 65.7896 406.33 69.1454C426.697 116.832 587.866 492.879 586.368 584.974C586.333 587.176 586.595 598.273 584.703 605.449C580.827 620.152 575.139 630.355 566.089 642.57L565.705 642.954L564.405 644.871C554.208 658.019 540.883 668.401 525.628 675.079C502.048 685.227 464.878 701.939 458.002 704.569C445.573 709.45 432.002 710.748 418.823 708.314C417.425 708.06 416.029 707.795 414.635 707.519C397.488 704.13 381.315 697.156 366.731 687.501C337.069 667.867 275.055 622.017 151.832 515.903L151.833 515.904Z"/>
</mask>
<path d="M151.833 515.904L149.813 518.122L153.954 513.783L151.833 515.904ZM70.4582 442.884L72.6061 440.789L72.6058 440.789L70.4582 442.884ZM44.1704 416.136L41.9856 418.191L41.9946 418.201L44.1704 416.136ZM13.1939 379.18L10.7658 380.942L10.7768 380.957L10.788 380.972L13.1939 379.18ZM6.19547 368.964L3.65851 370.565L3.66736 370.579L3.67638 370.593L6.19547 368.964ZM0.708628 340.482L3.65792 341.032L3.66411 340.998L3.66955 340.965L0.708628 340.482ZM11.5537 307.789L8.91352 306.365L8.90247 306.385L8.89173 306.406L11.5537 307.789ZM245.976 52.3422L243.988 50.0955L243.988 50.0956L245.976 52.3422ZM252.395 47.0118L250.554 44.6431L250.553 44.6438L252.395 47.0118ZM313.484 4.50751L314.486 7.33528L314.486 7.33524L313.484 4.50751ZM349.832 2.51034L348.984 5.38785L348.984 5.38788L349.832 2.51034ZM360.673 6.91938L362.218 4.34817L362.147 4.30539L362.074 4.2666L360.673 6.91938ZM377.225 21.2479L379.551 19.3536L379.548 19.3494L377.225 21.2479ZM401.793 59.1914L399.113 60.5388L399.113 60.5389L401.793 59.1914ZM406.33 69.1454L403.571 70.3237L403.571 70.3238L406.33 69.1454ZM586.368 584.974L583.368 584.925L583.368 584.926L586.368 584.974ZM584.703 605.449L587.604 606.214L587.604 606.214L584.703 605.449ZM566.089 642.57L568.21 644.691L568.367 644.534L568.5 644.356L566.089 642.57ZM565.705 642.954L563.584 640.832L563.383 641.034L563.223 641.27L565.705 642.954ZM564.405 644.871L566.776 646.71L566.834 646.634L566.888 646.555L564.405 644.871ZM525.628 675.079L526.814 677.835L526.822 677.831L526.831 677.827L525.628 675.079ZM458.002 704.569L456.93 701.767L456.918 701.772L456.905 701.777L458.002 704.569ZM418.823 708.314L419.368 705.364L419.359 705.363L418.823 708.314ZM414.635 707.519L415.218 704.576L415.217 704.576L414.635 707.519ZM366.731 687.501L368.387 685L368.387 685L366.731 687.501ZM151.832 515.903L153.789 513.63L149.71 518.024L151.832 515.903ZM153.853 513.686C149.108 509.364 130.995 493.401 112.994 477.41C94.9061 461.341 77.0442 445.34 72.6061 440.789L68.3104 444.978C72.9432 449.729 91.0415 465.933 109.009 481.896C127.065 497.936 145.103 513.832 149.813 518.122L153.853 513.686ZM72.6058 440.789C63.4464 431.398 54.9545 423.139 46.3462 414.07L41.9946 418.201C50.606 427.273 59.3262 435.767 68.3106 444.978L72.6058 440.789ZM46.3552 414.08C35.4083 402.446 25.14 390.196 15.5999 377.388L10.788 380.972C20.4653 393.964 30.8813 406.391 41.9856 418.191L46.3552 414.08ZM15.622 377.418C13.2201 374.108 10.9296 370.759 8.71457 367.334L3.67638 370.593C5.94766 374.105 8.29877 377.542 10.7658 380.942L15.622 377.418ZM8.73244 367.362C3.77815 359.513 1.96832 350.104 3.65792 341.032L-2.24066 339.933C-4.20843 350.499 -2.09877 361.443 3.65851 370.565L8.73244 367.362ZM3.66955 340.965C5.47914 329.864 9.0388 319.135 14.2157 309.173L8.89173 306.406C3.42076 316.934 -0.340416 328.271 -2.25229 340L3.66955 340.965ZM14.194 309.214C37.7869 265.487 89.6681 207.591 139.123 157.592C188.493 107.68 235.131 65.9446 247.964 54.5889L243.988 50.0956C231.109 61.4918 184.36 103.326 134.858 153.372C85.4415 203.332 32.9675 261.783 8.91352 306.365L14.194 309.214ZM247.964 54.589C250.016 52.7731 252.077 51.0597 254.237 49.3798L250.553 44.6438C248.29 46.4037 246.132 48.1981 243.988 50.0955L247.964 54.589ZM254.236 49.3805C261.609 43.6498 273.312 34.3151 284.954 25.7672C290.771 21.4966 296.533 17.4512 301.692 14.1749C306.899 10.8675 311.316 8.45819 314.486 7.33528L312.482 1.67975C308.638 3.04157 303.745 5.76298 298.475 9.11008C293.156 12.4883 287.273 16.6214 281.403 20.9309C269.673 29.5434 257.845 38.9761 250.554 44.6431L254.236 49.3805ZM314.486 7.33524C325.738 3.34807 337.851 2.10527 348.984 5.38785L350.681 -0.367171C338.022 -4.09989 324.576 -2.60588 312.482 1.67979L314.486 7.33524ZM348.984 5.38788C352.526 6.43227 355.974 7.83054 359.272 9.57215L362.074 4.2666C358.422 2.33777 354.603 0.789329 350.681 -0.367194L348.984 5.38788ZM359.127 9.49058C365.13 13.0988 370.467 17.7199 374.902 23.1464L379.548 19.3494C374.676 13.3891 368.814 8.31267 362.218 4.34817L359.127 9.49058ZM374.899 23.1422C384.31 34.6995 392.429 47.2412 399.113 60.5388L404.474 57.8441C397.594 44.1571 389.237 31.2487 379.551 19.3536L374.899 23.1422ZM399.113 60.5389C400.709 63.7131 402.143 66.9793 403.571 70.3237L409.089 67.9672C407.651 64.6 406.157 61.1924 404.474 57.844L399.113 60.5389ZM403.571 70.3238C413.754 94.1659 459.118 200.053 501.747 311.479C523.062 367.195 543.679 424.258 558.869 473.12C566.464 497.552 572.691 519.898 576.97 538.98C581.26 558.111 583.55 573.779 583.368 584.925L589.368 585.023C589.561 573.145 587.141 556.916 582.825 537.667C578.497 518.371 572.22 495.857 564.598 471.339C549.354 422.3 528.686 365.102 507.35 309.335C464.677 197.792 419.273 91.8119 409.089 67.9671L403.571 70.3238ZM583.368 584.926C583.329 587.4 583.574 597.965 581.803 604.684L587.604 606.214C589.616 598.581 589.337 586.952 589.368 585.022L583.368 584.926ZM581.803 604.684C578.049 618.92 572.571 628.782 563.678 640.784L568.5 644.356C577.707 631.928 583.605 621.383 587.604 606.214L581.803 604.684ZM563.968 640.449L563.584 640.832L567.827 645.075L568.21 644.691L563.968 640.449ZM563.223 641.27L561.922 643.187L566.888 646.555L568.188 644.637L563.223 641.27ZM562.034 643.033C552.145 655.785 539.221 665.854 524.425 672.331L526.831 677.827C542.545 670.949 556.272 660.254 566.776 646.71L562.034 643.033ZM524.442 672.323C500.715 682.534 463.736 699.164 456.93 701.767L459.074 707.371C466.019 704.714 503.381 687.919 526.814 677.835L524.442 672.323ZM456.905 701.777C445 706.452 431.998 707.697 419.368 705.364L418.278 711.264C432.006 713.8 446.147 712.449 459.099 707.361L456.905 701.777ZM419.359 705.363C417.977 705.111 416.596 704.849 415.218 704.576L414.052 710.462C415.462 710.741 416.874 711.009 418.286 711.266L419.359 705.363ZM415.217 704.576C398.488 701.27 382.675 694.459 368.387 685L365.075 690.003C379.954 699.853 396.489 706.991 414.053 710.462L415.217 704.576ZM368.387 685C338.882 665.469 276.978 619.715 153.789 513.63L149.874 518.176C273.131 624.319 335.257 670.265 365.075 690.003L368.387 685ZM149.71 518.024L149.711 518.025L153.954 513.783L153.953 513.782L149.71 518.024Z" fill="url(#paint0_linear_1_983)" mask="url(#path-1-inside-1_1_983)"/>
<defs>
<linearGradient id="paint0_linear_1_983" x1="633.921" y1="627.465" x2="-51.5096" y2="321.22" gradientUnits="userSpaceOnUse">
<stop stop-color="#F87216"/>
<stop offset="1" stop-color="#F87216" stop-opacity="0.07"/>
</linearGradient>
</defs>
</svg>
