<svg width="489" height="766" viewBox="0 0 489 766" fill="none" xmlns="http://www.w3.org/2000/svg">
<g opacity="0.5">
<mask id="path-1-inside-1_1_5210" fill="white">
<path d="M236.276 636.653C222.363 630.127 130.592 589.124 116.891 581.704C103.188 574.286 90.3408 567.746 77.2542 560.436C60.4612 550.96 44.2531 540.571 28.7081 529.32C24.7403 526.372 20.892 523.346 17.1084 520.211C8.00532 512.497 2.28113 501.8 1.08548 490.274C-0.613017 476.961 -0.0887606 463.489 2.63787 450.357C28.1828 336.591 166.699 123.643 188.912 89.98C190.725 87.2329 192.585 84.5967 194.576 81.9653C207.779 64.5235 236.625 24.9252 251.262 14.8482C263.443 6.46093 277.848 0.797496 292.874 0.849914C297.589 0.866244 302.315 1.32994 306.979 2.24781C315.588 4.42358 323.744 8.00871 331.085 12.841C346.163 22.8051 360.054 34.3059 372.51 47.1328C375.521 50.2332 378.354 53.4745 381.157 56.747C420.992 103.249 735.771 469.77 765.197 572.804C765.901 575.267 769.962 587.539 770.19 596.142C770.656 613.769 767.492 626.973 761.098 643.506L760.781 644.058L759.917 646.614C752.504 664.558 740.515 680.435 725.027 692.812C701.029 711.749 663.44 742.399 656.331 747.555C643.524 757.016 628.174 762.858 612.017 764.416C610.305 764.586 608.591 764.744 606.876 764.888C585.78 766.669 564.603 764.141 544.369 758.115C503.215 745.861 415.548 714.895 236.275 636.652L236.276 636.653Z"/>
</mask>
<path d="M236.276 636.653C222.363 630.127 130.592 589.124 116.891 581.704C103.188 574.286 90.3408 567.746 77.2542 560.436C60.4612 550.96 44.2531 540.571 28.7081 529.32C24.7403 526.372 20.892 523.346 17.1084 520.211C8.00532 512.497 2.28113 501.8 1.08548 490.274C-0.613017 476.961 -0.0887606 463.489 2.63787 450.357C28.1828 336.591 166.699 123.643 188.912 89.98C190.725 87.2329 192.585 84.5967 194.576 81.9653C207.779 64.5235 236.625 24.9252 251.262 14.8482C263.443 6.46093 277.848 0.797496 292.874 0.849914C297.589 0.866244 302.315 1.32994 306.979 2.24781C315.588 4.42358 323.744 8.00871 331.085 12.841C346.163 22.8051 360.054 34.3059 372.51 47.1328C375.521 50.2332 378.354 53.4745 381.157 56.747C420.992 103.249 735.771 469.77 765.197 572.804C765.901 575.267 769.962 587.539 770.19 596.142C770.656 613.769 767.492 626.973 761.098 643.506L760.781 644.058L759.917 646.614C752.504 664.558 740.515 680.435 725.027 692.812C701.029 711.749 663.44 742.399 656.331 747.555C643.524 757.016 628.174 762.858 612.017 764.416C610.305 764.586 608.591 764.744 606.876 764.888C585.78 766.669 564.603 764.141 544.369 758.115C503.215 745.861 415.548 714.895 236.275 636.652L236.276 636.653Z" stroke="url(#paint0_linear_1_5210)" stroke-width="6" mask="url(#path-1-inside-1_1_5210)"/>
</g>
<defs>
<linearGradient id="paint0_linear_1_5210" x1="834.902" y1="604.714" x2="-64.6456" y2="475.058" gradientUnits="userSpaceOnUse">
<stop stop-color="#F87216"/>
<stop offset="1" stop-color="#F87216" stop-opacity="0.07"/>
</linearGradient>
</defs>
</svg>
