<svg width="609" height="767" viewBox="0 0 609 767" fill="none" xmlns="http://www.w3.org/2000/svg">
<path d="M564.365 130.775C572.725 171.871 586.225 261.921 600.518 453.509L607.112 626.689C606.536 645.63 604.873 664.519 602.133 683.265C601.369 688.068 600.479 692.81 599.463 697.55C596.929 708.747 590.283 718.561 580.865 725.021L580.851 725.031L580.838 725.041C569.877 732.929 557.746 739.016 544.894 743.08C488.326 759.995 396.332 765.011 313.258 765.465C230.239 765.919 156.348 761.819 136.117 760.583C132.843 760.383 129.646 760.089 126.394 759.683C123.973 759.379 121.22 759.045 118.217 758.681C107.69 757.404 94.0966 755.754 80.9422 753.738C72.4918 752.443 64.2466 751.001 57.1355 749.414C49.9961 747.821 44.1027 746.104 40.2962 744.289L39.754 745.426L40.2962 744.289C27.288 738.088 15.7464 728.744 8.92809 716.223C6.7829 712.284 5.02145 708.123 3.68243 703.796C1.63319 695.55 1.02126 687.008 1.87125 678.549C3.67974 660.881 7.40593 643.472 12.9786 626.636C14.3184 622.587 15.8689 618.611 17.473 614.616L18.3885 612.335C31.3856 579.948 80.8872 456.6 136.97 331.016C165.721 266.635 196.194 201.685 224.358 148.111C238.441 121.323 251.937 97.3961 264.346 77.8131C276.768 58.2092 288.05 43.0384 297.694 33.7033L297.694 33.703C297.937 33.468 298.285 33.1205 298.722 32.6838C301.827 29.5803 309.442 21.9709 315.905 18.2045C331.189 9.29869 344.249 5.56962 361.831 2.94517H362.36H362.503L362.643 2.91832L365.284 2.41174C384.525 -0.0129204 404.062 2.41646 422.139 9.48491C434.65 14.4677 450.429 20.5878 464.815 26.1676C482.919 33.1893 498.817 39.3556 503.223 41.3238L503.235 41.3292C517.441 47.5226 529.645 57.5959 538.465 70.4114L538.467 70.4149C539.418 71.7885 540.359 73.1704 541.289 74.5587L542.482 73.7598L541.289 74.5591C552.666 91.5409 560.282 110.697 564.365 130.775Z" stroke="url(#paint0_linear_1_981)" stroke-width="3"/>
<defs>
<linearGradient id="paint0_linear_1_981" x1="536.949" y1="-51.2953" x2="84.8293" y2="774.83" gradientUnits="userSpaceOnUse">
<stop stop-color="#F87216"/>
<stop offset="1" stop-color="#F87216" stop-opacity="0.07"/>
</linearGradient>
</defs>
</svg>
