<svg width="609" height="317" viewBox="0 0 609 317" fill="none" xmlns="http://www.w3.org/2000/svg">
<path d="M564.365 -319.225C572.725 -278.129 586.225 -188.079 600.518 3.50903L607.112 176.689C606.536 195.63 604.873 214.519 602.133 233.265C601.369 238.068 600.479 242.81 599.463 247.55C596.929 258.747 590.283 268.561 580.865 275.021L580.851 275.031L580.838 275.041C569.877 282.929 557.746 289.016 544.894 293.08C488.326 309.995 396.332 315.011 313.258 315.465C230.239 315.919 156.348 311.819 136.117 310.583C132.843 310.383 129.646 310.089 126.394 309.683C123.973 309.379 121.22 309.045 118.217 308.681C107.69 307.404 94.0966 305.754 80.9422 303.738C72.4918 302.443 64.2466 301.001 57.1355 299.414C49.9961 297.821 44.1027 296.104 40.2962 294.289L39.754 295.426L40.2962 294.289C27.288 288.088 15.7464 278.744 8.92809 266.223C6.7829 262.284 5.02145 258.123 3.68243 253.796C1.63319 245.55 1.02126 237.008 1.87125 228.549C3.67974 210.881 7.40593 193.472 12.9786 176.636C14.3184 172.587 15.8689 168.611 17.473 164.616L18.3885 162.335C31.3856 129.948 80.8872 6.59967 136.97 -118.984C165.721 -183.365 196.194 -248.315 224.358 -301.889C238.441 -328.677 251.937 -352.604 264.346 -372.187C276.768 -391.791 288.05 -406.962 297.694 -416.297L297.694 -416.297C297.937 -416.532 298.285 -416.879 298.722 -417.316C301.827 -420.42 309.442 -428.029 315.905 -431.796C331.189 -440.701 344.249 -444.43 361.831 -447.055H362.36H362.503L362.643 -447.082L365.284 -447.588C384.525 -450.013 404.062 -447.584 422.139 -440.515C434.65 -435.532 450.429 -429.412 464.815 -423.832C482.919 -416.811 498.817 -410.644 503.223 -408.676L503.235 -408.671C517.441 -402.477 529.645 -392.404 538.465 -379.589L538.467 -379.585C539.418 -378.211 540.359 -376.83 541.289 -375.441L542.482 -376.24L541.289 -375.441C552.666 -358.459 560.282 -339.303 564.365 -319.225Z" stroke="url(#paint0_linear_0_271)" stroke-width="3"/>
<defs>
<linearGradient id="paint0_linear_0_271" x1="292.422" y1="-492.611" x2="609.25" y2="335.984" gradientUnits="userSpaceOnUse">
<stop stop-color="#F87216"/>
<stop offset="1" stop-color="#F87216" stop-opacity="0.07"/>
</linearGradient>
</defs>
</svg>
