<svg width="609" height="767" viewBox="0 0 609 767" fill="none" xmlns="http://www.w3.org/2000/svg">
<path d="M297.694 33.703L297.694 33.7033C288.05 43.0384 276.768 58.2092 264.346 77.8131C251.937 97.3961 238.441 121.323 224.358 148.111C196.194 201.685 165.721 266.635 136.97 331.016C80.8871 456.6 31.3856 579.948 18.3885 612.335L17.473 614.616C15.8689 618.611 14.3184 622.587 12.9786 626.636C7.40593 643.472 3.67974 660.881 1.87125 678.549C1.02126 687.008 1.63319 695.55 3.68243 703.796C5.02144 708.123 6.7829 712.284 8.92807 716.223L7.61075 716.94L297.694 33.703ZM297.694 33.703C297.937 33.4681 298.285 33.1207 298.721 32.6841C301.827 29.5807 309.442 21.9709 315.905 18.2045C331.189 9.29869 344.249 5.56962 361.831 2.94517H362.36H362.503M297.694 33.703L362.503 2.94517M362.503 2.94517L362.643 2.91832L365.284 2.41175M362.503 2.94517L365.284 2.41175M365.284 2.41175C384.525 -0.012921 404.062 2.41645 422.139 9.48491C434.65 14.4677 450.429 20.5878 464.815 26.1677C482.919 33.1894 498.817 39.3556 503.223 41.3238L503.235 41.3292C517.441 47.5226 529.645 57.5959 538.465 70.4114L538.467 70.4149C539.418 71.7886 540.359 73.1704 541.289 74.5587L542.535 73.7242L365.284 2.41175Z" stroke="url(#paint0_linear_1_980)" stroke-width="3"/>
<defs>
<linearGradient id="paint0_linear_1_980" x1="292.422" y1="-42.6111" x2="609.25" y2="785.984" gradientUnits="userSpaceOnUse">
<stop stop-color="#F87216"/>
<stop offset="1" stop-color="#F87216" stop-opacity="0.07"/>
</linearGradient>
</defs>
</svg>
