<svg width="553" height="254" viewBox="0 0 553 254" fill="none" xmlns="http://www.w3.org/2000/svg">
<path d="M11.1928 53L1.20419 18.0909H9.26669L15.0451 42.3466H15.3349L21.7099 18.0909H28.6133L34.9712 42.3977H35.2781L41.0565 18.0909H49.119L39.1303 53H31.9371L25.2894 30.1761H25.0167L18.386 53H11.1928ZM61.0922 53.5114C58.399 53.5114 56.0808 52.9659 54.1377 51.875C52.2058 50.7727 50.7172 49.2159 49.6717 47.2045C48.6263 45.1818 48.1036 42.7898 48.1036 40.0284C48.1036 37.3352 48.6263 34.9716 49.6717 32.9375C50.7172 30.9034 52.1888 29.3182 54.0865 28.1818C55.9956 27.0455 58.2342 26.4773 60.8024 26.4773C62.5297 26.4773 64.1377 26.7557 65.6263 27.3125C67.1263 27.858 68.4331 28.6818 69.5467 29.7841C70.6717 30.8864 71.5467 32.2727 72.1717 33.9432C72.7967 35.6023 73.1092 37.5455 73.1092 39.7727V41.767H51.0013V37.267H66.274C66.274 36.2216 66.0467 35.2955 65.5922 34.4886C65.1377 33.6818 64.507 33.0511 63.7002 32.5966C62.9047 32.1307 61.9786 31.8977 60.9217 31.8977C59.8195 31.8977 58.8422 32.1534 57.9899 32.6648C57.149 33.1648 56.4899 33.8409 56.0127 34.6932C55.5354 35.5341 55.2911 36.4716 55.2797 37.5057V41.7841C55.2797 43.0795 55.5183 44.1989 55.9956 45.142C56.4842 46.0852 57.1717 46.8125 58.0581 47.3239C58.9445 47.8352 59.9956 48.0909 61.2115 48.0909C62.0183 48.0909 62.757 47.9773 63.4274 47.75C64.0979 47.5227 64.6717 47.1818 65.149 46.7273C65.6263 46.2727 65.9899 45.7159 66.2399 45.0568L72.9558 45.5C72.6149 47.1136 71.9161 48.5227 70.8592 49.7273C69.8138 50.9205 68.4615 51.8523 66.8024 52.5227C65.1547 53.1818 63.2513 53.5114 61.0922 53.5114ZM94.5032 53.4943C92.8327 53.4943 91.3441 53.2045 90.0373 52.625C88.7304 52.0341 87.6964 51.1648 86.935 50.017C86.185 48.858 85.81 47.4148 85.81 45.6875C85.81 44.233 86.077 43.0114 86.6111 42.0227C87.1452 41.0341 87.8725 40.2386 88.7929 39.6364C89.7134 39.0341 90.7589 38.5795 91.9293 38.2727C93.1111 37.9659 94.3498 37.75 95.6452 37.625C97.1679 37.4659 98.3952 37.3182 99.327 37.1818C100.259 37.0341 100.935 36.8182 101.355 36.5341C101.776 36.25 101.986 35.8295 101.986 35.2727V35.1705C101.986 34.0909 101.645 33.2557 100.963 32.6648C100.293 32.0739 99.3384 31.7784 98.0998 31.7784C96.7929 31.7784 95.7532 32.0682 94.9804 32.6477C94.2077 33.2159 93.6964 33.9318 93.4464 34.7955L86.7304 34.25C87.0714 32.6591 87.7418 31.2841 88.7418 30.125C89.7418 28.9545 91.0316 28.0568 92.6111 27.4318C94.202 26.7955 96.0429 26.4773 98.1339 26.4773C99.5884 26.4773 100.98 26.6477 102.31 26.9886C103.651 27.3295 104.838 27.858 105.872 28.5739C106.918 29.2898 107.742 30.2102 108.344 31.3352C108.946 32.4489 109.247 33.7841 109.247 35.3409V53H102.361V49.3693H102.157C101.736 50.1875 101.174 50.9091 100.469 51.5341C99.7645 52.1477 98.9179 52.6307 97.9293 52.983C96.9407 53.3239 95.7986 53.4943 94.5032 53.4943ZM96.5827 48.483C97.6509 48.483 98.5941 48.2727 99.4123 47.8523C100.23 47.4205 100.872 46.8409 101.338 46.1136C101.804 45.3864 102.037 44.5625 102.037 43.642V40.8636C101.81 41.0114 101.497 41.1477 101.1 41.2727C100.713 41.3864 100.276 41.4943 99.7873 41.5966C99.2986 41.6875 98.81 41.7727 98.3214 41.8523C97.8327 41.9205 97.3895 41.983 96.9918 42.0398C96.1395 42.1648 95.3952 42.3636 94.7589 42.6364C94.1225 42.9091 93.6282 43.2784 93.2759 43.7443C92.9236 44.1989 92.7475 44.767 92.7475 45.4489C92.7475 46.4375 93.1054 47.1932 93.8214 47.7159C94.5486 48.2273 95.4691 48.483 96.5827 48.483ZM113.921 53V26.8182H120.961V31.3864H121.234C121.711 29.7614 122.512 28.5341 123.637 27.7045C124.762 26.8636 126.057 26.4432 127.523 26.4432C127.887 26.4432 128.279 26.4659 128.699 26.5114C129.12 26.5568 129.489 26.6193 129.807 26.6989V33.142C129.466 33.0398 128.995 32.9489 128.393 32.8693C127.79 32.7898 127.239 32.75 126.739 32.75C125.671 32.75 124.716 32.983 123.876 33.4489C123.046 33.9034 122.387 34.5398 121.898 35.358C121.421 36.1761 121.182 37.1193 121.182 38.1875V53H113.921ZM143.315 53.5114C140.622 53.5114 138.303 52.9659 136.36 51.875C134.428 50.7727 132.94 49.2159 131.894 47.2045C130.849 45.1818 130.326 42.7898 130.326 40.0284C130.326 37.3352 130.849 34.9716 131.894 32.9375C132.94 30.9034 134.411 29.3182 136.309 28.1818C138.218 27.0455 140.457 26.4773 143.025 26.4773C144.752 26.4773 146.36 26.7557 147.849 27.3125C149.349 27.858 150.656 28.6818 151.769 29.7841C152.894 30.8864 153.769 32.2727 154.394 33.9432C155.019 35.6023 155.332 37.5455 155.332 39.7727V41.767H133.224V37.267H148.497C148.497 36.2216 148.269 35.2955 147.815 34.4886C147.36 33.6818 146.729 33.0511 145.923 32.5966C145.127 32.1307 144.201 31.8977 143.144 31.8977C142.042 31.8977 141.065 32.1534 140.212 32.6648C139.372 33.1648 138.712 33.8409 138.235 34.6932C137.758 35.5341 137.514 36.4716 137.502 37.5057V41.7841C137.502 43.0795 137.741 44.1989 138.218 45.142C138.707 46.0852 139.394 46.8125 140.281 47.3239C141.167 47.8352 142.218 48.0909 143.434 48.0909C144.241 48.0909 144.979 47.9773 145.65 47.75C146.32 47.5227 146.894 47.1818 147.372 46.7273C147.849 46.2727 148.212 45.7159 148.462 45.0568L155.178 45.5C154.837 47.1136 154.139 48.5227 153.082 49.7273C152.036 50.9205 150.684 51.8523 149.025 52.5227C147.377 53.1818 145.474 53.5114 143.315 53.5114Z" fill="#FFF9ED"/>
<g filter="url(#filter0_d_14_166)">
<path d="M87.7955 125.512V73.1482H101.636V82.3868H102.25C103.341 79.3187 105.159 76.8982 107.705 75.1255C110.25 73.3527 113.295 72.4664 116.841 72.4664C120.432 72.4664 123.489 73.3641 126.011 75.1596C128.534 76.9323 130.216 79.3414 131.057 82.3868H131.602C132.67 79.3868 134.602 76.9891 137.398 75.1937C140.216 73.3755 143.545 72.4664 147.386 72.4664C152.273 72.4664 156.239 74.0232 159.284 77.1368C162.352 80.2277 163.886 84.6141 163.886 90.2959V125.512H149.398V93.1596C149.398 90.2505 148.625 88.0687 147.08 86.6141C145.534 85.1596 143.602 84.4323 141.284 84.4323C138.648 84.4323 136.591 85.2732 135.114 86.955C133.636 88.6141 132.898 90.8073 132.898 93.5346V125.512H118.818V92.8527C118.818 90.2846 118.08 88.2391 116.602 86.7164C115.148 85.1937 113.227 84.4323 110.841 84.4323C109.227 84.4323 107.773 84.8414 106.477 85.6596C105.205 86.455 104.193 87.58 103.443 89.0346C102.693 90.4664 102.318 92.1482 102.318 94.08V125.512H87.7955ZM197.097 126.535C191.802 126.535 187.222 125.41 183.358 123.16C179.518 120.887 176.552 117.728 174.461 113.682C172.37 109.614 171.324 104.898 171.324 99.5346C171.324 94.1255 172.37 89.3982 174.461 85.3527C176.552 81.2846 179.518 78.1255 183.358 75.8755C187.222 73.6027 191.802 72.4664 197.097 72.4664C202.393 72.4664 206.961 73.6027 210.802 75.8755C214.665 78.1255 217.643 81.2846 219.733 85.3527C221.824 89.3982 222.87 94.1255 222.87 99.5346C222.87 104.898 221.824 109.614 219.733 113.682C217.643 117.728 214.665 120.887 210.802 123.16C206.961 125.41 202.393 126.535 197.097 126.535ZM197.165 115.285C199.574 115.285 201.586 114.603 203.199 113.239C204.813 111.853 206.029 109.966 206.847 107.58C207.688 105.194 208.108 102.478 208.108 99.4323C208.108 96.3868 207.688 93.6709 206.847 91.2846C206.029 88.8982 204.813 87.0118 203.199 85.6255C201.586 84.2391 199.574 83.5459 197.165 83.5459C194.733 83.5459 192.688 84.2391 191.029 85.6255C189.393 87.0118 188.154 88.8982 187.313 91.2846C186.495 93.6709 186.086 96.3868 186.086 99.4323C186.086 102.478 186.495 105.194 187.313 107.58C188.154 109.966 189.393 111.853 191.029 113.239C192.688 114.603 194.733 115.285 197.165 115.285ZM230.393 125.512V73.1482H244.473V82.2846H245.018C245.973 79.0346 247.575 76.58 249.825 74.9209C252.075 73.2391 254.666 72.3982 257.598 72.3982C258.325 72.3982 259.109 72.4437 259.95 72.5346C260.791 72.6255 261.529 72.7505 262.166 72.9096V85.7959C261.484 85.5914 260.541 85.4096 259.336 85.2505C258.132 85.0914 257.029 85.0118 256.029 85.0118C253.893 85.0118 251.984 85.4777 250.302 86.4096C248.643 87.3187 247.325 88.5914 246.348 90.2277C245.393 91.8641 244.916 93.7505 244.916 95.8868V125.512H230.393ZM289.18 126.535C283.794 126.535 279.158 125.444 275.271 123.262C271.408 121.057 268.43 117.944 266.339 113.921C264.249 109.875 263.203 105.091 263.203 99.5687C263.203 94.1823 264.249 89.455 266.339 85.3868C268.43 81.3187 271.374 78.1482 275.169 75.8755C278.987 73.6027 283.464 72.4664 288.601 72.4664C292.055 72.4664 295.271 73.0232 298.249 74.1368C301.249 75.2277 303.862 76.8755 306.089 79.08C308.339 81.2846 310.089 84.0573 311.339 87.3982C312.589 90.7164 313.214 94.6027 313.214 99.0573V103.046H268.999V94.0459H299.544C299.544 91.955 299.089 90.1027 298.18 88.4891C297.271 86.8755 296.01 85.6141 294.396 84.705C292.805 83.7732 290.953 83.3073 288.839 83.3073C286.635 83.3073 284.68 83.8187 282.976 84.8414C281.294 85.8414 279.976 87.1937 279.021 88.8982C278.067 90.58 277.578 92.455 277.555 94.5232V103.08C277.555 105.671 278.033 107.91 278.987 109.796C279.964 111.682 281.339 113.137 283.112 114.16C284.885 115.182 286.987 115.694 289.419 115.694C291.033 115.694 292.51 115.466 293.851 115.012C295.192 114.557 296.339 113.875 297.294 112.966C298.249 112.057 298.976 110.944 299.476 109.625L312.908 110.512C312.226 113.739 310.828 116.557 308.714 118.966C306.624 121.353 303.919 123.216 300.601 124.557C297.305 125.875 293.499 126.535 289.18 126.535Z" fill="url(#paint0_linear_14_166)" shape-rendering="crispEdges"/>
</g>
<g filter="url(#filter1_d_14_166)">
<path d="M220.864 166.694V181.239H178.818V166.694H220.864ZM188.364 149.966H207.727V215.057C207.727 216.845 208 218.239 208.545 219.239C209.091 220.209 209.848 220.891 210.818 221.285C211.818 221.679 212.97 221.875 214.273 221.875C215.182 221.875 216.091 221.8 217 221.648C217.909 221.466 218.606 221.33 219.091 221.239L222.136 235.648C221.167 235.951 219.803 236.3 218.045 236.694C216.288 237.118 214.152 237.375 211.636 237.466C206.97 237.648 202.879 237.027 199.364 235.603C195.879 234.179 193.167 231.966 191.227 228.966C189.288 225.966 188.333 222.179 188.364 217.603V149.966ZM250.501 196.148V236.512H231.137V143.421H249.955V179.012H250.774C252.349 174.891 254.895 171.663 258.41 169.33C261.925 166.966 266.334 165.785 271.637 165.785C276.486 165.785 280.713 166.845 284.319 168.966C287.955 171.057 290.774 174.072 292.774 178.012C294.804 181.921 295.804 186.603 295.774 192.057V236.512H276.41V195.512C276.44 191.209 275.349 187.86 273.137 185.466C270.955 183.072 267.895 181.875 263.955 181.875C261.319 181.875 258.986 182.436 256.955 183.557C254.955 184.679 253.38 186.315 252.228 188.466C251.107 190.588 250.531 193.148 250.501 196.148ZM327.081 237.83C322.627 237.83 318.657 237.057 315.172 235.512C311.687 233.936 308.93 231.618 306.9 228.557C304.9 225.466 303.9 221.618 303.9 217.012C303.9 213.133 304.612 209.875 306.036 207.239C307.46 204.603 309.4 202.482 311.854 200.875C314.309 199.269 317.097 198.057 320.218 197.239C323.369 196.421 326.672 195.845 330.127 195.512C334.187 195.088 337.46 194.694 339.945 194.33C342.43 193.936 344.233 193.36 345.354 192.603C346.475 191.845 347.036 190.724 347.036 189.239V188.966C347.036 186.088 346.127 183.86 344.309 182.285C342.521 180.709 339.975 179.921 336.672 179.921C333.187 179.921 330.415 180.694 328.354 182.239C326.293 183.754 324.93 185.663 324.263 187.966L306.354 186.512C307.263 182.269 309.051 178.603 311.718 175.512C314.384 172.391 317.824 169.997 322.036 168.33C326.278 166.633 331.187 165.785 336.763 165.785C340.642 165.785 344.354 166.239 347.9 167.148C351.475 168.057 354.642 169.466 357.4 171.375C360.187 173.285 362.384 175.739 363.99 178.739C365.597 181.709 366.4 185.269 366.4 189.421V236.512H348.036V226.83H347.49C346.369 229.012 344.869 230.936 342.99 232.603C341.112 234.239 338.854 235.527 336.218 236.466C333.581 237.375 330.536 237.83 327.081 237.83ZM332.627 224.466C335.475 224.466 337.99 223.906 340.172 222.785C342.354 221.633 344.066 220.088 345.309 218.148C346.551 216.209 347.172 214.012 347.172 211.557V204.148C346.566 204.542 345.733 204.906 344.672 205.239C343.642 205.542 342.475 205.83 341.172 206.103C339.869 206.345 338.566 206.572 337.263 206.785C335.96 206.966 334.778 207.133 333.718 207.285C331.445 207.618 329.46 208.148 327.763 208.875C326.066 209.603 324.748 210.588 323.809 211.83C322.869 213.042 322.4 214.557 322.4 216.375C322.4 219.012 323.354 221.027 325.263 222.421C327.203 223.785 329.657 224.466 332.627 224.466ZM396.946 196.148V236.512H377.582V166.694H396.037V179.012H396.855C398.4 174.951 400.991 171.739 404.628 169.375C408.264 166.982 412.673 165.785 417.855 165.785C422.703 165.785 426.931 166.845 430.537 168.966C434.143 171.088 436.946 174.118 438.946 178.057C440.946 181.966 441.946 186.633 441.946 192.057V236.512H422.582V195.512C422.613 191.239 421.522 187.906 419.31 185.512C417.097 183.088 414.052 181.875 410.173 181.875C407.567 181.875 405.264 182.436 403.264 183.557C401.294 184.679 399.749 186.315 398.628 188.466C397.537 190.588 396.976 193.148 396.946 196.148ZM464.685 237.694C461.685 237.694 459.11 236.633 456.958 234.512C454.837 232.36 453.776 229.785 453.776 226.785C453.776 223.815 454.837 221.269 456.958 219.148C459.11 217.027 461.685 215.966 464.685 215.966C467.595 215.966 470.14 217.027 472.322 219.148C474.504 221.269 475.595 223.815 475.595 226.785C475.595 228.785 475.079 230.618 474.049 232.285C473.049 233.921 471.731 235.239 470.095 236.239C468.458 237.209 466.655 237.694 464.685 237.694ZM498.97 237.694C495.97 237.694 493.395 236.633 491.243 234.512C489.122 232.36 488.061 229.785 488.061 226.785C488.061 223.815 489.122 221.269 491.243 219.148C493.395 217.027 495.97 215.966 498.97 215.966C501.88 215.966 504.425 217.027 506.607 219.148C508.789 221.269 509.88 223.815 509.88 226.785C509.88 228.785 509.364 230.618 508.334 232.285C507.334 233.921 506.016 235.239 504.38 236.239C502.743 237.209 500.94 237.694 498.97 237.694ZM533.255 237.694C530.255 237.694 527.68 236.633 525.528 234.512C523.407 232.36 522.346 229.785 522.346 226.785C522.346 223.815 523.407 221.269 525.528 219.148C527.68 217.027 530.255 215.966 533.255 215.966C536.165 215.966 538.71 217.027 540.892 219.148C543.074 221.269 544.165 223.815 544.165 226.785C544.165 228.785 543.649 230.618 542.619 232.285C541.619 233.921 540.301 235.239 538.665 236.239C537.028 237.209 535.225 237.694 533.255 237.694Z" fill="url(#paint1_linear_14_166)" shape-rendering="crispEdges"/>
</g>
<defs>
<filter id="filter0_d_14_166" x="83.7954" y="68.3982" width="233.419" height="62.1364" filterUnits="userSpaceOnUse" color-interpolation-filters="sRGB">
<feFlood flood-opacity="0" result="BackgroundImageFix"/>
<feColorMatrix in="SourceAlpha" type="matrix" values="0 0 0 0 0 0 0 0 0 0 0 0 0 0 0 0 0 0 127 0" result="hardAlpha"/>
<feOffset/>
<feGaussianBlur stdDeviation="2"/>
<feComposite in2="hardAlpha" operator="out"/>
<feColorMatrix type="matrix" values="0 0 0 0 0.929412 0 0 0 0 0.329412 0 0 0 0 0.196078 0 0 0 1 0"/>
<feBlend mode="normal" in2="BackgroundImageFix" result="effect1_dropShadow_14_166"/>
<feBlend mode="normal" in="SourceGraphic" in2="effect1_dropShadow_14_166" result="shape"/>
</filter>
<filter id="filter1_d_14_166" x="174.818" y="139.421" width="373.346" height="102.409" filterUnits="userSpaceOnUse" color-interpolation-filters="sRGB">
<feFlood flood-opacity="0" result="BackgroundImageFix"/>
<feColorMatrix in="SourceAlpha" type="matrix" values="0 0 0 0 0 0 0 0 0 0 0 0 0 0 0 0 0 0 127 0" result="hardAlpha"/>
<feOffset/>
<feGaussianBlur stdDeviation="2"/>
<feComposite in2="hardAlpha" operator="out"/>
<feColorMatrix type="matrix" values="0 0 0 0 0.929412 0 0 0 0 0.329412 0 0 0 0 0.196078 0 0 0 1 0"/>
<feBlend mode="normal" in2="BackgroundImageFix" result="effect1_dropShadow_14_166"/>
<feBlend mode="normal" in="SourceGraphic" in2="effect1_dropShadow_14_166" result="shape"/>
</filter>
<linearGradient id="paint0_linear_14_166" x1="97.6667" y1="2.09077" x2="370.948" y2="87.8357" gradientUnits="userSpaceOnUse">
<stop stop-color="#ED5432"/>
<stop offset="0.838459" stop-color="#EDA232"/>
<stop offset="1" stop-color="#ED5432" stop-opacity="0.89"/>
</linearGradient>
<linearGradient id="paint1_linear_14_166" x1="201.133" y1="71.6171" x2="622.635" y2="230.74" gradientUnits="userSpaceOnUse">
<stop stop-color="#ED5432"/>
<stop offset="0.838459" stop-color="#EDA232"/>
<stop offset="1" stop-color="#ED5432" stop-opacity="0.89"/>
</linearGradient>
</defs>
</svg>
