<svg width="36" height="36" viewBox="0 0 36 36" fill="none" xmlns="http://www.w3.org/2000/svg">
<path d="M9.97372 14.2059C9.71331 13.9922 9.39043 13.8711 9.0546 13.8604H7.68302V22.1729H9.0546C9.39043 22.1622 9.71331 22.0399 9.97372 21.8261C10.2883 21.5791 10.4604 21.1896 10.4333 20.7882V15.245C10.4592 14.8436 10.2872 14.4541 9.97372 14.2059ZM32.3811 0.1875H3.95945C2.04936 0.1875 0.499831 1.7455 0.495117 3.67044V32.3296C0.499831 34.2545 2.04936 35.8125 3.95945 35.8125H32.3811C34.2912 35.8125 35.8407 34.2545 35.8454 32.3296V3.67044C35.8407 1.7455 34.2912 0.1875 32.3811 0.1875ZM12.6627 20.7977C12.7346 22.8034 11.1792 24.4873 9.18895 24.5597C9.07465 24.5645 8.96035 24.5621 8.84605 24.5562H5.18492V11.3987H8.92381C10.9117 11.3215 12.5849 12.8842 12.6615 14.8876C12.665 14.9778 12.665 15.0681 12.6615 15.1583V20.7977H12.6627ZM20.6071 13.7476H16.4028V16.803H18.9727V19.1542H16.4028V22.2085H20.6083V24.5609H15.7016C14.8202 24.5835 14.0885 23.8829 14.0661 22.9946V13.0457C14.0449 12.1587 14.7413 11.4224 15.6215 11.4011H20.6083V13.7476H20.6071ZM28.7848 22.9162C27.7431 25.3613 25.8766 24.8744 25.0412 22.9162L22.0011 11.3975H24.571L26.9159 20.4403L29.2491 11.3975H31.819L28.7848 22.9162Z" fill="#FFF9ED"/>
</svg>
