<svg width="120" height="21" viewBox="0 0 120 21" fill="none" xmlns="http://www.w3.org/2000/svg">
<g opacity="0.5" clip-path="url(#clip0_1_420)">
<path fill-rule="evenodd" clip-rule="evenodd" d="M10.1732 21V16.9339C14.3294 16.9339 17.5249 12.6682 15.9391 8.12765C15.3623 6.45619 14.0649 5.1089 12.4558 4.5104C8.08342 2.86387 3.97495 6.20681 3.97495 10.4974H0.0587463C0.0587463 3.63694 6.44921 -1.7266 13.3687 0.518436C16.3959 1.49165 18.7985 4.011 19.7592 7.15444C21.9211 14.364 16.7797 21 10.1732 21Z" fill="#FFF9ED"/>
<path fill-rule="evenodd" clip-rule="evenodd" d="M10.173 16.9582H6.28125V12.917H10.173V16.9582Z" fill="#FFF9ED"/>
<path fill-rule="evenodd" clip-rule="evenodd" d="M6.28081 20.0767H3.27753V16.9582H6.28081V20.0767Z" fill="#FFF9ED"/>
<path fill-rule="evenodd" clip-rule="evenodd" d="M3.27849 16.9588H0.755859V14.3647H3.25462V16.9588H3.27849Z" fill="#FFF9ED"/>
<path fill-rule="evenodd" clip-rule="evenodd" d="M36.0236 6.10642C34.8707 5.28348 33.4287 4.85889 31.7474 4.85889H28.0957V16.9332H31.7474C33.4294 16.9332 34.8707 16.4844 36.0236 15.6109C36.6481 15.1371 37.1527 14.488 37.4894 13.6651C37.8256 12.8422 38.0178 11.8939 38.0178 10.8209C38.0178 9.74795 37.8495 8.80032 37.4894 8.00167C37.1533 7.17873 36.6727 6.5297 36.0236 6.10576V6.10642ZM30.2351 6.88014H31.388C32.6616 6.88014 33.7184 7.12951 34.5113 7.65386C35.4003 8.20248 35.8565 9.27545 35.8565 10.7973C35.8565 12.369 35.4003 13.4669 34.5113 14.0654C33.7423 14.5891 32.7093 14.8641 31.4119 14.8641H30.2589V6.88014H30.2351Z" fill="#FFF9ED"/>
<path fill-rule="evenodd" clip-rule="evenodd" d="M40.589 4.68408C40.2284 4.68408 39.9406 4.80877 39.7 5.05814C39.4599 5.30752 39.3154 5.60677 39.3154 5.98149C39.3154 6.35621 39.4354 6.6548 39.6761 6.92977C39.9161 7.17914 40.229 7.30383 40.589 7.30383C40.949 7.30383 41.2374 7.17914 41.5019 6.92977C41.7419 6.68039 41.8626 6.35621 41.8626 5.98149C41.8626 5.60677 41.7426 5.30818 41.5019 5.05814C41.2374 4.83371 40.9251 4.68408 40.589 4.68408Z" fill="#FFF9ED"/>
<path d="M41.5981 8.40131H39.5322V16.9083H41.5981V8.40131Z" fill="#FFF9ED"/>
<path fill-rule="evenodd" clip-rule="evenodd" d="M49.0682 9.12517C48.4436 8.5516 47.7469 8.22742 47.0023 8.22742C45.8733 8.22742 44.912 8.62642 44.1913 9.45001C43.4468 10.248 43.0861 11.2711 43.0861 12.4937C43.0861 13.6914 43.4468 14.7138 44.1674 15.5374C44.8881 16.3354 45.8494 16.735 46.9785 16.735C47.7714 16.735 48.4437 16.5106 49.0204 16.0617V16.2612C49.0204 16.9595 48.8282 17.5088 48.492 17.8828C48.1314 18.2569 47.6269 18.4564 47.0268 18.4564C46.0655 18.4564 45.4894 18.0574 44.7442 17.0592L43.3506 18.4564L43.3984 18.5063C43.7106 18.9551 44.1674 19.3797 44.7681 19.7787C45.3687 20.1777 46.1617 20.4022 47.0507 20.4022C48.2759 20.4022 49.2611 20.0032 49.9817 19.2294C50.7024 18.4557 51.0869 17.4084 51.0869 16.1359V8.40132H49.0688V9.12451L49.0682 9.12517ZM48.5159 14.1396C48.1553 14.5635 47.6991 14.763 47.0985 14.763C46.4978 14.763 46.0417 14.5635 45.7049 14.1396C45.3442 13.7156 45.1765 13.1664 45.1765 12.4681C45.1765 11.7699 45.3449 11.2206 45.7049 10.7966C46.0655 10.3727 46.5217 10.1732 47.0985 10.1732C47.6991 10.1732 48.1553 10.3727 48.5159 10.7966C48.8765 11.2206 49.0443 11.7948 49.0443 12.4681C49.0682 13.1664 48.8759 13.7156 48.5159 14.1396Z" fill="#FFF9ED"/>
<path d="M54.9067 8.40131H52.8408V16.9083H54.9067V8.40131Z" fill="#FFF9ED"/>
<path fill-rule="evenodd" clip-rule="evenodd" d="M53.8995 4.68433C53.5395 4.68433 53.2511 4.80901 53.0105 5.05839C52.7705 5.30776 52.626 5.60701 52.626 5.98173C52.626 6.35645 52.746 6.65505 52.9866 6.93001C53.2266 7.17939 53.5395 7.30408 53.8995 7.30408C54.2596 7.30408 54.5479 7.17939 54.8125 6.93001C55.0525 6.68064 55.1731 6.35645 55.1731 5.98173C55.1731 5.60701 55.0531 5.30842 54.8125 5.05839C54.5479 4.83395 54.2602 4.68433 53.8995 4.68433Z" fill="#FFF9ED"/>
<path fill-rule="evenodd" clip-rule="evenodd" d="M59.4238 6.1064H57.4057V8.40131H56.2283V10.3471H57.4057V13.8646C57.4057 14.9625 57.6219 15.7605 58.0303 16.2094C58.4625 16.6582 59.2077 16.9076 60.2406 16.9076C60.5768 16.9076 60.9135 16.9076 61.2497 16.8827H61.3458V14.9369L60.649 14.9868C60.1684 14.9868 59.8322 14.887 59.6639 14.7125C59.4955 14.5379 59.4238 14.1638 59.4238 13.5896V10.3714H61.3458V8.42559H59.4238V6.10574V6.1064Z" fill="#FFF9ED"/>
<path fill-rule="evenodd" clip-rule="evenodd" d="M71.0039 4.83392H73.0698V16.9083H71.0039V4.83392Z" fill="#FFF9ED"/>
<path fill-rule="evenodd" clip-rule="evenodd" d="M93.851 13.8653C93.4904 14.2892 93.1059 14.6633 92.8175 14.8628C92.5297 15.0623 92.1691 15.1371 91.7607 15.1371C91.16 15.1371 90.6555 14.9126 90.271 14.4388C89.8864 13.965 89.6703 13.3659 89.6703 12.6427C89.6703 11.9195 89.8626 11.3203 90.2471 10.8465C90.6316 10.3727 91.1361 10.1483 91.7368 10.1483C92.4091 10.1483 93.1059 10.5722 93.7065 11.321L95.0762 9.9737C94.1872 8.77604 93.0581 8.22742 91.7123 8.22742C90.5832 8.22742 89.5987 8.65135 88.8058 9.49989C88.0128 10.3484 87.6045 11.3958 87.6045 12.6683C87.6045 13.9407 88.0128 15.013 88.8058 15.8366C89.5987 16.6845 90.5832 17.1091 91.7123 17.1091C93.202 17.1091 94.4033 16.4358 95.2201 15.2132L93.851 13.8659V13.8653Z" fill="#FFF9ED"/>
<path fill-rule="evenodd" clip-rule="evenodd" d="M102.307 9.59894C102.018 9.175 101.61 8.82588 101.129 8.57584C100.649 8.32647 100.072 8.20178 99.4236 8.20178C98.2707 8.20178 97.3332 8.65066 96.6371 9.49919C95.9403 10.3727 95.6035 11.445 95.6035 12.6925C95.6035 13.9899 95.988 15.0373 96.7326 15.8609C97.4777 16.6589 98.4868 17.0835 99.712 17.0835C101.106 17.0835 102.235 16.5099 103.099 15.3621L103.148 15.3123L101.802 13.965C101.682 14.1146 101.489 14.2892 101.346 14.4637C101.153 14.6632 100.961 14.8128 100.745 14.9126C100.433 15.0622 100.097 15.162 99.712 15.162C99.1352 15.162 98.6791 14.9874 98.3184 14.6383C97.9823 14.3141 97.79 13.8902 97.7416 13.3409H103.195L103.22 12.5678C103.22 12.0192 103.148 11.4948 103.003 10.9961C102.811 10.4724 102.595 10.0229 102.307 9.59894ZM97.8145 11.5946C97.9106 11.1956 98.1023 10.8465 98.3429 10.5964C98.6313 10.3221 98.9913 10.1725 99.4242 10.1725C99.9287 10.1725 100.313 10.3221 100.577 10.6214C100.817 10.8957 100.962 11.2199 100.986 11.6195H97.8145V11.5946Z" fill="#FFF9ED"/>
<path fill-rule="evenodd" clip-rule="evenodd" d="M110.212 9.05034C109.588 8.50171 108.723 8.22675 107.642 8.22675C106.945 8.22675 106.321 8.37637 105.744 8.67562C105.216 8.94993 104.687 9.4244 104.35 10.0478L104.375 10.0728L105.696 11.3951C106.248 10.4967 106.849 10.1725 107.642 10.1725C108.074 10.1725 108.435 10.2972 108.699 10.5217C108.963 10.7461 109.107 11.0453 109.107 11.4443V11.8683C108.603 11.7187 108.098 11.6189 107.594 11.6189C106.561 11.6189 105.744 11.8683 105.119 12.367C104.495 12.8658 104.183 13.5896 104.183 14.4874C104.183 15.286 104.446 15.9344 104.976 16.4082C105.504 16.882 106.176 17.1065 106.969 17.1065C107.762 17.1065 108.483 16.7823 109.156 16.2087V16.907H111.174V11.4437C111.149 10.3957 110.837 9.59765 110.212 9.04903V9.05034ZM106.56 13.6657C106.801 13.4912 107.113 13.4164 107.545 13.4164C108.05 13.4164 108.578 13.5161 109.107 13.7156V14.5386C108.65 14.9625 108.05 15.1869 107.329 15.1869C106.969 15.1869 106.705 15.1121 106.512 14.9376C106.32 14.7879 106.224 14.5884 106.224 14.3141C106.224 14.0398 106.32 13.8154 106.56 13.6657Z" fill="#FFF9ED"/>
<path fill-rule="evenodd" clip-rule="evenodd" d="M119.077 9.19994C118.5 8.52663 117.707 8.20178 116.674 8.20178C115.858 8.20178 115.185 8.45116 114.705 8.92497V8.40128H112.687V16.9082H114.752V12.218C114.752 11.5697 114.897 11.0703 115.185 10.6962C115.473 10.3221 115.881 10.1476 116.41 10.1476C116.867 10.1476 117.227 10.2972 117.491 10.6214C117.756 10.9456 117.876 11.3951 117.876 11.9687V16.8833H119.942V11.9687C119.942 10.7959 119.654 9.87325 119.077 9.19928V9.19994Z" fill="#FFF9ED"/>
<path fill-rule="evenodd" clip-rule="evenodd" d="M68.4104 9.05034C67.7859 8.50171 66.9207 8.22675 65.8401 8.22675C65.1433 8.22675 64.5187 8.37637 63.942 8.67562C63.4136 8.94993 62.8845 9.4244 62.5484 10.0478L62.5723 10.0728L63.8936 11.3951C64.4465 10.4967 65.0471 10.1725 65.8401 10.1725C66.2723 10.1725 66.6323 10.2972 66.8969 10.5217C67.1614 10.7461 67.3053 11.0453 67.3053 11.4443V11.8683C66.8007 11.7187 66.2962 11.6189 65.7917 11.6189C64.7588 11.6189 63.942 11.8683 63.3174 12.367C62.6929 12.8658 62.38 13.5896 62.38 14.4874C62.38 15.286 62.6445 15.9344 63.1729 16.4082C63.7013 16.882 64.3742 17.1065 65.1672 17.1065C65.9601 17.1065 66.6807 16.7823 67.3536 16.2087V16.907H69.3711V11.4437C69.3472 10.3957 69.035 9.59765 68.4104 9.04903V9.05034ZM64.7581 13.6657C64.9988 13.4912 65.311 13.4164 65.7433 13.4164C66.2478 13.4164 66.7762 13.5161 67.3046 13.7156V14.5386C66.8485 14.9625 66.2478 15.1869 65.5272 15.1869C65.1665 15.1869 64.9026 15.1121 64.7104 14.9376C64.5181 14.7879 64.422 14.5884 64.422 14.3141C64.422 14.0398 64.5181 13.8154 64.7581 13.6657Z" fill="#FFF9ED"/>
<path fill-rule="evenodd" clip-rule="evenodd" d="M80.5172 17.0835C77.2262 17.0835 74.5351 14.2892 74.5351 10.8714C74.5351 7.45367 77.2262 4.65936 80.5172 4.65936C83.8083 4.65936 86.4993 7.45367 86.4993 10.8714C86.4993 14.2892 83.8328 17.0835 80.5172 17.0835ZM80.5166 6.83024C78.3785 6.83024 76.6487 8.62639 76.6487 10.8465C76.6487 13.0666 78.3785 14.8627 80.5166 14.8627C82.6547 14.8627 84.3844 13.0666 84.3844 10.8465C84.3844 8.62639 82.6547 6.83024 80.5166 6.83024Z" fill="#FFF9ED"/>
</g>
<defs>
<clipPath id="clip0_1_420">
<rect width="120" height="21" fill="white"/>
</clipPath>
</defs>
</svg>
