<svg width="34" height="38" viewBox="0 0 34 38" fill="none" xmlns="http://www.w3.org/2000/svg">
<path d="M13.6311 15.941C12.4751 16.0372 11.6149 17.0584 11.7104 18.2234C11.794 19.2553 12.6071 20.0735 13.6311 20.159C14.7364 20.1186 15.6001 19.1817 15.56 18.0678C15.56 18.0619 15.56 18.0559 15.56 18.05C15.6142 16.9409 14.7646 15.9968 13.6641 15.9422C13.6535 15.9422 13.6428 15.9422 13.6322 15.941H13.6311ZM20.5126 15.941C19.3566 15.8448 18.3433 16.7117 18.2478 17.8766C18.1524 19.0416 19.0126 20.0628 20.1685 20.159C21.3245 20.2552 22.3379 19.3883 22.4333 18.2234C22.438 18.1652 22.4404 18.1082 22.4404 18.05C22.491 16.9361 21.6356 15.9921 20.5303 15.941C20.5256 15.941 20.522 15.941 20.5173 15.941H20.5126Z" fill="#FFF9ED"/>
<path d="M29.6805 0H4.41675C2.27688 0.00475 0.547074 1.7575 0.551787 3.914C0.551787 3.91519 0.551787 3.91756 0.551787 3.91875V29.602C0.543539 31.7585 2.27217 33.5124 4.41204 33.5208H4.41675H25.7966L24.7974 30.0057L27.2107 32.262L29.4919 34.39L33.5454 38V3.91875C33.5537 1.76225 31.825 0.0083125 29.6852 0C29.684 0 29.6816 0 29.6805 0ZM22.403 24.8188C22.403 24.8188 21.7243 24.0018 21.1587 23.275C22.5267 22.9532 23.7369 22.154 24.5759 21.0188C23.8971 21.4736 23.1701 21.85 22.4077 22.1397C21.531 22.5174 20.6131 22.7917 19.674 22.9568C18.0596 23.256 16.4029 23.2501 14.7909 22.9377C13.8447 22.7513 12.9162 22.4782 12.0194 22.1208C11.2618 21.8251 10.5383 21.4474 9.86072 20.995C10.6679 22.1065 11.8344 22.8998 13.1601 23.237C12.5945 23.959 11.8969 24.814 11.8969 24.814C9.62269 24.8757 7.46631 23.7928 6.14657 21.926C6.20666 18.0749 7.13284 14.2868 8.85676 10.849C10.3768 9.64606 12.2292 8.949 14.1593 8.854L14.3478 9.082C12.5332 9.53444 10.8411 10.3847 9.38937 11.571C9.38937 11.571 9.80414 11.343 10.5017 11.02C11.858 10.3966 13.3038 9.99163 14.7862 9.823C14.8922 9.80044 14.9995 9.78856 15.1067 9.785C16.3699 9.61875 17.6484 9.60688 18.9151 9.747C20.9065 9.97619 22.8343 10.5961 24.59 11.571C23.2125 10.4405 21.6123 9.61875 19.8955 9.158L20.1594 8.854C22.0896 8.949 23.9419 9.64606 25.462 10.849C27.1859 14.2868 28.1121 18.0749 28.1722 21.926C26.8418 23.7928 24.6819 24.8757 22.403 24.8188Z" fill="#FFF9ED"/>
</svg>
