<svg width="67" height="19" viewBox="0 0 67 19" fill="none" xmlns="http://www.w3.org/2000/svg">
<g opacity="0.5" clip-path="url(#clip0_1_439)">
<path d="M12.9045 8.20396H7.27436C7.12908 8.20396 7.01134 8.32112 7.01134 8.46544V11.2C7.01134 11.3443 7.12908 11.4616 7.27436 11.4616H9.47066V14.859C9.47066 14.859 8.97753 15.0261 7.61403 15.0261C6.00536 15.0261 3.75828 14.4422 3.75828 9.53335C3.75828 4.62455 6.09818 3.97759 8.29485 3.97759C10.1963 3.97759 11.0155 4.31022 11.5369 4.47043C11.7006 4.52033 11.8522 4.35826 11.8522 4.21394L12.4802 1.57179C12.4802 1.50416 12.4572 1.42285 12.3798 1.3676C12.1681 1.21755 10.8766 0.499634 7.61403 0.499634C3.85538 0.499819 0 2.08829 0 9.72498C0 17.3617 4.41417 18.4996 8.13376 18.4996C11.2136 18.4996 13.082 17.1922 13.082 17.1922C13.159 17.1499 13.1672 17.0431 13.1672 16.9941V8.46526C13.1672 8.32093 13.0494 8.20378 12.9042 8.20378L12.9045 8.20396Z" fill="#FFF9ED"/>
<path d="M41.9197 1.41518C41.9197 1.26975 41.8036 1.15222 41.6583 1.15222H38.4882C38.3435 1.15222 38.2258 1.26956 38.2258 1.41518C38.2258 1.41592 38.2265 7.5011 38.2265 7.5011H33.2852V1.41518C33.2852 1.26975 33.1685 1.15222 33.0236 1.15222H29.8537C29.7094 1.15222 29.5918 1.26956 29.5918 1.41518V17.8943C29.5918 18.0398 29.7094 18.158 29.8537 18.158H33.0236C33.1685 18.158 33.2852 18.0398 33.2852 17.8943V10.8456H38.2265C38.2265 10.8456 38.2179 17.894 38.2179 17.8945C38.2179 18.0399 38.3355 18.1582 38.4804 18.1582H41.6579C41.8032 18.1582 41.9193 18.0399 41.9195 17.8945V1.41518H41.9197Z" fill="#FFF9ED"/>
<path d="M18.8869 3.57742C18.8869 2.44354 17.9717 1.52716 16.8426 1.52716C15.7135 1.52716 14.7988 2.44354 14.7988 3.57742C14.7988 4.7113 15.7146 5.62916 16.8426 5.62916C17.9706 5.62916 18.8869 4.71038 18.8869 3.57742Z" fill="#FFF9ED"/>
<path d="M18.6602 14.418V6.81126C18.6602 6.66694 18.5428 6.54868 18.3979 6.54868H15.2378C15.0929 6.54868 14.9631 6.69725 14.9631 6.84157V17.7398C14.9631 18.0601 15.164 18.1552 15.424 18.1552H18.2712C18.5835 18.1552 18.6602 18.0028 18.6602 17.7347V14.4178V14.418Z" fill="#FFF9ED"/>
<path d="M53.9676 6.57349H50.8217C50.6774 6.57349 50.56 6.69157 50.56 6.837V14.9172C50.56 14.9172 49.7609 15.4982 48.6263 15.4982C47.4918 15.4982 47.191 14.9869 47.191 13.8835V6.837C47.191 6.69157 47.0738 6.57349 46.9295 6.57349H43.7367C43.5925 6.57349 43.4746 6.69157 43.4746 6.837V14.417C43.4746 17.6942 45.3132 18.496 47.8425 18.496C49.9175 18.496 51.5905 17.3572 51.5905 17.3572C51.5905 17.3572 51.6701 17.9574 51.7062 18.0285C51.7423 18.0995 51.8362 18.1712 51.9376 18.1712L53.9687 18.1623C54.1129 18.1623 54.2308 18.044 54.2308 17.8992L54.2299 6.837C54.2299 6.69157 54.1123 6.57349 53.9674 6.57349H53.9676Z" fill="#FFF9ED"/>
<path d="M62.5659 6.20331C60.7792 6.20331 59.564 6.99514 59.564 6.99514V1.41518C59.564 1.26975 59.447 1.15222 59.3024 1.15222H56.1234C55.9789 1.15222 55.8615 1.26956 55.8615 1.41518V17.8943C55.8615 18.0398 55.9789 18.158 56.124 18.158H58.3296C58.4289 18.158 58.5041 18.1072 58.5597 18.0181C58.6144 17.9296 58.6936 17.2583 58.6936 17.2583C58.6936 17.2583 59.9935 18.4822 62.4545 18.4822C65.3435 18.4822 67.0004 17.0264 67.0004 11.9468C67.0004 6.86727 64.3543 6.2035 62.5663 6.2035L62.5659 6.20331ZM61.3252 15.4882C60.234 15.4551 59.4939 14.9634 59.4939 14.9634V9.74466C59.4939 9.74466 60.224 9.30005 61.1198 9.22059C62.2527 9.11988 63.3442 9.45971 63.3442 12.1444C63.3442 14.9752 62.8516 15.534 61.3252 15.4882Z" fill="#FFF9ED"/>
<path d="M27.7713 6.54724H25.3932C25.3932 6.54724 25.3897 3.42704 25.3897 3.4263C25.3897 3.30822 25.3283 3.24908 25.1908 3.24908H21.9502C21.8243 3.24908 21.7566 3.30415 21.7566 3.42445V6.64943C21.7566 6.64943 20.1327 7.03897 20.0227 7.07039C19.9136 7.10199 19.833 7.20215 19.833 7.32152V9.34813C19.833 9.49393 19.9502 9.61146 20.0951 9.61146H21.7566V14.487C21.7566 18.1084 24.3136 18.4639 26.0389 18.4639C26.8272 18.4639 27.7703 18.2124 27.926 18.1553C28.0202 18.1209 28.0748 18.0241 28.0748 17.9189L28.0774 15.6896C28.0774 15.5442 27.9539 15.4265 27.8146 15.4265C27.6753 15.4265 27.3215 15.4825 26.9565 15.4825C25.7885 15.4825 25.3927 14.9431 25.3927 14.2445C25.3927 13.546 25.3927 9.61127 25.3927 9.61127H27.7707C27.9156 9.61127 28.0332 9.49374 28.0332 9.34794V6.80946C28.0332 6.66403 27.9158 6.54687 27.7707 6.54687L27.7713 6.54724Z" fill="#FFF9ED"/>
</g>
<defs>
<clipPath id="clip0_1_439">
<rect width="67" height="18" fill="white" transform="translate(0 0.5)"/>
</clipPath>
</defs>
</svg>
