<svg width="39" height="38" viewBox="0 0 39 38" fill="none" xmlns="http://www.w3.org/2000/svg">
<path fill-rule="evenodd" clip-rule="evenodd" d="M19.7812 0.46582C9.41181 0.46582 0.927734 9.01582 0.927734 19.4658C0.927734 27.8971 6.34811 35.0221 13.7717 37.5158C14.7144 37.6346 15.0679 37.1596 15.0679 36.5658V33.3596C9.76531 34.5471 8.7048 30.8658 8.7048 30.8658C7.87996 28.7283 6.58378 28.1346 6.58378 28.1346C4.81627 26.9471 6.70162 26.9471 6.70162 26.9471C8.58697 27.0658 9.64748 28.8471 9.64748 28.8471C11.2972 31.6971 14.0073 30.8658 15.1857 30.3908C15.3035 29.2033 15.8927 28.3721 16.364 27.8971C12.122 27.4221 7.76213 25.7596 7.76213 18.5158C7.76213 16.4971 8.46913 14.7158 9.64748 13.4096C9.41181 12.9346 8.82264 11.0346 9.88315 8.42207C9.88315 8.42207 11.415 7.94707 15.0679 10.3221C16.5997 9.84707 18.1316 9.72832 19.7812 9.72832C21.4309 9.72832 22.9628 9.96582 24.4946 10.3221C28.1475 7.82832 29.6793 8.30332 29.6793 8.30332C30.7398 10.9158 30.0328 12.8158 29.915 13.2908C31.0933 14.5971 31.8003 16.2596 31.8003 18.3971C31.8003 25.6408 27.4405 27.3033 23.1984 27.7783C23.9054 28.3721 24.4946 29.5596 24.4946 31.3408V36.5658C24.4946 37.0408 24.8481 37.6346 25.7908 37.5158C33.2144 35.0221 38.6347 27.8971 38.6347 19.4658C38.6347 9.01582 30.1507 0.46582 19.7812 0.46582Z" fill="#FFF9ED"/>
</svg>
