<svg width="36" height="36" viewBox="0 0 36 36" fill="none" xmlns="http://www.w3.org/2000/svg">
<path d="M18.2582 12.0625C15.0059 12.0625 12.3664 14.7225 12.3664 18C12.3664 21.2775 15.0059 23.9375 18.2582 23.9375C21.5104 23.9375 24.1499 21.2775 24.1499 18C24.1499 14.7225 21.5104 12.0625 18.2582 12.0625ZM18.2582 12.0625C15.0059 12.0625 12.3664 14.7225 12.3664 18C12.3664 21.2775 15.0059 23.9375 18.2582 23.9375C21.5104 23.9375 24.1499 21.2775 24.1499 18C24.1499 14.7225 21.5104 12.0625 18.2582 12.0625ZM35.8391 10.6612C35.8037 9.17687 35.5209 7.71625 35.0142 6.32687C34.5665 5.13937 33.8712 4.07062 32.9757 3.18C32.0919 2.2775 31.0196 1.565 29.8413 1.12562C28.4626 0.603125 27.0133 0.318125 25.5521 0.294375C23.655 0.21125 23.054 0.1875 18.2582 0.1875C13.4623 0.1875 12.8496 0.21125 10.976 0.294375C9.50307 0.33 8.05372 0.603125 6.67505 1.12562C5.49671 1.57687 4.4362 2.2775 3.55244 3.18C2.6569 4.07062 1.94989 5.13937 1.5139 6.32687C0.995429 7.71625 0.71263 9.17687 0.689063 10.6612C0.606579 12.5494 0.583008 13.1669 0.583008 18C0.583008 22.8331 0.606579 23.4387 0.689063 25.3387C0.724414 26.8231 0.995429 28.2837 1.5139 29.6731C1.96167 30.8606 2.6569 31.9294 3.55244 32.82C4.4362 33.7225 5.50849 34.435 6.68683 34.8744C8.05371 35.3969 9.50307 35.6819 10.976 35.7056C12.8614 35.8006 13.4623 35.8125 18.2582 35.8125C23.054 35.8125 23.6668 35.8006 25.5521 35.7056C27.0133 35.6819 28.4626 35.3969 29.8413 34.8744C32.2098 33.9481 34.0951 32.06 35.0142 29.6731C35.5209 28.2837 35.8037 26.8231 35.8391 25.3387C35.9216 23.4387 35.9451 22.8331 35.9451 18C35.9451 13.1669 35.9216 12.5494 35.8391 10.6612ZM18.2582 27.1437C13.2502 27.1437 9.18492 23.0469 9.18492 18C9.18492 12.9531 13.2502 8.85625 18.2582 8.85625C23.2661 8.85625 27.3314 12.9531 27.3314 18C27.3314 23.0469 23.2661 27.1437 18.2582 27.1437ZM27.6967 10.6256C26.5184 10.6256 25.5757 9.67562 25.5757 8.48812C25.5757 7.3125 26.5184 6.35062 27.6967 6.35062C28.8633 6.35062 29.8177 7.3125 29.8177 8.48812C29.8177 9.67562 28.8633 10.6256 27.6967 10.6256ZM18.2582 12.0625C15.0059 12.0625 12.3664 14.7225 12.3664 18C12.3664 21.2775 15.0059 23.9375 18.2582 23.9375C21.5104 23.9375 24.1499 21.2775 24.1499 18C24.1499 14.7225 21.5104 12.0625 18.2582 12.0625Z" fill="#FFF9ED"/>
</svg>
