<svg width="608" height="492" viewBox="0 0 608 492" fill="none" xmlns="http://www.w3.org/2000/svg">
<path opacity="0.5" d="M44.5742 292.503C44.5743 292.504 44.5744 292.504 44.5745 292.504L43.4015 293.452L44.5742 292.503ZM44.5742 292.503C43.4265 291.2 42.1173 289.725 40.6899 288.117C35.6898 282.484 29.2393 275.217 23.2034 267.968C19.3254 263.311 15.634 258.68 12.6218 254.515C9.59263 250.326 7.31216 246.691 6.19189 244.008C2.32142 234.736 0.787341 224.585 3.29906 215.058C4.09005 212.057 5.19253 209.123 6.59928 206.303M44.5742 292.503L6.59928 206.303M6.59928 206.303C9.55291 201.159 13.4131 196.538 18.0075 192.643C27.6823 184.473 38.2527 177.34 49.5262 171.371L48.7882 170.088L49.5263 171.371C52.2314 169.938 55.0155 168.64 57.8469 167.354L6.59928 206.303Z" stroke="url(#paint0_linear_38_5435)" stroke-width="3"/>
<defs>
<linearGradient id="paint0_linear_38_5435" x1="529.583" y1="-39.4932" x2="307.136" y2="541.382" gradientUnits="userSpaceOnUse">
<stop stop-color="#F87216"/>
<stop offset="1" stop-color="#F87216" stop-opacity="0.07"/>
</linearGradient>
</defs>
</svg>
