<svg width="101" height="25" viewBox="0 0 101 25" fill="none" xmlns="http://www.w3.org/2000/svg">
<g opacity="0.5" clip-path="url(#clip0_1_448)">
<path d="M40.4031 17.9968H38.1208V12.1402C38.1208 11.4872 37.959 10.9742 37.636 10.6012C37.3129 10.2149 36.8683 10.0216 36.3031 10.0216C35.6569 10.0216 35.1518 10.235 34.7885 10.6614C34.4386 11.0878 34.2635 11.6742 34.2635 12.4202V17.9968H31.9609V8.20254H34.2228V9.06213C34.8421 8.32933 35.6971 7.96268 36.7879 7.96268C38.0131 7.96268 38.9352 8.38905 39.555 9.24179C40.3227 8.38905 41.3524 7.96268 42.6451 7.96268C43.9378 7.96268 44.914 8.33569 45.5735 9.0822C46.2469 9.81501 46.5833 10.888 46.5833 12.3003V17.9973H44.2807V12.1407C44.2807 11.4877 44.119 10.9747 43.7959 10.6017C43.4729 10.2154 43.0282 10.0221 42.463 10.0221C41.8169 10.0221 41.3117 10.2419 40.9484 10.6815C40.5847 11.1078 40.4031 11.6874 40.4031 12.4207V17.9973V17.9968Z" fill="#FFF9ED"/>
<path d="M57.7837 12.9797L57.7633 13.7791H50.9975C51.0516 14.5119 51.3141 15.0915 51.7855 15.5179C52.2564 15.9443 52.8624 16.1577 53.6028 16.1577C54.6667 16.1577 55.5148 15.698 56.1475 14.7787L57.7028 16.2179C56.6527 17.5504 55.286 18.2166 53.6028 18.2166C52.1086 18.2166 50.9101 17.7501 50.0079 16.8176C49.0924 15.8713 48.6348 14.6519 48.6348 13.1599C48.6348 11.7075 49.0522 10.4749 49.8869 9.46207C50.735 8.46247 51.8595 7.96268 53.2599 7.96268C54.7541 7.96268 55.8786 8.45562 56.6324 9.442C57.4001 10.4279 57.7837 11.6076 57.7837 12.9797ZM53.2797 10.0417C52.7011 10.0417 52.2227 10.2213 51.8461 10.5811C51.4823 10.9409 51.2401 11.4006 51.1191 11.9601H55.3401C55.3262 11.4138 55.1446 10.9605 54.7948 10.6007C54.4444 10.2277 53.9397 10.0412 53.2797 10.0412V10.0417Z" fill="#FFF9ED"/>
<path d="M64.5663 7.96268C65.6699 7.96268 66.5925 8.28233 67.3329 8.92213V3.98486H69.6354V17.9968H67.3735V17.1171C66.6733 17.8499 65.7374 18.2166 64.5663 18.2166C63.1659 18.2166 62.0081 17.7369 61.0925 16.7774C60.1904 15.8047 59.7393 14.5785 59.7393 13.0997C59.7393 11.6208 60.1904 10.3946 61.0925 9.42193C61.9942 8.44926 63.1525 7.96268 64.5663 7.96268ZM66.6664 10.8611C66.1955 10.2747 65.5488 9.98145 64.7276 9.98145C63.9063 9.98145 63.2601 10.2747 62.7887 10.8611C62.3178 11.4476 62.082 12.1936 62.082 13.0997C62.082 14.0058 62.3178 14.7518 62.7887 15.3382C63.2601 15.9247 63.9063 16.2179 64.7276 16.2179C65.5488 16.2179 66.1955 15.9247 66.6664 15.3382C67.1378 14.7518 67.3735 14.0058 67.3735 13.0997C67.3735 12.1936 67.1378 11.4471 66.6664 10.8611Z" fill="#FFF9ED"/>
<path d="M72.1699 8.20251H74.4725V14.0591C74.4725 14.7121 74.6338 15.232 74.9574 15.6182C75.2804 15.9912 75.738 16.1777 76.3305 16.1777C76.9632 16.1777 77.4614 15.9579 77.8252 15.5179C78.2018 15.0646 78.3904 14.4654 78.3904 13.7189V8.20251H80.693V17.9968H78.4311V17.1974C77.7979 17.8768 76.9433 18.2171 75.866 18.2171C74.735 18.2171 73.8329 17.8372 73.1594 17.0779C72.4999 16.305 72.1699 15.2457 72.1699 13.8995V8.20251Z" fill="#FFF9ED"/>
<path d="M87.5155 14.299L86.2024 13.9793C84.1966 13.5128 83.1932 12.4804 83.1932 10.8811C83.1932 10.0015 83.5301 9.29511 84.203 8.76252C84.8765 8.22943 85.7449 7.96313 86.8083 7.96313C88.2356 7.96313 89.4812 8.50944 90.5451 9.60204L89.0707 11.1611C88.4648 10.3348 87.6907 9.92169 86.7478 9.92169C86.3439 9.92169 86.0144 10.0152 85.7583 10.2017C85.5161 10.375 85.395 10.5879 85.395 10.8415C85.395 11.2948 85.7181 11.6012 86.3642 11.7608L87.9195 12.1206C89.9392 12.5739 90.9491 13.5931 90.9491 15.1791C90.9491 16.0852 90.5987 16.818 89.8985 17.378C89.2122 17.9375 88.2559 18.2175 87.0307 18.2175C85.3072 18.2175 83.9405 17.5846 82.9307 16.3187L84.3852 14.8394C85.1122 15.7856 86.0546 16.2585 87.2123 16.2585C88.2222 16.2585 88.7273 15.9251 88.7273 15.2589C88.7273 14.8325 88.3234 14.5129 87.5155 14.2994V14.299Z" fill="#FFF9ED"/>
<path d="M95.9105 18.2166C94.9547 18.2166 94.1602 17.9503 93.5275 17.4172C92.8948 16.8709 92.5782 16.1445 92.5782 15.2384C92.5782 14.1991 92.9553 13.3929 93.7091 12.8197C94.4634 12.2469 95.4594 11.9601 96.6985 11.9601C97.3179 11.9601 97.9843 12.0732 98.6979 12.2998V11.6404C98.6979 11.1607 98.5158 10.7745 98.1525 10.4812C97.7888 10.1748 97.3243 10.0216 96.7591 10.0216C95.7224 10.0216 94.9413 10.4945 94.4163 11.4407L92.8611 10.0015C93.2243 9.3485 93.7563 8.8487 94.4565 8.50261C95.1701 8.14282 95.9442 7.96317 96.7789 7.96317C98.0851 7.96317 99.1153 8.28282 99.8691 8.92262C100.623 9.56242 101 10.4749 101 11.661V17.9973H98.7381V17.2376C97.9977 17.8906 97.0553 18.2171 95.9105 18.2171V18.2166ZM94.8808 15.0783C94.8808 15.4117 95.0083 15.6848 95.2644 15.8977C95.5338 16.1107 95.904 16.2174 96.375 16.2174C97.3447 16.2174 98.1188 15.9374 98.6979 15.3779V14.2584C97.9709 13.9921 97.2841 13.8584 96.6375 13.8584C96.0991 13.8584 95.6683 13.9651 95.3453 14.1781C95.0356 14.391 94.8808 14.6911 94.8808 15.0773V15.0783Z" fill="#FFF9ED"/>
<path d="M19.6177 4.40046L14.1461 1.27538C12.3556 0.25033 10.1622 0.25033 8.37171 1.27538L2.87477 4.40046C1.10961 5.42551 0 7.32532 0 9.34996V15.6246C0 17.6747 1.10961 19.5495 2.87477 20.5746L8.34641 23.7246C10.1369 24.7497 12.3303 24.7497 14.1208 23.7246L19.5924 20.5746C21.3829 19.5495 22.4672 17.6747 22.4672 15.6246V9.34996C22.5178 7.32532 21.4082 5.42502 19.6177 4.39997V4.40046ZM11.246 18.0746C8.14443 18.0746 5.62299 15.5747 5.62299 12.5C5.62299 9.42535 8.14443 6.92539 11.246 6.92539C14.3475 6.92539 16.8943 9.42535 16.8943 12.5C16.8943 15.5747 14.3728 18.0746 11.246 18.0746Z" fill="#FFF9ED"/>
</g>
<defs>
<clipPath id="clip0_1_448">
<rect width="101" height="24" fill="white" transform="translate(0 0.5)"/>
</clipPath>
</defs>
</svg>
