<svg width="101" height="25" viewBox="0 0 101 25" fill="none" xmlns="http://www.w3.org/2000/svg">
<g opacity="0.5" clip-path="url(#clip0_1_456)">
<path d="M84.285 18.4533C88.1049 18.4533 90.3684 16.0076 90.3684 11.9435C90.3684 7.89783 88.1039 5.46087 84.3722 5.46087H80.0398V18.4533H84.285ZM82.3075 16.4196V7.49891H84.2425C86.7887 7.49891 88.1124 8.97174 88.1124 11.9446C88.1124 14.9337 86.7887 16.4196 84.1755 16.4196H82.3075ZM91.6389 18.4522H96.7101C99.5796 18.4522 100.987 16.937 100.987 14.9163C100.987 12.95 99.6413 11.7957 98.3081 11.7228V11.5957C99.5296 11.2989 100.498 10.4109 100.498 8.83152C100.498 6.89565 99.1511 5.46087 96.4358 5.46087H91.6389V18.4522ZM93.9066 16.487V12.6826H96.4103C97.8105 12.6826 98.678 13.5707 98.678 14.7294C98.678 15.7652 97.9934 16.487 96.3487 16.487H93.9066ZM93.9066 10.9891V7.40544H96.203C97.5362 7.40544 98.2294 8.13152 98.2294 9.13696C98.2294 10.275 97.3321 10.9891 96.153 10.9891H93.9066ZM43.1738 11.9739C43.1738 7.85978 40.7529 5.43478 37.5337 5.43478C34.3123 5.43478 31.8947 7.8587 31.8947 11.9739C31.8947 16.0793 34.3113 18.5087 37.5337 18.5087C38.3151 18.5087 39.0455 18.3641 39.71 18.0924L40.7232 19.425H42.8793L41.1761 17.1663C42.4093 16.0457 43.1748 14.275 43.1748 11.9739H43.1738ZM36.7778 14.0587L38.4395 16.3217C38.1442 16.403 37.8395 16.4433 37.5337 16.4413C35.536 16.4413 34.1284 14.8652 34.1284 11.9739C34.1284 9.07826 35.5371 7.50326 37.5337 7.50326C39.5356 7.50326 40.9401 9.07826 40.9401 11.9739C40.9401 13.5359 40.5286 14.713 39.8344 15.463L38.7925 14.0587H36.7778ZM50.3331 14.1522C50.3331 15.6043 49.3337 16.3261 48.3737 16.3261C47.3318 16.3261 46.6375 15.562 46.6375 14.3478V8.61957H44.4687V14.6957C44.4687 16.9891 45.7073 18.3554 47.5178 18.3554C48.8967 18.3554 49.8855 17.5359 50.3044 16.4663H50.4V18.3554H52.5019V8.61957H50.3331V14.1522ZM58.2536 18.5217C60.4012 18.5217 61.8747 17.4348 62.2564 15.7739L60.23 15.5359C59.9398 16.3467 59.2168 16.7674 58.2823 16.7674C56.8832 16.7674 55.9529 15.812 55.9359 14.1772H62.3478V13.4891C62.3478 10.1391 60.4044 8.66631 58.1409 8.66631C55.5043 8.66631 53.7851 10.6739 53.7851 13.6163C53.7851 16.6141 55.4787 18.5207 58.2536 18.5207V18.5217ZM55.9402 12.662C56.0061 11.4435 56.8747 10.4196 58.1707 10.4196C59.4156 10.4196 60.2545 11.362 60.2672 12.662H55.9402ZM71.1603 11.3109C70.8626 9.69783 69.6156 8.66631 67.4605 8.66631C65.2428 8.66631 63.731 9.79565 63.7395 11.562C63.731 12.9543 64.5581 13.8717 66.3261 14.2533L67.8964 14.5935C68.7438 14.7848 69.1382 15.1413 69.1382 15.6804C69.1382 16.3348 68.4525 16.8217 67.4233 16.8217C66.4303 16.8217 65.7829 16.3761 65.5947 15.5196L63.4822 15.7315C63.7522 17.4815 65.1726 18.5207 67.4318 18.5207C69.7325 18.5207 71.3549 17.2859 71.3602 15.4772C71.3559 14.1141 70.5086 13.2815 68.7725 12.8902L67.2032 12.5424C66.2677 12.3261 65.8956 11.9902 65.903 11.4391C65.8945 10.7935 66.5834 10.3435 67.4892 10.3435C68.4907 10.3435 69.0181 10.9087 69.1839 11.5359L71.1603 11.3109ZM77.7678 8.78913H75.9498V6.50544H73.781V8.78913H72.4776V10.5304H73.781V15.837C73.7682 17.6337 75.027 18.512 76.659 18.4652C77.2735 18.4435 77.7009 18.3217 77.9348 18.2402L77.569 16.4826C77.361 16.5359 77.1477 16.5644 76.9333 16.5674C76.3889 16.5674 75.9488 16.3717 75.9488 15.4641V10.5293H77.7678V8.78913Z" fill="#FFF9ED"/>
<path d="M4.61033 12.5087C4.61033 8.19022 8.05709 4.71305 12.3352 4.71305C13.88 4.71305 15.3046 5.15 16.4922 5.95218L19.8188 2.63261C17.6643 0.965723 15.035 0.0662433 12.3331 0.0717414C5.52465 0.0717414 0.0185547 5.63044 0.0185547 12.5087C0.0185547 19.3913 5.52571 24.9489 12.3363 24.9489V20.3076C8.05815 20.3076 4.6114 16.8304 4.6114 12.5087H4.61033Z" fill="#FFF9ED"/>
<path d="M20.0539 12.5087H24.6467C24.6467 9.23046 23.3816 6.23264 21.3212 3.99133L18.0732 7.27394C19.3445 8.70803 20.0503 10.5733 20.0539 12.5087Z" fill="#FFF9ED"/>
<path d="M16.0965 12.9119H9.32422L21.2847 24.988L28.0167 24.9489L16.0965 12.9119Z" fill="#FFF9ED"/>
<path d="M1.64045 6.31412C-1.32895 15.0315 7.54097 18.6696 7.54097 18.6696C6.59051 17.9522 5.40296 16.2706 5.04574 15.0685C4.29409 12.5891 4.53117 10.6315 5.76018 8.47064" fill="#FFF9ED"/>
</g>
<defs>
<clipPath id="clip0_1_456">
<rect width="101" height="25" fill="white"/>
</clipPath>
</defs>
</svg>
