<svg width="113" height="23" viewBox="0 0 113 23" fill="none" xmlns="http://www.w3.org/2000/svg">
<g opacity="0.5" clip-path="url(#clip0_1_466)">
<path d="M29.4456 13.5885C29.5621 14.7286 30.553 16.683 33.4288 16.683C35.9352 16.683 37.1401 15.0136 37.1401 13.3849C37.1401 11.9191 36.1878 10.7179 34.3032 10.3107L32.9429 10.0054C32.4184 9.90358 32.0687 9.59821 32.0687 9.1096C32.0687 8.53954 32.6127 8.11205 33.2928 8.11205C34.3808 8.11205 34.7888 8.86529 34.8666 9.45572L37.0234 8.94674C36.9069 7.86774 35.9935 6.05585 33.2734 6.05585C31.2137 6.05585 29.6982 7.54201 29.6982 9.33353C29.6982 10.7383 30.5335 11.8987 32.3795 12.3262L33.6425 12.6316C34.3808 12.7945 34.6723 13.161 34.6723 13.6088C34.6723 14.1382 34.2643 14.6064 33.4093 14.6064C32.2824 14.6064 31.7188 13.8735 31.6606 13.0795L29.4456 13.5885Z" fill="#FFF9ED"/>
<path d="M45.3986 16.3776H47.8663C47.8274 16.0315 47.769 15.3393 47.769 14.5657V6.36121H45.1846V12.1837C45.1846 13.3442 44.5241 14.1585 43.3778 14.1585C42.1731 14.1585 41.6289 13.2627 41.6289 12.143V6.36121H39.0447V12.6927C39.0447 14.8711 40.3659 16.6423 42.6782 16.6423C43.6884 16.6423 44.7964 16.2351 45.321 15.2986C45.321 15.7058 45.3597 16.174 45.3986 16.3776Z" fill="#FFF9ED"/>
<path d="M53.1112 20.2457V15.4004C53.5773 16.0722 54.549 16.622 55.8704 16.622C58.5711 16.622 60.378 14.3825 60.378 11.3491C60.378 8.37675 58.7654 6.1373 55.9675 6.1373C54.5298 6.1373 53.461 6.8091 53.0336 7.58276V6.36123H50.5271V20.2457H53.1112ZM57.8326 11.3694C57.8326 13.161 56.7836 14.1993 55.4622 14.1993C54.1412 14.1993 53.0725 13.1406 53.0725 11.3694C53.0725 9.59825 54.1412 8.55995 55.4622 8.55995C56.7836 8.55995 57.8326 9.59825 57.8326 11.3694Z" fill="#FFF9ED"/>
<path d="M61.8418 13.6496C61.8418 15.2172 63.0852 16.6626 65.1256 16.6626C66.5436 16.6626 67.457 15.9704 67.9426 15.1764C67.9426 15.5633 67.9815 16.1129 68.0399 16.3776H70.4103C70.352 16.0315 70.294 15.3189 70.294 14.7896V9.86286C70.294 7.84736 69.167 6.05585 66.136 6.05585C63.571 6.05585 62.1913 7.78628 62.0361 9.3539L64.3288 9.86286C64.4066 8.98745 65.0284 8.23419 66.1551 8.23419C67.2434 8.23419 67.768 8.82458 67.768 9.53713C67.768 9.88323 67.5933 10.1683 67.0491 10.2497L64.6981 10.6161C63.1048 10.8604 61.8418 11.858 61.8418 13.6496ZM65.6694 14.6471C64.8341 14.6471 64.4258 14.0771 64.4258 13.4867C64.4258 12.7131 64.9504 12.3262 65.6113 12.2245L67.768 11.8784V12.3262C67.768 14.0975 66.7576 14.6471 65.6694 14.6471Z" fill="#FFF9ED"/>
<path d="M75.4052 16.3777V15.1561C75.9101 16.0112 76.9205 16.622 78.2419 16.622C80.9625 16.622 82.75 14.3621 82.75 11.3287C82.75 8.35637 81.1371 6.09659 78.3392 6.09659C76.9205 6.09659 75.8714 6.74806 75.4439 7.46057V1.63806H72.8986V16.3777H75.4052ZM80.1654 11.3491C80.1654 13.1813 79.1163 14.1993 77.795 14.1993C76.4932 14.1993 75.4052 13.161 75.4052 11.3491C75.4052 9.51679 76.4932 8.51924 77.795 8.51924C79.1163 8.51924 80.1654 9.51679 80.1654 11.3491Z" fill="#FFF9ED"/>
<path d="M84.2129 13.6496C84.2129 15.2172 85.4563 16.6626 87.4965 16.6626C88.9147 16.6626 89.8283 15.9704 90.3137 15.1764C90.3137 15.5633 90.3528 16.1129 90.411 16.3776H92.7814C92.7235 16.0315 92.6651 15.3189 92.6651 14.7896V9.86286C92.6651 7.84736 91.5381 6.05585 88.5069 6.05585C85.9421 6.05585 84.5626 7.78628 84.4072 9.3539L86.6997 9.86286C86.7777 8.98745 87.3995 8.23419 88.5261 8.23419C89.6145 8.23419 90.1391 8.82458 90.1391 9.53713C90.1391 9.88323 89.9642 10.1683 89.42 10.2497L87.0692 10.6161C85.4759 10.8604 84.2129 11.858 84.2129 13.6496ZM88.0407 14.6471C87.2052 14.6471 86.7969 14.0771 86.7969 13.4867C86.7969 12.7131 87.3215 12.3262 87.9823 12.2245L90.1391 11.8784V12.3262C90.1391 14.0975 89.1287 14.6471 88.0407 14.6471Z" fill="#FFF9ED"/>
<path d="M94.4542 13.5885C94.5705 14.7286 95.5616 16.683 98.4372 16.683C100.944 16.683 102.148 15.0136 102.148 13.3849C102.148 11.9191 101.196 10.7179 99.3116 10.3107L97.9514 10.0054C97.4268 9.90358 97.0773 9.59821 97.0773 9.1096C97.0773 8.53954 97.6211 8.11205 98.3012 8.11205C99.3896 8.11205 99.7975 8.86529 99.8755 9.45572L102.032 8.94674C101.915 7.86774 101.002 6.05585 98.282 6.05585C96.2221 6.05585 94.7068 7.54201 94.7068 9.33353C94.7068 10.7383 95.542 11.8987 97.3881 12.3262L98.6511 12.6316C99.3896 12.7945 99.681 13.161 99.681 13.6088C99.681 14.1382 99.2729 14.6064 98.4179 14.6064C97.2909 14.6064 96.7276 13.8735 96.6693 13.0795L94.4542 13.5885Z" fill="#FFF9ED"/>
<path d="M106.073 10.2293C106.132 9.3132 106.87 8.25452 108.211 8.25452C109.687 8.25452 110.309 9.23176 110.348 10.2293H106.073ZM110.601 12.8352C110.29 13.731 109.629 14.3621 108.424 14.3621C107.142 14.3621 106.073 13.4052 106.015 12.082H112.855C112.855 12.0412 112.893 11.6341 112.893 11.2472C112.893 8.03059 111.125 6.05585 108.172 6.05585C105.724 6.05585 103.469 8.13238 103.469 11.3287C103.469 14.7082 105.782 16.683 108.405 16.683C110.756 16.683 112.272 15.2375 112.757 13.507L110.601 12.8352Z" fill="#FFF9ED"/>
<path d="M12.3902 22.4472C11.8341 23.1801 10.7064 22.7786 10.693 21.8427L10.4971 8.15436H19.292C20.8849 8.15436 21.7734 10.0799 20.7828 11.3855L12.3902 22.4472Z" fill="#FFF9ED"/>
<path d="M12.3902 22.4472C11.8341 23.1801 10.7064 22.7786 10.693 21.8427L10.4971 8.15436H19.292C20.8849 8.15436 21.7734 10.0799 20.7828 11.3855L12.3902 22.4472Z" fill="url(#paint0_linear_1_466)" fill-opacity="0.2"/>
<path d="M8.8138 0.421522C9.36995 -0.311506 10.4976 0.0901404 10.511 1.02603L10.5969 14.7143H1.91207C0.319036 14.7143 -0.569429 12.7888 0.421168 11.4832L8.8138 0.421522Z" fill="#FFF9ED"/>
</g>
<defs>
<linearGradient id="paint0_linear_1_466" x1="7.03161" y1="6.22384" x2="10.8556" y2="13.1024" gradientUnits="userSpaceOnUse">
<stop/>
<stop offset="1" stop-opacity="0"/>
</linearGradient>
<clipPath id="clip0_1_466">
<rect width="113" height="23" fill="white"/>
</clipPath>
</defs>
</svg>
