<svg width="68" height="27" viewBox="0 0 68 27" fill="none" xmlns="http://www.w3.org/2000/svg">
<g opacity="0.5">
<path fill-rule="evenodd" clip-rule="evenodd" d="M31.4579 3.375C30.877 3.375 30.387 3.57641 29.988 3.97934C29.5886 4.38228 29.3893 4.87033 29.3893 5.44324C29.3893 6.01653 29.5886 6.49993 29.988 6.89357C30.387 7.2877 30.877 7.48447 31.4579 7.48447C32.0383 7.48447 32.5283 7.2877 32.9276 6.89357C33.3267 6.49993 33.5264 6.01653 33.5264 5.44324C33.5264 4.87033 33.3267 4.38228 32.9276 3.97934C32.5283 3.57641 32.0383 3.375 31.4579 3.375ZM66.9752 12.8215C66.6669 12.1069 66.2731 11.5439 65.7934 11.1326C65.3133 10.7217 64.7925 10.4356 64.2312 10.2747C63.6698 10.1139 63.1448 10.0335 62.6557 10.0335C62.2932 10.0335 61.9175 10.0742 61.5282 10.1554C61.1386 10.2366 60.7629 10.3628 60.4009 10.5336C60.0383 10.705 59.7035 10.921 59.3956 11.1825C59.0876 11.4438 58.8252 11.7453 58.6078 12.0876C58.3542 11.6915 58.0689 11.3626 57.7522 11.1012C57.6867 11.0471 57.6201 10.9965 57.5533 10.9466V10.9521C57.1367 10.6373 56.6914 10.4107 56.217 10.2747C55.6554 10.1139 55.1303 10.0335 54.6413 10.0335C54.2789 10.0335 53.9033 10.0742 53.5139 10.1554C53.1242 10.2366 52.7486 10.3628 52.3866 10.5336C52.0241 10.705 51.689 10.921 51.3813 11.1825C51.0732 11.4438 50.811 11.7453 50.5935 12.0876C50.3397 11.6915 50.0545 11.3626 49.7379 11.1012C49.6723 11.0471 49.6057 10.9965 49.539 10.9466C49.2829 10.7557 49.0191 10.5948 48.7462 10.4661C48.4021 10.3041 48.0488 10.1914 47.6868 10.1282C47.3243 10.0654 46.9805 10.0335 46.6544 10.0335C46.0203 10.0335 45.4273 10.1419 44.8751 10.358C44.3224 10.5743 43.8381 10.8805 43.4217 11.2768L42.8784 10.0335H39.6727V23.3301H43.4217V16.2985C43.4217 15.2827 43.6296 14.5342 44.0466 14.0529C44.463 13.5718 44.9336 13.3308 45.4592 13.3308C46.1834 13.3308 46.7359 13.545 47.1162 13.9726C47.4966 14.4006 47.6868 15.1579 47.6868 16.245V23.3301H49.539H51.4357V16.2185C51.4357 15.6481 51.4944 15.1759 51.6122 14.8015C51.7299 14.427 51.8882 14.133 52.0877 13.9189C52.2868 13.7053 52.513 13.5537 52.7669 13.4645C53.0203 13.3756 53.2736 13.3308 53.5276 13.3308C53.7992 13.3308 54.0661 13.3797 54.3288 13.4778C54.5912 13.5759 54.8222 13.7408 55.0215 13.9726C55.2207 14.2047 55.3791 14.5074 55.497 14.8815C55.6146 15.256 55.6736 15.7104 55.6736 16.245V23.3301H57.5533H59.4227H59.45V16.2185C59.45 15.6481 59.5086 15.1759 59.6266 14.8015C59.7441 14.427 59.9026 14.133 60.102 13.9189C60.3013 13.7053 60.5274 13.5537 60.7813 13.4645C61.0346 13.3756 61.2879 13.3308 61.5418 13.3308C61.8136 13.3308 62.0805 13.3797 62.3433 13.4778C62.6056 13.5759 62.8365 13.7408 63.036 13.9726C63.235 14.2047 63.3936 14.5074 63.5114 14.8815C63.6291 15.256 63.688 15.7104 63.688 16.245V23.3301H67.437V15.5558C67.437 14.4479 67.2829 13.5365 66.9752 12.8215ZM34.9887 15.916L34.4369 14.0258L33.2714 10.0335H29.4137L31.4474 16.7141L33.4614 23.3301H37.1721L36.1014 19.6942L36.0967 19.7109L34.9887 15.916ZM21.2158 10.0335L18.4993 19.6574L15.7011 10.0335H11.8435L15.8913 23.33H20.6183L22.5741 16.9231L22.7915 15.0198L22.9816 16.9231L24.9376 23.33H25.9812L27.0518 19.6942L24.3399 10.0335H21.2158ZM7.72881 15.7167C8.19053 15.8956 8.59343 16.1101 8.93772 16.36C9.93351 17.0571 10.4318 18.049 10.4318 19.3356C10.4318 19.9255 10.2913 20.4796 10.0108 20.9978C9.72978 21.5164 9.34524 21.9721 8.85612 22.365C8.36713 22.7584 7.79674 23.0665 7.14476 23.2898C6.49281 23.5131 5.79525 23.625 5.05295 23.625C4.49134 23.625 3.94335 23.5533 3.40936 23.4105C2.87488 23.2677 2.3813 23.0712 1.92886 22.8207C1.4758 22.5707 1.08197 22.2712 0.747007 21.9227C0.411671 21.5741 0.162959 21.1853 0 20.7565C0.416381 20.5601 0.878241 20.341 1.38546 20.0998C1.8923 19.8584 2.33632 19.6398 2.71663 19.4429C2.8796 19.7111 3.13302 19.9568 3.47728 20.1802C3.82116 20.4038 4.29232 20.5153 4.88987 20.5153C5.5054 20.5153 5.95834 20.3724 6.24819 20.0864C6.53767 19.8006 6.68291 19.5325 6.68291 19.2821C6.68291 19.1037 6.58316 18.9382 6.38401 18.7862C6.18449 18.6346 5.95834 18.5139 5.70491 18.4243C5.34244 18.2814 5.04353 18.2056 4.80846 18.1964C4.57288 18.1876 4.30124 18.1386 3.99354 18.049C3.01541 17.817 2.26841 17.5087 1.75227 17.1241C1.23613 16.74 0.859901 16.3513 0.624819 15.9579C0.389242 15.5651 0.258007 15.1898 0.230868 14.832C0.203729 14.4748 0.190222 14.1887 0.190222 13.9743C0.190222 13.4024 0.316747 12.8575 0.570417 12.339C0.82384 11.8207 1.17244 11.3696 1.61645 10.9852C2.05997 10.6011 2.57611 10.2928 3.16499 10.0603C3.75325 9.8282 4.38265 9.71177 5.05295 9.71177C5.61407 9.71177 6.14855 9.79223 6.65565 9.95308C7.16251 10.1139 7.62423 10.3376 8.04121 10.6232C8.45764 10.9094 8.81538 11.2491 9.11425 11.642C9.41304 12.0353 9.63465 12.4729 9.77976 12.9556L6.8731 13.9205C6.76445 13.5988 6.54238 13.34 6.20742 13.1432C5.87209 12.9468 5.51469 12.8484 5.13437 12.8484C4.75405 12.8484 4.44585 12.9736 4.21065 13.2237C3.9752 13.4741 3.85759 13.7242 3.85759 13.9743C3.85759 14.2783 3.97049 14.515 4.19727 14.6846C4.42331 14.8546 4.67263 14.9753 4.94427 15.0464C5.1433 15.0825 5.33822 15.1136 5.52832 15.1404C5.71842 15.1671 5.90393 15.1984 6.08523 15.2341C6.71897 15.3774 7.26696 15.5383 7.72881 15.7167Z" fill="#FFF9ED"/>
</g>
</svg>
