<svg width="117" height="22" viewBox="0 0 117 22" fill="none" xmlns="http://www.w3.org/2000/svg">
<path d="M2.04883 0.911577H6.02942V4.44151H8.89778V7.25383H6.02942V13.053C6.02942 14.2749 6.41967 14.5077 7.74654 14.5077H8.89778V17.3782H6.36114C3.14154 17.3782 2.04883 16.7575 2.04883 13.7512V7.25383H0V4.44151H2.04883V0.911577ZM22.4006 13.3439C21.2298 16.4084 18.498 17.7273 15.9028 17.7273C11.6686 17.7273 8.7612 15.1865 8.7612 10.8613C8.7612 6.71076 11.9223 4.0924 15.7467 4.0924C20.0786 4.0924 22.7323 7.35081 22.4591 11.9475H12.8003C12.9174 13.79 14.3613 14.624 15.8053 14.624C17.3273 14.624 18.2834 14.081 18.7322 13.3245L22.4006 13.3439ZM12.8589 9.54247H18.498C18.42 7.91327 17.2882 7.09867 15.7662 7.09867C14.3223 7.09867 13.0735 7.83568 12.8589 9.54247ZM36.157 9.19336H32.4496C32.0984 7.68052 31.1422 7.15685 29.9715 7.15685C28.5471 7.15685 27.1421 8.12661 27.1421 10.9001C27.1421 13.7124 28.5471 14.6434 29.9715 14.6434C31.4349 14.6434 32.352 13.887 32.6447 12.6457H36.3521C35.4545 16.486 32.3325 17.7079 29.7178 17.7079C25.425 17.7079 23.064 14.9731 23.064 10.842C23.064 6.71076 25.7763 4.07301 29.7178 4.07301C32.4106 4.07301 35.3765 5.29491 36.157 9.19336ZM40.7815 6.16769C41.3474 5.19793 42.7718 4.16998 44.8206 4.16998C48.1573 4.16998 49.211 6.1289 49.211 9.63944V17.4169H45.2304V10.648C45.2304 8.80545 45.1719 7.29262 43.2401 7.29262C41.523 7.29262 40.801 8.39815 40.801 10.8226V17.4557H36.8204V0H40.801L40.7815 6.16769ZM58.382 8.26238C58.1088 7.29262 57.0941 7.02108 55.8453 7.02108C54.4599 7.02108 53.777 7.3508 53.777 7.99085C53.777 8.5921 54.2453 8.94121 55.377 9.15456L57.8161 9.58126C60.9381 10.1437 62.4406 11.0747 62.4406 13.3439C62.4406 16.2532 59.7478 17.7273 56.138 17.7273C52.6647 17.7273 50.2061 16.2726 49.7573 13.2082H53.4648C53.816 14.4495 54.8306 14.8374 56.1965 14.8374C57.621 14.8374 58.6161 14.4495 58.6161 13.6737C58.6161 13.1112 58.1088 12.7233 56.5673 12.4712L54.2453 12.0832C51.7281 11.6759 50.011 10.4153 50.011 8.12662C50.011 5.54704 52.7428 4.13119 55.9624 4.13119C58.9283 4.13119 61.6406 5.3143 62.1284 8.28178L58.382 8.26238ZM64.4894 0.911577H68.47V4.44151H71.3384V7.25383H68.47V13.053C68.47 14.2749 68.8603 14.5077 70.1871 14.5077H71.3189V17.3782H68.8017C65.5821 17.3782 64.4894 16.7575 64.4894 13.7512V7.25383H62.4406V4.44151H64.4894V0.911577ZM80.4313 8.80545C80.4313 7.25383 79.6898 6.74955 78.2264 6.74955C76.9385 6.74955 76.08 7.40899 75.9043 8.65029H72.1774C72.3725 6.20649 74.6945 4.05361 78.5581 4.05361C82.324 4.05361 84.4509 5.56644 84.3728 9.50368L84.3143 12.316V13.6737C84.3143 15.0895 84.4119 16.6217 84.607 17.4169H80.6849L80.6264 15.8459C79.6508 17.223 78.1093 17.7273 76.2361 17.7273C73.7579 17.7273 71.7286 16.292 71.7286 13.9258C71.7286 10.745 75.3385 9.71703 80.3923 9.32912L80.4313 8.80545ZM80.5484 11.6566C77.758 11.9281 75.9043 12.1996 75.9043 13.6349C75.9043 14.4689 76.7044 15.0313 77.7385 15.0313C79.3386 15.0313 80.5484 14.3525 80.5484 11.9669V11.6566ZM93.5048 8.26238C93.1536 8.2042 92.7633 8.1654 92.4121 8.1848C90.4803 8.1848 89.4852 8.88303 89.4852 10.9001V17.3976H85.4851V4.44151H89.3291V6.90472C89.934 5.35309 91.0267 4.44152 92.8804 4.36393H93.1731C93.2901 4.36393 93.3877 4.36393 93.5048 4.38333V8.26238ZM102.325 8.26238C102.051 7.29262 101.037 7.02108 99.7879 7.02108C98.4025 7.02108 97.7195 7.3508 97.7195 7.99085C97.7195 8.5921 98.1878 8.94121 99.3196 9.15456L101.739 9.58126C104.861 10.1437 106.364 11.0747 106.364 13.3439C106.364 16.2532 103.671 17.7273 100.061 17.7273C96.6073 17.7273 94.1292 16.2726 93.6804 13.2082H97.3878C97.739 14.4495 98.7537 14.8374 100.12 14.8374C101.544 14.8374 102.539 14.4495 102.539 13.6737C102.539 13.1112 102.032 12.7233 100.49 12.4712L98.1683 12.0832C95.6512 11.6759 93.9536 10.4153 93.9536 8.12662C93.9536 5.54704 96.6853 4.13119 99.9049 4.13119C102.871 4.13119 105.583 5.3143 106.071 8.28178L102.325 8.26238Z" fill="#8F8C85"/>
<path d="M105.773 21.2727V17.7273H117V21.2727H105.773Z" fill="#8F8C85"/>
</svg>
