<svg width="38" height="32" viewBox="0 0 38 32" fill="none" xmlns="http://www.w3.org/2000/svg">
<path d="M37.9791 4.24375C36.5651 4.8375 35.1511 5.3125 33.5014 5.43125C35.1511 4.48125 36.3295 2.9375 36.9186 1.15625C35.3868 2.10625 33.7371 2.7 31.9696 3.05625C30.5556 1.5125 28.5524 0.5625 26.4314 0.5625C22.1893 0.5625 18.6543 4.00625 18.6543 8.4C18.6543 8.99375 18.7721 9.5875 18.89 10.1813C12.4091 9.825 6.75302 6.7375 2.86449 1.9875C2.15748 3.175 1.80398 4.48125 1.80398 5.90625C1.80398 8.6375 3.21799 11.0125 5.22118 12.4375C3.925 12.4375 2.74665 12.0813 1.68614 11.4875V11.6062C1.68614 15.4062 4.39633 18.4938 7.93137 19.2063C7.22436 19.325 6.63519 19.4438 5.92818 19.4438C5.45684 19.4438 4.98551 19.4437 4.51417 19.325C5.45684 22.4125 8.4027 24.6687 11.7021 24.7875C9.10971 26.925 5.69251 28.1125 2.03965 28.1125C1.45048 28.1125 0.743469 28.1125 0.154297 27.9937C3.68933 30.1313 7.81353 31.4375 12.1734 31.4375C26.4314 31.4375 34.2084 19.5625 34.2084 9.23125V8.28125C35.6224 7.09375 36.9186 5.7875 37.9791 4.24375Z" fill="#FFF9ED"/>
</svg>
