<svg width="39" height="28" viewBox="0 0 39 28" fill="none" xmlns="http://www.w3.org/2000/svg">
<path d="M38.248 6.40005C38.248 6.40005 37.8945 3.78755 36.7162 2.60005C35.3022 1.0563 33.6525 1.0563 32.9455 0.937549C27.6429 0.581299 19.748 0.581299 19.748 0.581299C19.748 0.581299 11.8531 0.581299 6.55058 0.937549C5.84357 1.0563 4.1939 1.0563 2.77989 2.60005C1.60154 3.78755 1.24804 6.40005 1.24804 6.40005C1.24804 6.40005 0.894531 9.48755 0.894531 12.575V15.425C0.894531 18.5126 1.24804 21.6 1.24804 21.6C1.24804 21.6 1.60154 24.2126 2.77989 25.4001C4.1939 26.9438 6.07924 26.825 6.90408 27.0625C9.96778 27.3 19.748 27.4188 19.748 27.4188C19.748 27.4188 27.6429 27.4188 32.9455 27.0625C33.6525 26.9438 35.3022 26.9438 36.7162 25.4001C37.8945 24.2126 38.248 21.6 38.248 21.6C38.248 21.6 38.6016 18.5126 38.6016 15.425V12.575C38.6016 9.48755 38.248 6.40005 38.248 6.40005ZM15.8595 18.9876V8.30005L25.9933 13.6438L15.8595 18.9876Z" fill="#FFF9ED"/>
</svg>
