<svg width="2278" height="391" viewBox="0 0 2278 391" fill="none" xmlns="http://www.w3.org/2000/svg">
<path d="M310.869 231.141C311.233 238.836 314.573 289.079 314.474 296.904C314.375 304.73 314.474 311.964 314.275 319.495C313.977 329.182 313.115 338.843 311.695 348.43C311.298 350.896 310.835 353.33 310.307 355.763C308.956 361.659 305.411 366.828 300.386 370.231C294.658 374.301 288.318 377.441 281.601 379.537C222.941 396.857 91.1508 389.753 70.2407 388.493C68.5343 388.39 66.8674 388.239 65.1713 388.029C53.9263 386.638 28.6707 383.971 20.4748 380.113C13.6535 376.903 7.54916 372.042 3.93004 365.481C2.79445 363.423 1.86259 361.248 1.1551 358.986C0.0710851 354.69 -0.253002 350.24 0.195734 345.832C1.13533 336.771 3.07126 327.841 5.96655 319.206C6.6663 317.118 7.47437 315.073 8.30393 313.033C20.0914 284.046 112.803 55.2215 153.185 16.6323C154.15 15.7093 158.825 10.8709 162.737 8.62008C170.753 4.00877 177.61 2.08547 186.785 0.737205H187.116L188.504 0.474357C198.577 -0.782888 208.806 0.470955 218.269 4.12445C232.821 9.84586 256.069 18.5598 260.17 20.3683C267.639 23.5828 274.055 28.8109 278.691 35.4612C279.184 36.1646 279.672 36.8724 280.155 37.5835C286.091 46.3306 290.06 56.1904 292.186 66.5146C296.513 87.5118 303.487 133.457 310.869 231.142V231.141Z" fill="black"/>
<path d="M627.486 198.017C627.486 222.934 622.732 244.132 613.224 261.611C603.714 279.089 590.787 292.422 574.438 301.608C558.09 310.795 539.73 315.385 519.362 315.385C498.842 315.385 480.425 310.775 464.115 301.551C447.803 292.33 434.912 278.978 425.442 261.498C415.971 244.021 411.236 222.86 411.236 198.017C411.236 173.174 415.972 151.904 425.442 134.424C434.913 116.946 447.804 103.614 464.115 94.4266C480.425 85.2414 498.841 80.6488 519.362 80.6488C539.73 80.6488 558.09 85.2414 574.438 94.4266C590.788 103.614 603.714 116.946 613.224 134.424C622.732 151.904 627.486 173.101 627.486 198.017ZM577.99 198.017C577.99 181.878 575.566 168.266 570.718 157.183C565.869 146.102 559.049 137.698 550.254 131.969C541.461 126.243 531.161 123.378 519.361 123.378C507.56 123.378 497.262 126.242 488.468 131.969C479.673 137.697 472.852 146.101 468.003 157.183C463.154 168.266 460.731 181.878 460.731 198.017C460.731 214.155 463.154 227.77 468.003 238.851C472.852 249.934 479.672 258.338 488.468 264.065C497.261 269.793 507.559 272.656 519.361 272.656C531.163 272.656 541.46 269.794 550.254 264.065C559.048 258.339 565.869 249.935 570.718 238.851C575.566 227.77 577.99 214.158 577.99 198.017Z" fill="black"/>
<path d="M645.517 376.522V140.893H692.871V169.677H695.013C697.116 165.066 700.181 160.361 704.202 155.564C708.222 150.766 713.485 146.75 719.986 143.515C726.487 140.279 734.587 138.662 744.284 138.662C756.911 138.662 768.561 141.916 779.236 148.424C789.908 154.933 798.44 164.712 804.829 177.766C811.217 190.819 814.412 207.164 814.412 226.8C814.412 245.916 811.312 262.038 805.111 275.164C798.909 288.292 790.49 298.221 779.855 304.952C769.218 311.684 757.323 315.049 744.17 315.049C734.849 315.049 726.937 313.523 720.437 310.475C713.935 307.426 708.616 303.577 704.482 298.927C700.347 294.28 697.192 289.575 695.012 284.814H693.546V376.523H645.515L645.517 376.522ZM692.532 226.576C692.532 236.767 693.959 245.654 696.817 253.241C699.672 260.828 703.808 266.724 709.219 270.924C714.631 275.127 721.207 277.227 728.95 277.227C736.766 277.227 743.381 275.091 748.794 270.813C754.205 266.537 758.321 260.587 761.139 252.962C763.958 245.339 765.368 236.545 765.368 226.576C765.368 216.685 763.976 207.984 761.195 200.47C758.414 192.959 754.318 187.083 748.905 182.842C743.494 178.603 736.842 176.483 728.949 176.483C721.13 176.483 714.534 178.529 709.161 182.619C703.787 186.711 699.671 192.511 696.816 200.023C693.959 207.536 692.531 216.387 692.531 226.576H692.532Z" fill="black"/>
<path d="M917.939 315.607C900.124 315.607 884.808 312.019 871.994 304.841C859.178 297.663 849.312 287.474 842.397 274.271C835.481 261.069 832.025 245.431 832.025 227.357C832.025 209.729 835.481 194.26 842.397 180.945C849.312 167.633 859.065 157.256 871.655 149.818C884.245 142.381 899.034 138.662 916.022 138.662C927.446 138.662 938.101 140.466 947.986 144.072C957.869 147.68 966.514 153.092 973.918 160.305C981.321 167.52 987.09 176.576 991.225 187.472C995.358 198.369 997.426 211.106 997.426 225.684V238.737H851.192V209.283H952.215C952.215 202.442 950.71 196.38 947.705 191.098C944.698 185.818 940.546 181.671 935.246 178.659C929.947 175.647 923.803 174.14 916.813 174.14C909.521 174.14 903.076 175.796 897.477 179.105C891.875 182.416 887.499 186.842 884.341 192.381C881.185 197.923 879.567 204.078 879.493 210.845V238.849C879.493 247.328 881.088 254.655 884.285 260.828C887.479 267.002 892.008 271.761 897.871 275.109C903.733 278.456 910.685 280.128 918.73 280.128C924.066 280.128 928.951 279.386 933.387 277.897C937.821 276.41 941.618 274.179 944.775 271.203C947.932 268.229 950.336 264.584 951.991 260.269L996.413 263.17C994.159 273.732 989.554 282.936 982.602 290.782C975.649 298.631 966.705 304.729 955.768 309.08C944.831 313.431 932.221 315.607 917.941 315.607H917.939Z" fill="black"/>
<path d="M1064.54 213.189V312.26H1016.51V140.893H1062.29V171.127H1064.32C1068.15 161.161 1074.58 153.259 1083.6 147.42C1092.62 141.582 1103.56 138.662 1116.41 138.662C1128.43 138.662 1138.92 141.266 1147.87 146.471C1156.81 151.678 1163.76 159.097 1168.72 168.729C1173.69 178.362 1176.17 189.834 1176.17 203.147V312.259H1128.14V211.626C1128.21 201.139 1125.5 192.938 1120.02 187.026C1114.53 181.112 1106.98 178.155 1097.36 178.155C1090.89 178.155 1085.2 179.532 1080.27 182.284C1075.35 185.036 1071.52 189.034 1068.77 194.277C1066.03 199.522 1064.62 205.825 1064.55 213.188L1064.54 213.189Z" fill="black"/>
<path d="M1326.86 149.483C1325.96 140.485 1322.09 133.493 1315.25 128.509C1308.41 123.528 1299.12 121.035 1287.4 121.035C1279.43 121.035 1272.7 122.133 1267.22 124.326C1261.73 126.52 1257.54 129.552 1254.64 133.417C1251.75 137.286 1250.3 141.674 1250.3 146.583C1250.15 150.674 1251.04 154.244 1252.95 157.294C1254.87 160.344 1257.52 162.966 1260.9 165.159C1264.28 167.354 1268.19 169.251 1272.63 170.848C1277.06 172.449 1281.8 173.805 1286.83 174.921L1307.58 179.83C1317.65 182.061 1326.9 185.037 1335.32 188.755C1343.73 192.475 1351.02 197.049 1357.19 202.478C1363.35 207.908 1368.14 214.304 1371.56 221.668C1374.98 229.031 1376.73 237.474 1376.81 246.993C1376.73 260.977 1373.14 273.082 1366.04 283.308C1358.94 293.535 1348.71 301.456 1335.37 307.072C1322.03 312.687 1305.96 315.495 1287.17 315.495C1268.53 315.495 1252.31 312.668 1238.52 307.015C1224.73 301.363 1213.98 292.977 1206.27 281.857C1198.57 270.74 1194.53 256.96 1194.15 240.521H1241.4C1241.92 248.183 1244.16 254.562 1248.1 259.655C1252.05 264.75 1257.35 268.581 1264 271.147C1270.65 273.713 1278.19 274.995 1286.61 274.995C1294.88 274.995 1302.07 273.807 1308.2 271.425C1314.33 269.046 1319.08 265.736 1322.46 261.496C1325.85 257.257 1327.54 252.386 1327.54 246.881C1327.54 241.749 1326.01 237.435 1322.97 233.938C1319.92 230.444 1315.49 227.468 1309.66 225.013C1303.84 222.558 1296.72 220.327 1288.3 218.32L1263.16 212.072C1243.69 207.386 1228.32 200.061 1217.04 190.093C1205.77 180.127 1200.17 166.702 1200.24 149.817C1200.17 135.982 1203.91 123.897 1211.46 113.557C1219.01 103.221 1229.4 95.1488 1242.64 89.3474C1255.86 83.5469 1270.9 80.6462 1287.73 80.6462C1304.87 80.6462 1319.85 83.5469 1332.66 89.3474C1345.48 95.1488 1355.46 103.221 1362.6 113.557C1369.74 123.897 1373.42 135.871 1373.65 149.482H1326.86L1326.86 149.483Z" fill="black"/>
<path d="M1451 315.495C1439.95 315.495 1430.1 313.579 1421.46 309.749C1412.81 305.92 1405.99 300.23 1400.99 292.679C1395.99 285.132 1393.5 275.704 1393.5 264.397C1393.5 254.878 1395.26 246.882 1398.79 240.411C1402.33 233.94 1407.14 228.734 1413.23 224.791C1419.31 220.85 1426.25 217.875 1434.03 215.867C1441.81 213.859 1449.98 212.446 1458.55 211.628C1468.62 210.587 1476.74 209.602 1482.9 208.67C1489.07 207.741 1493.54 206.347 1496.32 204.487C1499.1 202.628 1500.49 199.876 1500.49 196.231V195.562C1500.49 188.496 1498.25 183.03 1493.78 179.161C1489.31 175.295 1482.98 173.36 1474.79 173.36C1466.14 173.36 1459.26 175.239 1454.15 178.995C1449.04 182.751 1445.66 187.456 1444 193.108L1399.58 189.538C1401.84 179.126 1406.27 170.107 1412.89 162.483C1419.5 154.86 1428.05 148.983 1438.54 144.855C1449.02 140.726 1461.18 138.663 1475.01 138.663C1484.63 138.663 1493.86 139.779 1502.69 142.011C1511.52 144.242 1519.38 147.7 1526.25 152.386C1533.13 157.072 1538.56 163.078 1542.55 170.404C1546.53 177.731 1548.52 186.489 1548.52 196.679V312.262H1502.97V288.498H1501.62C1498.84 293.853 1495.12 298.557 1490.46 302.611C1485.8 306.666 1480.2 309.826 1473.66 312.093C1467.12 314.361 1459.56 315.497 1451 315.497L1451 315.495ZM1464.75 282.694C1471.82 282.694 1478.06 281.299 1483.47 278.51C1488.88 275.721 1493.12 271.947 1496.21 267.187C1499.29 262.427 1500.83 257.033 1500.83 251.009V232.823C1499.33 233.791 1497.28 234.664 1494.69 235.445C1492.09 236.227 1489.18 236.934 1485.95 237.565C1482.72 238.198 1479.48 238.756 1476.25 239.239C1473.02 239.723 1470.09 240.15 1467.46 240.521C1461.82 241.341 1456.9 242.641 1452.69 244.427C1448.48 246.212 1445.21 248.61 1442.88 251.623C1440.55 254.635 1439.38 258.373 1439.38 262.835C1439.38 269.306 1441.77 274.234 1446.54 277.618C1451.32 281.003 1457.39 282.695 1464.75 282.695L1464.75 282.694Z" fill="black"/>
<path d="M1680.7 239.295V140.893H1728.74V312.259H1682.62V281.132H1680.82C1676.91 291.173 1670.42 299.244 1661.37 305.342C1652.31 311.442 1641.28 314.491 1628.28 314.491C1616.7 314.491 1606.52 311.888 1597.72 306.681C1588.93 301.475 1582.07 294.074 1577.14 284.478C1572.22 274.884 1569.72 263.393 1569.65 250.004V140.893H1617.68V241.526C1617.75 251.643 1620.5 259.638 1625.91 265.512C1631.32 271.389 1638.57 274.326 1647.67 274.326C1653.45 274.326 1658.87 273.007 1663.9 270.366C1668.94 267.726 1673.02 263.803 1676.14 258.596C1679.25 253.39 1680.78 246.956 1680.7 239.295H1680.7Z" fill="black"/>
<path d="M1831.92 315.607C1814.18 315.607 1798.94 311.869 1786.2 304.393C1773.46 296.919 1763.68 286.526 1756.88 273.211C1750.08 259.898 1746.68 244.576 1746.68 227.246C1746.68 209.693 1750.12 194.277 1756.99 181.001C1763.87 167.725 1773.66 157.349 1786.37 149.874C1799.07 142.399 1814.18 138.662 1831.69 138.662C1846.8 138.662 1860.03 141.377 1871.38 146.806C1882.73 152.236 1891.71 159.859 1898.32 169.677C1904.94 179.495 1908.59 191.024 1909.26 204.262H1863.94C1862.66 195.71 1859.3 188.81 1853.85 183.567C1848.4 178.324 1841.28 175.702 1832.48 175.702C1825.04 175.702 1818.56 177.692 1813.03 181.671C1807.51 185.651 1803.2 191.434 1800.12 199.02C1797.04 206.606 1795.5 215.793 1795.5 226.577C1795.5 237.511 1797.02 246.809 1800.07 254.469C1803.11 262.13 1807.41 267.968 1812.97 271.985C1818.54 276.002 1825.04 278.009 1832.48 278.009C1837.97 278.009 1842.91 276.893 1847.31 274.662C1851.7 272.431 1855.35 269.178 1858.24 264.9C1861.14 260.624 1863.03 255.472 1863.94 249.448H1909.26C1908.51 262.539 1904.92 274.049 1898.5 283.978C1892.07 293.908 1883.22 301.661 1871.94 307.24C1860.67 312.818 1847.32 315.607 1831.92 315.607V315.607Z" fill="black"/>
<path d="M2011.14 315.607C1993.33 315.607 1978.01 312.019 1965.2 304.841C1952.38 297.663 1942.51 287.474 1935.6 274.271C1928.68 261.069 1925.23 245.431 1925.23 227.357C1925.23 209.729 1928.68 194.26 1935.6 180.945C1942.51 167.633 1952.27 157.256 1964.86 149.818C1977.45 142.381 1992.24 138.662 2009.22 138.662C2020.65 138.662 2031.3 140.466 2041.19 144.072C2051.07 147.68 2059.72 153.092 2067.12 160.305C2074.52 167.52 2080.29 176.576 2084.43 187.472C2088.56 198.369 2090.63 211.106 2090.63 225.684V238.737H1944.39V209.283H2045.42C2045.42 202.442 2043.91 196.38 2040.91 191.098C2037.9 185.818 2033.75 181.671 2028.45 178.659C2023.15 175.647 2017 174.14 2010.01 174.14C2002.72 174.14 1996.28 175.796 1990.68 179.105C1985.08 182.416 1980.7 186.842 1977.54 192.381C1974.39 197.923 1972.77 204.078 1972.69 210.845V238.849C1972.69 247.328 1974.29 254.655 1977.49 260.828C1980.68 267.002 1985.21 271.761 1991.07 275.109C1996.94 278.456 2003.89 280.128 2011.93 280.128C2017.27 280.128 2022.15 279.386 2026.59 277.897C2031.02 276.41 2034.82 274.179 2037.98 271.203C2041.13 268.229 2043.54 264.584 2045.19 260.269L2089.62 263.17C2087.36 273.732 2082.76 282.936 2075.8 290.782C2068.85 298.631 2059.91 304.729 2048.97 309.08C2038.03 313.431 2025.42 315.607 2011.14 315.607H2011.14Z" fill="black"/>
<path d="M2179.44 315.049C2166.28 315.049 2154.39 311.684 2143.75 304.952C2133.11 298.222 2124.7 288.292 2118.5 275.164C2112.29 262.037 2109.19 245.915 2109.19 226.8C2109.19 207.164 2112.39 190.819 2118.78 177.765C2125.17 164.712 2133.68 154.933 2144.31 148.424C2154.95 141.917 2166.62 138.662 2179.32 138.662C2189.02 138.662 2197.12 140.279 2203.62 143.514C2210.12 146.75 2215.38 150.766 2219.41 155.564C2223.43 160.361 2226.49 165.066 2228.59 169.677H2230.06V83.7706H2277.98V312.259H2230.62V284.813H2228.59C2226.34 289.574 2223.16 294.279 2219.07 298.926C2214.97 303.576 2209.67 307.425 2203.17 310.474C2196.67 313.522 2188.76 315.048 2179.44 315.048V315.049ZM2194.66 277.227C2202.4 277.227 2208.96 275.127 2214.33 270.924C2219.71 266.724 2223.84 260.828 2226.73 253.241C2229.63 245.654 2231.08 236.768 2231.08 226.576C2231.08 216.385 2229.65 207.536 2226.79 200.023C2223.93 192.511 2219.8 186.711 2214.39 182.619C2208.98 178.529 2202.4 176.483 2194.66 176.483C2186.77 176.483 2180.11 178.603 2174.7 182.842C2169.29 187.082 2165.19 192.959 2162.41 200.47C2159.63 207.984 2158.24 216.685 2158.24 226.576C2158.24 236.545 2159.65 245.339 2162.47 252.962C2165.29 260.587 2169.38 266.537 2174.76 270.813C2180.13 275.091 2186.77 277.227 2194.66 277.227Z" fill="black"/>
</svg>
