<svg width="270" height="270" viewBox="0 0 270 270" fill="none" xmlns="http://www.w3.org/2000/svg">
<path d="M190.693 147.943C190.824 150.738 192.035 168.985 191.999 171.827C191.963 174.669 191.999 177.296 191.927 180.031C191.819 183.549 191.507 187.058 190.992 190.54C190.848 191.435 190.68 192.319 190.489 193.203C189.999 195.344 188.714 197.221 186.892 198.457C184.816 199.935 182.518 201.076 180.083 201.837C158.818 208.127 111.043 205.547 103.463 205.089C102.844 205.052 102.24 204.997 101.625 204.921C97.5487 204.415 88.3934 203.447 85.4223 202.046C82.9495 200.88 80.7366 199.115 79.4247 196.732C79.013 195.985 78.6752 195.195 78.4187 194.373C78.0258 192.813 77.9083 191.197 78.071 189.596C78.4116 186.305 79.1134 183.062 80.1629 179.926C80.4166 179.168 80.7095 178.425 81.0102 177.685C85.2833 167.157 118.892 84.0547 133.531 70.0402C133.881 69.705 135.575 67.9478 136.994 67.1304C139.899 65.4557 142.385 64.7572 145.711 64.2676H145.831L146.334 64.1721C149.986 63.7155 153.694 64.1709 157.124 65.4977C162.399 67.5756 170.827 70.7402 172.314 71.397C175.021 72.5644 177.347 74.4631 179.028 76.8783C179.207 77.1338 179.384 77.3908 179.558 77.6491C181.71 80.8258 183.149 84.4066 183.92 88.156C185.488 95.7816 188.017 112.467 190.693 147.944V147.943Z" fill="#F87216"/>
</svg>
