<svg width="785" height="712" viewBox="0 0 785 712" fill="none" xmlns="http://www.w3.org/2000/svg">
<mask id="path-1-inside-1_60_5485" fill="white">
<path d="M262.634 637.527C247.797 633.253 150.281 607.081 135.501 601.893C120.721 596.706 106.933 592.253 92.7782 587.077C74.5988 580.342 56.8411 572.614 39.5912 563.931C35.1754 561.641 30.8641 559.254 26.5981 556.75C16.3055 550.555 8.83987 540.892 5.70167 529.706C1.7636 516.834 -0.00821919 503.46 0.450732 490.079C6.32425 373.85 106.812 142.177 123.009 105.505C124.331 102.512 125.719 99.6211 127.236 96.715C137.3 77.4501 159.033 33.8889 171.763 21.6679C182.356 11.4963 195.607 3.66607 210.443 1.37881C215.097 0.66104 219.839 0.383033 224.597 0.56272C233.461 1.36941 242.118 3.63727 250.182 7.26259C266.752 14.7472 282.412 23.9327 296.883 34.6498C300.381 37.2402 303.726 39.9976 307.048 42.7902C354.254 82.4727 727.122 395.118 773.664 492.199C774.778 494.52 780.87 505.997 782.557 514.45C786.012 531.77 785.133 545.29 781.633 562.599L781.415 563.192L780.997 565.849C776.731 584.707 767.599 602.239 754.421 616.862C733.96 639.283 702.08 675.376 695.941 681.569C684.912 692.898 670.759 701.051 655.083 705.104C653.422 705.538 651.757 705.96 650.09 706.37C629.578 711.41 608.253 712.213 587.264 709.416C544.576 703.731 452.814 686.823 262.633 637.527L262.634 637.527Z"/>
</mask>
<path d="M262.634 637.527C247.797 633.253 150.281 607.081 135.501 601.893C120.721 596.706 106.933 592.253 92.7782 587.077C74.5988 580.342 56.8411 572.614 39.5912 563.931C35.1754 561.641 30.8641 559.254 26.5981 556.75C16.3055 550.555 8.83987 540.892 5.70167 529.706C1.7636 516.834 -0.00821919 503.46 0.450732 490.079C6.32425 373.85 106.812 142.177 123.009 105.505C124.331 102.512 125.719 99.6211 127.236 96.715C137.3 77.4501 159.033 33.8889 171.763 21.6679C182.356 11.4963 195.607 3.66607 210.443 1.37881C215.097 0.66104 219.839 0.383033 224.597 0.56272C233.461 1.36941 242.118 3.63727 250.182 7.26259C266.752 14.7472 282.412 23.9327 296.883 34.6498C300.381 37.2402 303.726 39.9976 307.048 42.7902C354.254 82.4727 727.122 395.118 773.664 492.199C774.778 494.52 780.87 505.997 782.557 514.45C786.012 531.77 785.133 545.29 781.633 562.599L781.415 563.192L780.997 565.849C776.731 584.707 767.599 602.239 754.421 616.862C733.96 639.283 702.08 675.376 695.941 681.569C684.912 692.898 670.759 701.051 655.083 705.104C653.422 705.538 651.757 705.96 650.09 706.37C629.578 711.41 608.253 712.213 587.264 709.416C544.576 703.731 452.814 686.823 262.633 637.527L262.634 637.527Z" stroke="url(#paint0_linear_60_5485)" stroke-width="6" mask="url(#path-1-inside-1_60_5485)"/>
<defs>
<linearGradient id="paint0_linear_60_5485" x1="847.863" y1="512.835" x2="-61.3864" y2="537.797" gradientUnits="userSpaceOnUse">
<stop stop-color="#F87216"/>
<stop offset="1" stop-color="#F87216" stop-opacity="0.07"/>
</linearGradient>
</defs>
</svg>
