<svg width="608" height="492" viewBox="0 0 608 492" fill="none" xmlns="http://www.w3.org/2000/svg">
<g opacity="0.5">
<mask id="path-1-inside-1_80_5482" fill="white">
<path d="M450.06 360.94C442.977 369.002 397.726 422.528 390.036 430.298C382.346 438.068 375.435 445.424 367.928 452.806C358.228 462.263 347.969 471.178 337.202 479.507C334.4 481.62 331.561 483.641 328.655 485.6C321.54 490.285 312.855 492.23 304.349 491.045C294.469 489.885 284.856 487.232 275.864 483.184C198.299 446.845 68.6456 318.982 48.2041 298.561C46.536 296.895 44.9559 295.216 43.4015 293.452C33.1004 281.753 9.51995 255.939 4.76871 244.556C0.813985 235.083 -0.797995 224.609 1.8134 214.703C2.63267 211.595 3.77599 208.557 5.2359 205.637C8.27758 200.329 12.2567 195.562 16.9944 191.546C26.7534 183.305 37.4161 176.109 48.7882 170.088C51.537 168.632 54.3567 167.318 57.1938 166.029C97.5097 147.711 415.411 2.79991 494.661 1.03154C496.556 0.988849 506.09 0.411283 512.326 1.73435C525.102 4.44588 534.07 8.79504 544.883 15.8456L545.226 16.1488L546.919 17.1566C558.573 25.1208 567.955 35.7505 574.217 48.0888C583.747 67.1662 599.385 97.2156 601.881 102.789C606.502 112.86 608.08 123.988 606.436 134.915C606.265 136.073 606.085 137.231 605.895 138.388C603.564 152.611 598.117 166.15 590.311 178.469C574.437 203.523 537.118 256.06 450.059 360.941L450.06 360.94Z"/>
</mask>
<path d="M450.06 360.94C442.977 369.002 397.726 422.528 390.036 430.298C382.346 438.068 375.435 445.424 367.928 452.806C358.228 462.263 347.969 471.178 337.202 479.507C334.4 481.62 331.561 483.641 328.655 485.6C321.54 490.285 312.855 492.23 304.349 491.045C294.469 489.885 284.856 487.232 275.864 483.184C198.299 446.845 68.6456 318.982 48.2041 298.561C46.536 296.895 44.9559 295.216 43.4015 293.452C33.1004 281.753 9.51995 255.939 4.76871 244.556C0.813985 235.083 -0.797995 224.609 1.8134 214.703C2.63267 211.595 3.77599 208.557 5.2359 205.637C8.27758 200.329 12.2567 195.562 16.9944 191.546C26.7534 183.305 37.4161 176.109 48.7882 170.088C51.537 168.632 54.3567 167.318 57.1938 166.029C97.5097 147.711 415.411 2.79991 494.661 1.03154C496.556 0.988849 506.09 0.411283 512.326 1.73435C525.102 4.44588 534.07 8.79504 544.883 15.8456L545.226 16.1488L546.919 17.1566C558.573 25.1208 567.955 35.7505 574.217 48.0888C583.747 67.1662 599.385 97.2156 601.881 102.789C606.502 112.86 608.08 123.988 606.436 134.915C606.265 136.073 606.085 137.231 605.895 138.388C603.564 152.611 598.117 166.15 590.311 178.469C574.437 203.523 537.118 256.06 450.059 360.941L450.06 360.94Z" stroke="url(#paint0_linear_80_5482)" stroke-width="6" mask="url(#path-1-inside-1_80_5482)"/>
</g>
<defs>
<linearGradient id="paint0_linear_80_5482" x1="529.583" y1="-39.4932" x2="307.136" y2="541.382" gradientUnits="userSpaceOnUse">
<stop stop-color="#F87216"/>
<stop offset="1" stop-color="#F87216" stop-opacity="0.07"/>
</linearGradient>
</defs>
</svg>
