<svg width="515" height="492" viewBox="0 0 515 492" fill="none" xmlns="http://www.w3.org/2000/svg">
<path opacity="0.5" d="M-47.6514 292.285C-47.6512 292.285 -47.6512 292.286 -47.6511 292.286L-48.824 293.233L-47.6514 292.285ZM-47.6514 292.285C-48.799 290.982 -50.1083 289.507 -51.5357 287.899C-56.5358 282.266 -62.9863 274.998 -69.0222 267.75C-72.9002 263.093 -76.5916 258.462 -79.6038 254.297C-82.6329 250.108 -84.9134 246.473 -86.0337 243.789C-89.9042 234.518 -91.4382 224.367 -88.9265 214.839C-88.1356 211.839 -87.0331 208.905 -85.6263 206.085M-47.6514 292.285L-85.6263 206.085M-85.6263 206.085C-82.6727 200.941 -78.8125 196.319 -74.2181 192.425C-64.5434 184.255 -53.9729 177.122 -42.6993 171.153L-43.4366 169.871L-42.6993 171.152C-39.9942 169.72 -37.2101 168.422 -34.3787 167.136L-85.6263 206.085Z" stroke="url(#paint0_linear_1_5178)" stroke-width="3"/>
<defs>
<linearGradient id="paint0_linear_1_5178" x1="437.358" y1="-39.7115" x2="214.911" y2="541.164" gradientUnits="userSpaceOnUse">
<stop stop-color="#F87216"/>
<stop offset="1" stop-color="#F87216" stop-opacity="0.07"/>
</linearGradient>
</defs>
</svg>
