<svg width="494" height="615" viewBox="0 0 494 615" fill="none" xmlns="http://www.w3.org/2000/svg">
<mask id="path-1-inside-1_1_2114" fill="white">
<path d="M123.205 434.71C115.487 426.864 64.074 376.545 56.7172 368.124C49.3596 359.704 42.3587 352.099 35.3872 343.899C26.4646 333.31 18.1585 322.22 10.5092 310.681C8.57521 307.683 6.74069 304.658 4.97651 301.572C0.773917 294.027 -0.430591 285.19 1.60364 276.838C3.74066 267.116 7.40628 257.807 12.4643 249.254C57.5718 175.611 202.788 59.1226 225.955 40.7824C227.846 39.2858 229.741 37.878 231.722 36.5043C244.862 27.4007 273.935 6.46653 286.223 2.85702C296.449 -0.147476 307.496 -0.721101 317.553 2.85383C320.709 3.97543 323.762 5.41281 326.661 7.15365C331.896 10.7044 336.48 15.1351 340.21 20.247C347.863 30.774 354.343 42.0976 359.535 54.0119C360.79 56.8918 361.891 59.8284 362.964 62.7797C378.219 104.72 498.998 435.473 493.37 514.545C493.236 516.435 492.939 525.984 490.975 532.061C486.951 544.514 481.582 553.014 473.229 563.084L472.881 563.396L471.673 564.982C462.291 575.801 450.35 584.095 436.926 589.114C416.185 596.723 383.455 609.333 377.422 611.269C366.511 614.879 354.787 615.354 343.577 612.641C342.387 612.357 341.2 612.064 340.015 611.761C325.44 608.041 311.87 601.285 299.792 592.301C275.228 574.03 224.096 531.706 123.205 434.709L123.205 434.71Z"/>
</mask>
<path d="M123.205 434.71L121.067 436.814L125.44 432.708L123.205 434.71ZM56.7172 368.124L58.9765 366.15L58.9763 366.15L56.7172 368.124ZM35.3872 343.899L33.0931 345.832L33.1016 345.842L35.3872 343.899ZM10.5092 310.681L7.98824 312.307L7.9984 312.323L8.00872 312.339L10.5092 310.681ZM4.97651 301.572L2.35568 303.032L2.36375 303.046L2.37199 303.061L4.97651 301.572ZM1.60364 276.838L4.51845 277.548L4.52641 277.515L4.53371 277.482L1.60364 276.838ZM12.4643 249.254L9.90601 247.687L9.89385 247.707L9.88201 247.727L12.4643 249.254ZM225.955 40.7824L224.093 38.4302L224.093 38.4303L225.955 40.7824ZM231.722 36.5043L230.014 34.0383L230.013 34.0389L231.722 36.5043ZM286.223 2.85702L287.068 5.73539L287.068 5.73536L286.223 2.85702ZM317.553 2.85383L316.548 5.68057L316.549 5.68059L317.553 2.85383ZM326.661 7.15365L328.345 4.67098L328.277 4.62433L328.205 4.58158L326.661 7.15365ZM340.21 20.247L342.637 18.483L342.633 18.4786L340.21 20.247ZM359.535 54.0119L356.785 55.2104L356.785 55.2106L359.535 54.0119ZM362.964 62.7797L360.145 63.8051L360.145 63.8052L362.964 62.7797ZM493.37 514.545L490.378 514.332L490.378 514.332L493.37 514.545ZM490.975 532.061L493.829 532.984L493.83 532.984L490.975 532.061ZM473.229 563.084L475.231 565.319L475.396 565.171L475.538 565L473.229 563.084ZM472.881 563.396L470.879 561.162L470.667 561.352L470.494 561.579L472.881 563.396ZM471.673 564.982L473.94 566.948L474.003 566.876L474.06 566.8L471.673 564.982ZM436.926 589.114L437.96 591.931L437.968 591.927L437.977 591.924L436.926 589.114ZM377.422 611.269L376.505 608.413L376.492 608.417L376.48 608.421L377.422 611.269ZM343.577 612.641L344.282 609.726L344.274 609.724L343.577 612.641ZM340.015 611.761L340.758 608.854L340.757 608.854L340.015 611.761ZM299.792 592.301L301.583 589.894L301.582 589.893L299.792 592.301ZM123.205 434.709L125.284 432.546L120.97 436.711L123.205 434.709ZM125.344 432.606C121.468 428.666 106.649 414.089 91.9379 399.502C77.1432 384.833 62.5632 370.256 58.9765 366.15L54.4579 370.098C58.228 374.413 73.0328 389.207 87.7134 403.763C102.477 418.402 117.225 432.908 121.067 436.814L125.344 432.606ZM58.9763 366.15C51.5362 357.635 44.6429 350.154 37.6729 341.956L33.1016 345.842C40.0746 354.044 47.183 361.772 54.4582 370.098L58.9763 366.15ZM37.6814 341.966C28.8327 331.465 20.5955 320.466 13.0096 309.024L8.00872 312.339C15.7215 323.973 24.0965 335.156 33.0932 345.832L37.6814 341.966ZM13.0301 309.055C11.1262 306.104 9.3195 303.125 7.58104 300.083L2.37199 303.061C4.16188 306.192 6.0242 309.263 7.98824 312.307L13.0301 309.055ZM7.59737 300.112C3.76079 293.224 2.66394 285.161 4.51845 277.548L-1.31115 276.128C-3.52514 285.218 -2.213 294.83 2.35568 303.032L7.59737 300.112ZM4.53371 277.482C6.60249 268.071 10.1508 259.06 15.0465 250.781L9.88201 247.727C4.66171 256.554 0.878856 266.162 -1.32641 276.194L4.53371 277.482ZM15.0225 250.821C37.3227 214.413 84.5924 167.142 129.451 126.503C174.22 85.9465 216.257 52.2857 227.817 43.1346L224.093 38.4303C212.485 47.6193 170.331 81.3727 125.423 122.056C80.6053 162.658 32.7133 210.452 9.90601 247.687L15.0225 250.821ZM227.817 43.1347C229.66 41.6762 231.504 40.3062 233.432 38.9696L230.013 34.0389C227.978 35.4498 226.032 36.8954 224.093 38.4302L227.817 43.1347ZM233.431 38.9702C240.043 34.3888 250.532 26.9249 260.932 20.1321C266.128 16.7387 271.262 13.5396 275.838 10.9736C280.465 8.37933 284.34 6.53697 287.068 5.73539L285.377 -0.0213467C281.962 0.981827 277.595 3.10977 272.904 5.74027C268.162 8.39917 262.902 11.6793 257.652 15.1086C247.159 21.9612 236.541 29.5161 230.014 34.0383L233.431 38.9702ZM287.068 5.73536C296.866 2.85685 307.241 2.37216 316.548 5.68057L318.558 0.0270876C307.751 -3.81436 296.032 -3.15176 285.377 -0.0213158L287.068 5.73536ZM316.549 5.68059C319.517 6.73578 322.389 8.08806 325.117 9.72577L328.205 4.58158C325.134 2.73757 321.9 1.21505 318.558 0.0270687L316.549 5.68059ZM324.977 9.63637C329.926 12.993 334.259 17.1819 337.787 22.0155L342.633 18.4786C338.7 13.0882 333.866 8.41575 328.345 4.67098L324.977 9.63637ZM337.784 22.0111C345.308 32.3619 351.68 43.4959 356.785 55.2104L362.285 52.8134C357.006 40.6993 350.418 29.1861 342.637 18.483L337.784 22.0111ZM356.785 55.2106C358.001 58.0011 359.076 60.8654 360.145 63.8051L365.784 61.7544C364.706 58.7913 363.579 55.7825 362.285 52.8133L356.785 55.2106ZM360.145 63.8052C367.772 84.7738 401.763 177.9 433.142 275.655C448.833 324.536 463.857 374.535 474.605 417.228C479.979 438.576 484.274 458.061 487.05 474.646C489.833 491.28 491.055 504.812 490.378 514.332L496.363 514.758C497.092 504.509 495.771 490.408 492.967 473.656C490.155 456.854 485.819 437.199 480.423 415.763C469.631 372.891 454.562 322.754 438.855 273.821C407.438 175.946 373.412 82.7256 365.784 61.7543L360.145 63.8052ZM490.378 514.332C490.224 516.494 489.939 525.511 488.12 531.139L493.83 532.984C495.939 526.457 496.248 516.376 496.363 514.757L490.378 514.332ZM488.12 531.139C484.244 543.132 479.104 551.302 470.92 561.169L475.538 565C484.06 554.725 489.657 545.895 493.829 532.984L488.12 531.139ZM471.227 560.85L470.879 561.162L474.883 565.63L475.231 565.319L471.227 560.85ZM470.494 561.579L469.287 563.165L474.06 566.8L475.268 565.213L470.494 561.579ZM469.407 563.017C460.353 573.457 448.831 581.46 435.876 586.304L437.977 591.924C451.87 586.729 464.229 578.145 473.94 566.948L469.407 563.017ZM435.893 586.298C415.001 593.962 382.467 606.5 376.505 608.413L378.339 614.126C384.442 612.167 417.369 599.484 437.96 591.931L435.893 586.298ZM376.48 608.421C366.103 611.854 354.95 612.307 344.282 609.726L342.871 615.557C354.624 618.401 366.919 617.904 378.364 614.118L376.48 608.421ZM344.274 609.724C343.1 609.443 341.927 609.153 340.758 608.854L339.272 614.668C340.472 614.974 341.675 615.272 342.879 615.559L344.274 609.724ZM340.757 608.854C326.594 605.239 313.376 598.666 301.583 589.894L298.002 594.708C310.364 603.903 324.285 610.842 339.273 614.668L340.757 608.854ZM301.582 589.893C277.169 571.735 226.143 529.512 125.284 432.546L121.125 436.871C222.049 533.899 273.287 576.325 298.002 594.708L301.582 589.893ZM120.97 436.711L120.971 436.712L125.44 432.708L125.439 432.707L120.97 436.711Z" fill="url(#paint0_linear_1_2114)" mask="url(#path-1-inside-1_1_2114)"/>
<defs>
<linearGradient id="paint0_linear_1_2114" x1="532.233" y1="553.301" x2="-42.3625" y2="257.823" gradientUnits="userSpaceOnUse">
<stop stop-color="#F87216"/>
<stop offset="1" stop-color="#F87216" stop-opacity="0.07"/>
</linearGradient>
</defs>
</svg>
