<svg width="771" height="765" viewBox="0 0 771 765" fill="none" xmlns="http://www.w3.org/2000/svg">
<g opacity="0.5">
<mask id="path-1-inside-1_80_5484" fill="white">
<path d="M236.277 636.002C222.364 629.476 130.593 588.473 116.892 581.053C103.189 573.635 90.3417 567.095 77.2551 559.785C60.4622 550.309 44.2541 539.92 28.7091 528.669C24.7413 525.721 20.8929 522.695 17.1093 519.56C8.00633 511.846 2.28212 501.149 1.08643 489.623C-0.612051 476.31 -0.0877699 462.839 2.63888 449.706C28.1838 335.94 166.7 122.992 188.913 89.3291C190.726 86.5821 192.586 83.9458 194.577 81.3145C207.78 63.8726 236.626 24.2743 251.263 14.1973C263.444 5.81005 277.849 0.14661 292.875 0.19903C297.59 0.215352 302.316 0.679061 306.98 1.59694C315.589 3.77271 323.745 7.35782 331.086 12.1901C346.164 22.1542 360.055 33.655 372.511 46.4819C375.522 49.5823 378.355 52.8237 381.158 56.0961C420.993 102.598 735.772 469.12 765.198 572.153C765.902 574.617 769.963 586.888 770.191 595.491C770.657 613.118 767.493 626.322 761.099 642.856L760.782 643.407L759.918 645.963C752.505 663.907 740.516 679.784 725.028 692.161C701.03 711.098 663.441 741.748 656.332 746.904C643.525 756.366 628.175 762.207 612.018 763.766C610.306 763.936 608.592 764.093 606.877 764.237C585.781 766.018 564.604 763.491 544.37 757.464C503.216 745.21 415.549 714.244 236.276 636.001L236.277 636.002Z"/>
</mask>
<path d="M236.277 636.002C222.364 629.476 130.593 588.473 116.892 581.053C103.189 573.635 90.3417 567.095 77.2551 559.785C60.4622 550.309 44.2541 539.92 28.7091 528.669C24.7413 525.721 20.8929 522.695 17.1093 519.56C8.00633 511.846 2.28212 501.149 1.08643 489.623C-0.612051 476.31 -0.0877699 462.839 2.63888 449.706C28.1838 335.94 166.7 122.992 188.913 89.3291C190.726 86.5821 192.586 83.9458 194.577 81.3145C207.78 63.8726 236.626 24.2743 251.263 14.1973C263.444 5.81005 277.849 0.14661 292.875 0.19903C297.59 0.215352 302.316 0.679061 306.98 1.59694C315.589 3.77271 323.745 7.35782 331.086 12.1901C346.164 22.1542 360.055 33.655 372.511 46.4819C375.522 49.5823 378.355 52.8237 381.158 56.0961C420.993 102.598 735.772 469.12 765.198 572.153C765.902 574.617 769.963 586.888 770.191 595.491C770.657 613.118 767.493 626.322 761.099 642.856L760.782 643.407L759.918 645.963C752.505 663.907 740.516 679.784 725.028 692.161C701.03 711.098 663.441 741.748 656.332 746.904C643.525 756.366 628.175 762.207 612.018 763.766C610.306 763.936 608.592 764.093 606.877 764.237C585.781 766.018 564.604 763.491 544.37 757.464C503.216 745.21 415.549 714.244 236.276 636.001L236.277 636.002Z" stroke="url(#paint0_linear_80_5484)" stroke-width="6" mask="url(#path-1-inside-1_80_5484)"/>
</g>
<defs>
<linearGradient id="paint0_linear_80_5484" x1="834.903" y1="604.064" x2="-64.6446" y2="474.407" gradientUnits="userSpaceOnUse">
<stop stop-color="#F87216"/>
<stop offset="1" stop-color="#F87216" stop-opacity="0.07"/>
</linearGradient>
</defs>
</svg>
