<svg width="634" height="831" viewBox="0 0 634 831" fill="none" xmlns="http://www.w3.org/2000/svg">
<g opacity="0.5">
<mask id="path-1-inside-1_80_5483" fill="white">
<path d="M499.661 295.695C508.436 307.918 567.365 386.753 575.497 399.654C583.631 412.554 591.471 424.288 599.123 436.805C608.895 452.949 617.689 469.615 625.462 486.721C627.408 491.152 629.209 495.597 630.897 500.106C634.872 511.103 634.374 523.112 629.505 533.715C624.157 546.112 616.792 557.603 607.682 567.764C527.082 654.883 297.193 775.344 260.577 794.238C257.589 795.779 254.616 797.202 251.532 798.56C231.083 807.553 185.644 828.502 167.724 830.406C152.81 831.991 137.355 830.159 124.29 823.054C120.191 820.825 116.312 818.201 112.719 815.21C106.333 809.27 101.066 802.315 97.1485 794.656C89.122 778.892 82.9172 762.346 78.6424 745.319C77.6088 741.203 76.8032 737.048 76.0392 732.88C65.1806 673.652 -21.1085 206.443 6.09242 102.851C6.74225 100.374 9.49738 87.7745 13.7107 80.1719C22.3444 64.5952 31.8727 54.5776 45.9226 43.177L46.481 42.8453L48.5446 41.024C64.2053 28.8728 82.7933 20.6723 102.634 17.1646C133.255 11.939 181.722 2.89313 190.56 1.74086C206.571 -0.486068 222.94 1.63589 237.816 7.86764C239.395 8.52382 240.969 9.19207 242.537 9.87196C261.83 18.2309 278.985 30.381 293.524 45.1371C323.095 75.1465 383.595 143.31 499.662 295.697L499.661 295.695Z"/>
</mask>
<path d="M499.661 295.695C508.436 307.918 567.365 386.753 575.497 399.654C583.631 412.554 591.471 424.288 599.123 436.805C608.895 452.949 617.689 469.615 625.462 486.721C627.408 491.152 629.209 495.597 630.897 500.106C634.872 511.103 634.374 523.112 629.505 533.715C624.157 546.112 616.792 557.603 607.682 567.764C527.082 654.883 297.193 775.344 260.577 794.238C257.589 795.779 254.616 797.202 251.532 798.56C231.083 807.553 185.644 828.502 167.724 830.406C152.81 831.991 137.355 830.159 124.29 823.054C120.191 820.825 116.312 818.201 112.719 815.21C106.333 809.27 101.066 802.315 97.1485 794.656C89.122 778.892 82.9172 762.346 78.6424 745.319C77.6088 741.203 76.8032 737.048 76.0392 732.88C65.1806 673.652 -21.1085 206.443 6.09242 102.851C6.74225 100.374 9.49738 87.7745 13.7107 80.1719C22.3444 64.5952 31.8727 54.5776 45.9226 43.177L46.481 42.8453L48.5446 41.024C64.2053 28.8728 82.7933 20.6723 102.634 17.1646C133.255 11.939 181.722 2.89313 190.56 1.74086C206.571 -0.486068 222.94 1.63589 237.816 7.86764C239.395 8.52382 240.969 9.19207 242.537 9.87196C261.83 18.2309 278.985 30.381 293.524 45.1371C323.095 75.1465 383.595 143.31 499.662 295.697L499.661 295.695Z" stroke="url(#paint0_linear_80_5483)" stroke-width="6" mask="url(#path-1-inside-1_80_5483)"/>
</g>
<defs>
<linearGradient id="paint0_linear_80_5483" x1="-38.2736" y1="42.3033" x2="662.265" y2="598.877" gradientUnits="userSpaceOnUse">
<stop stop-color="#F87216"/>
<stop offset="1" stop-color="#F87216" stop-opacity="0.07"/>
</linearGradient>
</defs>
</svg>
