<svg width="230" height="694" viewBox="0 0 230 694" fill="none" xmlns="http://www.w3.org/2000/svg">
<path d="M201.903 258.896C178.756 293.867 124.627 367.087 -0.739663 512.667L-118.534 639.787C-132.334 652.772 -146.867 664.953 -162.06 676.271C-165.997 679.127 -169.978 681.851 -174.049 684.484C-183.758 690.61 -195.397 692.85 -206.625 690.759L-206.641 690.756L-206.658 690.753C-219.986 688.58 -232.868 684.307 -244.83 678.092C-296.79 650.054 -365.386 588.551 -424.45 530.13C-483.474 471.747 -532.824 416.6 -546.256 401.42C-548.429 398.964 -550.481 396.495 -552.494 393.908C-553.991 391.981 -555.702 389.799 -557.567 387.418C-564.108 379.071 -572.554 368.293 -580.43 357.566C-585.489 350.675 -590.299 343.824 -594.206 337.674C-598.127 331.499 -601.081 326.118 -602.489 322.143L-603.676 322.564L-602.489 322.143C-607.302 308.56 -608.856 293.792 -604.824 280.117C-603.556 275.815 -601.859 271.627 -599.746 267.62C-595.364 260.341 -589.757 253.868 -583.174 248.487C-569.403 237.273 -554.458 227.598 -538.612 219.633C-534.802 217.718 -530.894 216.003 -526.935 214.312L-524.674 213.346C-492.583 199.636 -370.36 147.418 -241.902 98.2736C-176.048 73.0794 -108.574 48.7004 -50.776 30.7329C-21.8766 21.7489 4.58623 14.3734 27.2077 9.30039C49.8534 4.22194 68.5585 1.4724 81.9788 1.69073L81.9791 1.69074C82.3169 1.69616 82.8085 1.69633 83.4263 1.69653C87.8168 1.69803 98.5819 1.70168 105.815 3.6084C122.92 8.11827 134.792 14.7166 149.079 25.2929L149.454 25.6675L149.555 25.7683L149.673 25.8483L151.899 27.3579C167.218 39.2484 179.316 54.7813 187.099 72.5614C192.423 84.9316 199.253 100.417 205.48 114.535C213.316 132.301 220.197 147.903 221.921 152.41L221.926 152.423C227.591 166.847 229.098 182.599 226.273 197.898L226.272 197.902C225.973 199.546 225.662 201.188 225.337 202.827L226.746 203.106L225.337 202.828C221.374 222.88 213.214 241.811 201.903 258.896Z" stroke="url(#paint0_linear_1_7437)" stroke-width="3"/>
<defs>
<linearGradient id="paint0_linear_1_7437" x1="132.213" y1="-55.9998" x2="-229.661" y2="753.937" gradientUnits="userSpaceOnUse">
<stop stop-color="#F87216"/>
<stop offset="1" stop-color="#F87216" stop-opacity="0.07"/>
</linearGradient>
</defs>
</svg>
