<svg width="303" height="620" viewBox="0 0 303 620" fill="none" xmlns="http://www.w3.org/2000/svg">
<path d="M800.944 284.47C770.59 313.408 701.516 372.736 546.879 486.744L403.734 584.44C387.389 594.027 370.509 602.666 353.177 610.316C348.703 612.224 344.215 613.993 339.66 615.653C328.831 619.463 316.985 619.055 306.505 614.516L306.49 614.51L306.474 614.503C293.965 609.417 282.357 602.383 272.08 593.66C227.668 554.755 174.49 479.522 129.919 409.415C85.3776 339.355 49.5474 274.602 39.8328 256.813C38.2608 253.934 36.8098 251.071 35.4241 248.101C34.3932 245.889 33.2119 243.38 31.9234 240.643C27.4059 231.05 21.5722 218.661 16.2825 206.45C12.8844 198.605 9.72063 190.855 7.28208 183.99C4.83385 177.096 3.15306 171.193 2.66522 167.004L1.41389 167.15L2.66524 167.004C0.997653 152.69 2.7711 137.947 9.74732 125.513C11.9419 121.601 14.5289 117.896 17.4807 114.461C23.3732 108.34 30.2811 103.278 37.8966 99.4989C53.8198 91.633 70.5438 85.5287 87.7654 81.2924C91.9065 80.2736 96.0979 79.4718 100.335 78.705L102.753 78.267C137.092 72.0471 267.874 48.3576 404.05 29.0525C473.861 19.1556 545.07 10.4141 605.417 5.76824C635.592 3.44528 663.032 2.1478 686.215 2.23959C709.423 2.33148 728.271 3.81629 741.306 7.01761L741.306 7.01769C741.634 7.0982 742.113 7.20783 742.716 7.34559C746.996 8.32474 757.49 10.7255 764.117 14.1951C779.787 22.4006 789.892 31.4769 801.466 44.9694L801.748 45.4179L801.823 45.5386L801.921 45.6429L803.755 47.6103C816.042 62.6136 824.376 80.4504 828.005 99.5173C830.44 112.762 833.651 129.379 836.577 144.53C840.26 163.595 843.495 180.337 844.172 185.115L844.174 185.129C846.485 200.452 844.446 216.145 838.285 230.43L838.283 230.434C837.626 231.97 836.956 233.502 836.275 235.027L837.586 235.613L836.275 235.028C827.945 253.694 815.775 270.333 800.944 284.47Z" stroke="url(#paint0_linear_1_7413)" stroke-width="3"/>
<defs>
<linearGradient id="paint0_linear_1_7413" x1="803.125" y1="-38.0381" x2="269.979" y2="670.978" gradientUnits="userSpaceOnUse">
<stop stop-color="#F87216"/>
<stop offset="1" stop-color="#F87216" stop-opacity="0.07"/>
</linearGradient>
</defs>
</svg>
