<svg width="117" height="615" viewBox="0 0 117 615" fill="none" xmlns="http://www.w3.org/2000/svg">
<path d="M305.489 591.107C280.624 572.893 228.763 530.622 126.345 433.649L37.2692 342.939C28.2498 332.397 19.8535 321.356 12.1208 309.869C10.175 306.899 8.32871 303.9 6.55269 300.841C2.47422 293.625 1.30689 285.175 3.28117 277.192L3.28521 277.176L3.28886 277.16C5.42348 267.596 9.0843 258.438 14.1352 250.024C36.9108 213.409 85.0631 166.01 130.598 125.384C176.091 84.7952 218.805 51.111 230.555 41.9503C232.451 40.4727 234.35 39.0836 236.334 37.7281C237.82 36.7144 239.503 35.5564 241.338 34.2937C247.766 29.8703 256.059 24.1633 264.293 18.8672C269.583 15.4648 274.828 12.2452 279.517 9.65579C284.232 7.05235 288.292 5.13787 291.239 4.28542L290.811 2.85707L291.239 4.28543C301.407 1.3433 312.285 0.813892 322.119 4.25648L322.473 3.27263L322.119 4.25651C325.216 5.34055 328.212 6.72848 331.059 8.40853C336.215 11.8584 340.73 16.16 344.407 21.1215C352.113 31.5608 358.637 42.79 363.866 54.6049L365.251 54.0119L363.866 54.6049C365.12 57.4404 366.225 60.341 367.313 63.2866L367.934 64.9683C376.758 88.8521 410.366 179.817 441.452 275.191C457.388 324.085 472.655 374.119 483.579 416.857C489.042 438.227 493.413 457.755 496.241 474.394C499.073 491.058 500.339 504.733 499.638 514.436L499.638 514.437C499.62 514.688 499.599 515.052 499.573 515.507C499.393 518.716 498.957 526.474 497.275 531.602C493.274 543.792 487.957 552.116 479.601 562.048L479.331 562.286L479.225 562.381L479.138 562.493L477.941 564.042C468.585 574.654 456.684 582.791 443.307 587.718C433.94 591.102 422.217 595.456 411.537 599.422C398.116 604.407 386.34 608.78 382.949 609.852L382.936 609.856C372.126 613.378 360.509 613.842 349.4 611.195L349.396 611.194C348.196 610.911 346.998 610.62 345.802 610.319L345.802 610.319C331.21 606.65 317.609 599.985 305.489 591.107L304.629 592.248L305.489 591.107ZM1.81283 276.838C3.98271 267.116 7.7047 257.807 12.8405 249.254L1.81283 276.838ZM501.145 514.545C501.129 514.773 501.11 515.113 501.086 515.546C500.911 518.692 500.466 526.718 498.713 532.061C494.627 544.514 489.175 553.014 480.694 563.084L480.341 563.396L501.145 514.545ZM383.413 611.269C372.334 614.879 360.43 615.354 349.047 612.641L383.413 611.269Z" stroke="url(#paint0_linear_1_5737)" stroke-width="3"/>
<defs>
<linearGradient id="paint0_linear_1_5737" x1="540.605" y1="553.301" x2="-39.0709" y2="250.625" gradientUnits="userSpaceOnUse">
<stop stop-color="#F87216"/>
<stop offset="1" stop-color="#F87216" stop-opacity="0.07"/>
</linearGradient>
</defs>
</svg>
