<svg width="181" height="143" viewBox="0 0 181 143" fill="none" xmlns="http://www.w3.org/2000/svg">
<path d="M573.287 -493.22C581.775 -452.126 595.482 -362.077 609.995 -170.489L611.495 -170.529C611.715 -165.917 612.465 -153.742 613.4 -138.569C615.564 -103.458 618.717 -52.2879 618.58 -41.5824C618.503 -35.472 618.487 -29.5455 618.471 -23.6932C618.448 -14.8423 618.425 -6.16077 618.19 2.73181L616.69 2.68555C616.69 2.6861 616.69 2.68665 616.69 2.68719C616.106 21.6265 614.418 40.5144 611.635 59.2593C610.859 64.0638 609.956 68.8061 608.923 73.5477C606.352 84.7375 599.606 94.5519 590.039 101.015L590.025 101.025L590.011 101.034C578.881 108.923 566.562 115.012 553.509 119.077C496.065 135.995 402.647 141.011 318.293 141.465C233.995 141.919 158.966 137.819 138.423 136.583C135.098 136.383 131.851 136.089 128.548 135.682C126.089 135.379 123.293 135.045 120.244 134.68C109.555 133.403 95.7525 131.754 82.3959 129.738C73.815 128.443 65.4419 127 58.2201 125.413C50.9701 123.819 44.9825 122.102 41.1135 120.285C27.8994 114.081 16.1787 104.735 9.25587 92.2147L7.94317 92.9405L9.25585 92.2146C7.07797 88.2761 5.28982 84.1157 3.93056 79.7901C1.85049 71.5469 1.22943 63.0078 2.09218 54.5516C3.92832 36.8854 7.71149 19.4778 13.3695 2.64233C14.7298 -1.40582 16.3039 -5.38135 17.9328 -9.37695L18.8622 -11.6575C32.059 -44.0433 82.3222 -167.392 139.268 -292.976C168.462 -357.357 199.403 -422.307 228 -475.881C242.299 -502.668 256.004 -526.595 268.603 -546.178C281.216 -565.782 292.672 -580.953 302.465 -590.289L302.465 -590.289C302.711 -590.524 303.064 -590.871 303.508 -591.308C306.66 -594.41 314.395 -602.022 320.96 -605.791C336.484 -614.699 349.751 -618.43 367.609 -621.055H368.151H368.291L368.429 -621.081L371.112 -621.588C390.657 -624.014 410.504 -621.583 428.865 -614.512C441.567 -609.53 457.588 -603.41 472.195 -597.83C490.578 -590.808 506.723 -584.641 511.197 -582.673L511.21 -582.668C525.64 -576.471 538.034 -566.395 546.989 -553.58L546.992 -553.576C547.957 -552.203 548.913 -550.821 549.857 -549.432L549.857 -549.432C561.409 -532.451 569.141 -513.296 573.287 -493.22Z" stroke="url(#paint0_linear_1_5810)" stroke-width="3"/>
<defs>
<linearGradient id="paint0_linear_1_5810" x1="297.136" y1="-666.611" x2="610.365" y2="165.175" gradientUnits="userSpaceOnUse">
<stop stop-color="#F87216"/>
<stop offset="1" stop-color="#F87216" stop-opacity="0.07"/>
</linearGradient>
</defs>
</svg>
