<svg width="188" height="582" viewBox="0 0 188 582" fill="none" xmlns="http://www.w3.org/2000/svg">
<mask id="path-1-inside-1_1_7538" fill="white">
<path d="M117.446 140.312C123.317 128.951 160.279 53.9802 166.917 42.8108C173.553 31.6407 179.417 21.1597 185.949 10.4957C194.414 -3.18671 203.655 -16.3699 213.629 -28.99C216.239 -32.2099 218.916 -35.3298 221.685 -38.3942C228.496 -45.7638 237.818 -50.2906 247.776 -51.0656C259.283 -52.2225 270.888 -51.5426 282.162 -49.0515C379.794 -25.8843 560.947 92.3215 589.578 111.268C591.914 112.814 594.154 114.398 596.388 116.089C611.193 127.304 644.825 151.833 653.255 164.095C660.272 174.3 664.901 186.29 664.592 198.688C664.495 202.578 664.012 206.469 663.139 210.301C661.112 217.365 657.878 224.029 653.582 229.997C644.727 242.255 634.568 253.506 623.291 263.549C620.565 265.977 617.721 268.255 614.85 270.507C574.059 302.523 252.54 555.528 163.195 577.917C161.059 578.453 150.408 581.578 142.987 581.608C127.782 581.669 116.454 578.816 102.313 573.236L101.843 572.965L99.6546 572.205C84.3152 565.759 70.838 555.574 60.4398 542.567C44.535 522.417 18.7717 490.839 14.4517 484.878C6.51974 474.137 1.7537 461.364 0.69377 448.004C0.577345 446.588 0.47177 445.17 0.37756 443.753C-0.786685 426.313 1.76417 408.886 7.31521 392.3C18.603 358.567 46.8406 286.799 117.446 140.31L117.446 140.312Z"/>
</mask>
<path d="M117.446 140.312L114.781 138.934L120.044 141.812L117.446 140.312ZM166.917 42.8108L169.496 44.3433L169.496 44.3431L166.917 42.8108ZM185.949 10.4957L183.398 8.9175L183.391 8.92862L185.949 10.4957ZM213.629 -28.99L211.298 -30.8794L211.287 -30.8648L211.275 -30.8502L213.629 -28.99ZM221.685 -38.3942L219.482 -40.4303L219.471 -40.4181L219.46 -40.4058L221.685 -38.3942ZM247.776 -51.0656L248.009 -48.0746L248.043 -48.0772L248.076 -48.0806L247.776 -51.0656ZM282.162 -49.0515L282.855 -51.9705L282.832 -51.9759L282.809 -51.9809L282.162 -49.0515ZM589.578 111.268L591.234 108.766L591.233 108.766L589.578 111.268ZM596.388 116.089L598.2 113.697L598.199 113.697L596.388 116.089ZM653.255 164.095L650.783 165.795L650.783 165.795L653.255 164.095ZM664.592 198.688L661.593 198.614L661.593 198.614L664.592 198.688ZM663.139 210.301L666.022 211.128L666.045 211.048L666.064 210.967L663.139 210.301ZM653.582 229.997L656.014 231.754L656.018 231.75L653.582 229.997ZM623.291 263.549L621.295 261.309L621.295 261.309L623.291 263.549ZM614.85 270.507L612.998 268.147L612.998 268.148L614.85 270.507ZM163.195 577.917L162.466 575.007L162.465 575.007L163.195 577.917ZM142.987 581.608L142.999 584.608L142.999 584.608L142.987 581.608ZM102.313 573.236L100.813 575.834L101.005 575.945L101.212 576.027L102.313 573.236ZM101.843 572.965L103.343 570.367L103.096 570.224L102.827 570.131L101.843 572.965ZM99.6546 572.205L98.4923 574.971L98.5805 575.008L98.6708 575.039L99.6546 572.205ZM60.4398 542.567L58.0849 544.426L58.0907 544.433L58.0965 544.441L60.4398 542.567ZM14.4517 484.878L16.8808 483.118L16.873 483.107L16.865 483.096L14.4517 484.878ZM0.69377 448.004L3.68438 447.766L3.68367 447.758L0.69377 448.004ZM0.37756 443.753L3.37097 443.554L3.37091 443.553L0.37756 443.753ZM7.31521 392.3L10.1601 393.252L10.1602 393.252L7.31521 392.3ZM117.446 140.31L120.149 141.613L114.848 138.81L117.446 140.31ZM120.111 141.689C123.057 135.987 133.788 114.359 144.576 92.8335C155.416 71.2026 166.248 49.8082 169.496 44.3433L164.338 41.2782C160.948 46.9827 149.98 68.6583 139.212 90.1453C128.391 111.737 117.705 133.275 114.781 138.934L120.111 141.689ZM169.496 44.3431C176.196 33.0653 181.976 22.7249 188.508 12.0628L183.391 8.92862C176.857 19.5946 170.91 30.2161 164.337 41.2785L169.496 44.3431ZM188.501 12.074C196.904 -1.51081 206.08 -14.5999 215.982 -27.1299L211.275 -30.8502C201.23 -18.1399 191.923 -4.86261 183.398 8.9175L188.501 12.074ZM215.959 -27.1007C218.535 -30.2775 221.176 -33.3566 223.911 -36.3826L219.46 -40.4058C216.655 -37.3029 213.944 -34.1423 211.298 -30.8794L215.959 -27.1007ZM223.889 -36.3581C230.189 -43.1752 238.809 -47.3586 248.009 -48.0746L247.543 -54.0565C236.828 -53.2226 226.803 -48.3523 219.482 -40.4303L223.889 -36.3581ZM248.076 -48.0806C259.267 -49.2058 270.552 -48.5445 281.515 -46.1222L282.809 -51.9809C271.224 -54.5407 259.3 -55.2393 247.476 -54.0505L248.076 -48.0806ZM281.469 -46.1326C329.813 -34.661 399.164 0.467795 460.259 35.2972C521.248 70.0661 573.632 104.314 587.922 113.77L591.233 108.766C576.892 99.2761 524.384 64.9474 463.231 30.0848C402.184 -4.71712 332.143 -40.2748 282.855 -51.9705L281.469 -46.1326ZM587.922 113.77C590.207 115.282 592.396 116.829 594.577 118.481L598.199 113.697C595.913 111.967 593.621 110.347 591.234 108.766L587.922 113.77ZM594.576 118.48C602.02 124.119 614.066 133.008 625.336 142.04C630.966 146.553 636.365 151.072 640.865 155.207C645.408 159.381 648.878 163.024 650.783 165.795L655.727 162.396C653.417 159.035 649.522 155.013 644.925 150.789C640.285 146.526 634.77 141.913 629.088 137.359C617.733 128.257 605.561 119.274 598.2 113.697L594.576 118.48ZM650.783 165.795C657.547 175.632 661.882 187.011 661.593 198.614L667.591 198.763C667.92 185.57 662.997 172.969 655.727 162.395L650.783 165.795ZM661.593 198.614C661.501 202.306 661.043 205.998 660.214 209.634L666.064 210.967C666.982 206.94 667.489 202.851 667.591 198.763L661.593 198.614ZM660.255 209.473C658.323 216.205 655.241 222.556 651.147 228.245L656.018 231.75C660.514 225.501 663.9 218.525 666.022 211.128L660.255 209.473ZM651.151 228.24C642.423 240.322 632.41 251.411 621.295 261.309L625.286 265.79C636.726 255.602 647.031 244.189 656.014 231.754L651.151 228.24ZM621.295 261.309C618.642 263.672 615.859 265.902 612.998 268.147L616.702 272.867C619.582 270.607 622.487 268.282 625.286 265.789L621.295 261.309ZM612.998 268.148C592.604 284.154 502.066 355.378 405.47 425.393C357.169 460.403 307.387 495.086 264.121 522.405C242.487 536.064 222.513 547.863 205.189 556.936C187.821 566.031 173.28 572.297 162.466 575.007L163.924 580.827C175.447 577.94 190.497 571.402 207.973 562.251C225.492 553.076 245.614 541.186 267.324 527.478C310.746 500.061 360.645 465.293 408.991 430.251C505.689 360.163 596.306 288.876 616.702 272.867L612.998 268.148ZM162.465 575.007C160.065 575.609 149.923 578.58 142.975 578.608L142.999 584.608C150.892 584.576 162.053 581.297 163.925 580.827L162.465 575.007ZM142.975 578.608C128.252 578.667 117.309 575.928 103.414 570.445L101.212 576.027C115.599 581.704 127.312 584.671 142.999 584.608L142.975 578.608ZM103.813 570.638L103.343 570.367L100.343 575.563L100.813 575.834L103.813 570.638ZM102.827 570.131L100.638 569.371L98.6708 575.039L100.859 575.799L102.827 570.131ZM100.817 569.439C85.9397 563.187 72.8685 553.31 62.783 540.694L58.0965 544.441C68.8076 557.839 82.6907 568.33 98.4923 574.971L100.817 569.439ZM62.7946 540.709C46.7904 520.433 21.1571 489.018 16.8808 483.118L12.0226 486.639C16.3863 492.66 42.2797 524.402 58.0849 544.426L62.7946 540.709ZM16.865 483.096C9.26728 472.807 4.70014 460.57 3.68438 447.766L-2.29684 448.241C-1.19273 462.157 3.7722 475.466 12.0384 486.66L16.865 483.096ZM3.68367 447.758C3.56853 446.357 3.4641 444.955 3.37097 443.554L-2.61583 443.952C-2.52056 445.385 -2.41381 446.818 -2.29613 448.249L3.68367 447.758ZM3.37091 443.553C2.23499 426.538 4.72155 409.502 10.1601 393.252L4.4703 391.348C-1.19323 408.27 -3.80839 426.088 -2.61576 443.953L3.37091 443.553ZM10.1602 393.252C21.3884 359.697 49.5624 288.061 120.149 141.613L114.744 139.008C44.1187 285.536 15.8177 357.437 4.47027 391.348L10.1602 393.252ZM114.848 138.81L114.848 138.812L120.044 141.812L120.044 141.81L114.848 138.81Z" fill="url(#paint0_linear_1_7538)" mask="url(#path-1-inside-1_1_7538)"/>
<defs>
<linearGradient id="paint0_linear_1_7538" x1="134.459" y1="634.847" x2="252.867" y2="-106.49" gradientUnits="userSpaceOnUse">
<stop stop-color="#F87216"/>
<stop offset="1" stop-color="#F87216" stop-opacity="0.07"/>
</linearGradient>
</defs>
</svg>
