<svg width="292" height="630" viewBox="0 0 292 630" fill="none" xmlns="http://www.w3.org/2000/svg">
<mask id="path-1-inside-1_1_7412" fill="white">
<path d="M121.244 125.19C131.453 131.24 198.917 169.514 208.908 176.264C218.899 183.012 228.293 189.008 237.821 195.634C250.041 204.211 261.757 213.481 272.912 223.399C275.754 225.991 278.5 228.638 281.19 231.369C287.651 238.074 291.343 246.954 291.526 256.221C291.979 266.943 290.725 277.657 287.811 287.967C261.098 377.167 141.85 538.629 122.758 564.134C121.199 566.215 119.612 568.206 117.926 570.184C106.74 583.296 82.2071 613.133 70.3942 620.283C60.563 626.235 49.2064 629.879 37.7374 628.925C34.1389 628.626 30.5605 627.97 27.058 626.955C20.6228 624.697 14.6232 621.342 9.32509 617.042C-1.55454 608.18 -11.431 598.163 -20.1281 587.176C-22.2305 584.52 -24.1877 581.762 -26.1203 578.982C-53.5854 539.472 -270.677 228.01 -286.613 144.037C-286.994 142.03 -289.317 131.994 -288.946 125.118C-288.184 111.029 -284.932 100.688 -279.002 87.8881L-278.726 87.4675L-277.904 85.4808C-271.107 71.6171 -260.948 59.6796 -248.339 50.7463C-228.817 37.0959 -198.177 14.9271 -192.423 11.2457C-182.045 4.47522 -169.956 0.746948 -157.522 0.483536C-156.204 0.451845 -154.885 0.430252 -153.567 0.419244C-137.348 0.278587 -121.341 3.57899 -106.274 9.61345C-75.6318 21.8846 -10.6641 51.9036 121.245 125.191L121.244 125.19Z"/>
</mask>
<path d="M121.244 125.19L122.773 122.609L119.596 127.697L121.244 125.19ZM208.908 176.264L207.228 178.75L207.229 178.75L208.908 176.264ZM237.821 195.634L239.544 193.178L239.533 193.171L237.821 195.634ZM272.912 223.399L274.933 221.182L274.919 221.17L274.905 221.157L272.912 223.399ZM281.19 231.369L283.351 229.287L283.339 229.275L283.327 229.263L281.19 231.369ZM291.526 256.221L288.526 256.28L288.527 256.313L288.528 256.347L291.526 256.221ZM287.811 287.967L290.685 288.828L290.691 288.806L290.698 288.783L287.811 287.967ZM122.758 564.134L125.159 565.932L125.159 565.932L122.758 564.134ZM117.926 570.184L120.208 572.131L120.209 572.13L117.926 570.184ZM70.3942 620.283L68.8407 617.717L68.8406 617.717L70.3942 620.283ZM37.7374 628.925L37.9859 625.936L37.9858 625.936L37.7374 628.925ZM27.058 626.955L26.0647 629.785L26.1431 629.813L26.2229 629.836L27.058 626.955ZM9.32509 617.042L7.43035 619.368L7.43458 619.372L9.32509 617.042ZM-20.1281 587.176L-17.7759 585.314L-17.776 585.314L-20.1281 587.176ZM-26.1203 578.982L-23.657 577.27L-23.657 577.27L-26.1203 578.982ZM-286.613 144.037L-283.666 143.478L-283.666 143.477L-286.613 144.037ZM-288.946 125.118L-291.941 124.956L-291.941 124.956L-288.946 125.118ZM-279.002 87.8881L-281.509 86.24L-281.631 86.4256L-281.724 86.6271L-279.002 87.8881ZM-278.726 87.4675L-276.219 89.1156L-276.062 88.8774L-275.953 88.6139L-278.726 87.4675ZM-277.904 85.4808L-280.598 84.1602L-280.64 84.2461L-280.676 84.3344L-277.904 85.4808ZM-248.339 50.7463L-250.058 48.2877L-250.066 48.293L-250.073 48.2984L-248.339 50.7463ZM-192.423 11.2457L-190.806 13.7728L-190.795 13.7656L-190.783 13.7582L-192.423 11.2457ZM-157.522 0.483536L-157.458 3.48287L-157.45 3.48266L-157.522 0.483536ZM-153.567 0.419244L-153.542 3.41913L-153.541 3.41912L-153.567 0.419244ZM-106.274 9.61345L-107.39 12.3984L-107.39 12.3984L-106.274 9.61345ZM121.245 125.191L119.788 127.813L122.893 122.684L121.245 125.191ZM119.714 127.771C124.84 130.808 144.301 141.914 163.66 153.064C183.121 164.273 202.349 175.453 207.228 178.75L210.587 173.778C205.477 170.325 185.976 158.993 166.655 147.865C147.232 136.678 127.857 125.622 122.773 122.609L119.714 127.771ZM207.229 178.75C217.323 185.568 226.582 191.473 236.108 198.097L239.533 193.171C230.004 186.544 220.474 180.456 210.587 173.778L207.229 178.75ZM236.097 198.089C248.223 206.6 259.849 215.799 270.918 225.641L274.905 221.157C263.664 211.163 251.858 201.821 239.544 193.178L236.097 198.089ZM270.89 225.616C273.692 228.17 276.399 230.78 279.053 233.474L283.327 229.263C280.601 226.496 277.816 223.811 274.933 221.182L270.89 225.616ZM279.03 233.45C284.969 239.614 288.359 247.773 288.526 256.28L294.525 256.162C294.328 246.136 290.333 236.535 283.351 229.287L279.03 233.45ZM288.528 256.347C288.968 266.752 287.751 277.148 284.924 287.151L290.698 288.783C293.698 278.167 294.989 267.134 294.523 256.094L288.528 256.347ZM284.937 287.107C271.72 331.242 235.463 393.575 199.911 448.302C164.424 502.926 129.884 549.608 120.356 562.336L125.159 565.932C134.724 553.155 169.353 506.354 204.942 451.571C240.465 396.89 277.189 333.893 290.685 288.828L284.937 287.107ZM120.356 562.336C118.835 564.368 117.287 566.309 115.643 568.238L120.209 572.13C121.937 570.102 123.564 568.063 125.159 565.932L120.356 562.336ZM115.643 568.237C110.017 574.832 101.138 585.509 92.1667 595.46C87.6847 600.432 83.2115 605.187 79.1439 609.128C75.0345 613.11 71.4879 616.114 68.8407 617.717L71.9477 622.85C75.2069 620.877 79.1567 617.47 83.3192 613.437C87.5233 609.363 92.0972 604.498 96.6232 599.478C105.668 589.445 114.649 578.647 120.208 572.131L115.643 568.237ZM68.8406 617.717C59.3916 623.437 48.6619 626.823 37.9859 625.936L37.4889 631.915C49.751 632.934 61.7343 629.033 71.9478 622.85L68.8406 617.717ZM37.9858 625.936C34.5849 625.653 31.2031 625.032 27.8931 624.073L26.2229 629.836C29.918 630.907 33.6929 631.6 37.489 631.915L37.9858 625.936ZM28.0512 624.124C21.9422 621.98 16.2461 618.796 11.2156 614.713L7.43458 619.372C13.0003 623.889 19.3033 627.413 26.0647 629.785L28.0512 624.124ZM11.2198 614.716C0.509078 605.991 -9.21395 596.13 -17.7759 585.314L-22.4804 589.038C-13.648 600.196 -3.6181 610.368 7.43035 619.368L11.2198 614.716ZM-17.776 585.314C-19.8179 582.734 -21.7314 580.04 -23.657 577.27L-28.5837 580.694C-26.644 583.485 -24.6432 586.306 -22.4803 589.038L-17.776 585.314ZM-23.657 577.27C-37.3887 557.516 -98.499 469.814 -158.163 376.566C-187.997 329.939 -217.447 281.96 -240.425 240.415C-251.915 219.642 -261.768 200.51 -269.237 183.98C-276.727 167.405 -281.742 153.616 -283.666 143.478L-289.56 144.597C-287.5 155.452 -282.245 169.766 -274.705 186.451C-267.145 203.181 -257.209 222.467 -245.676 243.319C-222.608 285.026 -193.081 333.127 -163.217 379.8C-103.485 473.154 -42.317 560.938 -28.5837 580.694L-23.657 577.27ZM-283.666 143.477C-284.098 141.202 -286.296 131.685 -285.95 125.28L-291.941 124.956C-292.338 132.304 -289.891 142.857 -289.56 144.597L-283.666 143.477ZM-285.95 125.28C-285.215 111.672 -282.098 101.709 -276.28 89.1491L-281.724 86.6271C-287.765 99.6675 -291.154 110.386 -291.941 124.956L-285.95 125.28ZM-276.495 89.5361L-276.219 89.1156L-281.232 85.8195L-281.509 86.24L-276.495 89.5361ZM-275.953 88.6139L-275.132 86.6272L-280.676 84.3344L-281.498 86.3211L-275.953 88.6139ZM-275.21 86.8014C-268.634 73.3879 -258.805 61.8379 -246.605 53.1941L-250.073 48.2984C-263.091 57.5214 -273.58 69.8463 -280.598 84.1602L-275.21 86.8014ZM-246.62 53.2049C-226.966 39.4624 -196.497 17.414 -190.806 13.7728L-194.039 8.71859C-199.856 12.4402 -230.667 34.7292 -250.058 48.2877L-246.62 53.2049ZM-190.783 13.7582C-180.877 7.29522 -169.334 3.73444 -157.458 3.48287L-157.586 -2.51577C-170.577 -2.24055 -183.213 1.65524 -194.062 8.73313L-190.783 13.7582ZM-157.45 3.48266C-156.147 3.45133 -154.844 3.43003 -153.542 3.41913L-153.592 -2.58067C-154.926 -2.5695 -156.261 -2.54767 -157.594 -2.51559L-157.45 3.48266ZM-153.541 3.41912C-137.748 3.28218 -122.127 6.49571 -107.39 12.3984L-105.159 6.82853C-120.554 0.662283 -136.949 -2.72498 -153.593 -2.58065L-153.541 3.41912ZM-107.39 12.3984C-76.9213 24.5999 -12.0821 54.5477 119.788 127.813L122.702 122.569C-9.24603 49.2596 -74.3422 19.1695 -105.159 6.82847L-107.39 12.3984ZM122.893 122.684L122.892 122.684L119.596 127.697L119.597 127.698L122.893 122.684Z" fill="url(#paint0_linear_1_7412)" mask="url(#path-1-inside-1_1_7412)"/>
<defs>
<linearGradient id="paint0_linear_1_7412" x1="-337.807" y1="114.355" x2="342.597" y2="263.918" gradientUnits="userSpaceOnUse">
<stop stop-color="#F87216"/>
<stop offset="1" stop-color="#F87216" stop-opacity="0.07"/>
</linearGradient>
</defs>
</svg>
