<svg width="201" height="710" viewBox="0 0 201 710" fill="none" xmlns="http://www.w3.org/2000/svg">
<mask id="path-1-inside-1_87_7708" fill="white">
<path d="M434.577 194.506C444.031 203.117 506.88 258.224 515.951 267.526C525.023 276.827 533.629 285.204 542.239 294.274C553.265 305.991 563.607 318.33 573.216 331.23C575.65 334.585 577.971 337.977 580.214 341.446C585.57 349.932 587.53 360.108 585.701 369.927C583.84 381.342 580.18 392.375 574.856 402.62C527.209 490.929 366.145 635.315 340.434 658.067C338.336 659.924 336.226 661.678 334.015 663.398C319.35 674.795 286.952 700.933 272.926 705.902C261.253 710.039 248.473 711.407 236.577 707.899C232.845 706.799 229.212 705.325 225.737 703.49C219.438 699.704 213.838 694.855 209.185 689.162C199.636 677.435 191.398 664.71 184.616 651.218C182.977 647.957 181.513 644.62 180.08 641.264C159.713 593.577 -1.4567 217.531 0.0415839 125.436C0.0769181 123.234 -0.185372 112.137 1.70624 104.961C5.5828 90.2581 11.2708 80.0547 20.3207 67.8395L20.7042 67.456L22.0045 65.5386C32.2012 52.3902 45.5268 42.0083 60.7818 35.3307C84.3616 25.1831 121.532 8.47072 128.408 5.84069C140.836 0.959116 154.408 -0.338548 167.587 2.09544C168.984 2.3494 170.381 2.61432 171.775 2.89022C188.921 6.27934 205.095 13.2538 219.679 22.9084C249.34 42.5422 311.355 88.3927 434.578 194.507L434.577 194.506Z"/>
</mask>
<path d="M434.577 194.506L436.597 192.288L432.456 196.627L434.577 194.506ZM515.951 267.526L513.804 269.62L513.804 269.621L515.951 267.526ZM542.239 294.274L544.424 292.218L544.415 292.209L542.239 294.274ZM573.216 331.23L575.644 329.468L575.633 329.453L575.622 329.438L573.216 331.23ZM580.214 341.446L582.751 339.845L582.742 339.831L582.733 339.817L580.214 341.446ZM585.701 369.927L582.752 369.378L582.746 369.411L582.74 369.444L585.701 369.927ZM574.856 402.62L577.496 404.045L577.507 404.024L577.518 404.004L574.856 402.62ZM340.434 658.067L342.422 660.314L342.422 660.314L340.434 658.067ZM334.015 663.398L335.856 665.766L335.857 665.766L334.015 663.398ZM272.926 705.902L271.924 703.074L271.924 703.074L272.926 705.902ZM236.577 707.899L237.426 705.022L237.426 705.022L236.577 707.899ZM225.737 703.49L224.191 706.061L224.262 706.104L224.336 706.143L225.737 703.49ZM209.185 689.162L206.859 691.056L206.862 691.06L209.185 689.162ZM184.616 651.218L187.297 649.871L187.297 649.871L184.616 651.218ZM180.08 641.264L182.839 640.086L182.839 640.086L180.08 641.264ZM0.0415839 125.436L3.04119 125.485L3.0412 125.484L0.0415839 125.436ZM1.70624 104.961L-1.19464 104.196L-1.19467 104.196L1.70624 104.961ZM20.3207 67.8395L18.1993 65.7182L18.0423 65.8752L17.9101 66.0537L20.3207 67.8395ZM20.7042 67.456L22.8255 69.5773L23.0271 69.3758L23.1871 69.1398L20.7042 67.456ZM22.0045 65.5386L19.6339 63.7001L19.5753 63.7757L19.5216 63.8548L22.0045 65.5386ZM60.7818 35.3307L59.5958 32.5751L59.5873 32.5788L59.5788 32.5825L60.7818 35.3307ZM128.408 5.84069L129.479 8.6427L129.492 8.63793L129.504 8.63304L128.408 5.84069ZM167.587 2.09544L167.042 5.04556L167.05 5.0471L167.587 2.09544ZM171.775 2.89022L171.192 5.83311L171.193 5.83329L171.775 2.89022ZM219.679 22.9084L218.023 25.4099L218.023 25.41L219.679 22.9084ZM434.578 194.507L432.62 196.78L436.699 192.385L434.578 194.507ZM432.557 196.723C437.302 201.045 455.415 217.008 473.415 233C491.504 249.069 509.365 265.069 513.804 269.62L518.099 265.432C513.466 260.681 495.368 244.476 477.4 228.514C459.345 212.473 441.306 196.577 436.597 192.288L432.557 196.723ZM513.804 269.621C522.963 279.011 531.455 287.271 540.063 296.339L544.415 292.209C535.804 283.137 527.083 274.643 518.099 265.431L513.804 269.621ZM540.054 296.33C551.001 307.963 561.27 320.214 570.81 333.022L575.622 329.438C565.944 316.445 555.528 304.019 544.424 292.218L540.054 296.33ZM570.788 332.992C573.19 336.302 575.48 339.65 577.695 343.075L582.733 339.817C580.462 336.305 578.111 332.868 575.644 329.468L570.788 332.992ZM577.677 343.047C582.632 350.897 584.441 360.306 582.752 369.378L588.65 370.476C590.618 359.911 588.508 348.967 582.751 339.845L577.677 343.047ZM582.74 369.444C580.931 380.545 577.371 391.275 572.194 401.237L577.518 404.004C582.989 393.476 586.75 382.138 588.662 370.41L582.74 369.444ZM572.216 401.196C548.623 444.923 496.742 502.819 447.286 552.818C397.917 602.73 351.279 644.465 338.446 655.821L342.422 660.314C355.301 648.918 402.05 607.084 451.552 557.037C500.968 507.078 553.442 448.626 577.496 404.045L572.216 401.196ZM338.446 655.821C336.394 657.637 334.333 659.35 332.173 661.03L335.857 665.766C338.119 664.006 340.278 662.211 342.422 660.314L338.446 655.821ZM332.174 661.029C324.801 666.76 313.097 676.095 301.456 684.642C295.639 688.913 289.877 692.958 284.718 696.235C279.51 699.542 275.094 701.951 271.924 703.074L273.928 708.73C277.772 707.368 282.665 704.647 287.935 701.299C293.254 697.921 299.137 693.788 305.007 689.479C316.736 680.866 328.565 671.433 335.856 665.766L332.174 661.029ZM271.924 703.074C260.672 707.062 248.558 708.304 237.426 705.022L235.729 710.777C248.388 714.509 261.834 713.015 273.928 708.73L271.924 703.074ZM237.426 705.022C233.884 703.977 230.436 702.579 227.138 700.837L224.336 706.143C227.988 708.072 231.806 709.62 235.729 710.777L237.426 705.022ZM227.283 700.919C221.28 697.311 215.943 692.69 211.508 687.263L206.862 691.06C211.733 697.02 217.596 702.097 224.191 706.061L227.283 700.919ZM211.511 687.267C202.1 675.71 193.981 663.168 187.297 649.871L181.936 652.565C188.816 666.252 197.173 679.161 206.859 691.056L211.511 687.267ZM187.297 649.871C185.701 646.696 184.267 643.43 182.839 640.086L177.321 642.442C178.759 645.81 180.253 649.217 181.936 652.566L187.297 649.871ZM182.839 640.086C172.656 616.244 127.292 510.357 84.6631 398.931C63.3474 343.214 42.7308 286.152 27.5411 237.29C19.9459 212.858 13.7186 190.511 9.43936 171.429C5.14919 152.299 2.85985 136.631 3.04119 125.485L-2.95802 125.387C-3.15125 137.264 -0.731786 153.494 3.58476 172.742C7.91221 192.039 14.1896 214.553 21.8116 239.071C37.0562 288.11 57.724 345.307 79.0592 401.075C121.733 512.618 167.137 618.598 177.321 642.443L182.839 640.086ZM3.0412 125.484C3.08089 123.01 2.83592 112.445 4.60712 105.725L-1.19467 104.196C-3.20669 111.829 -2.92706 123.457 -2.95802 125.388L3.0412 125.484ZM4.60709 105.726C8.36073 91.4892 13.8389 81.6279 22.7312 69.6254L17.9101 66.0537C8.70274 78.4815 2.80485 89.027 -1.19464 104.196L4.60709 105.726ZM22.442 69.9609L22.8255 69.5773L18.5829 65.3347L18.1993 65.7182L22.442 69.9609ZM23.1871 69.1398L24.4874 67.2224L19.5216 63.8548L18.2213 65.7722L23.1871 69.1398ZM24.3752 67.3771C34.2646 54.6249 47.1887 44.5556 61.9847 38.079L59.5788 32.5825C43.865 39.4609 30.1378 50.1555 19.6339 63.7001L24.3752 67.3771ZM61.9677 38.0864C85.695 27.8753 122.673 11.2461 129.479 8.6427L127.336 3.03868C120.391 5.6953 83.0282 22.4909 59.5958 32.5751L61.9677 38.0864ZM129.504 8.63304C141.409 3.95713 154.412 2.71297 167.042 5.04555L168.132 -0.854676C154.403 -3.39007 140.263 -2.0389 127.311 3.04837L129.504 8.63304ZM167.05 5.0471C168.433 5.29831 169.814 5.5603 171.192 5.83311L172.357 -0.052662C170.948 -0.331659 169.536 -0.5995 168.123 -0.856222L167.05 5.0471ZM171.193 5.83329C187.922 9.13984 203.734 15.951 218.023 25.4099L221.335 20.4069C206.455 10.5567 189.921 3.4188 172.356 -0.0528347L171.193 5.83329ZM218.023 25.41C247.528 44.9402 309.431 90.695 432.62 196.78L436.535 192.233C313.279 86.0904 251.153 40.1443 221.334 20.4068L218.023 25.41ZM436.699 192.385L436.698 192.384L432.456 196.627L432.457 196.628L436.699 192.385Z" fill="url(#paint0_linear_87_7708)" mask="url(#path-1-inside-1_87_7708)"/>
<defs>
<linearGradient id="paint0_linear_87_7708" x1="-47.5114" y1="82.9443" x2="637.919" y2="389.19" gradientUnits="userSpaceOnUse">
<stop stop-color="#F87216"/>
<stop offset="1" stop-color="#F87216" stop-opacity="0.07"/>
</linearGradient>
</defs>
</svg>
