<svg width="234" height="520" viewBox="0 0 234 520" fill="none" xmlns="http://www.w3.org/2000/svg">
<mask id="path-1-inside-1_1_5858" fill="white">
<path d="M-150.523 55.5134C-137.633 51.4688 -53.9006 23.4655 -40.58 20.1267C-27.2599 16.7865 -15.0329 13.3851 -2.16872 10.3415C14.3983 6.49717 31.1733 3.59358 48.075 1.64464C52.4366 1.19597 56.7727 0.869564 61.137 0.652738C71.7448 0.241581 82.1054 3.77655 90.1348 10.5443C99.6093 18.1727 107.783 27.2268 114.354 37.3711C170.066 126.398 217.173 347.013 224.421 382.076C225.012 384.938 225.504 387.755 225.91 390.647C228.597 409.823 235.41 452.685 232.545 467.934C230.161 480.625 224.655 492.873 215.15 501.781C212.167 504.576 208.896 507.087 205.377 509.267C198.576 512.978 191.172 515.505 183.494 516.738C167.7 519.244 151.683 520.048 135.734 519.137C131.879 518.917 128.047 518.499 124.214 518.043C69.7495 511.572 -360.043 461.047 -443.632 411.697C-445.631 410.518 -455.937 404.971 -461.512 399.524C-472.933 388.362 -479.273 377.911 -485.679 363.377L-485.827 362.831L-486.896 360.658C-493.55 344.603 -496.015 327.165 -494.065 309.917C-490.891 283.347 -486.545 241.09 -485.318 233.513C-483.217 219.752 -477.228 206.827 -468.028 196.201C-467.056 195.072 -466.075 193.95 -465.085 192.836C-452.911 179.126 -437.966 168.164 -421.407 160.034C-387.73 143.496 -312.92 111.422 -150.522 55.5131L-150.523 55.5134Z"/>
</mask>
<path d="M-150.523 55.5135L-151.443 52.657L-149.736 58.4082L-150.523 55.5135ZM-40.58 20.1268L-39.8285 23.0308L-39.8282 23.0307L-40.58 20.1268ZM-2.16872 10.3415L-2.86896 7.42508L-2.88149 7.42807L-2.16872 10.3415ZM48.075 1.64467L47.7467 -1.33381L47.7283 -1.33192L47.71 -1.32979L48.075 1.64467ZM61.137 0.652716L61.0003 -2.33928L60.984 -2.33861L60.9675 -2.33782L61.137 0.652716ZM90.1348 10.5443L88.2022 12.8249L88.2283 12.8468L88.2548 12.8682L90.1348 10.5443ZM114.354 37.3711L116.901 35.7991L116.889 35.7791L116.876 35.7594L114.354 37.3711ZM224.421 382.076L227.365 381.491L227.365 381.491L224.421 382.076ZM225.91 390.647L228.887 390.253L228.887 390.252L225.91 390.647ZM232.545 467.934L229.59 467.364L229.59 467.365L232.545 467.934ZM215.15 501.781L213.083 499.593L213.083 499.594L215.15 501.781ZM205.377 509.267L206.834 511.895L206.906 511.856L206.976 511.813L205.377 509.267ZM183.494 516.738L183.986 519.695L183.991 519.694L183.494 516.738ZM135.734 519.137L135.886 516.147L135.886 516.147L135.734 519.137ZM124.214 518.043L124.551 515.07L124.551 515.07L124.214 518.043ZM-443.632 411.697L-442.112 409.124L-442.113 409.124L-443.632 411.697ZM-461.512 399.524L-463.609 401.654L-463.609 401.655L-461.512 399.524ZM-485.679 363.377L-488.579 364.143L-488.52 364.36L-488.43 364.566L-485.679 363.377ZM-485.827 362.831L-482.927 362.066L-483.002 361.787L-483.13 361.528L-485.827 362.831ZM-486.896 360.658L-489.673 361.785L-489.636 361.875L-489.594 361.962L-486.896 360.658ZM-494.065 309.917L-497.05 309.544L-497.051 309.553L-497.052 309.563L-494.065 309.917ZM-485.318 233.513L-482.351 234.009L-482.348 233.996L-482.346 233.982L-485.318 233.513ZM-468.028 196.201L-465.746 198.165L-465.741 198.159L-468.028 196.201ZM-465.085 192.835L-462.828 194.828L-462.828 194.828L-465.085 192.835ZM-421.407 160.034L-420.064 162.721L-420.064 162.721L-421.407 160.034ZM-150.522 55.5131L-149.523 58.3438L-151.309 52.6183L-150.522 55.5131ZM-149.603 58.37C-136.498 54.2579 -53.0456 26.3437 -39.8285 23.0308L-41.3315 17.2227C-54.7555 20.5874 -138.768 48.6797 -151.443 52.657L-149.603 58.37ZM-39.8282 23.0307C-26.3881 19.6604 -14.3179 16.2981 -1.45592 13.255L-2.88149 7.42807C-15.7479 10.4722 -28.1317 13.9126 -41.3318 17.2227L-39.8282 23.0307ZM-1.46853 13.258C14.9881 9.43922 31.6512 6.555 48.4401 4.61906L47.71 -1.32979C30.6954 0.632155 13.8085 3.55513 -2.86896 7.42508L-1.46853 13.258ZM48.4033 4.62308C52.7104 4.18003 56.9934 3.85756 61.3065 3.64331L60.9675 -2.33782C56.552 -2.11842 52.1629 -1.78811 47.7467 -1.33381L48.4033 4.62308ZM61.2737 3.64477C71.1388 3.26238 80.7583 6.55056 88.2022 12.8249L92.0674 8.26382C83.4526 1.00255 72.3508 -2.77922 61.0003 -2.33928L61.2737 3.64477ZM88.2548 12.8682C97.4798 20.2956 105.436 29.1096 111.831 38.9828L116.876 35.7594C110.13 25.344 101.739 16.0498 92.0148 8.2205L88.2548 12.8682ZM111.806 38.943C139.401 83.0391 165.011 160.05 184.665 230.742C204.286 301.314 217.86 365.16 221.477 382.661L227.365 381.491C223.735 363.929 210.13 299.936 190.458 229.179C170.819 158.541 145.019 80.73 116.901 35.7991L111.806 38.943ZM221.477 382.661C222.056 385.462 222.536 388.217 222.933 391.043L228.887 390.252C228.471 387.294 227.969 384.413 227.365 381.491L221.477 382.661ZM222.933 391.042C224.284 400.682 226.647 416.112 228.322 431.076C229.159 438.552 229.818 445.863 230.092 452.23C230.368 458.654 230.24 463.906 229.59 467.364L235.499 468.504C236.282 464.338 236.377 458.513 236.097 452.013C235.816 445.455 235.141 437.993 234.296 430.451C232.609 415.377 230.223 399.789 228.887 390.253L222.933 391.042ZM229.59 467.365C227.289 479.612 222.012 491.225 213.083 499.593L217.217 503.968C227.298 494.52 233.032 481.639 235.499 468.504L229.59 467.365ZM213.083 499.594C210.243 502.254 207.129 504.645 203.777 506.721L206.976 511.813C210.663 509.529 214.092 506.897 217.217 503.968L213.083 499.594ZM203.919 506.639C197.418 510.187 190.338 512.603 182.997 513.782L183.991 519.694C192.005 518.408 199.734 515.77 206.834 511.895L203.919 506.639ZM183.002 513.781C167.42 516.253 151.62 517.046 135.886 516.147L135.582 522.126C151.747 523.049 167.979 522.235 183.986 519.695L183.002 513.781ZM135.886 516.147C132.127 515.933 128.371 515.524 124.551 515.07L123.878 521.016C127.723 521.473 131.63 521.9 135.582 522.126L135.886 516.147ZM124.551 515.07C97.3199 511.835 -23.6946 497.591 -148.338 477.992C-210.663 468.192 -273.855 457.059 -326.664 445.301C-353.07 439.422 -376.843 433.395 -396.596 427.31C-416.398 421.21 -431.979 415.106 -442.112 409.124L-445.152 414.27C-434.388 420.625 -418.253 426.896 -398.338 433.03C-378.374 439.18 -354.431 445.247 -327.938 451.145C-274.95 462.943 -211.616 474.099 -149.237 483.907C-24.4702 503.526 96.644 517.781 123.878 521.016L124.551 515.07ZM-442.113 409.124C-444.348 407.804 -454.18 402.508 -459.414 397.393L-463.609 401.655C-457.695 407.434 -446.914 413.231 -445.151 414.271L-442.113 409.124ZM-459.414 397.393C-470.486 386.573 -476.631 376.476 -482.928 362.189L-488.43 364.566C-481.915 379.346 -475.379 390.152 -463.609 401.654L-459.414 397.393ZM-482.778 362.612L-482.927 362.066L-488.728 363.597L-488.579 364.143L-482.778 362.612ZM-483.13 361.528L-484.199 359.355L-489.594 361.962L-488.524 364.135L-483.13 361.528ZM-484.119 359.531C-490.578 343.946 -492.971 327.018 -491.078 310.272L-497.052 309.563C-499.059 327.312 -496.522 345.26 -489.673 361.785L-484.119 359.531ZM-491.08 310.29C-487.888 283.56 -483.565 241.511 -482.351 234.009L-488.285 233.017C-489.524 240.668 -493.895 283.134 -497.05 309.544L-491.08 310.29ZM-482.346 233.982C-480.331 220.781 -474.584 208.373 -465.746 198.165L-470.309 194.237C-479.872 205.281 -486.104 218.723 -488.29 233.044L-482.346 233.982ZM-465.741 198.159C-464.779 197.041 -463.808 195.931 -462.828 194.828L-467.341 190.843C-468.342 191.968 -469.333 193.103 -470.315 194.243L-465.741 198.159ZM-462.828 194.828C-450.934 181.434 -436.309 170.698 -420.064 162.721L-422.75 157.346C-439.623 165.631 -454.888 176.819 -467.342 190.843L-462.828 194.828ZM-420.064 162.721C-386.553 146.265 -311.88 114.238 -149.523 58.3438L-151.52 52.6823C-313.96 108.605 -388.907 140.727 -422.75 157.346L-420.064 162.721ZM-151.309 52.6183L-151.311 52.6187L-149.736 58.4082L-149.734 58.4079L-151.309 52.6183Z" fill="url(#paint0_linear_1_5858)" mask="url(#path-1-inside-1_1_5858)"/>
<defs>
<linearGradient id="paint0_linear_1_5858" x1="-507.715" y1="432.47" x2="128.711" y2="-35.6417" gradientUnits="userSpaceOnUse">
<stop stop-color="#F87216"/>
<stop offset="1" stop-color="#F87216" stop-opacity="0.07"/>
</linearGradient>
</defs>
</svg>
