<svg width="246" height="620" viewBox="0 0 246 620" fill="none" xmlns="http://www.w3.org/2000/svg">
<path d="M199.944 284.47C169.59 313.408 100.516 372.736 -54.1215 486.744L-197.266 584.44C-213.611 594.027 -230.491 602.666 -247.823 610.316C-252.297 612.224 -256.785 613.993 -261.34 615.653C-272.169 619.463 -284.015 619.055 -294.495 614.516L-294.51 614.51L-294.526 614.503C-307.035 609.417 -318.643 602.383 -328.92 593.66C-373.332 554.755 -426.51 479.522 -471.081 409.415C-515.622 339.355 -551.453 274.602 -561.167 256.813C-562.739 253.934 -564.19 251.071 -565.576 248.101C-566.607 245.889 -567.788 243.38 -569.077 240.643C-573.594 231.05 -579.428 218.661 -584.717 206.45C-588.116 198.605 -591.279 190.855 -593.718 183.99C-596.166 177.096 -597.847 171.193 -598.335 167.004L-599.586 167.15L-598.335 167.004C-600.002 152.69 -598.229 137.947 -591.253 125.513C-589.058 121.601 -586.471 117.896 -583.519 114.461C-577.627 108.34 -570.719 103.278 -563.103 99.4989C-547.18 91.633 -530.456 85.5287 -513.235 81.2924C-509.094 80.2736 -504.902 79.4718 -500.665 78.705L-498.247 78.267C-463.908 72.0471 -333.126 48.3576 -196.95 29.0525C-127.139 19.1556 -55.9305 10.4141 4.41721 5.76824C34.5916 3.44528 62.0324 2.1478 85.2155 2.23959C108.423 2.33148 127.271 3.81629 140.306 7.01761L140.306 7.01769C140.634 7.0982 141.113 7.20783 141.716 7.34559C145.996 8.32474 156.49 10.7255 163.117 14.1951C178.787 22.4006 188.892 31.4769 200.466 44.9694L200.748 45.4179L200.823 45.5386L200.921 45.6429L202.755 47.6103C215.042 62.6136 223.376 80.4504 227.005 99.5173C229.44 112.762 232.651 129.379 235.577 144.53C239.26 163.595 242.495 180.337 243.172 185.115L243.174 185.129C245.485 200.452 243.446 216.145 237.285 230.43L237.283 230.434C236.626 231.97 235.956 233.502 235.275 235.027L236.586 235.613L235.275 235.028C226.945 253.694 214.775 270.333 199.944 284.47Z" stroke="url(#paint0_linear_1_7315)" stroke-width="3"/>
<defs>
<linearGradient id="paint0_linear_1_7315" x1="202.125" y1="-38.0381" x2="-331.021" y2="670.978" gradientUnits="userSpaceOnUse">
<stop stop-color="#F87216"/>
<stop offset="1" stop-color="#F87216" stop-opacity="0.07"/>
</linearGradient>
</defs>
</svg>
