<svg width="246" height="819" viewBox="0 0 246 819" fill="none" xmlns="http://www.w3.org/2000/svg">
<path d="M482.239 800.809C444.635 782.244 365.187 737.757 204.992 631.7L64.064 530.833C49.4453 518.776 35.5328 505.891 22.394 492.242C19.0651 488.696 15.8622 485.089 12.7379 481.382C5.43941 472.521 1.75308 461.256 2.41507 449.854L2.41607 449.838L2.41666 449.821C2.89533 436.326 5.51405 423.008 10.1747 410.36C31.4538 355.285 83.8386 279.496 134.365 213.553C184.859 147.653 233.36 91.7578 246.729 76.5227C248.893 74.0575 251.083 71.7111 253.397 69.3893C255.12 67.6612 257.07 65.6899 259.197 63.5398C266.655 56.0013 276.285 46.2665 285.936 37.1034C292.136 31.2171 298.327 25.5834 303.937 20.9346C309.569 16.2672 314.536 12.6604 318.303 10.7632L317.736 9.6381L318.303 10.7632C331.172 4.2795 345.628 0.879848 359.701 3.15981C364.129 3.87695 368.497 5.03357 372.737 6.6255C380.51 10.0564 387.637 14.805 393.803 20.6584C406.66 32.91 418.139 46.5189 428.034 61.2369C430.413 64.7758 432.606 68.4367 434.782 72.1522L436.024 74.273C453.663 104.384 520.841 219.068 585.755 340.322C619.034 402.485 651.707 466.355 676.803 521.434C689.351 548.973 699.997 574.298 707.876 596.102C715.763 617.929 720.843 636.139 722.315 649.48L722.315 649.481C722.352 649.816 722.414 650.304 722.491 650.917C723.042 655.273 724.393 665.953 723.411 673.368C721.089 690.904 716.037 703.512 707.342 719.017L707.017 719.436L706.93 719.548L706.865 719.676L705.648 722.074C695.779 738.767 681.891 752.723 665.232 762.681C653.629 769.519 639.127 778.242 625.904 786.196C609.265 796.205 594.653 804.994 590.398 807.271L590.386 807.278C576.789 814.713 561.351 818.189 545.819 817.311L545.815 817.311C544.146 817.221 542.478 817.119 540.811 817.003L540.711 818.436L540.81 817.003C520.419 815.593 500.612 809.88 482.239 800.809Z" stroke="url(#paint0_linear_1_7414)" stroke-width="3"/>
<defs>
<linearGradient id="paint0_linear_1_7414" x1="785.867" y1="692.058" x2="-63.1591" y2="434.949" gradientUnits="userSpaceOnUse">
<stop stop-color="#F87216"/>
<stop offset="1" stop-color="#F87216" stop-opacity="0.07"/>
</linearGradient>
</defs>
</svg>
