<svg width="289" height="634" viewBox="0 0 289 634" fill="none" xmlns="http://www.w3.org/2000/svg">
<path d="M-515.861 354.05C-486.662 323.948 -419.961 261.964 -269.9 141.997L-130.685 38.7774C-114.727 28.5589 -98.1981 19.2663 -81.1783 10.9446C-76.7824 8.86303 -72.3669 6.92026 -67.8802 5.08299C-57.2088 0.852313 -45.3558 0.797077 -34.7064 4.9225L-34.6907 4.92861L-34.6748 4.93436C-21.9762 9.52718 -10.1027 16.1026 0.507785 24.4165C46.4068 61.5551 102.487 134.652 149.765 202.962C197.011 271.227 235.346 334.529 245.749 351.925C247.432 354.74 248.994 357.544 250.495 360.458C251.612 362.628 252.89 365.089 254.285 367.773C259.174 377.182 265.488 389.333 271.251 401.329C274.953 409.035 278.417 416.654 281.122 423.42C283.838 430.212 285.749 436.045 286.4 440.212L287.645 440.017L286.4 440.212C288.626 454.45 287.43 469.251 280.946 481.948C278.906 485.942 276.466 489.746 273.65 493.294C268.002 499.641 261.297 504.968 253.835 509.043C238.232 517.525 221.759 524.279 204.716 529.185C200.618 530.365 196.462 531.33 192.258 532.262L189.858 532.795C155.79 540.352 26.0333 569.138 -109.283 593.753C-178.654 606.372 -249.466 617.891 -309.586 624.893C-339.647 628.394 -367.016 630.764 -390.185 631.579C-413.379 632.394 -432.27 631.648 -445.42 628.959L-445.42 628.959C-445.751 628.891 -446.234 628.8 -446.841 628.686C-451.156 627.875 -461.736 625.886 -468.494 622.679C-484.473 615.092 -494.925 606.418 -507.018 593.388L-507.317 592.951L-507.397 592.833L-507.499 592.733L-509.408 590.839C-522.272 576.327 -531.298 558.83 -535.67 539.92C-538.621 526.78 -542.479 510.301 -545.995 495.277C-550.421 476.371 -554.308 459.767 -555.171 455.019L-555.174 455.006C-558.082 439.785 -556.658 424.024 -551.06 409.509L-551.059 409.505C-550.462 407.945 -549.853 406.388 -549.232 404.837L-550.565 404.303L-549.232 404.836C-541.639 385.858 -530.128 368.757 -515.861 354.05Z" stroke="url(#paint0_linear_87_7797)" stroke-width="3"/>
<defs>
<linearGradient id="paint0_linear_87_7797" x1="-505.43" y1="676.397" x2="-0.415658" y2="-52.9246" gradientUnits="userSpaceOnUse">
<stop stop-color="#F87216"/>
<stop offset="1" stop-color="#F87216" stop-opacity="0.07"/>
</linearGradient>
</defs>
</svg>
