<svg width="263" height="749" viewBox="0 0 263 749" fill="none" xmlns="http://www.w3.org/2000/svg">
<path d="M-512.923 525.423C-499.615 485.653 -466.282 400.918 -382.866 227.851L-301.986 74.5757C-292.017 58.4606 -281.132 42.9333 -269.386 28.0692C-266.323 24.2913 -263.182 20.6299 -259.931 17.0329C-252.139 8.60307 -241.476 3.42699 -230.089 2.54088L-230.073 2.53959L-230.056 2.53789C-216.62 1.18695 -203.07 1.98041 -189.908 4.88758C-132.462 18.5224 -50.2843 60.1754 21.8871 101.319C94.0104 142.436 155.952 182.932 172.855 194.117C175.59 195.928 178.211 197.781 180.825 199.759C182.77 201.232 184.987 202.898 187.405 204.715C195.883 211.084 206.831 219.31 217.215 227.633C223.886 232.979 230.305 238.351 235.67 243.281C241.056 248.231 245.302 252.664 247.691 256.139L248.729 255.425L247.691 256.139C255.856 268.014 261.179 281.876 260.823 296.129C260.712 300.613 260.156 305.097 259.153 309.514C256.805 317.68 253.064 325.383 248.098 332.284C237.698 346.68 225.766 359.894 212.522 371.689C209.337 374.525 206.007 377.193 202.62 379.851L200.686 381.369C173.237 402.918 68.6933 484.99 -42.6676 565.707C-99.7577 607.087 -158.622 648.099 -209.801 680.413C-235.39 696.571 -259.042 710.544 -279.58 721.299C-300.14 732.066 -317.496 739.563 -330.515 742.825L-330.515 742.826C-330.843 742.908 -331.318 743.035 -331.915 743.194C-336.156 744.329 -346.555 747.112 -354.036 747.142C-371.725 747.213 -384.9 743.912 -401.438 737.394L-401.897 737.13L-402.02 737.058L-402.155 737.012L-404.696 736.13C-422.571 728.609 -438.276 716.736 -450.396 701.577C-458.74 691.006 -469.345 677.816 -479.014 665.791C-491.181 650.658 -501.866 637.369 -504.698 633.461L-504.706 633.451C-513.912 620.984 -519.444 606.158 -520.674 590.65L-520.675 590.646C-520.812 588.981 -520.936 587.313 -521.047 585.646L-522.48 585.741L-521.047 585.646C-522.408 565.251 -519.426 544.853 -512.923 525.423Z" stroke="url(#paint0_linear_1_7559)" stroke-width="3"/>
<defs>
<linearGradient id="paint0_linear_1_7559" x1="-364.106" y1="811.552" x2="-224.19" y2="-64.4467" gradientUnits="userSpaceOnUse">
<stop stop-color="#F87216"/>
<stop offset="1" stop-color="#F87216" stop-opacity="0.07"/>
</linearGradient>
</defs>
</svg>
